<svg width="702" height="703" viewBox="0 0 702 703" fill="none" xmlns="http://www.w3.org/2000/svg">
<ellipse cx="351.5" cy="324" rx="259.5" ry="260" fill="url(#paint0_linear_502_23120)"/>
<path d="M118.488 184.212L91.8077 138C83.5923 142.743 70.8106 156.969 65.4467 163.489C107.027 170.29 118.488 184.212 118.488 184.212Z" fill="#45D3DD"/>
<path fill-rule="evenodd" clip-rule="evenodd" d="M627.301 453.34L627.105 453L589 475L611 513.105L611.34 512.909C607.862 491.737 613.704 469.936 627.301 453.34Z" fill="#00B2FF"/>
<g filter="url(#filter0_d_502_23120)">
<circle cx="351" cy="324" r="92" fill="white"/>
</g>
<path d="M311.086 332V314.938H313.125V322.344H321.609V314.938H323.648V332H321.609V324.043H313.125V332H311.086ZM326.461 326.199V325.824C326.461 324.02 326.965 322.551 327.973 321.418C328.988 320.277 330.344 319.707 332.039 319.707C333.734 319.707 335.086 320.277 336.094 321.418C337.109 322.551 337.617 324.02 337.617 325.824V326.199C337.617 328.012 337.109 329.488 336.094 330.629C335.086 331.762 333.734 332.328 332.039 332.328C330.344 332.328 328.988 331.762 327.973 330.629C326.965 329.488 326.461 328.012 326.461 326.199ZM328.477 325.824V326.199C328.477 327.473 328.773 328.539 329.367 329.398C329.969 330.258 330.859 330.688 332.039 330.688C333.211 330.688 334.098 330.258 334.699 329.398C335.301 328.539 335.602 327.473 335.602 326.199V325.824C335.602 324.559 335.301 323.496 334.699 322.637C334.098 321.777 333.211 321.348 332.039 321.348C330.859 321.348 329.969 321.777 329.367 322.637C328.773 323.496 328.477 324.559 328.477 325.824ZM340.195 332V320.035H342L342.07 321.617H342.129C342.551 321.047 343.078 320.602 343.711 320.281C344.344 319.961 345.047 319.801 345.82 319.801C347.016 319.801 347.965 320.141 348.668 320.82C349.379 321.5 349.734 322.637 349.734 324.23V332H347.766V324.242C347.766 323.25 347.543 322.543 347.098 322.121C346.66 321.691 346.039 321.477 345.234 321.477C344.547 321.477 343.938 321.668 343.406 322.051C342.875 322.426 342.465 322.91 342.176 323.504V332H340.195ZM352.219 326.199V325.824C352.219 324.02 352.707 322.551 353.684 321.418C354.66 320.277 355.949 319.707 357.551 319.707C359.16 319.707 360.398 320.238 361.266 321.301C362.133 322.355 362.566 323.797 362.566 325.625V326.434H353.402V324.84H360.574V324.605C360.574 323.715 360.328 322.949 359.836 322.309C359.344 321.668 358.609 321.348 357.633 321.348C356.492 321.348 355.637 321.777 355.066 322.637C354.504 323.488 354.223 324.551 354.223 325.824V326.199C354.223 327.48 354.52 328.551 355.113 329.41C355.715 330.262 356.629 330.688 357.855 330.688C358.629 330.688 359.293 330.523 359.848 330.195C360.402 329.859 360.848 329.457 361.184 328.988L362.473 330.031C362.105 330.594 361.531 331.117 360.75 331.602C359.969 332.086 359.008 332.328 357.867 332.328C356.047 332.328 354.648 331.762 353.672 330.629C352.703 329.488 352.219 328.012 352.219 326.199ZM364.395 328.438H366.363V328.543C366.363 329.27 366.617 329.809 367.125 330.16C367.641 330.512 368.328 330.688 369.188 330.688C370.039 330.688 370.711 330.52 371.203 330.184C371.695 329.848 371.941 329.395 371.941 328.824C371.941 328.27 371.738 327.848 371.332 327.559C370.926 327.262 370.082 326.957 368.801 326.645C367.52 326.332 366.512 325.906 365.777 325.367C365.051 324.828 364.688 324.066 364.688 323.082C364.688 322.105 365.086 321.301 365.883 320.668C366.688 320.027 367.758 319.707 369.094 319.707C370.438 319.707 371.516 320.027 372.328 320.668C373.148 321.301 373.559 322.176 373.559 323.293V323.387H371.602V323.258C371.602 322.633 371.395 322.16 370.98 321.84C370.566 321.512 369.938 321.348 369.094 321.348C368.258 321.348 367.641 321.5 367.242 321.805C366.844 322.109 366.645 322.504 366.645 322.988C366.645 323.465 366.863 323.844 367.301 324.125C367.746 324.398 368.605 324.691 369.879 325.004C371.152 325.316 372.137 325.75 372.832 326.305C373.535 326.859 373.887 327.66 373.887 328.707C373.887 329.77 373.496 330.641 372.715 331.32C371.934 331.992 370.758 332.328 369.188 332.328C367.625 332.328 366.434 331.988 365.613 331.309C364.801 330.621 364.395 329.699 364.395 328.543V328.438ZM374.836 321.582V320.035H381.586V321.582H374.836ZM376.969 328.977V320.926V320.621V316.73H378.938V328.977C378.938 329.594 379.051 330.023 379.277 330.266C379.504 330.5 379.855 330.617 380.332 330.617C380.543 330.617 380.746 330.598 380.941 330.559C381.145 330.512 381.352 330.449 381.562 330.371V332.012C381.367 332.098 381.117 332.172 380.812 332.234C380.516 332.297 380.188 332.328 379.828 332.328C378.953 332.328 378.258 332.066 377.742 331.543C377.227 331.012 376.969 330.156 376.969 328.977ZM382.617 336.875V335.188C382.82 335.258 383.039 335.309 383.273 335.34C383.516 335.379 383.754 335.398 383.988 335.398C384.527 335.398 384.996 335.168 385.395 334.707C385.793 334.254 386.219 333.344 386.672 331.977L382.184 320.035H384.117L387.047 328.109C387.156 328.414 387.25 328.695 387.328 328.953C387.414 329.211 387.488 329.457 387.551 329.691H387.621C387.684 329.457 387.758 329.211 387.844 328.953C387.93 328.695 388.023 328.414 388.125 328.109L390.914 320.035H392.801L387.855 333.641C387.449 334.758 386.945 335.613 386.344 336.207C385.75 336.809 385.004 337.109 384.105 337.109C383.793 337.109 383.52 337.09 383.285 337.051C383.051 337.012 382.828 336.953 382.617 336.875Z" fill="#0067FF"/>
<g filter="url(#filter1_d_502_23120)">
<circle cx="147" cy="324" r="92" fill="white"/>
</g>
<path d="M122.281 316.637V314.938H135.008V316.637H129.664V332H127.637V316.637H122.281ZM135.406 332V320.035H137.211L137.281 321.594H137.34C137.652 321.086 138.059 320.645 138.559 320.27C139.066 319.895 139.672 319.707 140.375 319.707C140.539 319.707 140.715 319.727 140.902 319.766C141.09 319.797 141.223 319.828 141.301 319.859V321.688C141.152 321.656 140.988 321.633 140.809 321.617C140.637 321.602 140.449 321.594 140.246 321.594C139.574 321.594 138.988 321.777 138.488 322.145C137.996 322.512 137.629 322.977 137.387 323.539V332H135.406ZM143.094 327.793V320.035H145.074V327.816C145.074 328.809 145.293 329.516 145.73 329.938C146.168 330.352 146.789 330.559 147.594 330.559C148.289 330.559 148.898 330.371 149.422 329.996C149.945 329.613 150.359 329.121 150.664 328.52V320.035H152.633V332H150.84L150.758 330.406H150.711C150.281 330.977 149.75 331.426 149.117 331.754C148.484 332.074 147.781 332.234 147.008 332.234C145.812 332.234 144.859 331.895 144.148 331.215C143.445 330.535 143.094 329.395 143.094 327.793ZM155.27 328.438H157.238V328.543C157.238 329.27 157.492 329.809 158 330.16C158.516 330.512 159.203 330.688 160.062 330.688C160.914 330.688 161.586 330.52 162.078 330.184C162.57 329.848 162.816 329.395 162.816 328.824C162.816 328.27 162.613 327.848 162.207 327.559C161.801 327.262 160.957 326.957 159.676 326.645C158.395 326.332 157.387 325.906 156.652 325.367C155.926 324.828 155.562 324.066 155.562 323.082C155.562 322.105 155.961 321.301 156.758 320.668C157.562 320.027 158.633 319.707 159.969 319.707C161.312 319.707 162.391 320.027 163.203 320.668C164.023 321.301 164.434 322.176 164.434 323.293V323.387H162.477V323.258C162.477 322.633 162.27 322.16 161.855 321.84C161.441 321.512 160.812 321.348 159.969 321.348C159.133 321.348 158.516 321.5 158.117 321.805C157.719 322.109 157.52 322.504 157.52 322.988C157.52 323.465 157.738 323.844 158.176 324.125C158.621 324.398 159.48 324.691 160.754 325.004C162.027 325.316 163.012 325.75 163.707 326.305C164.41 326.859 164.762 327.66 164.762 328.707C164.762 329.77 164.371 330.641 163.59 331.32C162.809 331.992 161.633 332.328 160.062 332.328C158.5 332.328 157.309 331.988 156.488 331.309C155.676 330.621 155.27 329.699 155.27 328.543V328.438ZM165.711 321.582V320.035H172.461V321.582H165.711ZM167.844 328.977V320.926V320.621V316.73H169.812V328.977C169.812 329.594 169.926 330.023 170.152 330.266C170.379 330.5 170.73 330.617 171.207 330.617C171.418 330.617 171.621 330.598 171.816 330.559C172.02 330.512 172.227 330.449 172.438 330.371V332.012C172.242 332.098 171.992 332.172 171.688 332.234C171.391 332.297 171.062 332.328 170.703 332.328C169.828 332.328 169.133 332.066 168.617 331.543C168.102 331.012 167.844 330.156 167.844 328.977Z" fill="#0067FF"/>
<g filter="url(#filter2_d_502_23120)">
<circle cx="249" cy="528" r="92" fill="white"/>
</g>
<path d="M210.219 536V518.938H212.258V536H210.219ZM215.867 536V524.035H217.672L217.742 525.617H217.801C218.223 525.047 218.75 524.602 219.383 524.281C220.016 523.961 220.719 523.801 221.492 523.801C222.688 523.801 223.637 524.141 224.34 524.82C225.051 525.5 225.406 526.637 225.406 528.23V536H223.438V528.242C223.438 527.25 223.215 526.543 222.77 526.121C222.332 525.691 221.711 525.477 220.906 525.477C220.219 525.477 219.609 525.668 219.078 526.051C218.547 526.426 218.137 526.91 217.848 527.504V536H215.867ZM226.977 525.582V524.035H233.727V525.582H226.977ZM229.109 532.977V524.926V524.621V520.73H231.078V532.977C231.078 533.594 231.191 534.023 231.418 534.266C231.645 534.5 231.996 534.617 232.473 534.617C232.684 534.617 232.887 534.598 233.082 534.559C233.285 534.512 233.492 534.449 233.703 534.371V536.012C233.508 536.098 233.258 536.172 232.953 536.234C232.656 536.297 232.328 536.328 231.969 536.328C231.094 536.328 230.398 536.066 229.883 535.543C229.367 535.012 229.109 534.156 229.109 532.977ZM235.156 530.199V529.824C235.156 528.02 235.645 526.551 236.621 525.418C237.598 524.277 238.887 523.707 240.488 523.707C242.098 523.707 243.336 524.238 244.203 525.301C245.07 526.355 245.504 527.797 245.504 529.625V530.434H236.34V528.84H243.512V528.605C243.512 527.715 243.266 526.949 242.773 526.309C242.281 525.668 241.547 525.348 240.57 525.348C239.43 525.348 238.574 525.777 238.004 526.637C237.441 527.488 237.16 528.551 237.16 529.824V530.199C237.16 531.48 237.457 532.551 238.051 533.41C238.652 534.262 239.566 534.688 240.793 534.688C241.566 534.688 242.23 534.523 242.785 534.195C243.34 533.859 243.785 533.457 244.121 532.988L245.41 534.031C245.043 534.594 244.469 535.117 243.688 535.602C242.906 536.086 241.945 536.328 240.805 536.328C238.984 536.328 237.586 535.762 236.609 534.629C235.641 533.488 235.156 532.012 235.156 530.199ZM247.754 539.422L248.961 537.922C249.305 538.297 249.781 538.629 250.391 538.918C251.008 539.215 251.707 539.363 252.488 539.363C253.504 539.363 254.316 539.055 254.926 538.438C255.535 537.828 255.84 536.93 255.84 535.742V534.535C255.48 535.035 255 535.441 254.398 535.754C253.805 536.059 253.086 536.211 252.242 536.211C250.734 536.211 249.531 535.645 248.633 534.512C247.742 533.379 247.297 531.941 247.297 530.199V529.824C247.297 528.082 247.742 526.645 248.633 525.512C249.531 524.371 250.738 523.801 252.254 523.801C253.09 523.801 253.824 523.977 254.457 524.328C255.098 524.672 255.574 525.098 255.887 525.605H255.945L256.016 524.035H257.82V535.742C257.82 537.477 257.332 538.801 256.355 539.715C255.379 540.637 254.098 541.098 252.512 541.098C251.543 541.098 250.648 540.938 249.828 540.617C249.008 540.305 248.316 539.906 247.754 539.422ZM249.301 530.199C249.301 531.449 249.574 532.492 250.121 533.328C250.668 534.156 251.523 534.57 252.688 534.57C253.461 534.57 254.121 534.359 254.668 533.938C255.215 533.516 255.605 533.031 255.84 532.484V527.527C255.598 526.98 255.203 526.496 254.656 526.074C254.117 525.652 253.461 525.441 252.688 525.441C251.523 525.441 250.668 525.859 250.121 526.695C249.574 527.531 249.301 528.574 249.301 529.824V530.199ZM261.125 536V524.035H262.93L263 525.594H263.059C263.371 525.086 263.777 524.645 264.277 524.27C264.785 523.895 265.391 523.707 266.094 523.707C266.258 523.707 266.434 523.727 266.621 523.766C266.809 523.797 266.941 523.828 267.02 523.859V525.688C266.871 525.656 266.707 525.633 266.527 525.617C266.355 525.602 266.168 525.594 265.965 525.594C265.293 525.594 264.707 525.777 264.207 526.145C263.715 526.512 263.348 526.977 263.105 527.539V536H261.125ZM269.035 536V524.035H271.004V536H269.035ZM268.766 520.227C268.766 519.883 268.871 519.598 269.082 519.371C269.301 519.137 269.613 519.02 270.02 519.02C270.418 519.02 270.727 519.137 270.945 519.371C271.164 519.598 271.273 519.883 271.273 520.227C271.273 520.57 271.164 520.859 270.945 521.094C270.727 521.328 270.418 521.445 270.02 521.445C269.613 521.445 269.301 521.328 269.082 521.094C268.871 520.859 268.766 520.57 268.766 520.227ZM272.773 525.582V524.035H279.523V525.582H272.773ZM274.906 532.977V524.926V524.621V520.73H276.875V532.977C276.875 533.594 276.988 534.023 277.215 534.266C277.441 534.5 277.793 534.617 278.27 534.617C278.48 534.617 278.684 534.598 278.879 534.559C279.082 534.512 279.289 534.449 279.5 534.371V536.012C279.305 536.098 279.055 536.172 278.75 536.234C278.453 536.297 278.125 536.328 277.766 536.328C276.891 536.328 276.195 536.066 275.68 535.543C275.164 535.012 274.906 534.156 274.906 532.977ZM280.555 540.875V539.188C280.758 539.258 280.977 539.309 281.211 539.34C281.453 539.379 281.691 539.398 281.926 539.398C282.465 539.398 282.934 539.168 283.332 538.707C283.73 538.254 284.156 537.344 284.609 535.977L280.121 524.035H282.055L284.984 532.109C285.094 532.414 285.188 532.695 285.266 532.953C285.352 533.211 285.426 533.457 285.488 533.691H285.559C285.621 533.457 285.695 533.211 285.781 532.953C285.867 532.695 285.961 532.414 286.062 532.109L288.852 524.035H290.738L285.793 537.641C285.387 538.758 284.883 539.613 284.281 540.207C283.688 540.809 282.941 541.109 282.043 541.109C281.73 541.109 281.457 541.09 281.223 541.051C280.988 541.012 280.766 540.953 280.555 540.875Z" fill="#0067FF"/>
<g filter="url(#filter3_d_502_23120)">
<circle cx="453" cy="528" r="92" fill="white"/>
</g>
<path d="M400.379 536V518.938H405.652C407.418 518.938 408.77 519.395 409.707 520.309C410.652 521.215 411.125 522.414 411.125 523.906C411.125 525.406 410.652 526.625 409.707 527.562C408.77 528.492 407.418 528.957 405.652 528.957H402.418V536H400.379ZM402.418 527.281H405.652C406.934 527.281 407.828 526.957 408.336 526.309C408.844 525.66 409.098 524.863 409.098 523.918C409.098 522.965 408.844 522.176 408.336 521.551C407.828 520.926 406.934 520.613 405.652 520.613H402.418V527.281ZM409.707 536L405.547 528.113L407.586 527.832L411.98 536H409.707ZM413.293 530.199V529.824C413.293 528.02 413.781 526.551 414.758 525.418C415.734 524.277 417.023 523.707 418.625 523.707C420.234 523.707 421.473 524.238 422.34 525.301C423.207 526.355 423.641 527.797 423.641 529.625V530.434H414.477V528.84H421.648V528.605C421.648 527.715 421.402 526.949 420.91 526.309C420.418 525.668 419.684 525.348 418.707 525.348C417.566 525.348 416.711 525.777 416.141 526.637C415.578 527.488 415.297 528.551 415.297 529.824V530.199C415.297 531.48 415.594 532.551 416.188 533.41C416.789 534.262 417.703 534.688 418.93 534.688C419.703 534.688 420.367 534.523 420.922 534.195C421.477 533.859 421.922 533.457 422.258 532.988L423.547 534.031C423.18 534.594 422.605 535.117 421.824 535.602C421.043 536.086 420.082 536.328 418.941 536.328C417.121 536.328 415.723 535.762 414.746 534.629C413.777 533.488 413.293 532.012 413.293 530.199ZM426.16 540.945V524.035H427.965L428.035 525.629H428.094C428.398 525.121 428.871 524.691 429.512 524.34C430.152 523.98 430.895 523.801 431.738 523.801C433.254 523.801 434.457 524.363 435.348 525.488C436.238 526.613 436.684 528.055 436.684 529.812V530.188C436.684 531.961 436.238 533.414 435.348 534.547C434.457 535.672 433.254 536.234 431.738 536.234C430.895 536.234 430.172 536.082 429.57 535.777C428.977 535.465 428.5 535.059 428.141 534.559V540.945H426.16ZM428.141 532.496C428.383 533.043 428.773 533.531 429.312 533.961C429.859 534.383 430.52 534.594 431.293 534.594C432.457 534.594 433.309 534.172 433.848 533.328C434.395 532.484 434.668 531.438 434.668 530.188V529.812C434.668 528.562 434.395 527.523 433.848 526.695C433.309 525.859 432.457 525.441 431.293 525.441C430.52 525.441 429.859 525.656 429.312 526.086C428.773 526.508 428.383 526.988 428.141 527.527V532.496ZM439.145 531.793V524.035H441.125V531.816C441.125 532.809 441.344 533.516 441.781 533.938C442.219 534.352 442.84 534.559 443.645 534.559C444.34 534.559 444.949 534.371 445.473 533.996C445.996 533.613 446.41 533.121 446.715 532.52V524.035H448.684V536H446.891L446.809 534.406H446.762C446.332 534.977 445.801 535.426 445.168 535.754C444.535 536.074 443.832 536.234 443.059 536.234C441.863 536.234 440.91 535.895 440.199 535.215C439.496 534.535 439.145 533.395 439.145 531.793ZM450.371 525.582V524.035H457.121V525.582H450.371ZM452.504 532.977V524.926V524.621V520.73H454.473V532.977C454.473 533.594 454.586 534.023 454.812 534.266C455.039 534.5 455.391 534.617 455.867 534.617C456.078 534.617 456.281 534.598 456.477 534.559C456.68 534.512 456.887 534.449 457.098 534.371V536.012C456.902 536.098 456.652 536.172 456.348 536.234C456.051 536.297 455.723 536.328 455.363 536.328C454.488 536.328 453.793 536.066 453.277 535.543C452.762 535.012 452.504 534.156 452.504 532.977ZM458.598 532.508C458.598 531.305 459.07 530.363 460.016 529.684C460.969 529.004 462.191 528.664 463.684 528.664H466.426V527.762C466.426 527.02 466.23 526.426 465.84 525.98C465.457 525.535 464.805 525.312 463.883 525.312C462.969 525.312 462.301 525.5 461.879 525.875C461.465 526.242 461.258 526.695 461.258 527.234V527.34H459.289V527.199C459.289 526.254 459.707 525.438 460.543 524.75C461.379 524.055 462.508 523.707 463.93 523.707C465.344 523.707 466.441 524.043 467.223 524.715C468.004 525.379 468.395 526.395 468.395 527.762V533.188C468.395 533.695 468.434 534.176 468.512 534.629C468.59 535.074 468.699 535.469 468.84 535.812V536H466.941C466.832 535.805 466.73 535.551 466.637 535.238C466.551 534.926 466.496 534.613 466.473 534.301C466.191 534.801 465.73 535.246 465.09 535.637C464.457 536.02 463.645 536.211 462.652 536.211C461.504 536.211 460.539 535.895 459.758 535.262C458.984 534.621 458.598 533.703 458.598 532.508ZM460.578 532.402C460.578 533.105 460.781 533.652 461.188 534.043C461.594 534.426 462.219 534.617 463.062 534.617C463.914 534.617 464.688 534.324 465.383 533.738C466.078 533.145 466.426 532.512 466.426 531.84V530.105H463.918C462.809 530.105 461.973 530.312 461.41 530.727C460.855 531.141 460.578 531.699 460.578 532.402ZM470.012 525.582V524.035H476.762V525.582H470.012ZM472.145 532.977V524.926V524.621V520.73H474.113V532.977C474.113 533.594 474.227 534.023 474.453 534.266C474.68 534.5 475.031 534.617 475.508 534.617C475.719 534.617 475.922 534.598 476.117 534.559C476.32 534.512 476.527 534.449 476.738 534.371V536.012C476.543 536.098 476.293 536.172 475.988 536.234C475.691 536.297 475.363 536.328 475.004 536.328C474.129 536.328 473.434 536.066 472.918 535.543C472.402 535.012 472.145 534.156 472.145 532.977ZM479.023 536V524.035H480.992V536H479.023ZM478.754 520.227C478.754 519.883 478.859 519.598 479.07 519.371C479.289 519.137 479.602 519.02 480.008 519.02C480.406 519.02 480.715 519.137 480.934 519.371C481.152 519.598 481.262 519.883 481.262 520.227C481.262 520.57 481.152 520.859 480.934 521.094C480.715 521.328 480.406 521.445 480.008 521.445C479.602 521.445 479.289 521.328 479.07 521.094C478.859 520.859 478.754 520.57 478.754 520.227ZM483.676 530.199V529.824C483.676 528.02 484.18 526.551 485.188 525.418C486.203 524.277 487.559 523.707 489.254 523.707C490.949 523.707 492.301 524.277 493.309 525.418C494.324 526.551 494.832 528.02 494.832 529.824V530.199C494.832 532.012 494.324 533.488 493.309 534.629C492.301 535.762 490.949 536.328 489.254 536.328C487.559 536.328 486.203 535.762 485.188 534.629C484.18 533.488 483.676 532.012 483.676 530.199ZM485.691 529.824V530.199C485.691 531.473 485.988 532.539 486.582 533.398C487.184 534.258 488.074 534.688 489.254 534.688C490.426 534.688 491.312 534.258 491.914 533.398C492.516 532.539 492.816 531.473 492.816 530.199V529.824C492.816 528.559 492.516 527.496 491.914 526.637C491.312 525.777 490.426 525.348 489.254 525.348C488.074 525.348 487.184 525.777 486.582 526.637C485.988 527.496 485.691 528.559 485.691 529.824ZM497.41 536V524.035H499.215L499.285 525.617H499.344C499.766 525.047 500.293 524.602 500.926 524.281C501.559 523.961 502.262 523.801 503.035 523.801C504.23 523.801 505.18 524.141 505.883 524.82C506.594 525.5 506.949 526.637 506.949 528.23V536H504.98V528.242C504.98 527.25 504.758 526.543 504.312 526.121C503.875 525.691 503.254 525.477 502.449 525.477C501.762 525.477 501.152 525.668 500.621 526.051C500.09 526.426 499.68 526.91 499.391 527.504V536H497.41Z" fill="#0067FF"/>
<g filter="url(#filter4_d_502_23120)">
<circle cx="249" cy="120" r="92" fill="white"/>
</g>
<path d="M189.348 112.637V110.938H202.074V112.637H196.73V128H194.703V112.637H189.348ZM202.473 128V116.035H204.277L204.348 117.594H204.406C204.719 117.086 205.125 116.645 205.625 116.27C206.133 115.895 206.738 115.707 207.441 115.707C207.605 115.707 207.781 115.727 207.969 115.766C208.156 115.797 208.289 115.828 208.367 115.859V117.688C208.219 117.656 208.055 117.633 207.875 117.617C207.703 117.602 207.516 117.594 207.312 117.594C206.641 117.594 206.055 117.777 205.555 118.145C205.062 118.512 204.695 118.977 204.453 119.539V128H202.473ZM209.152 124.508C209.152 123.305 209.625 122.363 210.57 121.684C211.523 121.004 212.746 120.664 214.238 120.664H216.98V119.762C216.98 119.02 216.785 118.426 216.395 117.98C216.012 117.535 215.359 117.312 214.438 117.312C213.523 117.312 212.855 117.5 212.434 117.875C212.02 118.242 211.812 118.695 211.812 119.234V119.34H209.844V119.199C209.844 118.254 210.262 117.438 211.098 116.75C211.934 116.055 213.062 115.707 214.484 115.707C215.898 115.707 216.996 116.043 217.777 116.715C218.559 117.379 218.949 118.395 218.949 119.762V125.188C218.949 125.695 218.988 126.176 219.066 126.629C219.145 127.074 219.254 127.469 219.395 127.812V128H217.496C217.387 127.805 217.285 127.551 217.191 127.238C217.105 126.926 217.051 126.613 217.027 126.301C216.746 126.801 216.285 127.246 215.645 127.637C215.012 128.02 214.199 128.211 213.207 128.211C212.059 128.211 211.094 127.895 210.312 127.262C209.539 126.621 209.152 125.703 209.152 124.508ZM211.133 124.402C211.133 125.105 211.336 125.652 211.742 126.043C212.148 126.426 212.773 126.617 213.617 126.617C214.469 126.617 215.242 126.324 215.938 125.738C216.633 125.145 216.98 124.512 216.98 123.84V122.105H214.473C213.363 122.105 212.527 122.312 211.965 122.727C211.41 123.141 211.133 123.699 211.133 124.402ZM222.207 128V116.035H224.012L224.082 117.617H224.141C224.562 117.047 225.09 116.602 225.723 116.281C226.355 115.961 227.059 115.801 227.832 115.801C229.027 115.801 229.977 116.141 230.68 116.82C231.391 117.5 231.746 118.637 231.746 120.23V128H229.777V120.242C229.777 119.25 229.555 118.543 229.109 118.121C228.672 117.691 228.051 117.477 227.246 117.477C226.559 117.477 225.949 117.668 225.418 118.051C224.887 118.426 224.477 118.91 224.188 119.504V128H222.207ZM234.266 124.438H236.234V124.543C236.234 125.27 236.488 125.809 236.996 126.16C237.512 126.512 238.199 126.688 239.059 126.688C239.91 126.688 240.582 126.52 241.074 126.184C241.566 125.848 241.812 125.395 241.812 124.824C241.812 124.27 241.609 123.848 241.203 123.559C240.797 123.262 239.953 122.957 238.672 122.645C237.391 122.332 236.383 121.906 235.648 121.367C234.922 120.828 234.559 120.066 234.559 119.082C234.559 118.105 234.957 117.301 235.754 116.668C236.559 116.027 237.629 115.707 238.965 115.707C240.309 115.707 241.387 116.027 242.199 116.668C243.02 117.301 243.43 118.176 243.43 119.293V119.387H241.473V119.258C241.473 118.633 241.266 118.16 240.852 117.84C240.438 117.512 239.809 117.348 238.965 117.348C238.129 117.348 237.512 117.5 237.113 117.805C236.715 118.109 236.516 118.504 236.516 118.988C236.516 119.465 236.734 119.844 237.172 120.125C237.617 120.398 238.477 120.691 239.75 121.004C241.023 121.316 242.008 121.75 242.703 122.305C243.406 122.859 243.758 123.66 243.758 124.707C243.758 125.77 243.367 126.641 242.586 127.32C241.805 127.992 240.629 128.328 239.059 128.328C237.496 128.328 236.305 127.988 235.484 127.309C234.672 126.621 234.266 125.699 234.266 124.543V124.438ZM246.348 132.945V116.035H248.152L248.223 117.629H248.281C248.586 117.121 249.059 116.691 249.699 116.34C250.34 115.98 251.082 115.801 251.926 115.801C253.441 115.801 254.645 116.363 255.535 117.488C256.426 118.613 256.871 120.055 256.871 121.812V122.188C256.871 123.961 256.426 125.414 255.535 126.547C254.645 127.672 253.441 128.234 251.926 128.234C251.082 128.234 250.359 128.082 249.758 127.777C249.164 127.465 248.688 127.059 248.328 126.559V132.945H246.348ZM248.328 124.496C248.57 125.043 248.961 125.531 249.5 125.961C250.047 126.383 250.707 126.594 251.48 126.594C252.645 126.594 253.496 126.172 254.035 125.328C254.582 124.484 254.855 123.438 254.855 122.188V121.812C254.855 120.562 254.582 119.523 254.035 118.695C253.496 117.859 252.645 117.441 251.48 117.441C250.707 117.441 250.047 117.656 249.5 118.086C248.961 118.508 248.57 118.988 248.328 119.527V124.496ZM258.77 124.508C258.77 123.305 259.242 122.363 260.188 121.684C261.141 121.004 262.363 120.664 263.855 120.664H266.598V119.762C266.598 119.02 266.402 118.426 266.012 117.98C265.629 117.535 264.977 117.312 264.055 117.312C263.141 117.312 262.473 117.5 262.051 117.875C261.637 118.242 261.43 118.695 261.43 119.234V119.34H259.461V119.199C259.461 118.254 259.879 117.438 260.715 116.75C261.551 116.055 262.68 115.707 264.102 115.707C265.516 115.707 266.613 116.043 267.395 116.715C268.176 117.379 268.566 118.395 268.566 119.762V125.188C268.566 125.695 268.605 126.176 268.684 126.629C268.762 127.074 268.871 127.469 269.012 127.812V128H267.113C267.004 127.805 266.902 127.551 266.809 127.238C266.723 126.926 266.668 126.613 266.645 126.301C266.363 126.801 265.902 127.246 265.262 127.637C264.629 128.02 263.816 128.211 262.824 128.211C261.676 128.211 260.711 127.895 259.93 127.262C259.156 126.621 258.77 125.703 258.77 124.508ZM260.75 124.402C260.75 125.105 260.953 125.652 261.359 126.043C261.766 126.426 262.391 126.617 263.234 126.617C264.086 126.617 264.859 126.324 265.555 125.738C266.25 125.145 266.598 124.512 266.598 123.84V122.105H264.09C262.98 122.105 262.145 122.312 261.582 122.727C261.027 123.141 260.75 123.699 260.75 124.402ZM271.824 128V116.035H273.629L273.699 117.594H273.758C274.07 117.086 274.477 116.645 274.977 116.27C275.484 115.895 276.09 115.707 276.793 115.707C276.957 115.707 277.133 115.727 277.32 115.766C277.508 115.797 277.641 115.828 277.719 115.859V117.688C277.57 117.656 277.406 117.633 277.227 117.617C277.055 117.602 276.867 117.594 276.664 117.594C275.992 117.594 275.406 117.777 274.906 118.145C274.414 118.512 274.047 118.977 273.805 119.539V128H271.824ZM278.668 122.199V121.824C278.668 120.02 279.156 118.551 280.133 117.418C281.109 116.277 282.398 115.707 284 115.707C285.609 115.707 286.848 116.238 287.715 117.301C288.582 118.355 289.016 119.797 289.016 121.625V122.434H279.852V120.84H287.023V120.605C287.023 119.715 286.777 118.949 286.285 118.309C285.793 117.668 285.059 117.348 284.082 117.348C282.941 117.348 282.086 117.777 281.516 118.637C280.953 119.488 280.672 120.551 280.672 121.824V122.199C280.672 123.48 280.969 124.551 281.562 125.41C282.164 126.262 283.078 126.688 284.305 126.688C285.078 126.688 285.742 126.523 286.297 126.195C286.852 125.859 287.297 125.457 287.633 124.988L288.922 126.031C288.555 126.594 287.98 127.117 287.199 127.602C286.418 128.086 285.457 128.328 284.316 128.328C282.496 128.328 281.098 127.762 280.121 126.629C279.152 125.488 278.668 124.012 278.668 122.199ZM291.535 128V116.035H293.34L293.41 117.617H293.469C293.891 117.047 294.418 116.602 295.051 116.281C295.684 115.961 296.387 115.801 297.16 115.801C298.355 115.801 299.305 116.141 300.008 116.82C300.719 117.5 301.074 118.637 301.074 120.23V128H299.105V120.242C299.105 119.25 298.883 118.543 298.438 118.121C298 117.691 297.379 117.477 296.574 117.477C295.887 117.477 295.277 117.668 294.746 118.051C294.215 118.426 293.805 118.91 293.516 119.504V128H291.535ZM302.645 117.582V116.035H309.395V117.582H302.645ZM304.777 124.977V116.926V116.621V112.73H306.746V124.977C306.746 125.594 306.859 126.023 307.086 126.266C307.312 126.5 307.664 126.617 308.141 126.617C308.352 126.617 308.555 126.598 308.75 126.559C308.953 126.512 309.16 126.449 309.371 126.371V128.012C309.176 128.098 308.926 128.172 308.621 128.234C308.324 128.297 307.996 128.328 307.637 128.328C306.762 128.328 306.066 128.066 305.551 127.543C305.035 127.012 304.777 126.156 304.777 124.977Z" fill="#0067FF"/>
<g filter="url(#filter5_d_502_23120)">
<circle cx="453" cy="120" r="92" fill="white"/>
</g>
<path d="M388.461 119.984V118.953C388.461 116.258 389.105 114.195 390.395 112.766C391.684 111.328 393.309 110.609 395.27 110.609C397.238 110.609 398.77 111.148 399.863 112.227C400.957 113.305 401.504 114.645 401.504 116.246V116.41H399.453V116.246C399.453 115.082 399.105 114.145 398.41 113.434C397.723 112.715 396.676 112.355 395.27 112.355C393.855 112.355 392.707 112.898 391.824 113.984C390.949 115.062 390.512 116.719 390.512 118.953V119.984C390.512 122.078 390.953 123.703 391.836 124.859C392.727 126.008 393.879 126.582 395.293 126.582C396.621 126.582 397.625 126.223 398.305 125.504C398.984 124.785 399.367 123.848 399.453 122.691V122.527H401.504L401.492 122.715C401.367 124.293 400.789 125.625 399.758 126.711C398.734 127.789 397.238 128.328 395.27 128.328C393.27 128.328 391.633 127.609 390.359 126.172C389.094 124.727 388.461 122.664 388.461 119.984ZM403.344 122.199V121.824C403.344 120.02 403.848 118.551 404.855 117.418C405.871 116.277 407.227 115.707 408.922 115.707C410.617 115.707 411.969 116.277 412.977 117.418C413.992 118.551 414.5 120.02 414.5 121.824V122.199C414.5 124.012 413.992 125.488 412.977 126.629C411.969 127.762 410.617 128.328 408.922 128.328C407.227 128.328 405.871 127.762 404.855 126.629C403.848 125.488 403.344 124.012 403.344 122.199ZM405.359 121.824V122.199C405.359 123.473 405.656 124.539 406.25 125.398C406.852 126.258 407.742 126.688 408.922 126.688C410.094 126.688 410.98 126.258 411.582 125.398C412.184 124.539 412.484 123.473 412.484 122.199V121.824C412.484 120.559 412.184 119.496 411.582 118.637C410.98 117.777 410.094 117.348 408.922 117.348C407.742 117.348 406.852 117.777 406.25 118.637C405.656 119.496 405.359 120.559 405.359 121.824ZM417.078 128V116.035H418.883L418.953 117.617H419.012C419.441 117.062 419.957 116.621 420.559 116.293C421.16 115.965 421.836 115.801 422.586 115.801C423.398 115.801 424.094 115.965 424.672 116.293C425.258 116.621 425.691 117.141 425.973 117.852H426.031C426.516 117.141 427.066 116.621 427.684 116.293C428.309 115.965 429.023 115.801 429.828 115.801C431.039 115.801 431.988 116.141 432.676 116.82C433.371 117.5 433.719 118.637 433.719 120.23V128H431.738V120.207C431.738 119.215 431.527 118.512 431.105 118.098C430.691 117.684 430.102 117.477 429.336 117.477C428.664 117.477 428.078 117.668 427.578 118.051C427.086 118.426 426.688 118.914 426.383 119.516V128H424.414V120.207C424.414 119.223 424.203 118.523 423.781 118.109C423.359 117.688 422.766 117.477 422 117.477C421.336 117.477 420.754 117.668 420.254 118.051C419.754 118.426 419.355 118.914 419.059 119.516V128H417.078ZM436.906 128V116.035H438.711L438.781 117.617H438.84C439.27 117.062 439.785 116.621 440.387 116.293C440.988 115.965 441.664 115.801 442.414 115.801C443.227 115.801 443.922 115.965 444.5 116.293C445.086 116.621 445.52 117.141 445.801 117.852H445.859C446.344 117.141 446.895 116.621 447.512 116.293C448.137 115.965 448.852 115.801 449.656 115.801C450.867 115.801 451.816 116.141 452.504 116.82C453.199 117.5 453.547 118.637 453.547 120.23V128H451.566V120.207C451.566 119.215 451.355 118.512 450.934 118.098C450.52 117.684 449.93 117.477 449.164 117.477C448.492 117.477 447.906 117.668 447.406 118.051C446.914 118.426 446.516 118.914 446.211 119.516V128H444.242V120.207C444.242 119.223 444.031 118.523 443.609 118.109C443.188 117.688 442.594 117.477 441.828 117.477C441.164 117.477 440.582 117.668 440.082 118.051C439.582 118.426 439.184 118.914 438.887 119.516V128H436.906ZM456.84 128V116.035H458.809V128H456.84ZM456.57 112.227C456.57 111.883 456.676 111.598 456.887 111.371C457.105 111.137 457.418 111.02 457.824 111.02C458.223 111.02 458.531 111.137 458.75 111.371C458.969 111.598 459.078 111.883 459.078 112.227C459.078 112.57 458.969 112.859 458.75 113.094C458.531 113.328 458.223 113.445 457.824 113.445C457.418 113.445 457.105 113.328 456.887 113.094C456.676 112.859 456.57 112.57 456.57 112.227ZM460.578 117.582V116.035H467.328V117.582H460.578ZM462.711 124.977V116.926V116.621V112.73H464.68V124.977C464.68 125.594 464.793 126.023 465.02 126.266C465.246 126.5 465.598 126.617 466.074 126.617C466.285 126.617 466.488 126.598 466.684 126.559C466.887 126.512 467.094 126.449 467.305 126.371V128.012C467.109 128.098 466.859 128.172 466.555 128.234C466.258 128.297 465.93 128.328 465.57 128.328C464.695 128.328 464 128.066 463.484 127.543C462.969 127.012 462.711 126.156 462.711 124.977ZM469.484 128V116.035H471.289L471.359 117.617H471.418C471.848 117.062 472.363 116.621 472.965 116.293C473.566 115.965 474.242 115.801 474.992 115.801C475.805 115.801 476.5 115.965 477.078 116.293C477.664 116.621 478.098 117.141 478.379 117.852H478.438C478.922 117.141 479.473 116.621 480.09 116.293C480.715 115.965 481.43 115.801 482.234 115.801C483.445 115.801 484.395 116.141 485.082 116.82C485.777 117.5 486.125 118.637 486.125 120.23V128H484.145V120.207C484.145 119.215 483.934 118.512 483.512 118.098C483.098 117.684 482.508 117.477 481.742 117.477C481.07 117.477 480.484 117.668 479.984 118.051C479.492 118.426 479.094 118.914 478.789 119.516V128H476.82V120.207C476.82 119.223 476.609 118.523 476.188 118.109C475.766 117.688 475.172 117.477 474.406 117.477C473.742 117.477 473.16 117.668 472.66 118.051C472.16 118.426 471.762 118.914 471.465 119.516V128H469.484ZM488.586 122.199V121.824C488.586 120.02 489.074 118.551 490.051 117.418C491.027 116.277 492.316 115.707 493.918 115.707C495.527 115.707 496.766 116.238 497.633 117.301C498.5 118.355 498.934 119.797 498.934 121.625V122.434H489.77V120.84H496.941V120.605C496.941 119.715 496.695 118.949 496.203 118.309C495.711 117.668 494.977 117.348 494 117.348C492.859 117.348 492.004 117.777 491.434 118.637C490.871 119.488 490.59 120.551 490.59 121.824V122.199C490.59 123.48 490.887 124.551 491.48 125.41C492.082 126.262 492.996 126.688 494.223 126.688C494.996 126.688 495.66 126.523 496.215 126.195C496.77 125.859 497.215 125.457 497.551 124.988L498.84 126.031C498.473 126.594 497.898 127.117 497.117 127.602C496.336 128.086 495.375 128.328 494.234 128.328C492.414 128.328 491.016 127.762 490.039 126.629C489.07 125.488 488.586 124.012 488.586 122.199ZM501.453 128V116.035H503.258L503.328 117.617H503.387C503.809 117.047 504.336 116.602 504.969 116.281C505.602 115.961 506.305 115.801 507.078 115.801C508.273 115.801 509.223 116.141 509.926 116.82C510.637 117.5 510.992 118.637 510.992 120.23V128H509.023V120.242C509.023 119.25 508.801 118.543 508.355 118.121C507.918 117.691 507.297 117.477 506.492 117.477C505.805 117.477 505.195 117.668 504.664 118.051C504.133 118.426 503.723 118.91 503.434 119.504V128H501.453ZM512.562 117.582V116.035H519.312V117.582H512.562ZM514.695 124.977V116.926V116.621V112.73H516.664V124.977C516.664 125.594 516.777 126.023 517.004 126.266C517.23 126.5 517.582 126.617 518.059 126.617C518.27 126.617 518.473 126.598 518.668 126.559C518.871 126.512 519.078 126.449 519.289 126.371V128.012C519.094 128.098 518.844 128.172 518.539 128.234C518.242 128.297 517.914 128.328 517.555 128.328C516.68 128.328 515.984 128.066 515.469 127.543C514.953 127.012 514.695 126.156 514.695 124.977Z" fill="#0067FF"/>
<g filter="url(#filter6_d_502_23120)">
<circle cx="555" cy="324" r="92" fill="white"/>
</g>
<path d="M491.473 332L497.66 314.844H499.629L505.816 332H503.707L499.102 318.805C499.008 318.531 498.926 318.273 498.855 318.031C498.785 317.789 498.719 317.539 498.656 317.281H498.562C498.5 317.539 498.434 317.789 498.363 318.031C498.293 318.273 498.211 318.531 498.117 318.805L493.5 332H491.473ZM494.098 327.453L494.707 325.766H502.547L503.156 327.453H494.098ZM506.695 326.199V325.824C506.695 324.004 507.18 322.531 508.148 321.406C509.117 320.273 510.445 319.707 512.133 319.707C513.711 319.707 514.906 320.129 515.719 320.973C516.539 321.816 516.949 322.789 516.949 323.891V323.984H515.027V323.891C515.027 323.188 514.793 322.59 514.324 322.098C513.863 321.598 513.137 321.348 512.145 321.348C510.988 321.348 510.125 321.77 509.555 322.613C508.992 323.457 508.711 324.527 508.711 325.824V326.199C508.711 327.48 508.992 328.551 509.555 329.41C510.117 330.262 510.977 330.688 512.133 330.688C513.133 330.688 513.867 330.438 514.336 329.938C514.805 329.438 515.039 328.828 515.039 328.109V328.027H516.961V328.109C516.961 329.211 516.551 330.191 515.73 331.051C514.91 331.902 513.711 332.328 512.133 332.328C510.445 332.328 509.117 331.762 508.148 330.629C507.18 329.496 506.695 328.02 506.695 326.199ZM518.648 326.199V325.824C518.648 324.004 519.133 322.531 520.102 321.406C521.07 320.273 522.398 319.707 524.086 319.707C525.664 319.707 526.859 320.129 527.672 320.973C528.492 321.816 528.902 322.789 528.902 323.891V323.984H526.98V323.891C526.98 323.188 526.746 322.59 526.277 322.098C525.816 321.598 525.09 321.348 524.098 321.348C522.941 321.348 522.078 321.77 521.508 322.613C520.945 323.457 520.664 324.527 520.664 325.824V326.199C520.664 327.48 520.945 328.551 521.508 329.41C522.07 330.262 522.93 330.688 524.086 330.688C525.086 330.688 525.82 330.438 526.289 329.938C526.758 329.438 526.992 328.828 526.992 328.109V328.027H528.914V328.109C528.914 329.211 528.504 330.191 527.684 331.051C526.863 331.902 525.664 332.328 524.086 332.328C522.398 332.328 521.07 331.762 520.102 330.629C519.133 329.496 518.648 328.02 518.648 326.199ZM530.602 326.199V325.824C530.602 324.02 531.105 322.551 532.113 321.418C533.129 320.277 534.484 319.707 536.18 319.707C537.875 319.707 539.227 320.277 540.234 321.418C541.25 322.551 541.758 324.02 541.758 325.824V326.199C541.758 328.012 541.25 329.488 540.234 330.629C539.227 331.762 537.875 332.328 536.18 332.328C534.484 332.328 533.129 331.762 532.113 330.629C531.105 329.488 530.602 328.012 530.602 326.199ZM532.617 325.824V326.199C532.617 327.473 532.914 328.539 533.508 329.398C534.109 330.258 535 330.688 536.18 330.688C537.352 330.688 538.238 330.258 538.84 329.398C539.441 328.539 539.742 327.473 539.742 326.199V325.824C539.742 324.559 539.441 323.496 538.84 322.637C538.238 321.777 537.352 321.348 536.18 321.348C535 321.348 534.109 321.777 533.508 322.637C532.914 323.496 532.617 324.559 532.617 325.824ZM544.219 327.793V320.035H546.199V327.816C546.199 328.809 546.418 329.516 546.855 329.938C547.293 330.352 547.914 330.559 548.719 330.559C549.414 330.559 550.023 330.371 550.547 329.996C551.07 329.613 551.484 329.121 551.789 328.52V320.035H553.758V332H551.965L551.883 330.406H551.836C551.406 330.977 550.875 331.426 550.242 331.754C549.609 332.074 548.906 332.234 548.133 332.234C546.938 332.234 545.984 331.895 545.273 331.215C544.57 330.535 544.219 329.395 544.219 327.793ZM557.086 332V320.035H558.891L558.961 321.617H559.02C559.441 321.047 559.969 320.602 560.602 320.281C561.234 319.961 561.938 319.801 562.711 319.801C563.906 319.801 564.855 320.141 565.559 320.82C566.27 321.5 566.625 322.637 566.625 324.23V332H564.656V324.242C564.656 323.25 564.434 322.543 563.988 322.121C563.551 321.691 562.93 321.477 562.125 321.477C561.438 321.477 560.828 321.668 560.297 322.051C559.766 322.426 559.355 322.91 559.066 323.504V332H557.086ZM568.195 321.582V320.035H574.945V321.582H568.195ZM570.328 328.977V320.926V320.621V316.73H572.297V328.977C572.297 329.594 572.41 330.023 572.637 330.266C572.863 330.5 573.215 330.617 573.691 330.617C573.902 330.617 574.105 330.598 574.301 330.559C574.504 330.512 574.711 330.449 574.922 330.371V332.012C574.727 332.098 574.477 332.172 574.172 332.234C573.875 332.297 573.547 332.328 573.188 332.328C572.312 332.328 571.617 332.066 571.102 331.543C570.586 331.012 570.328 330.156 570.328 328.977ZM576.422 328.508C576.422 327.305 576.895 326.363 577.84 325.684C578.793 325.004 580.016 324.664 581.508 324.664H584.25V323.762C584.25 323.02 584.055 322.426 583.664 321.98C583.281 321.535 582.629 321.312 581.707 321.312C580.793 321.312 580.125 321.5 579.703 321.875C579.289 322.242 579.082 322.695 579.082 323.234V323.34H577.113V323.199C577.113 322.254 577.531 321.438 578.367 320.75C579.203 320.055 580.332 319.707 581.754 319.707C583.168 319.707 584.266 320.043 585.047 320.715C585.828 321.379 586.219 322.395 586.219 323.762V329.188C586.219 329.695 586.258 330.176 586.336 330.629C586.414 331.074 586.523 331.469 586.664 331.812V332H584.766C584.656 331.805 584.555 331.551 584.461 331.238C584.375 330.926 584.32 330.613 584.297 330.301C584.016 330.801 583.555 331.246 582.914 331.637C582.281 332.02 581.469 332.211 580.477 332.211C579.328 332.211 578.363 331.895 577.582 331.262C576.809 330.621 576.422 329.703 576.422 328.508ZM578.402 328.402C578.402 329.105 578.605 329.652 579.012 330.043C579.418 330.426 580.043 330.617 580.887 330.617C581.738 330.617 582.512 330.324 583.207 329.738C583.902 329.145 584.25 328.512 584.25 327.84V326.105H581.742C580.633 326.105 579.797 326.312 579.234 326.727C578.68 327.141 578.402 327.699 578.402 328.402ZM589.477 332V314.211H591.457V321.477C591.816 320.969 592.293 320.562 592.887 320.258C593.488 319.953 594.211 319.801 595.055 319.801C596.57 319.801 597.773 320.367 598.664 321.5C599.555 322.625 600 324.059 600 325.801V326.176C600 327.918 599.555 329.363 598.664 330.512C597.773 331.66 596.57 332.234 595.055 332.234C594.211 332.234 593.469 332.062 592.828 331.719C592.195 331.367 591.723 330.941 591.41 330.441H591.352L591.281 332H589.477ZM591.457 328.508C591.699 329.055 592.09 329.539 592.629 329.961C593.176 330.383 593.848 330.594 594.645 330.594C595.785 330.594 596.625 330.172 597.164 329.328C597.711 328.477 597.984 327.426 597.984 326.176V325.801C597.984 324.551 597.711 323.512 597.164 322.684C596.625 321.855 595.773 321.441 594.609 321.441C593.836 321.441 593.176 321.652 592.629 322.074C592.09 322.496 591.699 322.977 591.457 323.516V328.508ZM602.66 332V314.211H604.629V332H602.66ZM607.289 326.199V325.824C607.289 324.02 607.777 322.551 608.754 321.418C609.73 320.277 611.02 319.707 612.621 319.707C614.23 319.707 615.469 320.238 616.336 321.301C617.203 322.355 617.637 323.797 617.637 325.625V326.434H608.473V324.84H615.645V324.605C615.645 323.715 615.398 322.949 614.906 322.309C614.414 321.668 613.68 321.348 612.703 321.348C611.562 321.348 610.707 321.777 610.137 322.637C609.574 323.488 609.293 324.551 609.293 325.824V326.199C609.293 327.48 609.59 328.551 610.184 329.41C610.785 330.262 611.699 330.688 612.926 330.688C613.699 330.688 614.363 330.523 614.918 330.195C615.473 329.859 615.918 329.457 616.254 328.988L617.543 330.031C617.176 330.594 616.602 331.117 615.82 331.602C615.039 332.086 614.078 332.328 612.938 332.328C611.117 332.328 609.719 331.762 608.742 330.629C607.773 329.488 607.289 328.012 607.289 326.199Z" fill="#0067FF"/>
<defs>
<filter id="filter0_d_502_23120" x="204.137" y="204.568" width="293.726" height="293.726" filterUnits="userSpaceOnUse" color-interpolation-filters="sRGB">
<feFlood flood-opacity="0" result="BackgroundImageFix"/>
<feColorMatrix in="SourceAlpha" type="matrix" values="0 0 0 0 0 0 0 0 0 0 0 0 0 0 0 0 0 0 127 0" result="hardAlpha"/>
<feOffset dy="27.4315"/>
<feGaussianBlur stdDeviation="27.4315"/>
<feComposite in2="hardAlpha" operator="out"/>
<feColorMatrix type="matrix" values="0 0 0 0 0 0 0 0 0 0.196875 0 0 0 0 0.495833 0 0 0 0.1 0"/>
<feBlend mode="normal" in2="BackgroundImageFix" result="effect1_dropShadow_502_23120"/>
<feBlend mode="normal" in="SourceGraphic" in2="effect1_dropShadow_502_23120" result="shape"/>
</filter>
<filter id="filter1_d_502_23120" x="0.136986" y="204.568" width="293.726" height="293.726" filterUnits="userSpaceOnUse" color-interpolation-filters="sRGB">
<feFlood flood-opacity="0" result="BackgroundImageFix"/>
<feColorMatrix in="SourceAlpha" type="matrix" values="0 0 0 0 0 0 0 0 0 0 0 0 0 0 0 0 0 0 127 0" result="hardAlpha"/>
<feOffset dy="27.4315"/>
<feGaussianBlur stdDeviation="27.4315"/>
<feComposite in2="hardAlpha" operator="out"/>
<feColorMatrix type="matrix" values="0 0 0 0 0 0 0 0 0 0.196875 0 0 0 0 0.495833 0 0 0 0.1 0"/>
<feBlend mode="normal" in2="BackgroundImageFix" result="effect1_dropShadow_502_23120"/>
<feBlend mode="normal" in="SourceGraphic" in2="effect1_dropShadow_502_23120" result="shape"/>
</filter>
<filter id="filter2_d_502_23120" x="102.137" y="408.568" width="293.726" height="293.726" filterUnits="userSpaceOnUse" color-interpolation-filters="sRGB">
<feFlood flood-opacity="0" result="BackgroundImageFix"/>
<feColorMatrix in="SourceAlpha" type="matrix" values="0 0 0 0 0 0 0 0 0 0 0 0 0 0 0 0 0 0 127 0" result="hardAlpha"/>
<feOffset dy="27.4315"/>
<feGaussianBlur stdDeviation="27.4315"/>
<feComposite in2="hardAlpha" operator="out"/>
<feColorMatrix type="matrix" values="0 0 0 0 0 0 0 0 0 0.196875 0 0 0 0 0.495833 0 0 0 0.1 0"/>
<feBlend mode="normal" in2="BackgroundImageFix" result="effect1_dropShadow_502_23120"/>
<feBlend mode="normal" in="SourceGraphic" in2="effect1_dropShadow_502_23120" result="shape"/>
</filter>
<filter id="filter3_d_502_23120" x="306.137" y="408.568" width="293.726" height="293.726" filterUnits="userSpaceOnUse" color-interpolation-filters="sRGB">
<feFlood flood-opacity="0" result="BackgroundImageFix"/>
<feColorMatrix in="SourceAlpha" type="matrix" values="0 0 0 0 0 0 0 0 0 0 0 0 0 0 0 0 0 0 127 0" result="hardAlpha"/>
<feOffset dy="27.4315"/>
<feGaussianBlur stdDeviation="27.4315"/>
<feComposite in2="hardAlpha" operator="out"/>
<feColorMatrix type="matrix" values="0 0 0 0 0 0 0 0 0 0.196875 0 0 0 0 0.495833 0 0 0 0.1 0"/>
<feBlend mode="normal" in2="BackgroundImageFix" result="effect1_dropShadow_502_23120"/>
<feBlend mode="normal" in="SourceGraphic" in2="effect1_dropShadow_502_23120" result="shape"/>
</filter>
<filter id="filter4_d_502_23120" x="102.137" y="0.568493" width="293.726" height="293.726" filterUnits="userSpaceOnUse" color-interpolation-filters="sRGB">
<feFlood flood-opacity="0" result="BackgroundImageFix"/>
<feColorMatrix in="SourceAlpha" type="matrix" values="0 0 0 0 0 0 0 0 0 0 0 0 0 0 0 0 0 0 127 0" result="hardAlpha"/>
<feOffset dy="27.4315"/>
<feGaussianBlur stdDeviation="27.4315"/>
<feComposite in2="hardAlpha" operator="out"/>
<feColorMatrix type="matrix" values="0 0 0 0 0 0 0 0 0 0.196875 0 0 0 0 0.495833 0 0 0 0.1 0"/>
<feBlend mode="normal" in2="BackgroundImageFix" result="effect1_dropShadow_502_23120"/>
<feBlend mode="normal" in="SourceGraphic" in2="effect1_dropShadow_502_23120" result="shape"/>
</filter>
<filter id="filter5_d_502_23120" x="306.137" y="0.568493" width="293.726" height="293.726" filterUnits="userSpaceOnUse" color-interpolation-filters="sRGB">
<feFlood flood-opacity="0" result="BackgroundImageFix"/>
<feColorMatrix in="SourceAlpha" type="matrix" values="0 0 0 0 0 0 0 0 0 0 0 0 0 0 0 0 0 0 127 0" result="hardAlpha"/>
<feOffset dy="27.4315"/>
<feGaussianBlur stdDeviation="27.4315"/>
<feComposite in2="hardAlpha" operator="out"/>
<feColorMatrix type="matrix" values="0 0 0 0 0 0 0 0 0 0.196875 0 0 0 0 0.495833 0 0 0 0.1 0"/>
<feBlend mode="normal" in2="BackgroundImageFix" result="effect1_dropShadow_502_23120"/>
<feBlend mode="normal" in="SourceGraphic" in2="effect1_dropShadow_502_23120" result="shape"/>
</filter>
<filter id="filter6_d_502_23120" x="408.137" y="204.568" width="293.726" height="293.726" filterUnits="userSpaceOnUse" color-interpolation-filters="sRGB">
<feFlood flood-opacity="0" result="BackgroundImageFix"/>
<feColorMatrix in="SourceAlpha" type="matrix" values="0 0 0 0 0 0 0 0 0 0 0 0 0 0 0 0 0 0 127 0" result="hardAlpha"/>
<feOffset dy="27.4315"/>
<feGaussianBlur stdDeviation="27.4315"/>
<feComposite in2="hardAlpha" operator="out"/>
<feColorMatrix type="matrix" values="0 0 0 0 0 0 0 0 0 0.196875 0 0 0 0 0.495833 0 0 0 0.1 0"/>
<feBlend mode="normal" in2="BackgroundImageFix" result="effect1_dropShadow_502_23120"/>
<feBlend mode="normal" in="SourceGraphic" in2="effect1_dropShadow_502_23120" result="shape"/>
</filter>
<linearGradient id="paint0_linear_502_23120" x1="351.5" y1="64" x2="351.5" y2="584" gradientUnits="userSpaceOnUse">
<stop stop-color="#E5EFFE"/>
<stop offset="1" stop-color="#E5EFFE" stop-opacity="0"/>
</linearGradient>
</defs>
</svg>
