<svg width="11" height="16" viewBox="0 0 11 16" fill="none" xmlns="http://www.w3.org/2000/svg">
<path d="M9.95506 7.50784L1.15039 0.63089C1.12738 0.612777 1.09974 0.60152 1.07062 0.598413C1.0415 0.595306 1.0121 0.600474 0.98579 0.613324C0.959479 0.626173 0.937326 0.646184 0.921875 0.671056C0.906423 0.695929 0.8983 0.724656 0.898439 0.753937V2.2637C0.898439 2.35941 0.943361 2.4512 1.01758 2.5098L8.04881 8.00003L1.01758 13.4903C0.941408 13.5489 0.898439 13.6407 0.898439 13.7364V15.2461C0.898439 15.377 1.04883 15.4492 1.15039 15.3692L9.95506 8.49222C10.0299 8.43384 10.0904 8.35917 10.1321 8.27389C10.1737 8.1886 10.1953 8.09494 10.1953 8.00003C10.1953 7.90512 10.1737 7.81146 10.1321 7.72617C10.0904 7.64089 10.0299 7.56622 9.95506 7.50784Z" fill="#8E97A6"/>
</svg>
