<svg width="9" height="12" viewBox="0 0 9 12" fill="none" xmlns="http://www.w3.org/2000/svg">
<path d="M8.31252 1.41021V0.202401C8.31252 0.0977137 8.19221 0.0399012 8.11096 0.103964L1.06721 5.60553C1.00736 5.65207 0.958938 5.71166 0.925627 5.77977C0.892316 5.84787 0.875 5.92268 0.875 5.9985C0.875 6.07431 0.892316 6.14912 0.925627 6.21722C0.958938 6.28533 1.00736 6.34492 1.06721 6.39146L8.11096 11.893C8.19377 11.9571 8.31252 11.8993 8.31252 11.7946V10.5868C8.31252 10.5102 8.27659 10.4368 8.21721 10.3899L2.59221 5.99928L8.21721 1.60709C8.27659 1.56021 8.31252 1.48678 8.31252 1.41021V1.41021Z" fill="#001B44"/>
</svg>
