<svg width="123" height="50" viewBox="0 0 123 50" fill="none" xmlns="http://www.w3.org/2000/svg">
<path d="M67.4922 31.6807C67.8472 31.6807 68.1234 31.6409 68.1234 31.6409V36.2563C68.1234 36.2563 67.3735 36.3353 66.5048 36.3353C63.6625 36.3353 60.6621 35.6648 60.6621 30.3V14.166H65.9917V29.6687C66.0311 31.1674 66.3079 31.6807 67.4922 31.6807ZM80.5593 27.3808C80.5593 29.7476 79.4931 31.7596 77.2033 31.7596C76.0978 31.7596 75.506 31.1283 75.506 29.6687V20.3197H70.1764V30.6548C70.1764 35.1516 72.6637 36.6111 75.8216 36.6111C77.9533 36.6111 79.9275 35.5461 80.7562 33.8498H80.8355C80.8355 33.8498 80.7562 34.3233 80.7562 34.8365V36.2172H85.8489V20.3197H80.5593V27.3808ZM117.273 20.3197V36.2172H122.603V20.3197H117.273ZM108.746 19.9647C106.377 19.9647 104.482 21.3059 103.654 22.6471H103.574C102.746 20.872 101.127 19.9647 99.1529 19.9647C96.6662 19.9647 95.2051 21.6215 94.4551 22.726H94.3764C94.3764 22.726 94.4551 22.2527 94.4551 21.7398V20.3197H89.3624V36.2172H94.692V29.6687C94.692 28.9983 94.7313 28.288 94.8501 27.6964C95.2051 26.0001 96.0737 24.8167 97.7317 24.8167C98.7585 24.8167 98.9554 25.6451 98.9554 26.8285V36.2563H104.285V29.6687C104.285 29.0374 104.285 28.3669 104.404 27.8147C104.759 26.0396 105.627 24.8167 107.325 24.8167C108.352 24.8167 108.549 25.6451 108.549 26.8285V36.2563H113.878V25.9212C113.878 21.5426 111.628 19.9647 108.746 19.9647Z" fill="#8E97A6"/>
<path d="M119.919 16.6504C121.616 16.6504 122.998 15.3486 122.998 13.6524C122.998 11.9956 121.616 10.6938 119.919 10.6938C118.222 10.6938 116.84 11.9956 116.84 13.6524C116.84 15.3486 118.222 16.6504 119.919 16.6504Z" fill="#8E97A6"/>
<path d="M32.5546 5.28963C33.9364 5.28963 35.0413 6.39415 35.0413 7.7748C35.0413 9.15545 33.9364 10.26 32.5546 10.26C31.1729 10.26 30.0674 9.15545 30.0674 7.7748C30.0674 6.39415 31.1729 5.28963 32.5546 5.28963ZM30.0674 16.6109V42.4883C30.0674 43.869 31.1729 44.9732 32.5546 44.9732C33.9364 44.9732 35.0413 43.869 35.0413 42.4883V16.6109C35.0413 15.2303 33.9364 14.1257 32.5546 14.1257C31.1729 14.1257 30.0674 15.2697 30.0674 16.6109ZM10.1706 42.5275C10.1706 43.9081 11.2761 45.0129 12.6578 45.0129C14.0395 45.0129 15.1448 43.9081 15.1448 42.5275C15.1448 41.1468 14.0395 40.0427 12.6578 40.0427C11.3155 40.0427 10.1706 41.1468 10.1706 42.5275ZM10.1706 7.7748V33.652C10.1706 35.0327 11.2761 36.1375 12.6578 36.1375C14.0395 36.1375 15.1448 35.0327 15.1448 33.652V7.7748C15.1448 6.39415 14.0395 5.28963 12.6578 5.28963C11.3155 5.28963 10.1706 6.39415 10.1706 7.7748ZM39.9766 33.849C39.9766 35.2297 41.0815 36.3344 42.4633 36.3344C43.845 36.3344 44.9506 35.2297 44.9506 33.849C44.9506 32.4684 43.845 31.3642 42.4633 31.3642C41.1215 31.3642 39.9766 32.4684 39.9766 33.849ZM39.9766 16.4532V24.9737C39.9766 26.3543 41.0815 27.4589 42.4633 27.4589C43.845 27.4589 44.9506 26.3543 44.9506 24.9737V16.4532C44.9506 15.0725 43.845 13.968 42.4633 13.968C41.1215 13.968 39.9766 15.0725 39.9766 16.4532ZM5.23596 16.4532C5.23596 15.0725 4.13055 13.968 2.74884 13.968C1.36714 13.968 0.261719 15.0725 0.261719 16.4532C0.261719 17.8338 1.36714 18.9383 2.74884 18.9383C4.13055 18.9383 5.23596 17.8338 5.23596 16.4532ZM0.261719 25.2893V33.8099C0.261719 35.1905 1.36714 36.2953 2.74884 36.2953C4.13055 36.2953 5.23596 35.1905 5.23596 33.8099V25.2893C5.23596 23.9086 4.13055 22.8041 2.74884 22.8041C1.36714 22.8436 0.261719 23.9481 0.261719 25.2893ZM20.1191 2.80445V47.4586C20.1191 48.8392 21.2243 49.9434 22.6061 49.9434C23.9878 49.9434 25.0934 48.8392 25.0934 47.4586V2.80445C25.0934 1.4238 23.9878 0.319336 22.6061 0.319336C21.2243 0.319336 20.1191 1.4238 20.1191 2.80445Z" fill="#8E97A6"/>
</svg>
