<svg width="146" height="38" viewBox="0 0 146 38" fill="none" xmlns="http://www.w3.org/2000/svg">
<path d="M136.441 24.2604C135.051 24.2604 134.32 23.6076 134.32 22.5038C134.35 20.5733 136.368 19.8908 139.746 19.4989V20.7327C139.746 23.0995 138.21 24.2604 136.441 24.2604ZM88.7822 24.0282C86.5589 24.0282 85.1553 22.4168 85.1553 19.3247C85.1553 16.1889 86.5882 14.5049 88.7822 14.5049C90.9463 14.5049 92.3939 16.1889 92.3939 19.3247C92.3939 22.4168 90.9897 24.0282 88.7822 24.0282ZM120.837 24.1443C118.629 24.1443 117.167 22.4746 117.167 19.2667C117.167 16.0584 118.629 14.3596 120.837 14.3596C123.075 14.3596 124.479 15.8405 124.479 19.2667C124.479 22.6928 123.075 24.1443 120.837 24.1443ZM70.0192 26.6845H73.909V20.544C73.909 16.8858 75.2251 15.5067 78.3844 15.5067C78.9401 15.5067 79.4958 15.5356 80.0221 15.6081V11.6304C79.7006 11.5869 79.3784 11.5724 79.0862 11.5724C76.2491 11.5724 74.6554 13.2419 73.8362 15.1727V11.8482H70.0192V26.6845ZM104.692 27.1064C108.89 27.1064 111.404 25.2044 111.404 22.2716C111.404 19.6877 109.387 18.2504 106.287 17.6552L104.297 17.2922C102.572 16.9585 102.119 16.5665 102.119 15.7099C102.119 14.7952 102.923 14.1419 104.429 14.1419C106.038 14.1419 107.134 15.0566 107.602 16.3341L110.849 14.9114C110.162 13.1693 108.158 11.4126 104.604 11.4126C100.875 11.398 98.3456 13.2998 98.3743 16.0582C98.419 18.9036 100.086 19.8908 103.274 20.544L105.307 20.9503C106.857 21.2553 107.383 21.8072 107.383 22.6636C107.383 23.6508 106.476 24.2896 104.868 24.2896C102.47 24.2896 101.606 22.9542 101.329 21.7349L97.7752 22.8666C98.4043 25.4944 101.241 27.1064 104.692 27.1064ZM88.7816 27.1495C93.2271 27.1349 96.445 23.9267 96.445 19.2667C96.445 14.6356 93.2271 11.4126 88.7816 11.4126C84.3361 11.4126 81.1188 14.6356 81.1041 19.2667C81.1041 23.7815 84.3948 27.1495 88.7816 27.1495ZM135.11 27.1495C137.45 27.1495 139.146 25.9587 140.169 24.275C140.243 25.8718 141.15 26.6851 142.861 26.6851H145.858V23.68H144.484C143.694 23.68 143.592 23.5493 143.592 22.7943V17.0311C143.592 13.3291 141.296 11.4126 137.099 11.4126C133.019 11.3835 130.416 13.5611 130.152 15.8551L133.692 16.697C134.086 15.2307 135.14 14.2728 137.128 14.2728C138.912 14.2728 139.746 15.0566 139.746 16.4937V17.0311C137.289 17.263 135.271 17.7131 133.706 18.3956C131.6 19.2375 130.358 20.7039 130.358 22.8812C130.358 25.4506 132.36 27.1495 135.11 27.1495ZM113.438 32.4779H117.342V24.6379C118.191 25.9733 119.857 27.1495 122.095 27.1495C125.985 27.1495 128.559 23.9413 128.559 19.2667C128.559 14.5922 125.985 11.3546 122.095 11.3835C119.784 11.398 118.059 12.6612 117.225 13.8951V11.848H113.438V32.4779ZM55.5421 15.7388V9.32227H59.8268C62.1809 9.32227 63.6725 10.5709 63.6725 12.487C63.6725 14.5049 62.1956 15.7388 59.8268 15.7388H55.5421ZM51.4182 26.6851H55.5421V19.1649H60.5579C64.9594 19.1795 67.9866 16.4938 67.9719 12.487C67.9866 8.50921 64.9593 5.85257 60.5432 5.8669H51.4182V26.6851ZM39.1919 24.1304V4.28469C39.1919 3.96545 38.9871 3.80577 38.6802 3.93633L32.9767 6.2157C32.7425 6.31714 32.6404 6.46242 32.6404 6.70933V20.254C32.6404 20.5009 32.5384 20.6459 32.3042 20.7476L6.88785 30.9534C6.65377 31.055 6.55137 31.2002 6.55137 31.447V37.0362C6.55137 37.3553 6.75636 37.5151 7.06323 37.3844L38.8557 24.624C39.0898 24.5218 39.1919 24.3765 39.1919 24.1304ZM0 13.3V33.1453C0 33.4644 0.204728 33.6243 0.511853 33.4936L6.21522 31.2142C6.4493 31.1127 6.5515 30.9674 6.5515 30.7206V17.1761C6.5515 16.9293 6.6539 16.7841 6.88798 16.6823L32.3042 6.47682C32.5384 6.37512 32.6404 6.22991 32.6404 5.98325V0.394049C32.6404 0.0745612 32.4357 -0.0848674 32.1281 0.0456939L0.336217 12.8065C0.102524 12.9079 0 13.0531 0 13.3Z" fill="#8E97A6"/>
</svg>
