<svg width="170" height="27" viewBox="0 0 170 27" fill="none" xmlns="http://www.w3.org/2000/svg">
<path d="M49.836 26.3027H44.9069V13.5951C42.6414 13.5951 40.7891 11.7511 40.7891 9.50001V9.22208H44.9069V6.55737C44.9069 5.32731 45.1998 4.23302 45.7822 3.27005C46.3673 2.3093 47.1711 1.551 48.1957 0.99957C49.2203 0.448078 50.3859 0.172363 51.6899 0.172363C52.5155 0.172363 53.3557 0.288649 54.2157 0.523507C55.0738 0.756144 55.923 1.12448 56.7568 1.62427L54.8856 5.43288C54.5194 5.1356 54.1315 4.91806 53.7264 4.77582C53.3193 4.63365 52.9161 4.5626 52.5155 4.5626C51.7595 4.5626 51.1247 4.82543 50.6092 5.34888C50.0931 5.87233 49.836 6.59613 49.836 7.51812V9.22639H54.9717V13.5994H51.7595C50.6979 13.5994 49.836 14.4568 49.836 15.5124V26.3071V26.3027Z" fill="#8E97A6"/>
<path d="M72.1328 26.3028L71.9612 23.5691C71.3545 24.5709 70.5512 25.3334 69.5483 25.8568C68.5448 26.3802 67.3754 26.6435 66.0362 26.6435C63.8377 26.6435 62.1152 25.971 60.8673 24.6292C59.62 23.2849 58.9961 21.4407 58.9961 19.0953V9.22237H63.9264V17.966C63.9264 19.2996 64.2448 20.3425 64.8796 21.1007C65.5163 21.8588 66.3833 22.2356 67.4813 22.2356C68.5799 22.2356 69.533 21.8397 70.2042 21.0486C70.874 20.2582 71.2096 19.1835 71.2096 17.8284V9.22021H76.138V22.32C76.138 24.5169 74.3466 26.2984 72.1366 26.2984L72.1328 26.3028Z" fill="#8E97A6"/>
<path d="M97.4649 26.3033H92.5364V17.5592C92.5364 16.2258 92.2181 15.1831 91.5833 14.4248C90.9485 13.6687 90.0796 13.2895 88.9816 13.2895C87.883 13.2895 86.9298 13.686 86.2581 14.4766C85.5888 15.2671 85.2532 16.3399 85.2532 17.6949V26.3033H80.3223V13.1863C80.3223 10.9976 82.1073 9.22464 84.3065 9.22464L84.4774 11.9583C85.095 10.9566 85.9027 10.194 86.8992 9.67057C87.8958 9.14711 89.0703 8.88428 90.4196 8.88428C92.6053 8.88428 94.3279 9.55421 95.5796 10.892C96.8345 12.2298 97.4604 14.0781 97.4604 16.4347V26.3071L97.4649 26.3033Z" fill="#8E97A6"/>
<path d="M119.002 26.3024H114.674L114.416 23.9805C113.683 24.7989 112.804 25.4498 111.779 25.9281C110.755 26.4058 109.634 26.645 108.422 26.645C106.852 26.645 105.453 26.2618 104.221 25.4929C102.99 24.7234 102.02 23.6684 101.309 22.324C100.598 20.9797 100.246 19.461 100.246 17.7633C100.246 16.066 100.601 14.5322 101.309 13.1944C102.02 11.8566 102.99 10.8032 104.221 10.0342C105.451 9.26518 106.85 8.88174 108.422 8.88174C109.544 8.88174 110.588 9.08425 111.556 9.48919C112.524 9.8942 113.363 10.4543 114.073 11.1716V0.685059C116.797 0.685059 119.002 2.88018 119.002 5.5858V26.3024ZM109.693 22.2549C110.505 22.2549 111.242 22.0715 111.901 21.708C112.559 21.3439 113.086 20.844 113.48 20.2127C113.874 19.5796 114.071 18.8602 114.071 18.0519V17.4382C114.071 16.6303 113.874 15.913 113.48 15.2862C113.083 14.6593 112.557 14.1681 111.901 13.8084C111.242 13.4508 110.505 13.2698 109.693 13.2698C108.881 13.2698 108.107 13.4638 107.442 13.8514C106.777 14.2392 106.255 14.7713 105.869 15.4477C105.486 16.1262 105.293 16.8975 105.293 17.7613C105.293 18.6248 105.486 19.381 105.869 20.0579C106.253 20.7361 106.777 21.2703 107.442 21.6624C108.105 22.057 108.857 22.253 109.693 22.253V22.2549Z" fill="#8E97A6"/>
<path d="M134.266 26.5425L133.964 24.2719C133.334 25.0237 132.556 25.6074 131.629 26.0229C130.702 26.4391 129.682 26.6459 128.572 26.6459C127.37 26.6459 126.3 26.415 125.36 25.9544C124.422 25.4932 123.683 24.8556 123.144 24.041C122.606 23.2271 122.336 22.3027 122.336 21.2667C122.336 20.1743 122.627 19.2112 123.21 18.3802C123.796 17.5485 124.599 16.8979 125.623 16.4239C126.649 15.9522 127.814 15.7153 129.118 15.7153C129.885 15.7153 130.657 15.8014 131.427 15.9716C132.2 16.1418 132.918 16.3809 133.583 16.6889V16.2451C133.583 15.5623 133.39 14.9721 133.006 14.4766C132.623 13.9811 132.097 13.5977 131.427 13.3241C130.759 13.0504 130.01 12.9147 129.185 12.9147C128.36 12.9147 127.613 13.0397 126.841 13.2895C126.07 13.5396 125.355 13.9165 124.703 14.4163L123.364 10.6765C124.521 10.0841 125.691 9.63827 126.876 9.33668C128.061 9.03508 129.21 8.88428 130.321 8.88428C131.993 8.88428 133.44 9.2117 134.666 9.8666C135.891 10.5214 136.839 11.4435 137.508 12.6326C138.178 13.8217 138.513 15.2305 138.513 16.8591V22.0337C138.513 24.3925 136.636 26.5425 134.263 26.5425H134.266ZM129.653 22.8712C130.305 22.8712 130.93 22.729 131.525 22.4448C132.121 22.1606 132.604 21.773 132.977 21.2839C133.349 20.7947 133.546 20.2542 133.568 19.6617V19.543C133.063 19.2005 132.506 18.9359 131.893 18.7481C131.28 18.561 130.658 18.4658 130.03 18.4658C129.09 18.4658 128.323 18.6707 127.728 19.0799C127.131 19.4891 126.834 20.0195 126.834 20.6698C126.834 21.0923 126.959 21.4691 127.206 21.8053C127.452 22.1409 127.786 22.4042 128.211 22.5914C128.633 22.7785 129.114 22.8737 129.653 22.8737V22.8712Z" fill="#8E97A6"/>
<path d="M146.691 26.3024H142.363V5.58551C142.363 2.87773 144.57 0.682617 147.294 0.682617V11.1691C148.015 10.4518 148.853 9.89176 149.811 9.48675C150.766 9.08181 151.806 8.8793 152.928 8.8793C154.507 8.8793 155.911 9.26274 157.137 10.0318C158.361 10.8009 159.329 11.8542 160.04 13.192C160.751 14.5297 161.104 16.0527 161.104 17.761C161.104 19.4692 160.749 20.9772 160.04 22.3215C159.329 23.6658 158.361 24.7209 157.137 25.4904C155.911 26.2593 154.509 26.6425 152.928 26.6425C151.715 26.6425 150.595 26.4059 149.57 25.9339C148.546 25.4625 147.666 24.8097 146.934 23.978L146.694 26.3005L146.691 26.3024ZM151.672 22.2549C152.507 22.2549 153.255 22.0608 153.914 21.6732C154.573 21.2855 155.093 20.7507 155.476 20.0681C155.859 19.3855 156.052 18.6096 156.052 17.746C156.052 16.882 155.859 16.126 155.476 15.4496C155.093 14.7731 154.57 14.2411 153.914 13.8533C153.255 13.4677 152.507 13.2716 151.672 13.2716C150.881 13.2716 150.161 13.4483 149.516 13.8016C148.868 14.1549 148.35 14.6396 147.963 15.2536C147.573 15.8675 147.35 16.574 147.294 17.371V18.123C147.35 18.9198 147.573 19.6285 147.963 20.2489C148.353 20.8694 148.866 21.3585 149.509 21.7182C150.151 22.076 150.872 22.2568 151.674 22.2568L151.672 22.2549Z" fill="#8E97A6"/>
<path d="M169.499 26.3026H164.227V5.24332C164.227 2.34807 166.588 0 169.499 0V26.3026Z" fill="#8E97A6"/>
<path d="M19.8565 9.98897V16.891H19.5943C19.4817 16.8867 19.0268 16.8867 18.9142 16.891C14.4278 17.0676 10.8446 20.7405 10.8446 25.2448C10.8446 25.5938 10.8662 25.9364 10.9075 26.2745H3.74126C3.74126 26.2745 3.73258 26.2662 3.73041 26.2599C3.70444 25.8977 3.69143 25.5291 3.69143 25.1611C3.69143 22.1623 4.56661 19.3664 6.07869 17.0117C5.95308 16.975 5.82956 16.9341 5.70828 16.8889C4.98034 16.6325 4.29579 16.2814 3.66974 15.8505C2.68839 15.1741 1.85219 14.3038 1.21963 13.2935C0.602256 12.3069 0.177614 11.1867 0 9.98682H19.8565V9.98897Z" fill="#8E97A6"/>
<path d="M31.0336 10.8035C30.0002 10.0193 28.9149 9.48946 28.6484 9.35154C28.9344 8.87763 29.1554 8.36065 29.3026 7.81348C29.762 8.4253 30.3793 9.3516 31.0336 10.8035Z" fill="#8E97A6"/>
<path d="M29.3472 4.79346C28.7016 2.08352 26.2537 0.0693359 23.3334 0.0693359H19.2759C17.5277 0.0693359 15.903 0.597103 14.5555 1.50183C14.3628 1.63113 14.1764 1.76898 13.9966 1.91331C12.2289 3.32214 11.0418 5.42464 10.8555 7.805H22.3673C24.2585 7.805 26.0609 8.25308 27.7181 8.92949C28.0344 9.05872 28.3442 9.1988 28.6496 9.3496C28.9356 8.87563 29.1566 8.35865 29.3039 7.81147C29.3039 7.80931 29.3363 7.69087 29.3494 7.6327C29.4576 7.17814 29.5162 6.70208 29.5162 6.21308C29.5162 5.72408 29.4576 5.24802 29.3494 4.79346H29.3472ZM26.4356 6.23027C26.0371 6.23027 25.2052 5.06055 25.2052 4.66423C25.2052 4.26786 27.157 4.96361 27.157 5.51295C27.157 5.90932 26.8343 6.22811 26.4378 6.22811L26.4356 6.23027Z" fill="#8E97A6"/>
</svg>
