<svg width="110" height="49" viewBox="0 0 110 49" fill="none" xmlns="http://www.w3.org/2000/svg">
<g clip-path="url(#clip0_236_824)">
<path d="M0.57037 1.3852C0.244444 1.62965 0 6.60002 0 12.3852V22.8148L2.03704 21.5111C3.91111 20.2889 4.07407 19.7185 4.07407 13.7704C4.07407 10.1852 4.4 7.33335 4.72593 7.33335C5.05185 7.33335 7.65926 8.96298 10.5111 11L15.563 14.7482L7.98519 20.2074L0.407407 25.7482L0.162963 34.6296C-0.0814815 44.8963 0.244444 47.2593 2.28148 47.2593C4.31852 47.2593 20.6963 35.2 21.0222 33.4074C21.1852 32.4296 19.8815 30.8815 17.0296 28.6815C12.8741 25.5037 12.6296 25.5037 10.7556 26.7259C8.8 28.0296 8.8 28.0296 10.3481 29.2519C11.163 29.9852 12.7926 31.1259 13.8519 31.8593L15.8074 33.0815L10.4296 36.9111C7.4963 39.0296 4.88889 40.7408 4.56296 40.7408C4.31852 40.7408 4.07407 38.0519 4.07407 34.7111V28.6L12.4667 22.6519C17.6815 18.8222 20.8593 15.9704 21.0222 14.9111C21.1852 13.6074 19.3926 11.8963 12.5481 7.00743C4.31852 1.22224 1.87407 1.90735e-05 0.57037 1.3852Z" fill="#8E97A6"/>
<path d="M86.9417 11.0816C85.0676 12.9557 87.5121 16.7039 89.9565 15.8076C91.9935 14.9928 91.3417 11.0816 89.2232 10.7557C88.2454 10.5928 87.2676 10.7557 86.9417 11.0816Z" fill="#8E97A6"/>
<path d="M30.1484 24.4446V35.8521H36.2595C39.6003 35.8521 43.1855 35.4446 44.2447 34.9558C47.9929 33.2446 48.8077 28.5187 45.9558 25.178C44.8966 24.0372 44.9781 23.7113 46.0373 22.815C47.9114 21.2669 47.5855 16.6224 45.467 14.6669C44.0003 13.2817 42.6151 13.0372 36.9114 13.0372H30.1484V24.4446ZM41.9633 19.5558C41.9633 21.3483 41.5558 21.5928 38.541 21.8372C35.1188 22.0817 35.0373 22.0002 35.0373 19.5558C35.0373 17.1113 35.1188 17.0298 38.541 17.2743C41.5558 17.5187 41.9633 17.7632 41.9633 19.5558ZM42.4521 27.378C44.1633 29.415 42.3707 31.3706 38.3781 31.615C35.0373 31.8595 35.0373 31.8595 35.0373 29.0076C35.0373 26.1558 35.1188 26.0743 38.2151 26.0743C40.0892 26.0743 41.8003 26.5632 42.4521 27.378Z" fill="#8E97A6"/>
<path d="M51.7411 19.9631C49.0522 22.5705 49.2152 23.6298 52.1485 23.6298C53.5337 23.6298 54.593 23.2224 54.593 22.815C54.593 21.5113 59.2374 21.8372 59.7263 23.1409C60.2152 24.3631 59.8078 24.6076 55.0004 25.6668C51.4967 26.4002 49.7041 28.3557 49.7041 31.3705C49.7041 35.7705 54.43 38.1335 58.7485 35.852C59.8078 35.2816 60.2967 35.2816 60.2967 35.852C60.2967 36.2594 61.2745 36.6668 62.4152 36.6668H64.5337L64.2078 28.8446C63.8819 21.8372 63.6374 20.7779 62.0078 19.4742C59.2374 17.1927 54.1856 17.4372 51.7411 19.9631ZM60.2967 29.0076C60.2967 29.252 59.8893 30.1483 59.4819 31.0446C58.2597 33.2446 53.7782 33.2446 53.7782 31.0446C53.7782 30.1483 54.2671 29.252 54.8374 29.089C56.2226 28.5187 60.2967 28.4372 60.2967 29.0076Z" fill="#8E97A6"/>
<path d="M67.6299 26.8891V35.8521H70.0743H72.4373L72.6817 29.0891L72.9262 22.4076H75.3706H77.8151L78.0595 29.0891L78.304 35.8521H80.7484H83.2743L82.9484 28.6002C82.7854 22.8965 82.378 21.0224 81.1558 19.6372C79.4447 17.7632 75.8595 17.3558 73.2521 18.7409C72.1928 19.3113 71.704 19.3113 71.704 18.7409C71.704 18.3335 70.8077 17.9261 69.6669 17.9261H67.6299V26.8891Z" fill="#8E97A6"/>
<path d="M94.8446 20.6963C92.4816 23.0593 92.0742 24.0371 92.0742 27.2148C92.0742 30.1482 92.5631 31.4519 94.4372 33.5704C96.4742 35.8519 97.3705 36.2593 100.385 36.2593C105.111 36.2593 108.045 34.2222 109.267 30.2296C110.489 26.1556 109.756 23.2222 106.741 20.2889C103.319 16.7852 98.5927 16.9482 94.8446 20.6963ZM103.645 23.3852C104.459 24.1185 105.111 25.8296 105.111 27.3778C105.111 32.8371 98.8372 33.9778 96.9631 28.8445C95.089 24.0371 99.9779 20.0445 103.645 23.3852Z" fill="#8E97A6"/>
<path d="M86.3708 28.5184C86.3708 34.4666 86.0449 38.2962 85.556 38.2962C85.1486 38.2962 84.7412 39.1925 84.7412 40.3332C84.7412 42.6962 86.6968 43.1036 89.2227 41.2295C90.6079 40.2517 90.8523 38.7851 91.0968 29.4147L91.4227 18.7406H88.8968H86.3708V28.5184Z" fill="#8E97A6"/>
</g>
<defs>
<clipPath id="clip0_236_824">
<rect width="110" height="48.0741" fill="white"/>
</clipPath>
</defs>
</svg>
