<svg width="154" height="25" viewBox="0 0 154 25" fill="none" xmlns="http://www.w3.org/2000/svg">
<path d="M141.813 0.341797H129.471C126.281 0.383656 123.235 1.68301 120.994 3.95859C118.753 6.23417 117.496 9.30282 117.496 12.5001C117.496 15.6974 118.753 18.766 120.994 21.0417C123.235 23.3173 126.281 24.6167 129.471 24.6583H141.817C145.035 24.6583 148.12 23.3776 150.395 21.0974C152.671 18.8173 153.949 15.7247 153.949 12.5001C153.949 9.27551 152.671 6.18301 150.395 3.90289C148.12 1.62276 145.035 0.341797 141.817 0.341797H141.813ZM141.813 5.34179C143.228 5.32923 144.615 5.7382 145.798 6.51699C146.981 7.2957 147.906 8.40904 148.456 9.71564C149.006 11.0222 149.157 12.4632 148.888 13.8556C148.62 15.2479 147.945 16.529 146.948 17.5359C145.952 18.543 144.679 19.2308 143.292 19.5122C141.905 19.793 140.466 19.6551 139.157 19.1147C137.849 18.575 136.729 17.6571 135.942 16.4788C135.155 15.3004 134.735 13.9141 134.735 12.496C134.729 10.6074 135.471 8.79359 136.798 7.45256C138.125 6.11147 139.929 5.35276 141.813 5.34282V5.34179ZM129.726 22.5083C127.102 22.4705 124.598 21.3994 122.756 19.5263C120.913 17.6532 119.881 15.129 119.881 12.4991C119.881 9.86916 120.913 7.34487 122.756 5.47192C124.598 3.59891 127.102 2.52763 129.726 2.48975H134.988C133.382 3.61654 132.071 5.11462 131.166 6.85699C130.261 8.59942 129.788 10.5347 129.788 12.4991C129.788 14.4634 130.261 16.3988 131.166 18.141C132.071 19.8833 133.382 21.3814 134.988 22.5083H129.726Z" fill="#8E97A6"/>
<path d="M15.9553 0.336914H0.207886C0.152758 0.336914 0.0998731 0.358837 0.0608346 0.397939C0.0218603 0.436978 0 0.489994 0 0.54525V24.4565C0 24.5117 0.0218603 24.5649 0.0608346 24.604C0.0998731 24.6431 0.152758 24.6649 0.207886 24.6649H4.80974C4.86487 24.6649 4.91776 24.6431 4.95673 24.604C4.99577 24.5649 5.01763 24.5117 5.01763 24.4565V14.6286H14.7308C14.7859 14.6286 14.8388 14.6066 14.8778 14.5676C14.9167 14.5285 14.9387 14.4755 14.9387 14.4202V10.2359C14.9387 10.1806 14.9167 10.1276 14.8778 10.0886C14.8388 10.0495 14.7859 10.0276 14.7308 10.0276H5.01558V4.93794H15.9553C16.0104 4.93794 16.0633 4.91602 16.1023 4.87692C16.1413 4.83788 16.1631 4.78486 16.1631 4.72961V0.54525C16.1631 0.489994 16.1413 0.436978 16.1023 0.397939C16.0633 0.358837 16.0104 0.336914 15.9553 0.336914Z" fill="#8E97A6"/>
<path d="M25.8606 0.336914H21.2587C21.2035 0.336914 21.1507 0.358837 21.1117 0.397939C21.0727 0.436978 21.0508 0.489994 21.0508 0.54525V24.4565C21.0508 24.5117 21.0727 24.5649 21.1117 24.604C21.1507 24.6431 21.2035 24.6649 21.2587 24.6649H25.8606C25.9157 24.6649 25.9686 24.6431 26.0076 24.604C26.0466 24.5649 26.0685 24.5117 26.0685 24.4565V0.54525C26.0685 0.489994 26.0466 0.436978 26.0076 0.397939C25.9686 0.358837 25.9157 0.336914 25.8606 0.336914Z" fill="#8E97A6"/>
<path d="M51.1651 0.336914H46.701C46.6735 0.336914 46.6465 0.342301 46.6209 0.35275C46.5959 0.363263 46.5728 0.37858 46.5536 0.397939C46.5344 0.417298 46.519 0.440247 46.5087 0.465504C46.4985 0.49076 46.4927 0.517879 46.4927 0.54525V16.389L35.9318 0.431724C35.9132 0.403006 35.8876 0.379353 35.8574 0.362815C35.8279 0.346276 35.794 0.337363 35.76 0.336914H31.0282C30.9731 0.336914 30.9202 0.358837 30.8811 0.397939C30.8422 0.436978 30.8203 0.489994 30.8203 0.54525V24.4565C30.8203 24.5117 30.8422 24.5649 30.8811 24.604C30.9202 24.6431 30.9731 24.6649 31.0282 24.6649H35.4927C35.5478 24.6649 35.601 24.6431 35.6401 24.604C35.6786 24.5649 35.701 24.5117 35.701 24.4565V8.61506L46.2638 24.5732C46.2831 24.602 46.3081 24.6258 46.3382 24.6424C46.3677 24.6591 46.4017 24.6674 46.4356 24.6681H51.1664C51.2215 24.6681 51.2747 24.6463 51.3132 24.6072C51.3523 24.5681 51.3741 24.5149 51.3741 24.4597V0.54525C51.3728 0.490314 51.3504 0.438071 51.3113 0.399353C51.2722 0.360571 51.2202 0.338196 51.1651 0.336914Z" fill="#8E97A6"/>
<path d="M64.9993 10.2092C62.3936 9.61136 60.1429 9.09674 60.1429 7.10616C60.1429 5.51552 61.7147 4.40616 63.966 4.40616C66.3371 4.40616 67.9237 5.72174 68.1128 7.83533C68.1173 7.88706 68.1416 7.93508 68.1801 7.97001C68.2186 8.00488 68.2686 8.02411 68.3205 8.02386H72.757C72.7852 8.02392 72.8134 8.01815 72.8391 8.007C72.8654 7.99578 72.8891 7.97943 72.9083 7.95886C72.9275 7.93828 72.9429 7.91392 72.9525 7.88732C72.9622 7.86072 72.9666 7.83239 72.9647 7.80405C72.8756 5.78354 72.041 3.86815 70.6231 2.42905C69.7391 1.60841 68.7019 0.971358 67.5705 0.554563C66.4397 0.137832 65.2378 -0.0503092 64.0333 0.000908696C58.8673 0.000908696 55.2589 3.04674 55.2589 7.41239C55.2589 12.9124 59.5397 13.8967 63.3173 14.7634C65.8974 15.3562 68.1218 15.8645 68.1218 17.8271C68.1218 19.5605 66.541 20.5957 63.8955 20.5957C61.8275 20.5957 59.5224 19.6778 59.2448 17.0944C59.2391 17.0438 59.2147 16.9964 59.1762 16.9617C59.1378 16.9278 59.0884 16.9092 59.0365 16.9092H54.566C54.5371 16.9092 54.5096 16.9149 54.4833 16.9265C54.457 16.9374 54.4339 16.9541 54.4141 16.9746C54.3948 16.9951 54.3795 17.0201 54.3698 17.0464C54.3602 17.0733 54.3564 17.1015 54.3577 17.1303C54.4436 18.8323 55.0218 20.4726 56.0211 21.8508C57.6134 23.9342 60.1711 25.0002 63.6269 25.0002C69.3192 25.0002 73.1461 22.0508 73.1461 17.6573C73.1436 12.0717 68.8166 11.0842 64.9993 10.2092Z" fill="#8E97A6"/>
<path d="M93.1169 0.337053H75.14C75.0848 0.337053 75.0316 0.358975 74.9925 0.398078C74.9541 0.437116 74.9316 0.490132 74.9316 0.545389V4.83186C74.9316 4.88712 74.9541 4.94007 74.9925 4.97917C75.0316 5.01821 75.0848 5.0402 75.14 5.0402H81.6201V24.4597C81.6201 24.5155 81.6419 24.5681 81.681 24.6072C81.7201 24.6463 81.7727 24.6681 81.8278 24.6681H86.4297C86.4848 24.6681 86.5381 24.6463 86.5772 24.6072C86.6156 24.5681 86.6381 24.5155 86.6381 24.4597V5.03808H93.1182C93.1733 5.03808 93.2259 5.01616 93.265 4.97705C93.3041 4.93802 93.3259 4.885 93.3259 4.82975V0.545389C93.3265 0.517697 93.322 0.490129 93.3118 0.464424C93.3015 0.438655 93.2861 0.415262 93.2669 0.395774C93.247 0.376223 93.2233 0.360898 93.1977 0.350834C93.172 0.340706 93.1445 0.336027 93.1169 0.337053Z" fill="#8E97A6"/>
<path d="M111.236 14.9001C114.022 13.7543 115.554 11.2887 115.554 7.94596C115.554 3.18243 112.512 0.341797 107.42 0.341797H96.5807C96.5256 0.341797 96.473 0.36372 96.4339 0.402822C96.3948 0.441861 96.373 0.494872 96.373 0.550128V24.4564C96.373 24.5115 96.3948 24.5647 96.4339 24.6039C96.473 24.643 96.5256 24.6647 96.5807 24.6647H101.183C101.238 24.6647 101.29 24.643 101.329 24.6039C101.369 24.5647 101.39 24.5115 101.39 24.4564V15.4491H106.185L110.689 24.5449C110.706 24.5795 110.733 24.6083 110.766 24.6288C110.799 24.6487 110.837 24.6596 110.875 24.6596H116.204C116.24 24.659 116.275 24.6494 116.306 24.6314C116.337 24.6135 116.362 24.5878 116.38 24.5571C116.398 24.5263 116.408 24.491 116.409 24.4558C116.41 24.4199 116.401 24.3846 116.385 24.3532L111.236 14.9001ZM110.54 7.94596C110.54 9.82096 109.432 10.8512 107.422 10.8512H101.393V4.93763H107.422C107.833 4.88647 108.251 4.92814 108.645 5.05949C109.038 5.19083 109.398 5.40859 109.697 5.69692C109.995 5.98519 110.226 6.33673 110.372 6.72584C110.518 7.11494 110.576 7.53179 110.54 7.94596Z" fill="#8E97A6"/>
</svg>
