<svg width="122" height="24" viewBox="0 0 122 24" fill="none" xmlns="http://www.w3.org/2000/svg">
<path d="M10.9208 0.000210309C9.21161 -0.0106413 7.52676 0.398436 5.87006 1.23163C4.20636 2.0612 2.82648 3.37644 1.72317 5.17687C0.616387 6.97729 0.0455263 9.32806 0 12.2261C0.0105733 14.4178 0.441486 16.4032 1.2891 18.1746C2.13672 19.9424 3.34834 21.3477 4.92448 22.3946C6.50411 23.4415 8.38864 23.9745 10.5777 23.9998C11.8071 24.0072 12.9663 23.7751 14.0661 23.3114C15.0819 22.8876 15.751 22.3117 16.1293 21.9531V23.4564H21.404V10.846H12.3497V15.7512H15.3584C15.1588 16.6025 14.7248 17.2397 14.0558 17.6599C13.3833 18.0838 12.6407 18.2904 11.8211 18.2904C10.4481 18.2579 9.40083 17.9066 8.67582 17.2364C7.95079 16.5699 7.45679 15.7799 7.19411 14.8742C6.9314 13.965 6.80878 13.1354 6.82279 12.3855C6.79131 11.8059 6.83675 10.998 6.95583 9.95469C7.07842 8.91139 7.45704 7.95873 8.09799 7.08931C8.73896 6.22351 9.82468 5.76353 11.3553 5.7092C12.1819 5.72367 12.8892 5.99171 13.4812 6.50975C14.0731 7.0314 14.4408 7.71622 14.5844 8.5639H21.1272C20.6193 5.85059 19.502 3.74944 17.7682 2.26056C16.038 0.775292 13.7544 0.0219388 10.9208 0.000210309ZM23.5473 0.54322V23.4523H30.367V15.4645H34.0794C34.9375 15.5008 35.5506 15.6963 35.9884 16.1673C36.4122 16.6273 36.6541 17.1202 36.7942 17.8012C37.1479 19.4531 37.1374 21.3584 37.2565 23.4523H43.9252C43.9252 23.4523 43.8937 22.2349 43.8553 21.2568C43.8343 20.7209 43.8129 20.2687 43.8024 20.1634V20.163C43.785 19.7391 43.7395 18.9136 43.7079 18.5188C43.5748 17.0879 43.249 15.9287 42.6956 14.9071C42.1527 13.9109 41.3894 13.2152 40.4542 12.8349C41.5785 12.3675 42.4225 11.5995 42.9689 10.5055C43.5082 9.43685 43.7782 8.31745 43.7746 7.09301C43.7572 5.6476 43.4068 4.41598 42.7588 3.46323C42.1704 2.56846 41.2421 1.76796 40.1949 1.30064C39.0741 0.800726 37.9357 0.546916 36.6258 0.546916L23.5473 0.54322ZM66.7374 0.54322L66.737 23.4527L73.1118 23.4564L73.1154 10.9368L79.8965 23.4564H80.0681L86.3515 23.4527L86.3555 16.6856L88.674 14.5374L94.0714 23.4527L102.474 23.4564L93.245 9.49876L101.185 0.547327H92.8773L86.3555 8.44109L86.3515 0.547327H80.0192V12.8024L73.648 0.547327L66.7374 0.54322ZM45.9251 0.546916V23.4527H64.5973V17.5839H52.7444V14.7259H63.2029V9.27367H52.7444V6.41569H64.2537V0.546916H45.9251ZM103.325 0.546916V23.4527H122V17.5876H110.147V14.7259H120.602V9.27367H110.147V6.41569H121.66V0.546916H103.325ZM30.4476 5.99508H33.6453C34.9272 5.99901 35.8167 6.19786 36.3141 6.59272C36.8149 6.98758 37.0499 7.54906 37.0289 8.2772C36.9834 9.26978 36.6401 9.90742 35.9991 10.1864C35.3617 10.4689 34.6996 10.5886 34.0166 10.556H30.4476V5.99508Z" fill="#8E97A6"/>
</svg>
