<svg width="583" height="604" viewBox="0 0 583 604" fill="none" xmlns="http://www.w3.org/2000/svg">
<ellipse cx="291.5" cy="292" rx="291.5" ry="292" fill="url(#paint0_linear_802_2850)"/>
<g filter="url(#filter0_d_802_2850)">
<rect x="64" y="70" width="455" height="444" rx="26.0741" fill="white"/>
</g>
<path d="M99.1797 477V467.234L96.3125 468.438V467.008L100.406 465.469H100.656V477H99.1797ZM105.203 476.211C105.203 475.94 105.289 475.711 105.461 475.523C105.633 475.336 105.88 475.242 106.203 475.242C106.526 475.242 106.773 475.336 106.945 475.523C107.117 475.711 107.203 475.94 107.203 476.211C107.203 476.477 107.117 476.703 106.945 476.891C106.773 477.078 106.526 477.172 106.203 477.172C105.88 477.172 105.633 477.078 105.461 476.891C105.289 476.703 105.203 476.477 105.203 476.211ZM109.211 474.148V474.062H110.625V474.148C110.625 474.727 110.828 475.182 111.234 475.516C111.641 475.849 112.182 476.016 112.859 476.016C113.536 476.016 114.091 475.786 114.523 475.328C114.956 474.865 115.172 474.211 115.172 473.367C115.172 472.523 114.956 471.885 114.523 471.453C114.096 471.016 113.544 470.797 112.867 470.797C112.398 470.797 111.982 470.883 111.617 471.055C111.258 471.221 110.924 471.461 110.617 471.773L109.602 471.305L110.18 465.625H116.039V466.93H111.375L111.031 470.18C111.286 470.018 111.589 469.878 111.938 469.758C112.292 469.633 112.68 469.57 113.102 469.57C114.081 469.57 114.914 469.904 115.602 470.57C116.289 471.232 116.633 472.164 116.633 473.367C116.633 474.57 116.276 475.516 115.562 476.203C114.849 476.891 113.948 477.234 112.859 477.234C111.703 477.234 110.805 476.943 110.164 476.359C109.529 475.776 109.211 475.039 109.211 474.148ZM117.938 468.938V468.078C117.938 467.245 118.151 466.578 118.578 466.078C119.005 465.573 119.63 465.32 120.453 465.32C121.276 465.32 121.901 465.573 122.328 466.078C122.76 466.583 122.977 467.25 122.977 468.078V468.938C122.977 469.766 122.76 470.432 122.328 470.938C121.901 471.443 121.276 471.695 120.453 471.695C119.63 471.695 119.005 471.443 118.578 470.938C118.151 470.432 117.938 469.766 117.938 468.938ZM119.195 468.938C119.195 469.406 119.289 469.792 119.477 470.094C119.664 470.396 119.99 470.547 120.453 470.547C120.917 470.547 121.242 470.396 121.43 470.094C121.622 469.792 121.719 469.406 121.719 468.938V468.078C121.719 467.609 121.622 467.224 121.43 466.922C121.242 466.62 120.917 466.469 120.453 466.469C119.99 466.469 119.664 466.62 119.477 466.922C119.289 467.224 119.195 467.609 119.195 468.078V468.938ZM128.625 465.914L121.438 477.336L120.477 476.672L127.656 465.25L128.625 465.914ZM126.102 474.398V473.539C126.102 472.706 126.315 472.039 126.742 471.539C127.169 471.034 127.794 470.781 128.617 470.781C129.44 470.781 130.065 471.034 130.492 471.539C130.924 472.044 131.141 472.711 131.141 473.539V474.398C131.141 475.227 130.924 475.893 130.492 476.398C130.065 476.904 129.44 477.156 128.617 477.156C127.794 477.156 127.169 476.904 126.742 476.398C126.315 475.893 126.102 475.227 126.102 474.398ZM127.359 474.398C127.359 474.867 127.453 475.253 127.641 475.555C127.828 475.857 128.154 476.008 128.617 476.008C129.081 476.008 129.406 475.857 129.594 475.555C129.786 475.253 129.883 474.867 129.883 474.398V473.539C129.883 473.07 129.786 472.685 129.594 472.383C129.406 472.081 129.081 471.93 128.617 471.93C128.154 471.93 127.828 472.081 127.641 472.383C127.453 472.685 127.359 473.07 127.359 473.539V474.398ZM136.68 480.258V468.828H137.969L138.023 469.898H138.07C138.279 469.56 138.596 469.271 139.023 469.031C139.456 468.792 139.956 468.672 140.523 468.672C141.56 468.672 142.388 469.06 143.008 469.836C143.628 470.612 143.938 471.596 143.938 472.789V473.039C143.938 474.232 143.628 475.216 143.008 475.992C142.388 476.768 141.56 477.156 140.523 477.156C139.956 477.156 139.469 477.055 139.062 476.852C138.661 476.643 138.341 476.37 138.102 476.031V480.258H136.68ZM138.102 474.586C138.263 474.951 138.526 475.276 138.891 475.562C139.255 475.844 139.698 475.984 140.219 475.984C141 475.984 141.57 475.703 141.93 475.141C142.294 474.573 142.477 473.872 142.477 473.039V472.789C142.477 471.956 142.294 471.258 141.93 470.695C141.57 470.128 141 469.844 140.219 469.844C139.698 469.844 139.255 469.987 138.891 470.273C138.526 470.56 138.263 470.883 138.102 471.242V474.586ZM145.25 473.039V472.789C145.25 471.555 145.586 470.549 146.258 469.773C146.935 468.992 147.828 468.602 148.938 468.602C150.047 468.602 150.901 468.966 151.5 469.695C152.099 470.419 152.398 471.404 152.398 472.648V473.234H146.117V472.094H150.961V471.914C150.961 471.32 150.792 470.815 150.453 470.398C150.12 469.977 149.633 469.766 148.992 469.766C148.227 469.766 147.654 470.057 147.273 470.641C146.893 471.224 146.703 471.94 146.703 472.789V473.039C146.703 473.888 146.904 474.604 147.305 475.188C147.706 475.771 148.326 476.062 149.164 476.062C149.685 476.062 150.13 475.951 150.5 475.727C150.875 475.497 151.18 475.227 151.414 474.914L152.336 475.641C152.076 476.031 151.674 476.396 151.133 476.734C150.596 477.068 149.94 477.234 149.164 477.234C147.898 477.234 146.93 476.844 146.258 476.062C145.586 475.281 145.25 474.273 145.25 473.039ZM154.164 477V468.828H155.453L155.508 469.883H155.555C155.763 469.539 156.036 469.24 156.375 468.984C156.714 468.729 157.117 468.602 157.586 468.602C157.701 468.602 157.82 468.615 157.945 468.641C158.07 468.661 158.159 468.682 158.211 468.703V470.023C158.107 470.003 157.997 469.987 157.883 469.977C157.768 469.966 157.643 469.961 157.508 469.961C157.044 469.961 156.646 470.083 156.312 470.328C155.984 470.573 155.742 470.88 155.586 471.25V477H154.164ZM163.445 477V468.828H164.734L164.789 469.883H164.836C165.128 469.513 165.479 469.219 165.891 469C166.302 468.781 166.76 468.672 167.266 468.672C167.812 468.672 168.284 468.781 168.68 469C169.081 469.219 169.385 469.573 169.594 470.062H169.633C169.977 469.573 170.354 469.219 170.766 469C171.182 468.781 171.661 468.672 172.203 468.672C173.047 468.672 173.706 468.906 174.18 469.375C174.659 469.844 174.898 470.625 174.898 471.719V477H173.469V471.703C173.469 471.047 173.328 470.578 173.047 470.297C172.771 470.016 172.375 469.875 171.859 469.875C171.411 469.875 171.018 470 170.68 470.25C170.346 470.5 170.081 470.823 169.883 471.219V477H168.461V471.703C168.461 471.047 168.32 470.578 168.039 470.297C167.758 470.016 167.359 469.875 166.844 469.875C166.396 469.875 166.003 470 165.664 470.25C165.331 470.5 165.065 470.823 164.867 471.219V477H163.445ZM176.625 473.039V472.789C176.625 471.555 176.974 470.549 177.672 469.773C178.37 468.992 179.302 468.602 180.469 468.602C181.635 468.602 182.568 468.992 183.266 469.773C183.964 470.549 184.312 471.555 184.312 472.789V473.039C184.312 474.273 183.964 475.281 183.266 476.062C182.568 476.844 181.635 477.234 180.469 477.234C179.302 477.234 178.37 476.844 177.672 476.062C176.974 475.281 176.625 474.273 176.625 473.039ZM178.078 472.789V473.039C178.078 473.888 178.279 474.604 178.68 475.188C179.081 475.771 179.677 476.062 180.469 476.062C181.26 476.062 181.854 475.771 182.25 475.188C182.651 474.604 182.852 473.888 182.852 473.039V472.789C182.852 471.94 182.651 471.224 182.25 470.641C181.854 470.057 181.26 469.766 180.469 469.766C179.677 469.766 179.081 470.057 178.68 470.641C178.279 471.224 178.078 471.94 178.078 472.789ZM186.117 477V468.828H187.406L187.461 469.883H187.508C187.805 469.508 188.167 469.214 188.594 469C189.021 468.781 189.495 468.672 190.016 468.672C190.839 468.672 191.492 468.906 191.977 469.375C192.466 469.844 192.711 470.625 192.711 471.719V477H191.289V471.711C191.289 471.055 191.141 470.586 190.844 470.305C190.552 470.018 190.135 469.875 189.594 469.875C189.13 469.875 188.721 470 188.367 470.25C188.013 470.5 187.737 470.823 187.539 471.219V477H186.117ZM193.781 469.922V468.828H198.43V469.922H193.781ZM195.242 474.969V469.484V469.258V466.766H196.664V474.969C196.664 475.344 196.737 475.609 196.883 475.766C197.034 475.922 197.266 476 197.578 476C197.724 476 197.865 475.987 198 475.961C198.141 475.93 198.284 475.888 198.43 475.836V477C198.294 477.062 198.12 477.117 197.906 477.164C197.693 477.211 197.456 477.234 197.195 477.234C196.602 477.234 196.128 477.055 195.773 476.695C195.419 476.331 195.242 475.755 195.242 474.969ZM199.961 477V465.031H201.383V469.844C201.669 469.49 202.036 469.206 202.484 468.992C202.932 468.779 203.419 468.672 203.945 468.672C204.711 468.672 205.336 468.906 205.82 469.375C206.31 469.844 206.555 470.625 206.555 471.719V477H205.133V471.711C205.133 471.055 204.984 470.586 204.688 470.305C204.396 470.018 203.979 469.875 203.438 469.875C202.974 469.875 202.565 470 202.211 470.25C201.857 470.5 201.581 470.823 201.383 471.219V477H199.961Z" fill="#4B5768"/>
<circle cx="98.6111" cy="104.049" r="3.80247" fill="#FF6051"/>
<circle cx="109.474" cy="104.049" r="3.80247" fill="#FEBE05"/>
<circle cx="120.34" cy="104.049" r="3.80247" fill="#1ECB3D"/>
<path d="M99.785 139.965L96.75 143L99.785 146.035" stroke="#909DBC" stroke-width="1.2" stroke-miterlimit="10" stroke-linecap="round" stroke-linejoin="round"/>
<path d="M105.251 143H96.8359" stroke="#909DBC" stroke-width="1.2" stroke-miterlimit="10" stroke-linecap="round" stroke-linejoin="round"/>
<path d="M116.996 147V138.469H119.873C120.752 138.469 121.441 138.65 121.941 139.014C122.445 139.377 122.697 139.949 122.697 140.73C122.697 141.199 122.576 141.58 122.334 141.873C122.096 142.166 121.797 142.375 121.438 142.5V142.523C121.875 142.648 122.232 142.879 122.51 143.215C122.787 143.551 122.926 143.992 122.926 144.539C122.926 145.32 122.662 145.926 122.135 146.355C121.611 146.785 120.916 147 120.049 147H116.996ZM118.121 146.051H120.049C120.646 146.051 121.086 145.914 121.367 145.641C121.648 145.367 121.789 144.998 121.789 144.533C121.789 144.068 121.648 143.701 121.367 143.432C121.086 143.162 120.646 143.027 120.049 143.027H118.121V146.051ZM118.121 142.09H119.873C120.471 142.09 120.9 141.971 121.162 141.732C121.428 141.494 121.561 141.162 121.561 140.736C121.561 140.311 121.428 139.984 121.162 139.758C120.9 139.531 120.471 139.418 119.873 139.418H118.121V142.09ZM124.039 145.166C124.039 144.533 124.293 144.041 124.801 143.689C125.312 143.334 125.963 143.156 126.752 143.156H128.193V142.711C128.193 142.344 128.094 142.047 127.895 141.82C127.695 141.59 127.354 141.475 126.869 141.475C126.385 141.475 126.037 141.572 125.826 141.768C125.619 141.963 125.516 142.189 125.516 142.447V142.477H124.408V142.447C124.408 141.951 124.633 141.518 125.082 141.146C125.531 140.775 126.137 140.59 126.898 140.59C127.664 140.59 128.256 140.768 128.674 141.123C129.096 141.479 129.307 142.008 129.307 142.711V145.594C129.307 145.848 129.326 146.088 129.365 146.314C129.404 146.537 129.461 146.734 129.535 146.906V147H128.457C128.398 146.902 128.346 146.773 128.299 146.613C128.256 146.453 128.229 146.295 128.217 146.139C128.068 146.396 127.826 146.625 127.49 146.824C127.158 147.02 126.729 147.117 126.201 147.117C125.604 147.117 125.094 146.949 124.672 146.613C124.25 146.277 124.039 145.795 124.039 145.166ZM125.152 145.107C125.152 145.459 125.258 145.734 125.469 145.934C125.68 146.129 126.006 146.227 126.447 146.227C126.893 146.227 127.295 146.078 127.654 145.781C128.014 145.484 128.193 145.17 128.193 144.838V143.953H126.869C126.307 143.953 125.879 144.057 125.586 144.264C125.297 144.471 125.152 144.752 125.152 145.107ZM130.654 143.977V143.789C130.654 142.848 130.914 142.08 131.434 141.486C131.953 140.889 132.67 140.59 133.584 140.59C134.428 140.59 135.068 140.814 135.506 141.264C135.943 141.709 136.162 142.207 136.162 142.758V142.787H135.084V142.758C135.084 142.43 134.965 142.139 134.727 141.885C134.488 141.631 134.107 141.504 133.584 141.504C132.971 141.504 132.518 141.725 132.225 142.166C131.936 142.607 131.791 143.148 131.791 143.789V143.977C131.791 144.617 131.936 145.158 132.225 145.6C132.518 146.041 132.971 146.262 133.584 146.262C134.107 146.262 134.488 146.135 134.727 145.881C134.965 145.627 135.084 145.334 135.084 145.002V144.973H136.162V145.002C136.162 145.557 135.943 146.059 135.506 146.508C135.068 146.953 134.428 147.176 133.584 147.176C132.67 147.176 131.953 146.879 131.434 146.285C130.914 145.688 130.654 144.918 130.654 143.977ZM137.445 147V138H138.559V143.619L141.242 140.766H142.525L138.559 144.902V147H137.445ZM141.518 147L139.045 143.754L139.754 142.986L142.836 147H141.518Z" fill="#001B44"/>
<path d="M96.1875 191V179.625H100.445C101.695 179.625 102.674 179.87 103.383 180.359C104.096 180.849 104.453 181.604 104.453 182.625C104.453 183.25 104.307 183.766 104.016 184.172C103.729 184.573 103.375 184.849 102.953 185V185.031C103.474 185.182 103.906 185.484 104.25 185.938C104.594 186.391 104.766 186.987 104.766 187.727C104.766 188.763 104.391 189.568 103.641 190.141C102.891 190.714 101.898 191 100.664 191H96.1875ZM98.5703 189.297H100.586C101.195 189.297 101.643 189.146 101.93 188.844C102.216 188.536 102.359 188.12 102.359 187.594C102.359 187.078 102.216 186.667 101.93 186.359C101.643 186.052 101.195 185.898 100.586 185.898H98.5703V189.297ZM98.5703 184.305H100.367C100.971 184.305 101.406 184.174 101.672 183.914C101.943 183.654 102.078 183.286 102.078 182.812C102.078 182.344 101.943 181.982 101.672 181.727C101.406 181.471 100.971 181.344 100.367 181.344H98.5703V184.305ZM106.359 187.828V182.805H108.703V187.883C108.703 188.445 108.815 188.836 109.039 189.055C109.268 189.268 109.578 189.375 109.969 189.375C110.318 189.375 110.63 189.273 110.906 189.07C111.188 188.862 111.396 188.604 111.531 188.297V182.805H113.867V191H111.648L111.594 190.07H111.555C111.315 190.409 110.984 190.677 110.562 190.875C110.146 191.068 109.677 191.164 109.156 191.164C108.339 191.164 107.667 190.909 107.141 190.398C106.62 189.883 106.359 189.026 106.359 187.828ZM115.375 188.414L117.656 188.422V188.547C117.656 188.932 117.784 189.214 118.039 189.391C118.299 189.562 118.651 189.648 119.094 189.648C119.542 189.648 119.88 189.565 120.109 189.398C120.339 189.232 120.453 189.008 120.453 188.727C120.453 188.445 120.333 188.237 120.094 188.102C119.854 187.966 119.286 187.807 118.391 187.625C117.427 187.427 116.724 187.122 116.281 186.711C115.839 186.299 115.617 185.766 115.617 185.109C115.617 184.323 115.932 183.703 116.562 183.25C117.193 182.797 118.042 182.57 119.109 182.57C120.177 182.57 121.031 182.807 121.672 183.281C122.312 183.75 122.633 184.391 122.633 185.203V185.297H120.359V185.172C120.359 184.854 120.255 184.607 120.047 184.43C119.844 184.253 119.529 184.164 119.102 184.164C118.68 184.164 118.372 184.237 118.18 184.383C117.992 184.523 117.898 184.714 117.898 184.953C117.898 185.193 118.021 185.383 118.266 185.523C118.51 185.664 119.083 185.826 119.984 186.008C120.943 186.201 121.646 186.497 122.094 186.898C122.547 187.299 122.773 187.852 122.773 188.555C122.773 189.393 122.461 190.049 121.836 190.523C121.216 190.997 120.307 191.234 119.109 191.234C117.922 191.234 117.003 190.997 116.352 190.523C115.701 190.049 115.375 189.375 115.375 188.5V188.414ZM124.352 191V182.805H126.703V191H124.352ZM124.156 180.508C124.156 180.159 124.273 179.865 124.508 179.625C124.747 179.38 125.089 179.258 125.531 179.258C125.969 179.258 126.305 179.378 126.539 179.617C126.779 179.857 126.898 180.154 126.898 180.508C126.898 180.867 126.779 181.169 126.539 181.414C126.305 181.654 125.966 181.773 125.523 181.773C125.086 181.773 124.747 181.654 124.508 181.414C124.273 181.169 124.156 180.867 124.156 180.508ZM128.719 191V182.805H130.938L130.992 183.734H131.031C131.24 183.417 131.552 183.156 131.969 182.953C132.391 182.745 132.857 182.641 133.367 182.641C134.211 182.641 134.898 182.88 135.43 183.359C135.961 183.833 136.227 184.667 136.227 185.859V191H133.891V185.812C133.891 185.307 133.781 184.953 133.562 184.75C133.344 184.542 133.031 184.438 132.625 184.438C132.297 184.438 131.99 184.531 131.703 184.719C131.417 184.906 131.201 185.172 131.055 185.516V191H128.719ZM137.711 187.023V186.773C137.711 185.508 138.094 184.492 138.859 183.727C139.625 182.956 140.604 182.57 141.797 182.57C143 182.57 143.943 182.932 144.625 183.656C145.307 184.375 145.648 185.37 145.648 186.641V187.469H139.289V186.023H143.344V185.852C143.344 185.404 143.208 185.026 142.938 184.719C142.672 184.406 142.292 184.25 141.797 184.25C141.224 184.25 140.786 184.466 140.484 184.898C140.188 185.326 140.039 185.906 140.039 186.641V187.141C140.039 187.87 140.201 188.448 140.523 188.875C140.846 189.297 141.32 189.508 141.945 189.508C142.383 189.508 142.76 189.401 143.078 189.188C143.396 188.974 143.654 188.727 143.852 188.445L145.508 189.492C145.247 189.997 144.807 190.414 144.188 190.742C143.568 191.07 142.833 191.234 141.984 191.234C140.656 191.234 139.612 190.852 138.852 190.086C138.091 189.315 137.711 188.294 137.711 187.023ZM146.609 188.414L148.891 188.422V188.547C148.891 188.932 149.018 189.214 149.273 189.391C149.534 189.562 149.885 189.648 150.328 189.648C150.776 189.648 151.115 189.565 151.344 189.398C151.573 189.232 151.688 189.008 151.688 188.727C151.688 188.445 151.568 188.237 151.328 188.102C151.089 187.966 150.521 187.807 149.625 187.625C148.661 187.427 147.958 187.122 147.516 186.711C147.073 186.299 146.852 185.766 146.852 185.109C146.852 184.323 147.167 183.703 147.797 183.25C148.427 182.797 149.276 182.57 150.344 182.57C151.411 182.57 152.266 182.807 152.906 183.281C153.547 183.75 153.867 184.391 153.867 185.203V185.297H151.594V185.172C151.594 184.854 151.49 184.607 151.281 184.43C151.078 184.253 150.763 184.164 150.336 184.164C149.914 184.164 149.607 184.237 149.414 184.383C149.227 184.523 149.133 184.714 149.133 184.953C149.133 185.193 149.255 185.383 149.5 185.523C149.745 185.664 150.318 185.826 151.219 186.008C152.177 186.201 152.88 186.497 153.328 186.898C153.781 187.299 154.008 187.852 154.008 188.555C154.008 189.393 153.695 190.049 153.07 190.523C152.451 190.997 151.542 191.234 150.344 191.234C149.156 191.234 148.237 190.997 147.586 190.523C146.935 190.049 146.609 189.375 146.609 188.5V188.414ZM155.062 188.414L157.344 188.422V188.547C157.344 188.932 157.471 189.214 157.727 189.391C157.987 189.562 158.339 189.648 158.781 189.648C159.229 189.648 159.568 189.565 159.797 189.398C160.026 189.232 160.141 189.008 160.141 188.727C160.141 188.445 160.021 188.237 159.781 188.102C159.542 187.966 158.974 187.807 158.078 187.625C157.115 187.427 156.411 187.122 155.969 186.711C155.526 186.299 155.305 185.766 155.305 185.109C155.305 184.323 155.62 183.703 156.25 183.25C156.88 182.797 157.729 182.57 158.797 182.57C159.865 182.57 160.719 182.807 161.359 183.281C162 183.75 162.32 184.391 162.32 185.203V185.297H160.047V185.172C160.047 184.854 159.943 184.607 159.734 184.43C159.531 184.253 159.216 184.164 158.789 184.164C158.367 184.164 158.06 184.237 157.867 184.383C157.68 184.523 157.586 184.714 157.586 184.953C157.586 185.193 157.708 185.383 157.953 185.523C158.198 185.664 158.771 185.826 159.672 186.008C160.63 186.201 161.333 186.497 161.781 186.898C162.234 187.299 162.461 187.852 162.461 188.555C162.461 189.393 162.148 190.049 161.523 190.523C160.904 190.997 159.995 191.234 158.797 191.234C157.609 191.234 156.69 190.997 156.039 190.523C155.388 190.049 155.062 189.375 155.062 188.5V188.414ZM167.477 187.023V186.773C167.477 185.482 167.857 184.458 168.617 183.703C169.383 182.948 170.396 182.57 171.656 182.57C172.854 182.57 173.766 182.867 174.391 183.461C175.021 184.055 175.357 184.763 175.398 185.586L175.414 185.727H173.133V185.625C173.133 185.245 173.008 184.93 172.758 184.68C172.513 184.424 172.141 184.297 171.641 184.297C171.057 184.297 170.615 184.51 170.312 184.938C170.016 185.359 169.867 185.93 169.867 186.648V187.148C169.867 187.872 170.01 188.448 170.297 188.875C170.589 189.297 171.036 189.508 171.641 189.508C172.188 189.508 172.573 189.375 172.797 189.109C173.021 188.839 173.133 188.523 173.133 188.164V188.078H175.406V188.18C175.406 189.003 175.081 189.719 174.43 190.328C173.779 190.932 172.854 191.234 171.656 191.234C170.401 191.234 169.391 190.857 168.625 190.102C167.859 189.341 167.477 188.315 167.477 187.023ZM176.367 188.594C176.367 187.677 176.719 186.992 177.422 186.539C178.125 186.081 179.013 185.849 180.086 185.844H181.688V185.383C181.688 185.013 181.594 184.716 181.406 184.492C181.219 184.263 180.888 184.148 180.414 184.148C179.935 184.148 179.596 184.242 179.398 184.43C179.201 184.617 179.102 184.849 179.102 185.125V185.242H176.805V185.125C176.805 184.385 177.148 183.776 177.836 183.297C178.523 182.818 179.414 182.578 180.508 182.578C181.612 182.578 182.474 182.807 183.094 183.266C183.714 183.724 184.023 184.435 184.023 185.398V189.164C184.023 189.492 184.055 189.807 184.117 190.109C184.18 190.411 184.26 190.667 184.359 190.875V191H182.062C182 190.88 181.945 190.724 181.898 190.531C181.852 190.333 181.818 190.143 181.797 189.961C181.641 190.268 181.336 190.544 180.883 190.789C180.435 191.029 179.875 191.148 179.203 191.148C178.396 191.148 177.721 190.938 177.18 190.516C176.638 190.089 176.367 189.448 176.367 188.594ZM178.711 188.383C178.711 188.742 178.815 189.031 179.023 189.25C179.232 189.469 179.56 189.578 180.008 189.578C180.492 189.578 180.893 189.424 181.211 189.117C181.529 188.81 181.688 188.445 181.688 188.023V187.242H180.43C179.846 187.242 179.414 187.341 179.133 187.539C178.852 187.737 178.711 188.018 178.711 188.383ZM186.062 191V182.805H188.297L188.344 183.711H188.383C188.549 183.404 188.779 183.141 189.07 182.922C189.362 182.698 189.69 182.586 190.055 182.586C190.164 182.586 190.273 182.599 190.383 182.625C190.497 182.651 190.578 182.674 190.625 182.695V184.695C190.536 184.674 190.44 184.659 190.336 184.648C190.232 184.633 190.117 184.625 189.992 184.625C189.633 184.625 189.31 184.732 189.023 184.945C188.742 185.154 188.536 185.422 188.406 185.75V191H186.062ZM191.289 187.031V186.781C191.289 185.557 191.617 184.562 192.273 183.797C192.935 183.031 193.794 182.648 194.852 182.648C195.367 182.648 195.812 182.742 196.188 182.93C196.568 183.112 196.859 183.352 197.062 183.648V179.062H199.391V191H197.172L197.125 190.047H197.086C196.914 190.365 196.628 190.63 196.227 190.844C195.831 191.052 195.375 191.156 194.859 191.156C193.75 191.156 192.878 190.773 192.242 190.008C191.607 189.242 191.289 188.25 191.289 187.031ZM193.68 187.133C193.68 187.81 193.826 188.357 194.117 188.773C194.409 189.19 194.844 189.398 195.422 189.398C195.823 189.398 196.161 189.292 196.438 189.078C196.714 188.859 196.919 188.599 197.055 188.297V185.5C196.924 185.198 196.724 184.94 196.453 184.727C196.188 184.513 195.846 184.406 195.43 184.406C194.857 184.406 194.422 184.617 194.125 185.039C193.828 185.456 193.68 186 193.68 186.672V187.133ZM200.891 188.414L203.172 188.422V188.547C203.172 188.932 203.299 189.214 203.555 189.391C203.815 189.562 204.167 189.648 204.609 189.648C205.057 189.648 205.396 189.565 205.625 189.398C205.854 189.232 205.969 189.008 205.969 188.727C205.969 188.445 205.849 188.237 205.609 188.102C205.37 187.966 204.802 187.807 203.906 187.625C202.943 187.427 202.24 187.122 201.797 186.711C201.354 186.299 201.133 185.766 201.133 185.109C201.133 184.323 201.448 183.703 202.078 183.25C202.708 182.797 203.557 182.57 204.625 182.57C205.693 182.57 206.547 182.807 207.188 183.281C207.828 183.75 208.148 184.391 208.148 185.203V185.297H205.875V185.172C205.875 184.854 205.771 184.607 205.562 184.43C205.359 184.253 205.044 184.164 204.617 184.164C204.195 184.164 203.888 184.237 203.695 184.383C203.508 184.523 203.414 184.714 203.414 184.953C203.414 185.193 203.536 185.383 203.781 185.523C204.026 185.664 204.599 185.826 205.5 186.008C206.458 186.201 207.161 186.497 207.609 186.898C208.062 187.299 208.289 187.852 208.289 188.555C208.289 189.393 207.977 190.049 207.352 190.523C206.732 190.997 205.823 191.234 204.625 191.234C203.438 191.234 202.518 190.997 201.867 190.523C201.216 190.049 200.891 189.375 200.891 188.5V188.414Z" fill="#001B44"/>
<rect x="95" y="204" width="169" height="8" rx="4" fill="#E5E8ED"/>
<rect x="95" y="217" width="99" height="8" rx="4" fill="#E5E8ED"/>
<path d="M96.1875 404V392.625H99.2891L101.977 399.953C102.044 400.13 102.099 400.297 102.141 400.453C102.188 400.609 102.227 400.784 102.258 400.977H102.312C102.344 400.784 102.383 400.609 102.43 400.453C102.477 400.297 102.531 400.13 102.594 399.953L105.297 392.625H108.438V404H106.055V396.766C106.055 396.589 106.057 396.396 106.062 396.188C106.073 395.974 106.086 395.781 106.102 395.609H106.039C106.013 395.781 105.974 395.974 105.922 396.188C105.875 396.396 105.82 396.589 105.758 396.766L103.102 404H101.125L98.4844 396.766C98.4219 396.589 98.3646 396.396 98.3125 396.188C98.2656 395.974 98.2266 395.781 98.1953 395.609H98.1328C98.1536 395.781 98.1667 395.974 98.1719 396.188C98.1771 396.396 98.1797 396.589 98.1797 396.766V404H96.1875ZM110.18 400.023V399.773C110.18 398.487 110.57 397.466 111.352 396.711C112.138 395.951 113.161 395.57 114.422 395.57C115.677 395.57 116.695 395.951 117.477 396.711C118.263 397.466 118.656 398.487 118.656 399.773V400.023C118.656 401.31 118.263 402.333 117.477 403.094C116.695 403.854 115.677 404.234 114.422 404.234C113.161 404.234 112.138 403.854 111.352 403.094C110.57 402.333 110.18 401.31 110.18 400.023ZM112.57 399.648V400.148C112.57 400.904 112.729 401.479 113.047 401.875C113.37 402.271 113.828 402.469 114.422 402.469C115.01 402.469 115.464 402.271 115.781 401.875C116.099 401.479 116.258 400.904 116.258 400.148V399.648C116.258 398.893 116.096 398.32 115.773 397.93C115.451 397.534 115 397.336 114.422 397.336C113.839 397.336 113.383 397.534 113.055 397.93C112.732 398.32 112.57 398.893 112.57 399.648ZM120.219 404V395.805H122.438L122.492 396.734H122.531C122.74 396.417 123.052 396.156 123.469 395.953C123.891 395.745 124.357 395.641 124.867 395.641C125.711 395.641 126.398 395.88 126.93 396.359C127.461 396.833 127.727 397.667 127.727 398.859V404H125.391V398.812C125.391 398.307 125.281 397.953 125.062 397.75C124.844 397.542 124.531 397.438 124.125 397.438C123.797 397.438 123.49 397.531 123.203 397.719C122.917 397.906 122.701 398.172 122.555 398.516V404H120.219ZM128.664 397.508V395.805H133.742V397.508H128.664ZM129.883 401.555V396.664L129.891 396.438V393.844H132.211V401.477C132.211 401.857 132.279 402.12 132.414 402.266C132.555 402.406 132.75 402.477 133 402.477C133.12 402.477 133.24 402.464 133.359 402.438C133.479 402.406 133.596 402.367 133.711 402.32V403.992C133.586 404.055 133.411 404.109 133.188 404.156C132.964 404.203 132.719 404.227 132.453 404.227C131.677 404.227 131.055 404.013 130.586 403.586C130.117 403.154 129.883 402.477 129.883 401.555ZM135.062 404V392.062H137.391V396.891C137.635 396.526 137.961 396.227 138.367 395.992C138.773 395.758 139.276 395.641 139.875 395.641C140.646 395.641 141.281 395.885 141.781 396.375C142.281 396.865 142.531 397.659 142.531 398.758V404H140.195V398.906C140.195 398.375 140.076 397.997 139.836 397.773C139.602 397.549 139.286 397.438 138.891 397.438C138.531 397.438 138.224 397.536 137.969 397.734C137.719 397.932 137.529 398.216 137.398 398.586V404H135.062ZM144.516 404V392.062H146.859V404H144.516ZM148.609 407.242L148.633 405.531C148.763 405.573 148.909 405.604 149.07 405.625C149.232 405.651 149.385 405.664 149.531 405.664C149.885 405.664 150.193 405.552 150.453 405.328C150.714 405.104 150.94 404.651 151.133 403.969L151.055 403.961L147.875 395.805H150.234L151.891 400.555C151.958 400.747 152.01 400.927 152.047 401.094C152.083 401.255 152.117 401.422 152.148 401.594H152.203C152.24 401.422 152.276 401.255 152.312 401.094C152.349 400.932 152.401 400.753 152.469 400.555L154.07 395.805H156.164L152.805 404.945C152.503 405.763 152.096 406.378 151.586 406.789C151.081 407.201 150.458 407.406 149.719 407.406C149.479 407.406 149.271 407.393 149.094 407.367C148.917 407.341 148.755 407.299 148.609 407.242ZM161.055 404V395.805H163.406V404H161.055ZM160.859 393.508C160.859 393.159 160.977 392.865 161.211 392.625C161.451 392.38 161.792 392.258 162.234 392.258C162.672 392.258 163.008 392.378 163.242 392.617C163.482 392.857 163.602 393.154 163.602 393.508C163.602 393.867 163.482 394.169 163.242 394.414C163.008 394.654 162.669 394.773 162.227 394.773C161.789 394.773 161.451 394.654 161.211 394.414C160.977 394.169 160.859 393.867 160.859 393.508ZM165.422 404V395.805H167.641L167.695 396.734H167.734C167.943 396.417 168.255 396.156 168.672 395.953C169.094 395.745 169.56 395.641 170.07 395.641C170.914 395.641 171.602 395.88 172.133 396.359C172.664 396.833 172.93 397.667 172.93 398.859V404H170.594V398.812C170.594 398.307 170.484 397.953 170.266 397.75C170.047 397.542 169.734 397.438 169.328 397.438C169 397.438 168.693 397.531 168.406 397.719C168.12 397.906 167.904 398.172 167.758 398.516V404H165.422ZM173.867 397.508V395.805H178.945V397.508H173.867ZM175.086 401.555V396.664L175.094 396.438V393.844H177.414V401.477C177.414 401.857 177.482 402.12 177.617 402.266C177.758 402.406 177.953 402.477 178.203 402.477C178.323 402.477 178.443 402.464 178.562 402.438C178.682 402.406 178.799 402.367 178.914 402.32V403.992C178.789 404.055 178.615 404.109 178.391 404.156C178.167 404.203 177.922 404.227 177.656 404.227C176.88 404.227 176.258 404.013 175.789 403.586C175.32 403.154 175.086 402.477 175.086 401.555ZM179.82 400.023V399.773C179.82 398.508 180.203 397.492 180.969 396.727C181.734 395.956 182.714 395.57 183.906 395.57C185.109 395.57 186.052 395.932 186.734 396.656C187.417 397.375 187.758 398.37 187.758 399.641V400.469H181.398V399.023H185.453V398.852C185.453 398.404 185.318 398.026 185.047 397.719C184.781 397.406 184.401 397.25 183.906 397.25C183.333 397.25 182.896 397.466 182.594 397.898C182.297 398.326 182.148 398.906 182.148 399.641V400.141C182.148 400.87 182.31 401.448 182.633 401.875C182.956 402.297 183.43 402.508 184.055 402.508C184.492 402.508 184.87 402.401 185.188 402.188C185.505 401.974 185.763 401.727 185.961 401.445L187.617 402.492C187.357 402.997 186.917 403.414 186.297 403.742C185.677 404.07 184.943 404.234 184.094 404.234C182.766 404.234 181.721 403.852 180.961 403.086C180.201 402.315 179.82 401.294 179.82 400.023ZM189.219 404V395.805H191.453L191.5 396.711H191.539C191.706 396.404 191.935 396.141 192.227 395.922C192.518 395.698 192.846 395.586 193.211 395.586C193.32 395.586 193.43 395.599 193.539 395.625C193.654 395.651 193.734 395.674 193.781 395.695V397.695C193.693 397.674 193.596 397.659 193.492 397.648C193.388 397.633 193.273 397.625 193.148 397.625C192.789 397.625 192.466 397.732 192.18 397.945C191.898 398.154 191.693 398.422 191.562 398.75V404H189.219ZM194.445 400.023V399.773C194.445 398.508 194.828 397.492 195.594 396.727C196.359 395.956 197.339 395.57 198.531 395.57C199.734 395.57 200.677 395.932 201.359 396.656C202.042 397.375 202.383 398.37 202.383 399.641V400.469H196.023V399.023H200.078V398.852C200.078 398.404 199.943 398.026 199.672 397.719C199.406 397.406 199.026 397.25 198.531 397.25C197.958 397.25 197.521 397.466 197.219 397.898C196.922 398.326 196.773 398.906 196.773 399.641V400.141C196.773 400.87 196.935 401.448 197.258 401.875C197.581 402.297 198.055 402.508 198.68 402.508C199.117 402.508 199.495 402.401 199.812 402.188C200.13 401.974 200.388 401.727 200.586 401.445L202.242 402.492C201.982 402.997 201.542 403.414 200.922 403.742C200.302 404.07 199.568 404.234 198.719 404.234C197.391 404.234 196.346 403.852 195.586 403.086C194.826 402.315 194.445 401.294 194.445 400.023ZM203.344 401.414L205.625 401.422V401.547C205.625 401.932 205.753 402.214 206.008 402.391C206.268 402.562 206.62 402.648 207.062 402.648C207.51 402.648 207.849 402.565 208.078 402.398C208.307 402.232 208.422 402.008 208.422 401.727C208.422 401.445 208.302 401.237 208.062 401.102C207.823 400.966 207.255 400.807 206.359 400.625C205.396 400.427 204.693 400.122 204.25 399.711C203.807 399.299 203.586 398.766 203.586 398.109C203.586 397.323 203.901 396.703 204.531 396.25C205.161 395.797 206.01 395.57 207.078 395.57C208.146 395.57 209 395.807 209.641 396.281C210.281 396.75 210.602 397.391 210.602 398.203V398.297H208.328V398.172C208.328 397.854 208.224 397.607 208.016 397.43C207.812 397.253 207.497 397.164 207.07 397.164C206.648 397.164 206.341 397.237 206.148 397.383C205.961 397.523 205.867 397.714 205.867 397.953C205.867 398.193 205.99 398.383 206.234 398.523C206.479 398.664 207.052 398.826 207.953 399.008C208.911 399.201 209.615 399.497 210.062 399.898C210.516 400.299 210.742 400.852 210.742 401.555C210.742 402.393 210.43 403.049 209.805 403.523C209.185 403.997 208.276 404.234 207.078 404.234C205.891 404.234 204.971 403.997 204.32 403.523C203.669 403.049 203.344 402.375 203.344 401.5V401.414ZM211.305 397.508V395.805H216.383V397.508H211.305ZM212.523 401.555V396.664L212.531 396.438V393.844H214.852V401.477C214.852 401.857 214.919 402.12 215.055 402.266C215.195 402.406 215.391 402.477 215.641 402.477C215.76 402.477 215.88 402.464 216 402.438C216.12 402.406 216.237 402.367 216.352 402.32V403.992C216.227 404.055 216.052 404.109 215.828 404.156C215.604 404.203 215.359 404.227 215.094 404.227C214.318 404.227 213.695 404.013 213.227 403.586C212.758 403.154 212.523 402.477 212.523 401.555Z" fill="#001B44"/>
<rect x="95" y="417" width="239" height="12" rx="6" fill="#E5E8ED"/>
<rect x="95" y="434" width="129" height="8" rx="4" fill="#E5E8ED"/>
<rect opacity="0.5" x="95.5" y="249.5" width="182.5" height="107" rx="5.5" fill="#E5EFFE" stroke="#0067FF"/>
<path d="M107.979 273V264.469H110.961C111.867 264.469 112.58 264.65 113.1 265.014C113.619 265.377 113.879 265.949 113.879 266.73C113.879 267.199 113.76 267.582 113.521 267.879C113.287 268.172 112.998 268.379 112.654 268.5V268.523C113.076 268.645 113.422 268.875 113.691 269.215C113.965 269.551 114.102 269.992 114.102 270.539C114.102 271.32 113.83 271.926 113.287 272.355C112.744 272.785 112.027 273 111.137 273H107.979ZM109.303 271.957H111.125C111.691 271.957 112.105 271.826 112.367 271.564C112.633 271.303 112.766 270.951 112.766 270.51C112.766 270.064 112.633 269.713 112.367 269.455C112.105 269.197 111.691 269.068 111.125 269.068H109.303V271.957ZM109.303 268.055H110.949C111.516 268.055 111.922 267.941 112.168 267.715C112.418 267.488 112.543 267.174 112.543 266.771C112.543 266.365 112.418 266.055 112.168 265.84C111.918 265.621 111.512 265.512 110.949 265.512H109.303V268.055ZM115.461 270.691V266.754H116.768V270.715C116.768 271.199 116.875 271.545 117.09 271.752C117.305 271.959 117.607 272.062 117.998 272.062C118.334 272.062 118.629 271.971 118.883 271.787C119.141 271.604 119.342 271.369 119.486 271.084V266.754H120.793V273H119.586L119.545 272.215H119.51C119.291 272.5 119.016 272.723 118.684 272.883C118.352 273.039 117.986 273.117 117.588 273.117C116.947 273.117 116.432 272.932 116.041 272.561C115.654 272.186 115.461 271.562 115.461 270.691ZM122.082 271.125H123.383V271.172C123.383 271.512 123.508 271.766 123.758 271.934C124.012 272.102 124.348 272.186 124.766 272.186C125.184 272.186 125.51 272.105 125.744 271.945C125.979 271.785 126.096 271.576 126.096 271.318C126.096 271.057 125.996 270.859 125.797 270.727C125.602 270.59 125.154 270.445 124.455 270.293C123.744 270.145 123.199 269.922 122.82 269.625C122.445 269.324 122.258 268.918 122.258 268.406C122.258 267.871 122.48 267.432 122.926 267.088C123.375 266.744 123.979 266.572 124.736 266.572C125.494 266.572 126.102 266.748 126.559 267.1C127.016 267.447 127.244 267.914 127.244 268.5V268.541H125.949V268.482C125.949 268.197 125.85 267.973 125.65 267.809C125.455 267.645 125.148 267.562 124.73 267.562C124.316 267.562 124.016 267.637 123.828 267.785C123.645 267.93 123.553 268.111 123.553 268.33C123.553 268.553 123.656 268.73 123.863 268.863C124.074 268.992 124.533 269.133 125.24 269.285C125.947 269.434 126.482 269.66 126.846 269.965C127.209 270.266 127.391 270.689 127.391 271.236C127.391 271.811 127.17 272.277 126.729 272.637C126.291 272.996 125.637 273.176 124.766 273.176C123.898 273.176 123.234 272.994 122.773 272.631C122.312 272.268 122.082 271.779 122.082 271.166V271.125ZM128.75 273V266.754H130.057V273H128.75ZM128.615 264.949C128.615 264.742 128.682 264.568 128.814 264.428C128.951 264.283 129.146 264.211 129.4 264.211C129.654 264.211 129.848 264.283 129.98 264.428C130.117 264.568 130.186 264.742 130.186 264.949C130.186 265.16 130.117 265.336 129.98 265.477C129.848 265.617 129.654 265.688 129.4 265.688C129.146 265.688 128.951 265.617 128.814 265.477C128.682 265.332 128.615 265.156 128.615 264.949ZM131.785 273V266.754H132.992L133.033 267.533H133.068C133.283 267.252 133.555 267.031 133.883 266.871C134.215 266.711 134.58 266.631 134.979 266.631C135.627 266.631 136.145 266.814 136.531 267.182C136.922 267.545 137.117 268.164 137.117 269.039V273H135.811V269.016C135.811 268.539 135.703 268.199 135.488 267.996C135.277 267.793 134.977 267.691 134.586 267.691C134.25 267.691 133.953 267.781 133.695 267.961C133.438 268.141 133.236 268.375 133.092 268.664V273H131.785ZM138.383 269.971V269.783C138.383 268.834 138.654 268.062 139.197 267.469C139.74 266.871 140.453 266.572 141.336 266.572C142.223 266.572 142.906 266.852 143.387 267.41C143.871 267.965 144.113 268.721 144.113 269.678V270.188H139.227V269.232H142.807V269.139C142.807 268.709 142.686 268.344 142.443 268.043C142.205 267.738 141.842 267.586 141.354 267.586C140.811 267.586 140.398 267.793 140.117 268.207C139.84 268.621 139.701 269.139 139.701 269.76V269.988C139.701 270.605 139.848 271.121 140.141 271.535C140.438 271.949 140.891 272.156 141.5 272.156C141.887 272.156 142.219 272.072 142.496 271.904C142.773 271.732 143 271.531 143.176 271.301L144.037 271.951C143.842 272.268 143.525 272.551 143.088 272.801C142.65 273.051 142.123 273.176 141.506 273.176C140.506 273.176 139.734 272.879 139.191 272.285C138.652 271.688 138.383 270.916 138.383 269.971ZM144.992 271.125H146.293V271.172C146.293 271.512 146.418 271.766 146.668 271.934C146.922 272.102 147.258 272.186 147.676 272.186C148.094 272.186 148.42 272.105 148.654 271.945C148.889 271.785 149.006 271.576 149.006 271.318C149.006 271.057 148.906 270.859 148.707 270.727C148.512 270.59 148.064 270.445 147.365 270.293C146.654 270.145 146.109 269.922 145.73 269.625C145.355 269.324 145.168 268.918 145.168 268.406C145.168 267.871 145.391 267.432 145.836 267.088C146.285 266.744 146.889 266.572 147.646 266.572C148.404 266.572 149.012 266.748 149.469 267.1C149.926 267.447 150.154 267.914 150.154 268.5V268.541H148.859V268.482C148.859 268.197 148.76 267.973 148.561 267.809C148.365 267.645 148.059 267.562 147.641 267.562C147.227 267.562 146.926 267.637 146.738 267.785C146.555 267.93 146.463 268.111 146.463 268.33C146.463 268.553 146.566 268.73 146.773 268.863C146.984 268.992 147.443 269.133 148.15 269.285C148.857 269.434 149.393 269.66 149.756 269.965C150.119 270.266 150.301 270.689 150.301 271.236C150.301 271.811 150.08 272.277 149.639 272.637C149.201 272.996 148.547 273.176 147.676 273.176C146.809 273.176 146.145 272.994 145.684 272.631C145.223 272.268 144.992 271.779 144.992 271.166V271.125ZM151.215 271.125H152.516V271.172C152.516 271.512 152.641 271.766 152.891 271.934C153.145 272.102 153.48 272.186 153.898 272.186C154.316 272.186 154.643 272.105 154.877 271.945C155.111 271.785 155.229 271.576 155.229 271.318C155.229 271.057 155.129 270.859 154.93 270.727C154.734 270.59 154.287 270.445 153.588 270.293C152.877 270.145 152.332 269.922 151.953 269.625C151.578 269.324 151.391 268.918 151.391 268.406C151.391 267.871 151.613 267.432 152.059 267.088C152.508 266.744 153.111 266.572 153.869 266.572C154.627 266.572 155.234 266.748 155.691 267.1C156.148 267.447 156.377 267.914 156.377 268.5V268.541H155.082V268.482C155.082 268.197 154.982 267.973 154.783 267.809C154.588 267.645 154.281 267.562 153.863 267.562C153.449 267.562 153.148 267.637 152.961 267.785C152.777 267.93 152.686 268.111 152.686 268.33C152.686 268.553 152.789 268.73 152.996 268.863C153.207 268.992 153.666 269.133 154.373 269.285C155.08 269.434 155.615 269.66 155.979 269.965C156.342 270.266 156.523 270.689 156.523 271.236C156.523 271.811 156.303 272.277 155.861 272.637C155.424 272.996 154.77 273.176 153.898 273.176C153.031 273.176 152.367 272.994 151.906 272.631C151.445 272.268 151.215 271.779 151.215 271.166V271.125ZM160.402 269.971V269.783C160.402 268.83 160.672 268.057 161.211 267.463C161.754 266.869 162.492 266.572 163.426 266.572C164.297 266.572 164.957 266.799 165.406 267.252C165.859 267.701 166.09 268.211 166.098 268.781L166.104 268.828H164.832V268.787C164.828 268.471 164.713 268.193 164.486 267.955C164.264 267.717 163.908 267.598 163.42 267.598C162.85 267.598 162.426 267.805 162.148 268.219C161.875 268.629 161.738 269.143 161.738 269.76V269.988C161.738 270.605 161.875 271.121 162.148 271.535C162.422 271.945 162.846 272.15 163.42 272.15C163.916 272.15 164.273 272.031 164.492 271.793C164.715 271.551 164.826 271.273 164.826 270.961V270.926H166.098V270.961C166.098 271.531 165.869 272.043 165.412 272.496C164.959 272.949 164.297 273.176 163.426 273.176C162.492 273.176 161.754 272.879 161.211 272.285C160.672 271.691 160.402 270.92 160.402 269.971ZM166.994 271.16C166.994 270.512 167.256 270.012 167.779 269.66C168.303 269.305 168.967 269.127 169.771 269.127H171.148V268.693C171.148 268.357 171.055 268.084 170.867 267.873C170.684 267.658 170.365 267.551 169.912 267.551C169.459 267.551 169.135 267.643 168.939 267.826C168.744 268.006 168.646 268.217 168.646 268.459V268.506H167.352V268.459C167.352 267.947 167.588 267.506 168.061 267.135C168.533 266.764 169.164 266.578 169.953 266.578C170.742 266.578 171.355 266.754 171.793 267.105C172.234 267.457 172.455 267.988 172.455 268.699V271.6C172.455 271.854 172.475 272.094 172.514 272.32C172.557 272.543 172.615 272.738 172.689 272.906V273H171.412C171.361 272.902 171.314 272.775 171.271 272.619C171.229 272.463 171.199 272.309 171.184 272.156C171.043 272.41 170.803 272.635 170.463 272.83C170.127 273.021 169.697 273.117 169.174 273.117C168.568 273.117 168.053 272.951 167.627 272.619C167.205 272.283 166.994 271.797 166.994 271.16ZM168.301 271.084C168.301 271.412 168.398 271.67 168.594 271.857C168.789 272.045 169.096 272.139 169.514 272.139C169.939 272.139 170.318 272 170.65 271.723C170.982 271.441 171.148 271.137 171.148 270.809V270H169.918C169.383 270 168.979 270.098 168.705 270.293C168.436 270.484 168.301 270.748 168.301 271.084ZM174.137 273V266.754H175.344L175.391 267.521H175.42C175.572 267.268 175.773 267.047 176.023 266.859C176.277 266.672 176.574 266.578 176.914 266.578C177 266.578 177.088 266.588 177.178 266.607C177.271 266.627 177.338 266.645 177.377 266.66V267.838C177.299 267.822 177.217 267.811 177.131 267.803C177.049 267.795 176.957 267.791 176.855 267.791C176.516 267.791 176.225 267.881 175.982 268.061C175.74 268.236 175.561 268.459 175.443 268.729V273H174.137ZM177.922 269.971V269.783C177.922 268.865 178.166 268.111 178.654 267.521C179.146 266.932 179.797 266.637 180.605 266.637C181.039 266.637 181.41 266.713 181.719 266.865C182.027 267.014 182.27 267.211 182.445 267.457V264.006H183.752V273H182.545L182.498 272.215H182.469C182.316 272.465 182.076 272.678 181.748 272.854C181.42 273.029 181.041 273.117 180.611 273.117C179.791 273.117 179.137 272.822 178.648 272.232C178.164 271.639 177.922 270.885 177.922 269.971ZM179.258 269.988C179.258 270.586 179.391 271.084 179.656 271.482C179.926 271.881 180.342 272.08 180.904 272.08C181.283 272.08 181.605 271.979 181.871 271.775C182.137 271.572 182.328 271.338 182.445 271.072V268.676C182.328 268.41 182.137 268.176 181.871 267.973C181.609 267.77 181.287 267.668 180.904 267.668C180.346 267.668 179.932 267.869 179.662 268.271C179.393 268.67 179.258 269.166 179.258 269.76V269.988ZM190.648 273V265.869L188.492 266.742V265.512L191.586 264.357H192.002V273H190.648Z" fill="#002B6B"/>
<rect opacity="0.2" x="107" y="286" width="109" height="8" rx="4" fill="#0067FF"/>
<rect opacity="0.07" x="107" y="299" width="69" height="8" rx="4" fill="#0067FF"/>
<path d="M107.227 341.09C107.227 340.527 107.417 340.072 107.797 339.723C108.18 339.371 108.663 339.195 109.246 339.195C109.829 339.195 110.331 339.393 110.75 339.789C111.172 340.185 111.383 340.826 111.383 341.711V341.828C111.383 342.818 111.095 343.613 110.52 344.215C109.944 344.816 109.126 345.117 108.066 345.117H107.984V344.441H108.066C108.848 344.441 109.464 344.236 109.914 343.824C110.367 343.41 110.594 342.758 110.594 341.867V341.672C110.594 341.013 110.466 340.547 110.211 340.273C109.956 340 109.634 339.863 109.246 339.863C108.858 339.863 108.557 339.971 108.344 340.188C108.13 340.401 108.023 340.702 108.023 341.09C108.023 341.478 108.13 341.779 108.344 341.992C108.557 342.203 108.858 342.309 109.246 342.309C109.605 342.309 109.923 342.203 110.199 341.992C110.478 341.779 110.617 341.478 110.617 341.09H110.91C110.91 341.655 110.743 342.111 110.41 342.457C110.077 342.803 109.633 342.977 109.078 342.977C108.526 342.977 108.079 342.803 107.738 342.457C107.397 342.111 107.227 341.655 107.227 341.09ZM112 343.555V343.516H112.773V343.555C112.773 343.831 112.882 344.049 113.098 344.211C113.314 344.37 113.603 344.449 113.965 344.449C114.324 344.449 114.618 344.339 114.848 344.117C115.079 343.896 115.195 343.585 115.195 343.184C115.195 342.783 115.079 342.478 114.848 342.27C114.618 342.059 114.324 341.953 113.965 341.953C113.72 341.953 113.503 341.996 113.312 342.082C113.125 342.168 112.951 342.289 112.789 342.445L112.207 342.164L112.496 339.312H115.68V340.039H113.152L112.984 341.598C113.12 341.514 113.283 341.441 113.473 341.379C113.665 341.314 113.876 341.281 114.105 341.281C114.629 341.281 115.074 341.449 115.441 341.785C115.809 342.118 115.992 342.585 115.992 343.184C115.992 343.783 115.799 344.255 115.414 344.602C115.031 344.945 114.548 345.117 113.965 345.117C113.379 345.117 112.905 344.969 112.543 344.672C112.181 344.375 112 344.003 112 343.555ZM116.609 342.602V342.484C116.609 341.495 116.896 340.699 117.469 340.098C118.044 339.496 118.862 339.195 119.922 339.195H120.004V339.871H119.922C119.143 339.871 118.527 340.078 118.074 340.492C117.621 340.904 117.395 341.555 117.395 342.445V342.641C117.395 343.299 117.522 343.766 117.777 344.039C118.033 344.312 118.354 344.449 118.742 344.449C119.13 344.449 119.431 344.339 119.645 344.117C119.858 343.896 119.965 343.585 119.965 343.184C119.965 342.783 119.858 342.473 119.645 342.254C119.431 342.035 119.13 341.926 118.742 341.926C118.383 341.926 118.064 342.035 117.785 342.254C117.509 342.473 117.371 342.783 117.371 343.184H117.078C117.078 342.608 117.245 342.143 117.578 341.789C117.911 341.435 118.355 341.258 118.91 341.258C119.467 341.258 119.915 341.435 120.254 341.789C120.592 342.143 120.762 342.608 120.762 343.184C120.762 343.757 120.57 344.223 120.188 344.582C119.807 344.939 119.326 345.117 118.742 345.117C118.159 345.117 117.658 344.919 117.238 344.523C116.819 344.128 116.609 343.487 116.609 342.602ZM121.344 343.492C121.344 343.154 121.441 342.866 121.637 342.629C121.835 342.389 122.086 342.212 122.391 342.098V342.082C122.156 341.97 121.954 341.799 121.785 341.57C121.616 341.339 121.531 341.066 121.531 340.754C121.531 340.285 121.704 339.909 122.051 339.625C122.4 339.339 122.824 339.195 123.324 339.195C123.822 339.195 124.243 339.339 124.59 339.625C124.939 339.909 125.113 340.285 125.113 340.754C125.113 341.066 125.029 341.339 124.859 341.57C124.693 341.799 124.491 341.97 124.254 342.082V342.098C124.561 342.212 124.812 342.389 125.008 342.629C125.206 342.866 125.305 343.154 125.305 343.492C125.305 344.008 125.112 344.408 124.727 344.691C124.344 344.975 123.876 345.117 123.324 345.117C122.77 345.117 122.301 344.975 121.918 344.691C121.535 344.408 121.344 344.008 121.344 343.492ZM122.133 343.445C122.133 343.745 122.242 343.988 122.461 344.176C122.68 344.361 122.967 344.453 123.324 344.453C123.681 344.453 123.969 344.361 124.188 344.176C124.406 343.988 124.516 343.745 124.516 343.445C124.516 343.141 124.406 342.895 124.188 342.707C123.969 342.517 123.681 342.422 123.324 342.422C122.967 342.422 122.68 342.517 122.461 342.707C122.242 342.895 122.133 343.141 122.133 343.445ZM122.305 340.801C122.305 341.079 122.398 341.309 122.586 341.488C122.776 341.668 123.022 341.758 123.324 341.758C123.626 341.758 123.871 341.668 124.059 341.488C124.249 341.309 124.344 341.079 124.344 340.801C124.344 340.527 124.249 340.302 124.059 340.125C123.871 339.948 123.626 339.859 123.324 339.859C123.022 339.859 122.776 339.948 122.586 340.125C122.398 340.302 122.305 340.527 122.305 340.801ZM127.836 340.957L128.082 340.184L129.535 340.809L129.387 339.234H130.176L130.027 340.809L131.484 340.184L131.727 340.957L130.184 341.309L131.23 342.492L130.59 342.973L129.781 341.609L128.973 342.973L128.332 342.492L129.379 341.309L127.836 340.957ZM132.18 340.957L132.426 340.184L133.879 340.809L133.73 339.234H134.52L134.371 340.809L135.828 340.184L136.07 340.957L134.527 341.309L135.574 342.492L134.934 342.973L134.125 341.609L133.316 342.973L132.676 342.492L133.723 341.309L132.18 340.957ZM136.523 340.957L136.77 340.184L138.223 340.809L138.074 339.234H138.863L138.715 340.809L140.172 340.184L140.414 340.957L138.871 341.309L139.918 342.492L139.277 342.973L138.469 341.609L137.66 342.973L137.02 342.492L138.066 341.309L136.523 340.957ZM142.82 340.957L143.066 340.184L144.52 340.809L144.371 339.234H145.16L145.012 340.809L146.469 340.184L146.711 340.957L145.168 341.309L146.215 342.492L145.574 342.973L144.766 341.609L143.957 342.973L143.316 342.492L144.363 341.309L142.82 340.957ZM147.164 340.957L147.41 340.184L148.863 340.809L148.715 339.234H149.504L149.355 340.809L150.812 340.184L151.055 340.957L149.512 341.309L150.559 342.492L149.918 342.973L149.109 341.609L148.301 342.973L147.66 342.492L148.707 341.309L147.164 340.957ZM151.508 340.957L151.754 340.184L153.207 340.809L153.059 339.234H153.848L153.699 340.809L155.156 340.184L155.398 340.957L153.855 341.309L154.902 342.492L154.262 342.973L153.453 341.609L152.645 342.973L152.004 342.492L153.051 341.309L151.508 340.957ZM155.852 340.957L156.098 340.184L157.551 340.809L157.402 339.234H158.191L158.043 340.809L159.5 340.184L159.742 340.957L158.199 341.309L159.246 342.492L158.605 342.973L157.797 341.609L156.988 342.973L156.348 342.492L157.395 341.309L155.852 340.957ZM162.148 341.09C162.148 340.527 162.339 340.072 162.719 339.723C163.102 339.371 163.585 339.195 164.168 339.195C164.751 339.195 165.253 339.393 165.672 339.789C166.094 340.185 166.305 340.826 166.305 341.711V341.828C166.305 342.818 166.017 343.613 165.441 344.215C164.866 344.816 164.048 345.117 162.988 345.117H162.906V344.441H162.988C163.77 344.441 164.385 344.236 164.836 343.824C165.289 343.41 165.516 342.758 165.516 341.867V341.672C165.516 341.013 165.388 340.547 165.133 340.273C164.878 340 164.556 339.863 164.168 339.863C163.78 339.863 163.479 339.971 163.266 340.188C163.052 340.401 162.945 340.702 162.945 341.09C162.945 341.478 163.052 341.779 163.266 341.992C163.479 342.203 163.78 342.309 164.168 342.309C164.527 342.309 164.845 342.203 165.121 341.992C165.4 341.779 165.539 341.478 165.539 341.09H165.832C165.832 341.655 165.665 342.111 165.332 342.457C164.999 342.803 164.555 342.977 164 342.977C163.448 342.977 163.001 342.803 162.66 342.457C162.319 342.111 162.148 341.655 162.148 341.09ZM166.867 342.602V342.484C166.867 341.495 167.154 340.699 167.727 340.098C168.302 339.496 169.12 339.195 170.18 339.195H170.262V339.871H170.18C169.401 339.871 168.785 340.078 168.332 340.492C167.879 340.904 167.652 341.555 167.652 342.445V342.641C167.652 343.299 167.78 343.766 168.035 344.039C168.29 344.312 168.612 344.449 169 344.449C169.388 344.449 169.689 344.339 169.902 344.117C170.116 343.896 170.223 343.585 170.223 343.184C170.223 342.783 170.116 342.473 169.902 342.254C169.689 342.035 169.388 341.926 169 341.926C168.641 341.926 168.322 342.035 168.043 342.254C167.767 342.473 167.629 342.783 167.629 343.184H167.336C167.336 342.608 167.503 342.143 167.836 341.789C168.169 341.435 168.613 341.258 169.168 341.258C169.725 341.258 170.173 341.435 170.512 341.789C170.85 342.143 171.02 342.608 171.02 343.184C171.02 343.757 170.828 344.223 170.445 344.582C170.065 344.939 169.583 345.117 169 345.117C168.417 345.117 167.915 344.919 167.496 344.523C167.077 344.128 166.867 343.487 166.867 342.602ZM171.508 343.496V343.457H172.289V343.496C172.289 343.798 172.4 344.033 172.621 344.199C172.842 344.366 173.137 344.449 173.504 344.449C173.871 344.449 174.164 344.366 174.383 344.199C174.602 344.033 174.711 343.772 174.711 343.418C174.711 343.069 174.587 342.806 174.34 342.629C174.095 342.452 173.766 342.363 173.352 342.363H172.852V341.711H173.309C173.691 341.711 173.987 341.628 174.195 341.461C174.404 341.292 174.508 341.057 174.508 340.758C174.508 340.458 174.417 340.234 174.234 340.086C174.055 339.938 173.811 339.863 173.504 339.863C173.199 339.863 172.948 339.938 172.75 340.086C172.552 340.234 172.453 340.447 172.453 340.723V340.762H171.672V340.723C171.672 340.301 171.844 339.941 172.188 339.645C172.534 339.345 172.973 339.195 173.504 339.195C174.035 339.195 174.469 339.337 174.805 339.621C175.143 339.902 175.312 340.266 175.312 340.711C175.312 340.971 175.237 341.22 175.086 341.457C174.938 341.691 174.704 341.875 174.387 342.008V342.023C174.73 342.107 175.005 342.272 175.211 342.52C175.419 342.764 175.523 343.066 175.523 343.426C175.523 343.952 175.332 344.366 174.949 344.668C174.569 344.967 174.087 345.117 173.504 345.117C172.921 345.117 172.441 344.966 172.066 344.664C171.694 344.359 171.508 343.97 171.508 343.496Z" fill="#000F26"/>
<path d="M235.379 343.078V341.234C235.379 340.622 235.551 340.13 235.895 339.758C236.241 339.383 236.72 339.195 237.332 339.195C237.939 339.195 238.415 339.383 238.762 339.758C239.111 340.13 239.285 340.622 239.285 341.234V343.078C239.285 343.693 239.111 344.186 238.762 344.559C238.415 344.931 237.939 345.117 237.332 345.117C236.72 345.117 236.241 344.931 235.895 344.559C235.551 344.186 235.379 343.693 235.379 343.078ZM236.188 343.117C236.188 343.505 236.28 343.823 236.465 344.07C236.652 344.318 236.941 344.441 237.332 344.441C237.72 344.441 238.008 344.318 238.195 344.07C238.383 343.823 238.477 343.505 238.477 343.117V341.195C238.477 340.81 238.383 340.493 238.195 340.246C238.008 339.996 237.72 339.871 237.332 339.871C236.941 339.871 236.652 339.996 236.465 340.246C236.28 340.493 236.188 340.81 236.188 341.195V343.117ZM239.945 342.602V342.484C239.945 341.495 240.232 340.699 240.805 340.098C241.38 339.496 242.198 339.195 243.258 339.195H243.34V339.871H243.258C242.479 339.871 241.863 340.078 241.41 340.492C240.957 340.904 240.73 341.555 240.73 342.445V342.641C240.73 343.299 240.858 343.766 241.113 344.039C241.368 344.312 241.69 344.449 242.078 344.449C242.466 344.449 242.767 344.339 242.98 344.117C243.194 343.896 243.301 343.585 243.301 343.184C243.301 342.783 243.194 342.473 242.98 342.254C242.767 342.035 242.466 341.926 242.078 341.926C241.719 341.926 241.4 342.035 241.121 342.254C240.845 342.473 240.707 342.783 240.707 343.184H240.414C240.414 342.608 240.581 342.143 240.914 341.789C241.247 341.435 241.691 341.258 242.246 341.258C242.803 341.258 243.251 341.435 243.59 341.789C243.928 342.143 244.098 342.608 244.098 343.184C244.098 343.757 243.906 344.223 243.523 344.582C243.143 344.939 242.661 345.117 242.078 345.117C241.495 345.117 240.993 344.919 240.574 344.523C240.155 344.128 239.945 343.487 239.945 342.602ZM243.938 345.488L246.43 339.312H247.152L244.66 345.488H243.938ZM249.098 345V344.387L251.281 342.234C251.552 341.969 251.763 341.728 251.914 341.512C252.068 341.293 252.145 341.059 252.145 340.809C252.145 340.556 252.049 340.337 251.859 340.152C251.672 339.965 251.411 339.871 251.078 339.871C250.737 339.871 250.453 339.973 250.227 340.176C250.003 340.376 249.891 340.65 249.891 340.996V341.035H249.094V340.996C249.094 340.475 249.283 340.046 249.66 339.707C250.038 339.366 250.51 339.195 251.078 339.195C251.635 339.195 252.085 339.353 252.426 339.668C252.767 339.98 252.938 340.348 252.938 340.77C252.938 341.142 252.829 341.478 252.613 341.777C252.397 342.074 252.13 342.376 251.812 342.684L250.121 344.324H253.094V345H249.098ZM253.762 343.078V341.234C253.762 340.622 253.934 340.13 254.277 339.758C254.624 339.383 255.103 339.195 255.715 339.195C256.322 339.195 256.798 339.383 257.145 339.758C257.493 340.13 257.668 340.622 257.668 341.234V343.078C257.668 343.693 257.493 344.186 257.145 344.559C256.798 344.931 256.322 345.117 255.715 345.117C255.103 345.117 254.624 344.931 254.277 344.559C253.934 344.186 253.762 343.693 253.762 343.078ZM254.57 343.117C254.57 343.505 254.663 343.823 254.848 344.07C255.035 344.318 255.324 344.441 255.715 344.441C256.103 344.441 256.391 344.318 256.578 344.07C256.766 343.823 256.859 343.505 256.859 343.117V341.195C256.859 340.81 256.766 340.493 256.578 340.246C256.391 339.996 256.103 339.871 255.715 339.871C255.324 339.871 255.035 339.996 254.848 340.246C254.663 340.493 254.57 340.81 254.57 341.195V343.117ZM258.426 345V344.387L260.609 342.234C260.88 341.969 261.091 341.728 261.242 341.512C261.396 341.293 261.473 341.059 261.473 340.809C261.473 340.556 261.378 340.337 261.188 340.152C261 339.965 260.74 339.871 260.406 339.871C260.065 339.871 259.781 339.973 259.555 340.176C259.331 340.376 259.219 340.65 259.219 340.996V341.035H258.422V340.996C258.422 340.475 258.611 340.046 258.988 339.707C259.366 339.366 259.839 339.195 260.406 339.195C260.964 339.195 261.413 339.353 261.754 339.668C262.095 339.98 262.266 340.348 262.266 340.77C262.266 341.142 262.158 341.478 261.941 341.777C261.725 342.074 261.458 342.376 261.141 342.684L259.449 344.324H262.422V345H258.426ZM262.969 343.496V343.457H263.75V343.496C263.75 343.798 263.861 344.033 264.082 344.199C264.303 344.366 264.598 344.449 264.965 344.449C265.332 344.449 265.625 344.366 265.844 344.199C266.062 344.033 266.172 343.772 266.172 343.418C266.172 343.069 266.048 342.806 265.801 342.629C265.556 342.452 265.227 342.363 264.812 342.363H264.312V341.711H264.77C265.152 341.711 265.448 341.628 265.656 341.461C265.865 341.292 265.969 341.057 265.969 340.758C265.969 340.458 265.878 340.234 265.695 340.086C265.516 339.938 265.272 339.863 264.965 339.863C264.66 339.863 264.409 339.938 264.211 340.086C264.013 340.234 263.914 340.447 263.914 340.723V340.762H263.133V340.723C263.133 340.301 263.305 339.941 263.648 339.645C263.995 339.345 264.434 339.195 264.965 339.195C265.496 339.195 265.93 339.337 266.266 339.621C266.604 339.902 266.773 340.266 266.773 340.711C266.773 340.971 266.698 341.22 266.547 341.457C266.398 341.691 266.165 341.875 265.848 342.008V342.023C266.191 342.107 266.466 342.272 266.672 342.52C266.88 342.764 266.984 343.066 266.984 343.426C266.984 343.952 266.793 344.366 266.41 344.668C266.03 344.967 265.548 345.117 264.965 345.117C264.382 345.117 263.902 344.966 263.527 344.664C263.155 344.359 262.969 343.97 262.969 343.496Z" fill="#000F26"/>
<circle cx="262" cy="267" r="5.5" fill="white" stroke="#0067FF"/>
<circle cx="262" cy="267" r="2" fill="#0067FF"/>
<rect opacity="0.1" x="297" y="249" width="183.5" height="108" rx="6" fill="#45D3DD"/>
<path d="M309.979 273V264.469H312.961C313.867 264.469 314.58 264.65 315.1 265.014C315.619 265.377 315.879 265.949 315.879 266.73C315.879 267.199 315.76 267.582 315.521 267.879C315.287 268.172 314.998 268.379 314.654 268.5V268.523C315.076 268.645 315.422 268.875 315.691 269.215C315.965 269.551 316.102 269.992 316.102 270.539C316.102 271.32 315.83 271.926 315.287 272.355C314.744 272.785 314.027 273 313.137 273H309.979ZM311.303 271.957H313.125C313.691 271.957 314.105 271.826 314.367 271.564C314.633 271.303 314.766 270.951 314.766 270.51C314.766 270.064 314.633 269.713 314.367 269.455C314.105 269.197 313.691 269.068 313.125 269.068H311.303V271.957ZM311.303 268.055H312.949C313.516 268.055 313.922 267.941 314.168 267.715C314.418 267.488 314.543 267.174 314.543 266.771C314.543 266.365 314.418 266.055 314.168 265.84C313.918 265.621 313.512 265.512 312.949 265.512H311.303V268.055ZM317.461 270.691V266.754H318.768V270.715C318.768 271.199 318.875 271.545 319.09 271.752C319.305 271.959 319.607 272.062 319.998 272.062C320.334 272.062 320.629 271.971 320.883 271.787C321.141 271.604 321.342 271.369 321.486 271.084V266.754H322.793V273H321.586L321.545 272.215H321.51C321.291 272.5 321.016 272.723 320.684 272.883C320.352 273.039 319.986 273.117 319.588 273.117C318.947 273.117 318.432 272.932 318.041 272.561C317.654 272.186 317.461 271.562 317.461 270.691ZM324.082 271.125H325.383V271.172C325.383 271.512 325.508 271.766 325.758 271.934C326.012 272.102 326.348 272.186 326.766 272.186C327.184 272.186 327.51 272.105 327.744 271.945C327.979 271.785 328.096 271.576 328.096 271.318C328.096 271.057 327.996 270.859 327.797 270.727C327.602 270.59 327.154 270.445 326.455 270.293C325.744 270.145 325.199 269.922 324.82 269.625C324.445 269.324 324.258 268.918 324.258 268.406C324.258 267.871 324.48 267.432 324.926 267.088C325.375 266.744 325.979 266.572 326.736 266.572C327.494 266.572 328.102 266.748 328.559 267.1C329.016 267.447 329.244 267.914 329.244 268.5V268.541H327.949V268.482C327.949 268.197 327.85 267.973 327.65 267.809C327.455 267.645 327.148 267.562 326.73 267.562C326.316 267.562 326.016 267.637 325.828 267.785C325.645 267.93 325.553 268.111 325.553 268.33C325.553 268.553 325.656 268.73 325.863 268.863C326.074 268.992 326.533 269.133 327.24 269.285C327.947 269.434 328.482 269.66 328.846 269.965C329.209 270.266 329.391 270.689 329.391 271.236C329.391 271.811 329.17 272.277 328.729 272.637C328.291 272.996 327.637 273.176 326.766 273.176C325.898 273.176 325.234 272.994 324.773 272.631C324.312 272.268 324.082 271.779 324.082 271.166V271.125ZM330.75 273V266.754H332.057V273H330.75ZM330.615 264.949C330.615 264.742 330.682 264.568 330.814 264.428C330.951 264.283 331.146 264.211 331.4 264.211C331.654 264.211 331.848 264.283 331.98 264.428C332.117 264.568 332.186 264.742 332.186 264.949C332.186 265.16 332.117 265.336 331.98 265.477C331.848 265.617 331.654 265.688 331.4 265.688C331.146 265.688 330.951 265.617 330.814 265.477C330.682 265.332 330.615 265.156 330.615 264.949ZM333.785 273V266.754H334.992L335.033 267.533H335.068C335.283 267.252 335.555 267.031 335.883 266.871C336.215 266.711 336.58 266.631 336.979 266.631C337.627 266.631 338.145 266.814 338.531 267.182C338.922 267.545 339.117 268.164 339.117 269.039V273H337.811V269.016C337.811 268.539 337.703 268.199 337.488 267.996C337.277 267.793 336.977 267.691 336.586 267.691C336.25 267.691 335.953 267.781 335.695 267.961C335.438 268.141 335.236 268.375 335.092 268.664V273H333.785ZM340.383 269.971V269.783C340.383 268.834 340.654 268.062 341.197 267.469C341.74 266.871 342.453 266.572 343.336 266.572C344.223 266.572 344.906 266.852 345.387 267.41C345.871 267.965 346.113 268.721 346.113 269.678V270.188H341.227V269.232H344.807V269.139C344.807 268.709 344.686 268.344 344.443 268.043C344.205 267.738 343.842 267.586 343.354 267.586C342.811 267.586 342.398 267.793 342.117 268.207C341.84 268.621 341.701 269.139 341.701 269.76V269.988C341.701 270.605 341.848 271.121 342.141 271.535C342.438 271.949 342.891 272.156 343.5 272.156C343.887 272.156 344.219 272.072 344.496 271.904C344.773 271.732 345 271.531 345.176 271.301L346.037 271.951C345.842 272.268 345.525 272.551 345.088 272.801C344.65 273.051 344.123 273.176 343.506 273.176C342.506 273.176 341.734 272.879 341.191 272.285C340.652 271.688 340.383 270.916 340.383 269.971ZM346.992 271.125H348.293V271.172C348.293 271.512 348.418 271.766 348.668 271.934C348.922 272.102 349.258 272.186 349.676 272.186C350.094 272.186 350.42 272.105 350.654 271.945C350.889 271.785 351.006 271.576 351.006 271.318C351.006 271.057 350.906 270.859 350.707 270.727C350.512 270.59 350.064 270.445 349.365 270.293C348.654 270.145 348.109 269.922 347.73 269.625C347.355 269.324 347.168 268.918 347.168 268.406C347.168 267.871 347.391 267.432 347.836 267.088C348.285 266.744 348.889 266.572 349.646 266.572C350.404 266.572 351.012 266.748 351.469 267.1C351.926 267.447 352.154 267.914 352.154 268.5V268.541H350.859V268.482C350.859 268.197 350.76 267.973 350.561 267.809C350.365 267.645 350.059 267.562 349.641 267.562C349.227 267.562 348.926 267.637 348.738 267.785C348.555 267.93 348.463 268.111 348.463 268.33C348.463 268.553 348.566 268.73 348.773 268.863C348.984 268.992 349.443 269.133 350.15 269.285C350.857 269.434 351.393 269.66 351.756 269.965C352.119 270.266 352.301 270.689 352.301 271.236C352.301 271.811 352.08 272.277 351.639 272.637C351.201 272.996 350.547 273.176 349.676 273.176C348.809 273.176 348.145 272.994 347.684 272.631C347.223 272.268 346.992 271.779 346.992 271.166V271.125ZM353.215 271.125H354.516V271.172C354.516 271.512 354.641 271.766 354.891 271.934C355.145 272.102 355.48 272.186 355.898 272.186C356.316 272.186 356.643 272.105 356.877 271.945C357.111 271.785 357.229 271.576 357.229 271.318C357.229 271.057 357.129 270.859 356.93 270.727C356.734 270.59 356.287 270.445 355.588 270.293C354.877 270.145 354.332 269.922 353.953 269.625C353.578 269.324 353.391 268.918 353.391 268.406C353.391 267.871 353.613 267.432 354.059 267.088C354.508 266.744 355.111 266.572 355.869 266.572C356.627 266.572 357.234 266.748 357.691 267.1C358.148 267.447 358.377 267.914 358.377 268.5V268.541H357.082V268.482C357.082 268.197 356.982 267.973 356.783 267.809C356.588 267.645 356.281 267.562 355.863 267.562C355.449 267.562 355.148 267.637 354.961 267.785C354.777 267.93 354.686 268.111 354.686 268.33C354.686 268.553 354.789 268.73 354.996 268.863C355.207 268.992 355.666 269.133 356.373 269.285C357.08 269.434 357.615 269.66 357.979 269.965C358.342 270.266 358.523 270.689 358.523 271.236C358.523 271.811 358.303 272.277 357.861 272.637C357.424 272.996 356.77 273.176 355.898 273.176C355.031 273.176 354.367 272.994 353.906 272.631C353.445 272.268 353.215 271.779 353.215 271.166V271.125ZM362.402 269.971V269.783C362.402 268.83 362.672 268.057 363.211 267.463C363.754 266.869 364.492 266.572 365.426 266.572C366.297 266.572 366.957 266.799 367.406 267.252C367.859 267.701 368.09 268.211 368.098 268.781L368.104 268.828H366.832V268.787C366.828 268.471 366.713 268.193 366.486 267.955C366.264 267.717 365.908 267.598 365.42 267.598C364.85 267.598 364.426 267.805 364.148 268.219C363.875 268.629 363.738 269.143 363.738 269.76V269.988C363.738 270.605 363.875 271.121 364.148 271.535C364.422 271.945 364.846 272.15 365.42 272.15C365.916 272.15 366.273 272.031 366.492 271.793C366.715 271.551 366.826 271.273 366.826 270.961V270.926H368.098V270.961C368.098 271.531 367.869 272.043 367.412 272.496C366.959 272.949 366.297 273.176 365.426 273.176C364.492 273.176 363.754 272.879 363.211 272.285C362.672 271.691 362.402 270.92 362.402 269.971ZM368.994 271.16C368.994 270.512 369.256 270.012 369.779 269.66C370.303 269.305 370.967 269.127 371.771 269.127H373.148V268.693C373.148 268.357 373.055 268.084 372.867 267.873C372.684 267.658 372.365 267.551 371.912 267.551C371.459 267.551 371.135 267.643 370.939 267.826C370.744 268.006 370.646 268.217 370.646 268.459V268.506H369.352V268.459C369.352 267.947 369.588 267.506 370.061 267.135C370.533 266.764 371.164 266.578 371.953 266.578C372.742 266.578 373.355 266.754 373.793 267.105C374.234 267.457 374.455 267.988 374.455 268.699V271.6C374.455 271.854 374.475 272.094 374.514 272.32C374.557 272.543 374.615 272.738 374.689 272.906V273H373.412C373.361 272.902 373.314 272.775 373.271 272.619C373.229 272.463 373.199 272.309 373.184 272.156C373.043 272.41 372.803 272.635 372.463 272.83C372.127 273.021 371.697 273.117 371.174 273.117C370.568 273.117 370.053 272.951 369.627 272.619C369.205 272.283 368.994 271.797 368.994 271.16ZM370.301 271.084C370.301 271.412 370.398 271.67 370.594 271.857C370.789 272.045 371.096 272.139 371.514 272.139C371.939 272.139 372.318 272 372.65 271.723C372.982 271.441 373.148 271.137 373.148 270.809V270H371.918C371.383 270 370.979 270.098 370.705 270.293C370.436 270.484 370.301 270.748 370.301 271.084ZM376.137 273V266.754H377.344L377.391 267.521H377.42C377.572 267.268 377.773 267.047 378.023 266.859C378.277 266.672 378.574 266.578 378.914 266.578C379 266.578 379.088 266.588 379.178 266.607C379.271 266.627 379.338 266.645 379.377 266.66V267.838C379.299 267.822 379.217 267.811 379.131 267.803C379.049 267.795 378.957 267.791 378.855 267.791C378.516 267.791 378.225 267.881 377.982 268.061C377.74 268.236 377.561 268.459 377.443 268.729V273H376.137ZM379.922 269.971V269.783C379.922 268.865 380.166 268.111 380.654 267.521C381.146 266.932 381.797 266.637 382.605 266.637C383.039 266.637 383.41 266.713 383.719 266.865C384.027 267.014 384.27 267.211 384.445 267.457V264.006H385.752V273H384.545L384.498 272.215H384.469C384.316 272.465 384.076 272.678 383.748 272.854C383.42 273.029 383.041 273.117 382.611 273.117C381.791 273.117 381.137 272.822 380.648 272.232C380.164 271.639 379.922 270.885 379.922 269.971ZM381.258 269.988C381.258 270.586 381.391 271.084 381.656 271.482C381.926 271.881 382.342 272.08 382.904 272.08C383.283 272.08 383.605 271.979 383.871 271.775C384.137 271.572 384.328 271.338 384.445 271.072V268.676C384.328 268.41 384.137 268.176 383.871 267.973C383.609 267.77 383.287 267.668 382.904 267.668C382.346 267.668 381.932 267.869 381.662 268.271C381.393 268.67 381.258 269.166 381.258 269.76V269.988ZM390.082 273V272.074L393.182 268.799C393.568 268.396 393.863 268.037 394.066 267.721C394.27 267.4 394.371 267.057 394.371 266.689C394.371 266.326 394.248 266.016 394.002 265.758C393.76 265.5 393.418 265.371 392.977 265.371C392.531 265.371 392.162 265.514 391.869 265.799C391.576 266.084 391.428 266.486 391.424 267.006V267.088H390.07V266.994C390.07 266.201 390.344 265.553 390.891 265.049C391.441 264.545 392.137 264.293 392.977 264.293C393.824 264.293 394.494 264.521 394.986 264.979C395.482 265.436 395.73 265.986 395.73 266.631C395.73 267.186 395.576 267.688 395.268 268.137C394.959 268.582 394.578 269.037 394.125 269.502L391.805 271.887H395.947V273H390.082Z" fill="#002B6B"/>
<rect opacity="0.5" x="309" y="286" width="79" height="8" rx="4" fill="#45D3DD"/>
<rect opacity="0.2" x="309" y="299" width="53" height="8" rx="4" fill="#45D3DD"/>
<path d="M309.227 341.09C309.227 340.527 309.417 340.072 309.797 339.723C310.18 339.371 310.663 339.195 311.246 339.195C311.829 339.195 312.331 339.393 312.75 339.789C313.172 340.185 313.383 340.826 313.383 341.711V341.828C313.383 342.818 313.095 343.613 312.52 344.215C311.944 344.816 311.126 345.117 310.066 345.117H309.984V344.441H310.066C310.848 344.441 311.464 344.236 311.914 343.824C312.367 343.41 312.594 342.758 312.594 341.867V341.672C312.594 341.013 312.466 340.547 312.211 340.273C311.956 340 311.634 339.863 311.246 339.863C310.858 339.863 310.557 339.971 310.344 340.188C310.13 340.401 310.023 340.702 310.023 341.09C310.023 341.478 310.13 341.779 310.344 341.992C310.557 342.203 310.858 342.309 311.246 342.309C311.605 342.309 311.923 342.203 312.199 341.992C312.478 341.779 312.617 341.478 312.617 341.09H312.91C312.91 341.655 312.743 342.111 312.41 342.457C312.077 342.803 311.633 342.977 311.078 342.977C310.526 342.977 310.079 342.803 309.738 342.457C309.397 342.111 309.227 341.655 309.227 341.09ZM314 343.555V343.516H314.773V343.555C314.773 343.831 314.882 344.049 315.098 344.211C315.314 344.37 315.603 344.449 315.965 344.449C316.324 344.449 316.618 344.339 316.848 344.117C317.079 343.896 317.195 343.585 317.195 343.184C317.195 342.783 317.079 342.478 316.848 342.27C316.618 342.059 316.324 341.953 315.965 341.953C315.72 341.953 315.503 341.996 315.312 342.082C315.125 342.168 314.951 342.289 314.789 342.445L314.207 342.164L314.496 339.312H317.68V340.039H315.152L314.984 341.598C315.12 341.514 315.283 341.441 315.473 341.379C315.665 341.314 315.876 341.281 316.105 341.281C316.629 341.281 317.074 341.449 317.441 341.785C317.809 342.118 317.992 342.585 317.992 343.184C317.992 343.783 317.799 344.255 317.414 344.602C317.031 344.945 316.548 345.117 315.965 345.117C315.379 345.117 314.905 344.969 314.543 344.672C314.181 344.375 314 344.003 314 343.555ZM318.609 342.602V342.484C318.609 341.495 318.896 340.699 319.469 340.098C320.044 339.496 320.862 339.195 321.922 339.195H322.004V339.871H321.922C321.143 339.871 320.527 340.078 320.074 340.492C319.621 340.904 319.395 341.555 319.395 342.445V342.641C319.395 343.299 319.522 343.766 319.777 344.039C320.033 344.312 320.354 344.449 320.742 344.449C321.13 344.449 321.431 344.339 321.645 344.117C321.858 343.896 321.965 343.585 321.965 343.184C321.965 342.783 321.858 342.473 321.645 342.254C321.431 342.035 321.13 341.926 320.742 341.926C320.383 341.926 320.064 342.035 319.785 342.254C319.509 342.473 319.371 342.783 319.371 343.184H319.078C319.078 342.608 319.245 342.143 319.578 341.789C319.911 341.435 320.355 341.258 320.91 341.258C321.467 341.258 321.915 341.435 322.254 341.789C322.592 342.143 322.762 342.608 322.762 343.184C322.762 343.757 322.57 344.223 322.188 344.582C321.807 344.939 321.326 345.117 320.742 345.117C320.159 345.117 319.658 344.919 319.238 344.523C318.819 344.128 318.609 343.487 318.609 342.602ZM323.344 343.492C323.344 343.154 323.441 342.866 323.637 342.629C323.835 342.389 324.086 342.212 324.391 342.098V342.082C324.156 341.97 323.954 341.799 323.785 341.57C323.616 341.339 323.531 341.066 323.531 340.754C323.531 340.285 323.704 339.909 324.051 339.625C324.4 339.339 324.824 339.195 325.324 339.195C325.822 339.195 326.243 339.339 326.59 339.625C326.939 339.909 327.113 340.285 327.113 340.754C327.113 341.066 327.029 341.339 326.859 341.57C326.693 341.799 326.491 341.97 326.254 342.082V342.098C326.561 342.212 326.812 342.389 327.008 342.629C327.206 342.866 327.305 343.154 327.305 343.492C327.305 344.008 327.112 344.408 326.727 344.691C326.344 344.975 325.876 345.117 325.324 345.117C324.77 345.117 324.301 344.975 323.918 344.691C323.535 344.408 323.344 344.008 323.344 343.492ZM324.133 343.445C324.133 343.745 324.242 343.988 324.461 344.176C324.68 344.361 324.967 344.453 325.324 344.453C325.681 344.453 325.969 344.361 326.188 344.176C326.406 343.988 326.516 343.745 326.516 343.445C326.516 343.141 326.406 342.895 326.188 342.707C325.969 342.517 325.681 342.422 325.324 342.422C324.967 342.422 324.68 342.517 324.461 342.707C324.242 342.895 324.133 343.141 324.133 343.445ZM324.305 340.801C324.305 341.079 324.398 341.309 324.586 341.488C324.776 341.668 325.022 341.758 325.324 341.758C325.626 341.758 325.871 341.668 326.059 341.488C326.249 341.309 326.344 341.079 326.344 340.801C326.344 340.527 326.249 340.302 326.059 340.125C325.871 339.948 325.626 339.859 325.324 339.859C325.022 339.859 324.776 339.948 324.586 340.125C324.398 340.302 324.305 340.527 324.305 340.801ZM329.836 340.957L330.082 340.184L331.535 340.809L331.387 339.234H332.176L332.027 340.809L333.484 340.184L333.727 340.957L332.184 341.309L333.23 342.492L332.59 342.973L331.781 341.609L330.973 342.973L330.332 342.492L331.379 341.309L329.836 340.957ZM334.18 340.957L334.426 340.184L335.879 340.809L335.73 339.234H336.52L336.371 340.809L337.828 340.184L338.07 340.957L336.527 341.309L337.574 342.492L336.934 342.973L336.125 341.609L335.316 342.973L334.676 342.492L335.723 341.309L334.18 340.957ZM338.523 340.957L338.77 340.184L340.223 340.809L340.074 339.234H340.863L340.715 340.809L342.172 340.184L342.414 340.957L340.871 341.309L341.918 342.492L341.277 342.973L340.469 341.609L339.66 342.973L339.02 342.492L340.066 341.309L338.523 340.957ZM344.82 340.957L345.066 340.184L346.52 340.809L346.371 339.234H347.16L347.012 340.809L348.469 340.184L348.711 340.957L347.168 341.309L348.215 342.492L347.574 342.973L346.766 341.609L345.957 342.973L345.316 342.492L346.363 341.309L344.82 340.957ZM349.164 340.957L349.41 340.184L350.863 340.809L350.715 339.234H351.504L351.355 340.809L352.812 340.184L353.055 340.957L351.512 341.309L352.559 342.492L351.918 342.973L351.109 341.609L350.301 342.973L349.66 342.492L350.707 341.309L349.164 340.957ZM353.508 340.957L353.754 340.184L355.207 340.809L355.059 339.234H355.848L355.699 340.809L357.156 340.184L357.398 340.957L355.855 341.309L356.902 342.492L356.262 342.973L355.453 341.609L354.645 342.973L354.004 342.492L355.051 341.309L353.508 340.957ZM357.852 340.957L358.098 340.184L359.551 340.809L359.402 339.234H360.191L360.043 340.809L361.5 340.184L361.742 340.957L360.199 341.309L361.246 342.492L360.605 342.973L359.797 341.609L358.988 342.973L358.348 342.492L359.395 341.309L357.852 340.957ZM364.148 341.09C364.148 340.527 364.339 340.072 364.719 339.723C365.102 339.371 365.585 339.195 366.168 339.195C366.751 339.195 367.253 339.393 367.672 339.789C368.094 340.185 368.305 340.826 368.305 341.711V341.828C368.305 342.818 368.017 343.613 367.441 344.215C366.866 344.816 366.048 345.117 364.988 345.117H364.906V344.441H364.988C365.77 344.441 366.385 344.236 366.836 343.824C367.289 343.41 367.516 342.758 367.516 341.867V341.672C367.516 341.013 367.388 340.547 367.133 340.273C366.878 340 366.556 339.863 366.168 339.863C365.78 339.863 365.479 339.971 365.266 340.188C365.052 340.401 364.945 340.702 364.945 341.09C364.945 341.478 365.052 341.779 365.266 341.992C365.479 342.203 365.78 342.309 366.168 342.309C366.527 342.309 366.845 342.203 367.121 341.992C367.4 341.779 367.539 341.478 367.539 341.09H367.832C367.832 341.655 367.665 342.111 367.332 342.457C366.999 342.803 366.555 342.977 366 342.977C365.448 342.977 365.001 342.803 364.66 342.457C364.319 342.111 364.148 341.655 364.148 341.09ZM368.867 342.602V342.484C368.867 341.495 369.154 340.699 369.727 340.098C370.302 339.496 371.12 339.195 372.18 339.195H372.262V339.871H372.18C371.401 339.871 370.785 340.078 370.332 340.492C369.879 340.904 369.652 341.555 369.652 342.445V342.641C369.652 343.299 369.78 343.766 370.035 344.039C370.29 344.312 370.612 344.449 371 344.449C371.388 344.449 371.689 344.339 371.902 344.117C372.116 343.896 372.223 343.585 372.223 343.184C372.223 342.783 372.116 342.473 371.902 342.254C371.689 342.035 371.388 341.926 371 341.926C370.641 341.926 370.322 342.035 370.043 342.254C369.767 342.473 369.629 342.783 369.629 343.184H369.336C369.336 342.608 369.503 342.143 369.836 341.789C370.169 341.435 370.613 341.258 371.168 341.258C371.725 341.258 372.173 341.435 372.512 341.789C372.85 342.143 373.02 342.608 373.02 343.184C373.02 343.757 372.828 344.223 372.445 344.582C372.065 344.939 371.583 345.117 371 345.117C370.417 345.117 369.915 344.919 369.496 344.523C369.077 344.128 368.867 343.487 368.867 342.602ZM373.508 343.496V343.457H374.289V343.496C374.289 343.798 374.4 344.033 374.621 344.199C374.842 344.366 375.137 344.449 375.504 344.449C375.871 344.449 376.164 344.366 376.383 344.199C376.602 344.033 376.711 343.772 376.711 343.418C376.711 343.069 376.587 342.806 376.34 342.629C376.095 342.452 375.766 342.363 375.352 342.363H374.852V341.711H375.309C375.691 341.711 375.987 341.628 376.195 341.461C376.404 341.292 376.508 341.057 376.508 340.758C376.508 340.458 376.417 340.234 376.234 340.086C376.055 339.938 375.811 339.863 375.504 339.863C375.199 339.863 374.948 339.938 374.75 340.086C374.552 340.234 374.453 340.447 374.453 340.723V340.762H373.672V340.723C373.672 340.301 373.844 339.941 374.188 339.645C374.534 339.345 374.973 339.195 375.504 339.195C376.035 339.195 376.469 339.337 376.805 339.621C377.143 339.902 377.312 340.266 377.312 340.711C377.312 340.971 377.237 341.22 377.086 341.457C376.938 341.691 376.704 341.875 376.387 342.008V342.023C376.73 342.107 377.005 342.272 377.211 342.52C377.419 342.764 377.523 343.066 377.523 343.426C377.523 343.952 377.332 344.366 376.949 344.668C376.569 344.967 376.087 345.117 375.504 345.117C374.921 345.117 374.441 344.966 374.066 344.664C373.694 344.359 373.508 343.97 373.508 343.496Z" fill="#000F26"/>
<path d="M437.379 343.078V341.234C437.379 340.622 437.551 340.13 437.895 339.758C438.241 339.383 438.72 339.195 439.332 339.195C439.939 339.195 440.415 339.383 440.762 339.758C441.111 340.13 441.285 340.622 441.285 341.234V343.078C441.285 343.693 441.111 344.186 440.762 344.559C440.415 344.931 439.939 345.117 439.332 345.117C438.72 345.117 438.241 344.931 437.895 344.559C437.551 344.186 437.379 343.693 437.379 343.078ZM438.188 343.117C438.188 343.505 438.28 343.823 438.465 344.07C438.652 344.318 438.941 344.441 439.332 344.441C439.72 344.441 440.008 344.318 440.195 344.07C440.383 343.823 440.477 343.505 440.477 343.117V341.195C440.477 340.81 440.383 340.493 440.195 340.246C440.008 339.996 439.72 339.871 439.332 339.871C438.941 339.871 438.652 339.996 438.465 340.246C438.28 340.493 438.188 340.81 438.188 341.195V343.117ZM441.945 342.602V342.484C441.945 341.495 442.232 340.699 442.805 340.098C443.38 339.496 444.198 339.195 445.258 339.195H445.34V339.871H445.258C444.479 339.871 443.863 340.078 443.41 340.492C442.957 340.904 442.73 341.555 442.73 342.445V342.641C442.73 343.299 442.858 343.766 443.113 344.039C443.368 344.312 443.69 344.449 444.078 344.449C444.466 344.449 444.767 344.339 444.98 344.117C445.194 343.896 445.301 343.585 445.301 343.184C445.301 342.783 445.194 342.473 444.98 342.254C444.767 342.035 444.466 341.926 444.078 341.926C443.719 341.926 443.4 342.035 443.121 342.254C442.845 342.473 442.707 342.783 442.707 343.184H442.414C442.414 342.608 442.581 342.143 442.914 341.789C443.247 341.435 443.691 341.258 444.246 341.258C444.803 341.258 445.251 341.435 445.59 341.789C445.928 342.143 446.098 342.608 446.098 343.184C446.098 343.757 445.906 344.223 445.523 344.582C445.143 344.939 444.661 345.117 444.078 345.117C443.495 345.117 442.993 344.919 442.574 344.523C442.155 344.128 441.945 343.487 441.945 342.602ZM445.938 345.488L448.43 339.312H449.152L446.66 345.488H445.938ZM451.098 345V344.387L453.281 342.234C453.552 341.969 453.763 341.728 453.914 341.512C454.068 341.293 454.145 341.059 454.145 340.809C454.145 340.556 454.049 340.337 453.859 340.152C453.672 339.965 453.411 339.871 453.078 339.871C452.737 339.871 452.453 339.973 452.227 340.176C452.003 340.376 451.891 340.65 451.891 340.996V341.035H451.094V340.996C451.094 340.475 451.283 340.046 451.66 339.707C452.038 339.366 452.51 339.195 453.078 339.195C453.635 339.195 454.085 339.353 454.426 339.668C454.767 339.98 454.938 340.348 454.938 340.77C454.938 341.142 454.829 341.478 454.613 341.777C454.397 342.074 454.13 342.376 453.812 342.684L452.121 344.324H455.094V345H451.098ZM455.762 343.078V341.234C455.762 340.622 455.934 340.13 456.277 339.758C456.624 339.383 457.103 339.195 457.715 339.195C458.322 339.195 458.798 339.383 459.145 339.758C459.493 340.13 459.668 340.622 459.668 341.234V343.078C459.668 343.693 459.493 344.186 459.145 344.559C458.798 344.931 458.322 345.117 457.715 345.117C457.103 345.117 456.624 344.931 456.277 344.559C455.934 344.186 455.762 343.693 455.762 343.078ZM456.57 343.117C456.57 343.505 456.663 343.823 456.848 344.07C457.035 344.318 457.324 344.441 457.715 344.441C458.103 344.441 458.391 344.318 458.578 344.07C458.766 343.823 458.859 343.505 458.859 343.117V341.195C458.859 340.81 458.766 340.493 458.578 340.246C458.391 339.996 458.103 339.871 457.715 339.871C457.324 339.871 457.035 339.996 456.848 340.246C456.663 340.493 456.57 340.81 456.57 341.195V343.117ZM460.426 345V344.387L462.609 342.234C462.88 341.969 463.091 341.728 463.242 341.512C463.396 341.293 463.473 341.059 463.473 340.809C463.473 340.556 463.378 340.337 463.188 340.152C463 339.965 462.74 339.871 462.406 339.871C462.065 339.871 461.781 339.973 461.555 340.176C461.331 340.376 461.219 340.65 461.219 340.996V341.035H460.422V340.996C460.422 340.475 460.611 340.046 460.988 339.707C461.366 339.366 461.839 339.195 462.406 339.195C462.964 339.195 463.413 339.353 463.754 339.668C464.095 339.98 464.266 340.348 464.266 340.77C464.266 341.142 464.158 341.478 463.941 341.777C463.725 342.074 463.458 342.376 463.141 342.684L461.449 344.324H464.422V345H460.426ZM464.969 343.496V343.457H465.75V343.496C465.75 343.798 465.861 344.033 466.082 344.199C466.303 344.366 466.598 344.449 466.965 344.449C467.332 344.449 467.625 344.366 467.844 344.199C468.062 344.033 468.172 343.772 468.172 343.418C468.172 343.069 468.048 342.806 467.801 342.629C467.556 342.452 467.227 342.363 466.812 342.363H466.312V341.711H466.77C467.152 341.711 467.448 341.628 467.656 341.461C467.865 341.292 467.969 341.057 467.969 340.758C467.969 340.458 467.878 340.234 467.695 340.086C467.516 339.938 467.272 339.863 466.965 339.863C466.66 339.863 466.409 339.938 466.211 340.086C466.013 340.234 465.914 340.447 465.914 340.723V340.762H465.133V340.723C465.133 340.301 465.305 339.941 465.648 339.645C465.995 339.345 466.434 339.195 466.965 339.195C467.496 339.195 467.93 339.337 468.266 339.621C468.604 339.902 468.773 340.266 468.773 340.711C468.773 340.971 468.698 341.22 468.547 341.457C468.398 341.691 468.165 341.875 467.848 342.008V342.023C468.191 342.107 468.466 342.272 468.672 342.52C468.88 342.764 468.984 343.066 468.984 343.426C468.984 343.952 468.793 344.366 468.41 344.668C468.03 344.967 467.548 345.117 466.965 345.117C466.382 345.117 465.902 344.966 465.527 344.664C465.155 344.359 464.969 343.97 464.969 343.496Z" fill="#000F26"/>
<circle cx="464" cy="267" r="5" fill="white" stroke="#45D3DD" stroke-width="2"/>
<defs>
<filter id="filter0_d_802_2850" x="4.39574" y="40.1979" width="574.209" height="563.209" filterUnits="userSpaceOnUse" color-interpolation-filters="sRGB">
<feFlood flood-opacity="0" result="BackgroundImageFix"/>
<feColorMatrix in="SourceAlpha" type="matrix" values="0 0 0 0 0 0 0 0 0 0 0 0 0 0 0 0 0 0 127 0" result="hardAlpha"/>
<feOffset dy="29.8021"/>
<feGaussianBlur stdDeviation="29.8021"/>
<feComposite in2="hardAlpha" operator="out"/>
<feColorMatrix type="matrix" values="0 0 0 0 0 0 0 0 0 0.196875 0 0 0 0 0.495833 0 0 0 0.1 0"/>
<feBlend mode="normal" in2="BackgroundImageFix" result="effect1_dropShadow_802_2850"/>
<feBlend mode="normal" in="SourceGraphic" in2="effect1_dropShadow_802_2850" result="shape"/>
</filter>
<linearGradient id="paint0_linear_802_2850" x1="291.5" y1="0" x2="291.5" y2="584" gradientUnits="userSpaceOnUse">
<stop stop-color="#E5EFFE"/>
<stop offset="1" stop-color="#E5EFFE" stop-opacity="0"/>
</linearGradient>
</defs>
</svg>
