<svg width="584" height="603" viewBox="0 0 584 603" fill="none" xmlns="http://www.w3.org/2000/svg">
<ellipse cx="291.5" cy="292" rx="291.5" ry="292" fill="url(#paint0_linear_908_27443)"/>
<g filter="url(#filter0_d_908_27443)">
<rect x="56" y="65" width="468" height="139" rx="24" fill="white"/>
</g>
<circle cx="84.0684" cy="83.5" r="3.5" fill="#FF6051"/>
<circle cx="94.0684" cy="83.5" r="3.5" fill="#FEBE05"/>
<circle cx="104.068" cy="83.5" r="3.5" fill="#1ECB3D"/>
<path d="M81.7559 122V110.625H89.3965V112.461H84.1465V115.25H88.6934V117.047H84.1465V120.172H89.4824V122H81.7559ZM90.3887 118.023V117.773C90.3887 116.482 90.7689 115.458 91.5293 114.703C92.2949 113.948 93.3079 113.57 94.5684 113.57C95.7663 113.57 96.6777 113.867 97.3027 114.461C97.9329 115.055 98.2689 115.763 98.3105 116.586L98.3262 116.727H96.0449V116.625C96.0449 116.245 95.9199 115.93 95.6699 115.68C95.4251 115.424 95.0527 115.297 94.5527 115.297C93.9694 115.297 93.5267 115.51 93.2246 115.938C92.9277 116.359 92.7793 116.93 92.7793 117.648V118.148C92.7793 118.872 92.9225 119.448 93.209 119.875C93.5007 120.297 93.9486 120.508 94.5527 120.508C95.0996 120.508 95.485 120.375 95.709 120.109C95.9329 119.839 96.0449 119.523 96.0449 119.164V119.078H98.3184V119.18C98.3184 120.003 97.9928 120.719 97.3418 121.328C96.6908 121.932 95.7663 122.234 94.5684 122.234C93.3132 122.234 92.3027 121.857 91.5371 121.102C90.7715 120.341 90.3887 119.315 90.3887 118.023ZM99.248 118.023V117.773C99.248 116.487 99.6387 115.466 100.42 114.711C101.206 113.951 102.23 113.57 103.49 113.57C104.745 113.57 105.764 113.951 106.545 114.711C107.331 115.466 107.725 116.487 107.725 117.773V118.023C107.725 119.31 107.331 120.333 106.545 121.094C105.764 121.854 104.745 122.234 103.49 122.234C102.23 122.234 101.206 121.854 100.42 121.094C99.6387 120.333 99.248 119.31 99.248 118.023ZM101.639 117.648V118.148C101.639 118.904 101.798 119.479 102.115 119.875C102.438 120.271 102.896 120.469 103.49 120.469C104.079 120.469 104.532 120.271 104.85 119.875C105.167 119.479 105.326 118.904 105.326 118.148V117.648C105.326 116.893 105.165 116.32 104.842 115.93C104.519 115.534 104.068 115.336 103.49 115.336C102.907 115.336 102.451 115.534 102.123 115.93C101.8 116.32 101.639 116.893 101.639 117.648ZM109.287 122V113.805H111.506L111.553 114.75H111.6C111.839 114.396 112.165 114.125 112.576 113.938C112.988 113.745 113.425 113.648 113.889 113.648C114.462 113.648 114.959 113.768 115.381 114.008C115.803 114.247 116.11 114.599 116.303 115.062H116.334C116.615 114.599 116.995 114.247 117.475 114.008C117.959 113.768 118.469 113.648 119.006 113.648C119.829 113.648 120.49 113.906 120.99 114.422C121.495 114.932 121.748 115.786 121.748 116.984V122H119.412V116.875C119.412 116.385 119.311 116.023 119.107 115.789C118.904 115.555 118.605 115.438 118.209 115.438C117.86 115.432 117.555 115.526 117.295 115.719C117.04 115.911 116.837 116.18 116.686 116.523V122H114.342V116.891C114.342 116.391 114.24 116.023 114.037 115.789C113.834 115.555 113.529 115.438 113.123 115.438C112.774 115.438 112.472 115.531 112.217 115.719C111.967 115.901 111.769 116.169 111.623 116.523V122H109.287ZM123.678 122V113.805H125.896L125.943 114.75H125.99C126.23 114.396 126.555 114.125 126.967 113.938C127.378 113.745 127.816 113.648 128.279 113.648C128.852 113.648 129.35 113.768 129.771 114.008C130.193 114.247 130.501 114.599 130.693 115.062H130.725C131.006 114.599 131.386 114.247 131.865 114.008C132.35 113.768 132.86 113.648 133.396 113.648C134.219 113.648 134.881 113.906 135.381 114.422C135.886 114.932 136.139 115.786 136.139 116.984V122H133.803V116.875C133.803 116.385 133.701 116.023 133.498 115.789C133.295 115.555 132.995 115.438 132.6 115.438C132.251 115.432 131.946 115.526 131.686 115.719C131.43 115.911 131.227 116.18 131.076 116.523V122H128.732V116.891C128.732 116.391 128.631 116.023 128.428 115.789C128.225 115.555 127.92 115.438 127.514 115.438C127.165 115.438 126.863 115.531 126.607 115.719C126.357 115.901 126.16 116.169 126.014 116.523V122H123.678ZM137.623 118.023V117.773C137.623 116.508 138.006 115.492 138.771 114.727C139.537 113.956 140.516 113.57 141.709 113.57C142.912 113.57 143.855 113.932 144.537 114.656C145.219 115.375 145.561 116.37 145.561 117.641V118.469H139.201V117.023H143.256V116.852C143.256 116.404 143.12 116.026 142.85 115.719C142.584 115.406 142.204 115.25 141.709 115.25C141.136 115.25 140.699 115.466 140.396 115.898C140.1 116.326 139.951 116.906 139.951 117.641V118.141C139.951 118.87 140.113 119.448 140.436 119.875C140.758 120.297 141.232 120.508 141.857 120.508C142.295 120.508 142.673 120.401 142.99 120.188C143.308 119.974 143.566 119.727 143.764 119.445L145.42 120.492C145.16 120.997 144.719 121.414 144.1 121.742C143.48 122.07 142.745 122.234 141.896 122.234C140.568 122.234 139.524 121.852 138.764 121.086C138.003 120.315 137.623 119.294 137.623 118.023ZM147.021 122V113.805H149.256L149.303 114.711H149.342C149.508 114.404 149.738 114.141 150.029 113.922C150.321 113.698 150.649 113.586 151.014 113.586C151.123 113.586 151.232 113.599 151.342 113.625C151.456 113.651 151.537 113.674 151.584 113.695V115.695C151.495 115.674 151.399 115.659 151.295 115.648C151.191 115.633 151.076 115.625 150.951 115.625C150.592 115.625 150.269 115.732 149.982 115.945C149.701 116.154 149.495 116.422 149.365 116.75V122H147.021ZM152.248 118.023V117.773C152.248 116.482 152.628 115.458 153.389 114.703C154.154 113.948 155.167 113.57 156.428 113.57C157.626 113.57 158.537 113.867 159.162 114.461C159.792 115.055 160.128 115.763 160.17 116.586L160.186 116.727H157.904V116.625C157.904 116.245 157.779 115.93 157.529 115.68C157.285 115.424 156.912 115.297 156.412 115.297C155.829 115.297 155.386 115.51 155.084 115.938C154.787 116.359 154.639 116.93 154.639 117.648V118.148C154.639 118.872 154.782 119.448 155.068 119.875C155.36 120.297 155.808 120.508 156.412 120.508C156.959 120.508 157.344 120.375 157.568 120.109C157.792 119.839 157.904 119.523 157.904 119.164V119.078H160.178V119.18C160.178 120.003 159.852 120.719 159.201 121.328C158.55 121.932 157.626 122.234 156.428 122.234C155.173 122.234 154.162 121.857 153.396 121.102C152.631 120.341 152.248 119.315 152.248 118.023ZM161.107 118.023V117.773C161.107 116.508 161.49 115.492 162.256 114.727C163.021 113.956 164.001 113.57 165.193 113.57C166.396 113.57 167.339 113.932 168.021 114.656C168.704 115.375 169.045 116.37 169.045 117.641V118.469H162.686V117.023H166.74V116.852C166.74 116.404 166.605 116.026 166.334 115.719C166.068 115.406 165.688 115.25 165.193 115.25C164.62 115.25 164.183 115.466 163.881 115.898C163.584 116.326 163.436 116.906 163.436 117.641V118.141C163.436 118.87 163.597 119.448 163.92 119.875C164.243 120.297 164.717 120.508 165.342 120.508C165.779 120.508 166.157 120.401 166.475 120.188C166.792 119.974 167.05 119.727 167.248 119.445L168.904 120.492C168.644 120.997 168.204 121.414 167.584 121.742C166.964 122.07 166.23 122.234 165.381 122.234C164.053 122.234 163.008 121.852 162.248 121.086C161.488 120.315 161.107 119.294 161.107 118.023ZM174.686 122V113.117C174.686 112.044 174.985 111.242 175.584 110.711C176.183 110.174 176.943 109.906 177.865 109.906C178.068 109.906 178.261 109.917 178.443 109.938C178.631 109.958 178.798 109.99 178.943 110.031L178.873 111.75C178.774 111.729 178.667 111.711 178.553 111.695C178.438 111.68 178.321 111.672 178.201 111.672C177.826 111.672 177.532 111.797 177.318 112.047C177.11 112.297 177.006 112.674 177.006 113.18V114.5L177.014 114.664V122H174.686ZM173.584 115.508V113.805H175.553H175.842H178.482V115.508H173.584ZM179.35 118.828V113.805H181.693V118.883C181.693 119.445 181.805 119.836 182.029 120.055C182.258 120.268 182.568 120.375 182.959 120.375C183.308 120.375 183.62 120.273 183.896 120.07C184.178 119.862 184.386 119.604 184.521 119.297V113.805H186.857V122H184.639L184.584 121.07H184.545C184.305 121.409 183.975 121.677 183.553 121.875C183.136 122.068 182.667 122.164 182.146 122.164C181.329 122.164 180.657 121.909 180.131 121.398C179.61 120.883 179.35 120.026 179.35 118.828ZM188.865 122V113.805H191.084L191.139 114.734H191.178C191.386 114.417 191.699 114.156 192.115 113.953C192.537 113.745 193.003 113.641 193.514 113.641C194.357 113.641 195.045 113.88 195.576 114.359C196.107 114.833 196.373 115.667 196.373 116.859V122H194.037V116.812C194.037 116.307 193.928 115.953 193.709 115.75C193.49 115.542 193.178 115.438 192.771 115.438C192.443 115.438 192.136 115.531 191.85 115.719C191.563 115.906 191.347 116.172 191.201 116.516V122H188.865ZM197.857 118.031V117.781C197.857 116.557 198.186 115.562 198.842 114.797C199.503 114.031 200.363 113.648 201.42 113.648C201.936 113.648 202.381 113.742 202.756 113.93C203.136 114.112 203.428 114.352 203.631 114.648V110.062H205.959V122H203.74L203.693 121.047H203.654C203.482 121.365 203.196 121.63 202.795 121.844C202.399 122.052 201.943 122.156 201.428 122.156C200.318 122.156 199.446 121.773 198.811 121.008C198.175 120.242 197.857 119.25 197.857 118.031ZM200.248 118.133C200.248 118.81 200.394 119.357 200.686 119.773C200.977 120.19 201.412 120.398 201.99 120.398C202.391 120.398 202.73 120.292 203.006 120.078C203.282 119.859 203.488 119.599 203.623 119.297V116.5C203.493 116.198 203.292 115.94 203.021 115.727C202.756 115.513 202.415 115.406 201.998 115.406C201.425 115.406 200.99 115.617 200.693 116.039C200.396 116.456 200.248 117 200.248 117.672V118.133ZM207.982 122V113.805H210.334V122H207.982ZM207.787 111.508C207.787 111.159 207.904 110.865 208.139 110.625C208.378 110.38 208.719 110.258 209.162 110.258C209.6 110.258 209.936 110.378 210.17 110.617C210.41 110.857 210.529 111.154 210.529 111.508C210.529 111.867 210.41 112.169 210.17 112.414C209.936 112.654 209.597 112.773 209.154 112.773C208.717 112.773 208.378 112.654 208.139 112.414C207.904 112.169 207.787 111.867 207.787 111.508ZM212.35 122V113.805H214.568L214.623 114.734H214.662C214.87 114.417 215.183 114.156 215.6 113.953C216.021 113.745 216.488 113.641 216.998 113.641C217.842 113.641 218.529 113.88 219.061 114.359C219.592 114.833 219.857 115.667 219.857 116.859V122H217.521V116.812C217.521 116.307 217.412 115.953 217.193 115.75C216.975 115.542 216.662 115.438 216.256 115.438C215.928 115.438 215.62 115.531 215.334 115.719C215.048 115.906 214.831 116.172 214.686 116.516V122H212.35ZM221.834 124.281L222.818 122.844C223.006 123.036 223.318 123.221 223.756 123.398C224.193 123.581 224.67 123.672 225.186 123.672C225.753 123.672 226.214 123.495 226.568 123.141C226.928 122.792 227.107 122.258 227.107 121.539V121.141C226.904 121.458 226.61 121.706 226.225 121.883C225.839 122.06 225.383 122.148 224.857 122.148C223.805 122.148 222.956 121.773 222.311 121.023C221.665 120.268 221.342 119.271 221.342 118.031V117.781C221.342 116.531 221.662 115.531 222.303 114.781C222.949 114.026 223.8 113.648 224.857 113.648C225.368 113.648 225.829 113.753 226.24 113.961C226.652 114.169 226.946 114.432 227.123 114.75H227.162L227.209 113.805H229.436V121.453C229.436 122.729 229.048 123.708 228.271 124.391C227.495 125.073 226.514 125.414 225.326 125.414C224.607 125.414 223.943 125.305 223.334 125.086C222.73 124.872 222.23 124.604 221.834 124.281ZM223.732 118.133C223.732 118.81 223.878 119.357 224.17 119.773C224.462 120.19 224.907 120.398 225.506 120.398C225.896 120.398 226.23 120.284 226.506 120.055C226.787 119.826 226.985 119.565 227.1 119.273V116.578C226.975 116.234 226.771 115.953 226.49 115.734C226.209 115.516 225.868 115.406 225.467 115.406C224.889 115.406 224.454 115.617 224.162 116.039C223.876 116.456 223.732 117 223.732 117.672V118.133Z" fill="#001B44"/>
<rect x="81.5684" y="173" width="69" height="7" rx="3.5" fill="#E5E8ED"/>
<rect x="81.5684" y="157" width="109" height="7" rx="3.5" fill="#E5E8ED"/>
<rect x="225.568" y="173" width="72" height="7" rx="3.5" fill="#E5E8ED"/>
<rect x="225.568" y="157" width="122" height="7" rx="3.5" fill="#E5E8ED"/>
<rect x="373.568" y="173" width="87" height="7" rx="3.5" fill="#E5E8ED"/>
<rect x="373.568" y="157" width="107" height="7" rx="3.5" fill="#E5E8ED"/>
<g filter="url(#filter1_d_908_27443)">
<rect x="55.5684" y="224" width="224" height="296" rx="24" fill="white"/>
</g>
<circle cx="84.0684" cy="246.5" r="3.5" fill="#FF6051"/>
<circle cx="94.0684" cy="246.5" r="3.5" fill="#FEBE05"/>
<circle cx="104.068" cy="246.5" r="3.5" fill="#1ECB3D"/>
<path d="M81.7324 285V273.625H84.1465V285H81.7324ZM86.3184 285V276.805H88.5371L88.5918 277.734H88.6309C88.8392 277.417 89.1517 277.156 89.5684 276.953C89.9902 276.745 90.4564 276.641 90.9668 276.641C91.8105 276.641 92.498 276.88 93.0293 277.359C93.5605 277.833 93.8262 278.667 93.8262 279.859V285H91.4902V279.812C91.4902 279.307 91.3809 278.953 91.1621 278.75C90.9434 278.542 90.6309 278.438 90.2246 278.438C89.8965 278.438 89.5892 278.531 89.3027 278.719C89.0163 278.906 88.8001 279.172 88.6543 279.516V285H86.3184ZM94.7637 278.508V276.805H99.8418V278.508H94.7637ZM95.9824 282.555V277.664L95.9902 277.438V274.844H98.3105V282.477C98.3105 282.857 98.3783 283.12 98.5137 283.266C98.6543 283.406 98.8496 283.477 99.0996 283.477C99.2194 283.477 99.3392 283.464 99.459 283.438C99.5788 283.406 99.696 283.367 99.8105 283.32V284.992C99.6855 285.055 99.5111 285.109 99.2871 285.156C99.0632 285.203 98.8184 285.227 98.5527 285.227C97.7767 285.227 97.1543 285.013 96.6855 284.586C96.2168 284.154 95.9824 283.477 95.9824 282.555ZM100.717 281.023V280.773C100.717 279.508 101.1 278.492 101.865 277.727C102.631 276.956 103.61 276.57 104.803 276.57C106.006 276.57 106.949 276.932 107.631 277.656C108.313 278.375 108.654 279.37 108.654 280.641V281.469H102.295V280.023H106.35V279.852C106.35 279.404 106.214 279.026 105.943 278.719C105.678 278.406 105.298 278.25 104.803 278.25C104.23 278.25 103.792 278.466 103.49 278.898C103.193 279.326 103.045 279.906 103.045 280.641V281.141C103.045 281.87 103.206 282.448 103.529 282.875C103.852 283.297 104.326 283.508 104.951 283.508C105.389 283.508 105.766 283.401 106.084 283.188C106.402 282.974 106.66 282.727 106.857 282.445L108.514 283.492C108.253 283.997 107.813 284.414 107.193 284.742C106.574 285.07 105.839 285.234 104.99 285.234C103.662 285.234 102.618 284.852 101.857 284.086C101.097 283.315 100.717 282.294 100.717 281.023ZM110.115 285V276.805H112.35L112.396 277.711H112.436C112.602 277.404 112.831 277.141 113.123 276.922C113.415 276.698 113.743 276.586 114.107 276.586C114.217 276.586 114.326 276.599 114.436 276.625C114.55 276.651 114.631 276.674 114.678 276.695V278.695C114.589 278.674 114.493 278.659 114.389 278.648C114.285 278.633 114.17 278.625 114.045 278.625C113.686 278.625 113.363 278.732 113.076 278.945C112.795 279.154 112.589 279.422 112.459 279.75V285H110.115ZM115.342 281.023V280.773C115.342 279.508 115.725 278.492 116.49 277.727C117.256 276.956 118.235 276.57 119.428 276.57C120.631 276.57 121.574 276.932 122.256 277.656C122.938 278.375 123.279 279.37 123.279 280.641V281.469H116.92V280.023H120.975V279.852C120.975 279.404 120.839 279.026 120.568 278.719C120.303 278.406 119.923 278.25 119.428 278.25C118.855 278.25 118.417 278.466 118.115 278.898C117.818 279.326 117.67 279.906 117.67 280.641V281.141C117.67 281.87 117.831 282.448 118.154 282.875C118.477 283.297 118.951 283.508 119.576 283.508C120.014 283.508 120.391 283.401 120.709 283.188C121.027 282.974 121.285 282.727 121.482 282.445L123.139 283.492C122.878 283.997 122.438 284.414 121.818 284.742C121.199 285.07 120.464 285.234 119.615 285.234C118.287 285.234 117.243 284.852 116.482 284.086C115.722 283.315 115.342 282.294 115.342 281.023ZM124.24 282.414L126.521 282.422V282.547C126.521 282.932 126.649 283.214 126.904 283.391C127.165 283.562 127.516 283.648 127.959 283.648C128.407 283.648 128.745 283.565 128.975 283.398C129.204 283.232 129.318 283.008 129.318 282.727C129.318 282.445 129.199 282.237 128.959 282.102C128.719 281.966 128.152 281.807 127.256 281.625C126.292 281.427 125.589 281.122 125.146 280.711C124.704 280.299 124.482 279.766 124.482 279.109C124.482 278.323 124.798 277.703 125.428 277.25C126.058 276.797 126.907 276.57 127.975 276.57C129.042 276.57 129.896 276.807 130.537 277.281C131.178 277.75 131.498 278.391 131.498 279.203V279.297H129.225V279.172C129.225 278.854 129.12 278.607 128.912 278.43C128.709 278.253 128.394 278.164 127.967 278.164C127.545 278.164 127.238 278.237 127.045 278.383C126.857 278.523 126.764 278.714 126.764 278.953C126.764 279.193 126.886 279.383 127.131 279.523C127.376 279.664 127.949 279.826 128.85 280.008C129.808 280.201 130.511 280.497 130.959 280.898C131.412 281.299 131.639 281.852 131.639 282.555C131.639 283.393 131.326 284.049 130.701 284.523C130.081 284.997 129.173 285.234 127.975 285.234C126.787 285.234 125.868 284.997 125.217 284.523C124.566 284.049 124.24 283.375 124.24 282.5V282.414ZM132.201 278.508V276.805H137.279V278.508H132.201ZM133.42 282.555V277.664L133.428 277.438V274.844H135.748V282.477C135.748 282.857 135.816 283.12 135.951 283.266C136.092 283.406 136.287 283.477 136.537 283.477C136.657 283.477 136.777 283.464 136.896 283.438C137.016 283.406 137.133 283.367 137.248 283.32V284.992C137.123 285.055 136.949 285.109 136.725 285.156C136.501 285.203 136.256 285.227 135.99 285.227C135.214 285.227 134.592 285.013 134.123 284.586C133.654 284.154 133.42 283.477 133.42 282.555ZM138.1 282.414L140.381 282.422V282.547C140.381 282.932 140.508 283.214 140.764 283.391C141.024 283.562 141.376 283.648 141.818 283.648C142.266 283.648 142.605 283.565 142.834 283.398C143.063 283.232 143.178 283.008 143.178 282.727C143.178 282.445 143.058 282.237 142.818 282.102C142.579 281.966 142.011 281.807 141.115 281.625C140.152 281.427 139.449 281.122 139.006 280.711C138.563 280.299 138.342 279.766 138.342 279.109C138.342 278.323 138.657 277.703 139.287 277.25C139.917 276.797 140.766 276.57 141.834 276.57C142.902 276.57 143.756 276.807 144.396 277.281C145.037 277.75 145.357 278.391 145.357 279.203V279.297H143.084V279.172C143.084 278.854 142.98 278.607 142.771 278.43C142.568 278.253 142.253 278.164 141.826 278.164C141.404 278.164 141.097 278.237 140.904 278.383C140.717 278.523 140.623 278.714 140.623 278.953C140.623 279.193 140.745 279.383 140.99 279.523C141.235 279.664 141.808 279.826 142.709 280.008C143.667 280.201 144.37 280.497 144.818 280.898C145.271 281.299 145.498 281.852 145.498 282.555C145.498 283.393 145.186 284.049 144.561 284.523C143.941 284.997 143.032 285.234 141.834 285.234C140.646 285.234 139.727 284.997 139.076 284.523C138.425 284.049 138.1 283.375 138.1 282.5V282.414Z" fill="#001B44"/>
<path opacity="0.3" d="M113.568 378C113.568 347.624 137.969 323 168.068 323C198.168 323 222.568 347.624 222.568 378C222.568 408.376 198.168 433 168.068 433C137.969 433 113.568 408.376 113.568 378ZM212.066 378C212.066 353.478 192.368 333.599 168.068 333.599C143.769 333.599 124.071 353.478 124.071 378C124.071 402.522 143.769 422.401 168.068 422.401C192.368 422.401 212.066 402.522 212.066 378Z" fill="#45D3DD"/>
<path d="M195.318 330.369C187.033 325.541 177.635 323 168.068 323L168.068 338.609C174.92 338.609 181.651 340.429 187.585 343.886L195.318 330.369Z" fill="#45D3DD"/>
<path d="M148.708 372.457V371.964L153.637 371.974V372.392C153.637 372.892 153.74 373.271 153.948 373.528C154.155 373.785 154.476 373.914 154.912 373.914C155.391 373.914 155.701 373.757 155.844 373.442C155.994 373.121 156.069 372.607 156.069 371.899C156.069 371.207 155.983 370.706 155.812 370.399C155.641 370.092 155.344 369.939 154.923 369.939C154.544 369.939 154.248 370.035 154.033 370.228C153.819 370.414 153.644 370.646 153.508 370.924L149.265 369.328L150.079 361.398H160.141V365.063L153.84 365.02L153.615 367.249C153.88 367.056 154.205 366.899 154.59 366.777C154.976 366.656 155.448 366.595 156.005 366.595C157.498 366.595 158.702 367.031 159.616 367.903C160.537 368.767 160.998 369.996 160.998 371.589C160.998 373.289 160.505 374.664 159.52 375.714C158.541 376.764 157.016 377.289 154.944 377.289C152.894 377.289 151.34 376.843 150.283 375.95C149.233 375.057 148.708 373.893 148.708 372.457ZM161.845 366.681V364.484C161.845 363.463 162.22 362.673 162.97 362.116C163.727 361.552 164.72 361.27 165.949 361.27C167.17 361.27 168.156 361.552 168.906 362.116C169.656 362.673 170.031 363.463 170.031 364.484V366.681C170.031 367.745 169.656 368.567 168.906 369.146C168.156 369.724 167.17 370.014 165.949 370.014C164.72 370.014 163.727 369.724 162.97 369.146C162.22 368.567 161.845 367.745 161.845 366.681ZM165.263 366.885C165.263 367.12 165.317 367.295 165.424 367.41C165.538 367.524 165.713 367.581 165.949 367.581C166.177 367.581 166.345 367.524 166.452 367.41C166.56 367.295 166.613 367.12 166.613 366.885V364.409C166.613 364.166 166.56 363.988 166.452 363.874C166.352 363.752 166.185 363.691 165.949 363.691C165.706 363.691 165.531 363.752 165.424 363.874C165.317 363.988 165.263 364.166 165.263 364.409V366.885ZM177.329 362.17L168.938 377.354L166.452 375.961L174.8 360.852L177.329 362.17ZM173.6 374.053V371.857C173.6 370.835 173.975 370.046 174.725 369.488C175.482 368.924 176.475 368.642 177.704 368.642C178.925 368.642 179.911 368.924 180.661 369.488C181.411 370.046 181.786 370.835 181.786 371.857V374.053C181.786 375.118 181.411 375.939 180.661 376.518C179.911 377.096 178.925 377.386 177.704 377.386C176.475 377.386 175.482 377.096 174.725 376.518C173.975 375.939 173.6 375.118 173.6 374.053ZM177.018 374.257C177.018 374.493 177.071 374.668 177.179 374.782C177.293 374.896 177.468 374.953 177.704 374.953C177.932 374.953 178.1 374.896 178.207 374.782C178.314 374.668 178.368 374.493 178.368 374.257V371.782C178.368 371.539 178.314 371.36 178.207 371.246C178.107 371.124 177.939 371.064 177.704 371.064C177.461 371.064 177.286 371.124 177.179 371.246C177.071 371.36 177.018 371.539 177.018 371.782V374.257Z" fill="#0067FF"/>
<path d="M149.459 391.672V390.953C149.459 389.203 149.902 387.839 150.787 386.859C151.678 385.88 152.829 385.391 154.24 385.391C155.521 385.391 156.524 385.734 157.248 386.422C157.977 387.109 158.381 387.922 158.459 388.859L158.467 388.953H156.998V388.867C156.998 388.336 156.756 387.836 156.271 387.367C155.787 386.893 155.107 386.656 154.232 386.656C153.238 386.656 152.441 387.039 151.842 387.805C151.243 388.565 150.943 389.615 150.943 390.953V391.672C150.943 393.01 151.243 394.062 151.842 394.828C152.446 395.594 153.292 395.977 154.381 395.977C154.954 395.977 155.446 395.917 155.857 395.797C156.274 395.672 156.67 395.479 157.045 395.219V392.539H154.225V391.328H158.467V395.758C158.118 396.117 157.594 396.453 156.896 396.766C156.204 397.078 155.365 397.234 154.381 397.234C152.876 397.234 151.678 396.745 150.787 395.766C149.902 394.786 149.459 393.422 149.459 391.672ZM160.115 393.039V392.789C160.115 391.555 160.464 390.549 161.162 389.773C161.86 388.992 162.792 388.602 163.959 388.602C165.126 388.602 166.058 388.992 166.756 389.773C167.454 390.549 167.803 391.555 167.803 392.789V393.039C167.803 394.273 167.454 395.281 166.756 396.062C166.058 396.844 165.126 397.234 163.959 397.234C162.792 397.234 161.86 396.844 161.162 396.062C160.464 395.281 160.115 394.273 160.115 393.039ZM161.568 392.789V393.039C161.568 393.888 161.769 394.604 162.17 395.188C162.571 395.771 163.167 396.062 163.959 396.062C164.751 396.062 165.344 395.771 165.74 395.188C166.141 394.604 166.342 393.888 166.342 393.039V392.789C166.342 391.94 166.141 391.224 165.74 390.641C165.344 390.057 164.751 389.766 163.959 389.766C163.167 389.766 162.571 390.057 162.17 390.641C161.769 391.224 161.568 391.94 161.568 392.789ZM169.115 393.039V392.789C169.115 391.555 169.464 390.549 170.162 389.773C170.86 388.992 171.792 388.602 172.959 388.602C174.126 388.602 175.058 388.992 175.756 389.773C176.454 390.549 176.803 391.555 176.803 392.789V393.039C176.803 394.273 176.454 395.281 175.756 396.062C175.058 396.844 174.126 397.234 172.959 397.234C171.792 397.234 170.86 396.844 170.162 396.062C169.464 395.281 169.115 394.273 169.115 393.039ZM170.568 392.789V393.039C170.568 393.888 170.769 394.604 171.17 395.188C171.571 395.771 172.167 396.062 172.959 396.062C173.751 396.062 174.344 395.771 174.74 395.188C175.141 394.604 175.342 393.888 175.342 393.039V392.789C175.342 391.94 175.141 391.224 174.74 390.641C174.344 390.057 173.751 389.766 172.959 389.766C172.167 389.766 171.571 390.057 171.17 390.641C170.769 391.224 170.568 391.94 170.568 392.789ZM178.115 393.039V392.789C178.115 391.596 178.425 390.612 179.045 389.836C179.665 389.06 180.493 388.672 181.529 388.672C182.097 388.672 182.581 388.776 182.982 388.984C183.389 389.188 183.709 389.456 183.943 389.789V385.031H185.373V397H184.084L184.021 395.93H183.975C183.766 396.268 183.449 396.557 183.021 396.797C182.594 397.036 182.097 397.156 181.529 397.156C180.493 397.156 179.665 396.768 179.045 395.992C178.425 395.216 178.115 394.232 178.115 393.039ZM179.568 393.039C179.568 393.872 179.751 394.573 180.115 395.141C180.48 395.703 181.053 395.984 181.834 395.984C182.355 395.984 182.798 395.844 183.162 395.562C183.527 395.276 183.787 394.951 183.943 394.586V391.242C183.787 390.878 183.527 390.555 183.162 390.273C182.798 389.987 182.355 389.844 181.834 389.844C181.053 389.844 180.48 390.128 180.115 390.695C179.751 391.258 179.568 391.956 179.568 392.789V393.039Z" fill="#0067FF"/>
<rect x="80.5684" y="467" width="68" height="8" rx="4" fill="#E5E8ED"/>
<rect x="177.568" y="467" width="68" height="8" rx="4" fill="#E5E8ED"/>
<rect x="80.5684" y="483" width="42" height="5" rx="2.5" fill="#ECEEF1"/>
<rect x="177.568" y="483" width="42" height="5" rx="2.5" fill="#ECEEF1"/>
<g filter="url(#filter2_d_908_27443)">
<rect x="299.568" y="224" width="224" height="296" rx="24" fill="white"/>
</g>
<circle cx="328.068" cy="246.5" r="3.5" fill="#FF6051"/>
<circle cx="338.068" cy="246.5" r="3.5" fill="#FEBE05"/>
<circle cx="348.068" cy="246.5" r="3.5" fill="#1ECB3D"/>
<path d="M325.756 285V273.625H333.256V275.461H328.17V278.609H332.607V280.414H328.17V285H325.756ZM334.686 285V276.805H337.037V285H334.686ZM334.49 274.508C334.49 274.159 334.607 273.865 334.842 273.625C335.081 273.38 335.423 273.258 335.865 273.258C336.303 273.258 336.639 273.378 336.873 273.617C337.113 273.857 337.232 274.154 337.232 274.508C337.232 274.867 337.113 275.169 336.873 275.414C336.639 275.654 336.3 275.773 335.857 275.773C335.42 275.773 335.081 275.654 334.842 275.414C334.607 275.169 334.49 274.867 334.49 274.508ZM339.053 285V276.805H341.271L341.326 277.734H341.365C341.574 277.417 341.886 277.156 342.303 276.953C342.725 276.745 343.191 276.641 343.701 276.641C344.545 276.641 345.232 276.88 345.764 277.359C346.295 277.833 346.561 278.667 346.561 279.859V285H344.225V279.812C344.225 279.307 344.115 278.953 343.896 278.75C343.678 278.542 343.365 278.438 342.959 278.438C342.631 278.438 342.324 278.531 342.037 278.719C341.751 278.906 341.535 279.172 341.389 279.516V285H339.053ZM348.076 282.594C348.076 281.677 348.428 280.992 349.131 280.539C349.834 280.081 350.722 279.849 351.795 279.844H353.396V279.383C353.396 279.013 353.303 278.716 353.115 278.492C352.928 278.263 352.597 278.148 352.123 278.148C351.644 278.148 351.305 278.242 351.107 278.43C350.91 278.617 350.811 278.849 350.811 279.125V279.242H348.514V279.125C348.514 278.385 348.857 277.776 349.545 277.297C350.232 276.818 351.123 276.578 352.217 276.578C353.321 276.578 354.183 276.807 354.803 277.266C355.423 277.724 355.732 278.435 355.732 279.398V283.164C355.732 283.492 355.764 283.807 355.826 284.109C355.889 284.411 355.969 284.667 356.068 284.875V285H353.771C353.709 284.88 353.654 284.724 353.607 284.531C353.561 284.333 353.527 284.143 353.506 283.961C353.35 284.268 353.045 284.544 352.592 284.789C352.144 285.029 351.584 285.148 350.912 285.148C350.105 285.148 349.43 284.938 348.889 284.516C348.347 284.089 348.076 283.448 348.076 282.594ZM350.42 282.383C350.42 282.742 350.524 283.031 350.732 283.25C350.941 283.469 351.269 283.578 351.717 283.578C352.201 283.578 352.602 283.424 352.92 283.117C353.238 282.81 353.396 282.445 353.396 282.023V281.242H352.139C351.555 281.242 351.123 281.341 350.842 281.539C350.561 281.737 350.42 282.018 350.42 282.383ZM357.771 285V276.805H359.99L360.045 277.734H360.084C360.292 277.417 360.605 277.156 361.021 276.953C361.443 276.745 361.91 276.641 362.42 276.641C363.264 276.641 363.951 276.88 364.482 277.359C365.014 277.833 365.279 278.667 365.279 279.859V285H362.943V279.812C362.943 279.307 362.834 278.953 362.615 278.75C362.396 278.542 362.084 278.438 361.678 278.438C361.35 278.438 361.042 278.531 360.756 278.719C360.469 278.906 360.253 279.172 360.107 279.516V285H357.771ZM366.764 281.023V280.773C366.764 279.482 367.144 278.458 367.904 277.703C368.67 276.948 369.683 276.57 370.943 276.57C372.141 276.57 373.053 276.867 373.678 277.461C374.308 278.055 374.644 278.763 374.686 279.586L374.701 279.727H372.42V279.625C372.42 279.245 372.295 278.93 372.045 278.68C371.8 278.424 371.428 278.297 370.928 278.297C370.344 278.297 369.902 278.51 369.6 278.938C369.303 279.359 369.154 279.93 369.154 280.648V281.148C369.154 281.872 369.298 282.448 369.584 282.875C369.876 283.297 370.324 283.508 370.928 283.508C371.475 283.508 371.86 283.375 372.084 283.109C372.308 282.839 372.42 282.523 372.42 282.164V282.078H374.693V282.18C374.693 283.003 374.368 283.719 373.717 284.328C373.066 284.932 372.141 285.234 370.943 285.234C369.688 285.234 368.678 284.857 367.912 284.102C367.146 283.341 366.764 282.315 366.764 281.023ZM375.623 281.023V280.773C375.623 279.508 376.006 278.492 376.771 277.727C377.537 276.956 378.516 276.57 379.709 276.57C380.912 276.57 381.855 276.932 382.537 277.656C383.219 278.375 383.561 279.37 383.561 280.641V281.469H377.201V280.023H381.256V279.852C381.256 279.404 381.12 279.026 380.85 278.719C380.584 278.406 380.204 278.25 379.709 278.25C379.136 278.25 378.699 278.466 378.396 278.898C378.1 279.326 377.951 279.906 377.951 280.641V281.141C377.951 281.87 378.113 282.448 378.436 282.875C378.758 283.297 379.232 283.508 379.857 283.508C380.295 283.508 380.673 283.401 380.99 283.188C381.308 282.974 381.566 282.727 381.764 282.445L383.42 283.492C383.16 283.997 382.719 284.414 382.1 284.742C381.48 285.07 380.745 285.234 379.896 285.234C378.568 285.234 377.524 284.852 376.764 284.086C376.003 283.315 375.623 282.294 375.623 281.023ZM388.928 288.258V276.805H391.115L391.17 277.734H391.209C391.381 277.422 391.678 277.161 392.1 276.953C392.521 276.745 392.988 276.641 393.498 276.641C394.555 276.641 395.407 277.016 396.053 277.766C396.699 278.51 397.021 279.513 397.021 280.773V281.023C397.021 282.273 396.704 283.276 396.068 284.031C395.433 284.781 394.6 285.156 393.568 285.156C393.058 285.156 392.597 285.07 392.186 284.898C391.774 284.727 391.467 284.487 391.264 284.18V288.258H388.928ZM391.264 282.266C391.383 282.573 391.592 282.839 391.889 283.062C392.191 283.286 392.542 283.398 392.943 283.398C393.511 283.398 393.933 283.203 394.209 282.812C394.49 282.417 394.631 281.862 394.631 281.148V280.648C394.631 279.935 394.49 279.383 394.209 278.992C393.933 278.602 393.506 278.406 392.928 278.406C392.511 278.406 392.162 278.516 391.881 278.734C391.6 278.953 391.394 279.208 391.264 279.5V282.266ZM398.584 285V276.805H400.818L400.865 277.711H400.904C401.071 277.404 401.3 277.141 401.592 276.922C401.883 276.698 402.212 276.586 402.576 276.586C402.686 276.586 402.795 276.599 402.904 276.625C403.019 276.651 403.1 276.674 403.146 276.695V278.695C403.058 278.674 402.962 278.659 402.857 278.648C402.753 278.633 402.639 278.625 402.514 278.625C402.154 278.625 401.831 278.732 401.545 278.945C401.264 279.154 401.058 279.422 400.928 279.75V285H398.584ZM403.811 281.023V280.773C403.811 279.487 404.201 278.466 404.982 277.711C405.769 276.951 406.792 276.57 408.053 276.57C409.308 276.57 410.326 276.951 411.107 277.711C411.894 278.466 412.287 279.487 412.287 280.773V281.023C412.287 282.31 411.894 283.333 411.107 284.094C410.326 284.854 409.308 285.234 408.053 285.234C406.792 285.234 405.769 284.854 404.982 284.094C404.201 283.333 403.811 282.31 403.811 281.023ZM406.201 280.648V281.148C406.201 281.904 406.36 282.479 406.678 282.875C407.001 283.271 407.459 283.469 408.053 283.469C408.641 283.469 409.094 283.271 409.412 282.875C409.73 282.479 409.889 281.904 409.889 281.148V280.648C409.889 279.893 409.727 279.32 409.404 278.93C409.081 278.534 408.631 278.336 408.053 278.336C407.469 278.336 407.014 278.534 406.686 278.93C406.363 279.32 406.201 279.893 406.201 280.648ZM413.404 281.031V280.781C413.404 279.557 413.732 278.562 414.389 277.797C415.05 277.031 415.91 276.648 416.967 276.648C417.482 276.648 417.928 276.742 418.303 276.93C418.683 277.112 418.975 277.352 419.178 277.648V273.062H421.506V285H419.287L419.24 284.047H419.201C419.029 284.365 418.743 284.63 418.342 284.844C417.946 285.052 417.49 285.156 416.975 285.156C415.865 285.156 414.993 284.773 414.357 284.008C413.722 283.242 413.404 282.25 413.404 281.031ZM415.795 281.133C415.795 281.81 415.941 282.357 416.232 282.773C416.524 283.19 416.959 283.398 417.537 283.398C417.938 283.398 418.277 283.292 418.553 283.078C418.829 282.859 419.035 282.599 419.17 282.297V279.5C419.04 279.198 418.839 278.94 418.568 278.727C418.303 278.513 417.962 278.406 417.545 278.406C416.972 278.406 416.537 278.617 416.24 279.039C415.943 279.456 415.795 280 415.795 280.672V281.133ZM423.428 281.828V276.805H425.771V281.883C425.771 282.445 425.883 282.836 426.107 283.055C426.337 283.268 426.646 283.375 427.037 283.375C427.386 283.375 427.699 283.273 427.975 283.07C428.256 282.862 428.464 282.604 428.6 282.297V276.805H430.936V285H428.717L428.662 284.07H428.623C428.383 284.409 428.053 284.677 427.631 284.875C427.214 285.068 426.745 285.164 426.225 285.164C425.407 285.164 424.735 284.909 424.209 284.398C423.688 283.883 423.428 283.026 423.428 281.828ZM432.498 281.023V280.773C432.498 279.482 432.878 278.458 433.639 277.703C434.404 276.948 435.417 276.57 436.678 276.57C437.876 276.57 438.787 276.867 439.412 277.461C440.042 278.055 440.378 278.763 440.42 279.586L440.436 279.727H438.154V279.625C438.154 279.245 438.029 278.93 437.779 278.68C437.535 278.424 437.162 278.297 436.662 278.297C436.079 278.297 435.636 278.51 435.334 278.938C435.037 279.359 434.889 279.93 434.889 280.648V281.148C434.889 281.872 435.032 282.448 435.318 282.875C435.61 283.297 436.058 283.508 436.662 283.508C437.209 283.508 437.594 283.375 437.818 283.109C438.042 282.839 438.154 282.523 438.154 282.164V282.078H440.428V282.18C440.428 283.003 440.102 283.719 439.451 284.328C438.8 284.932 437.876 285.234 436.678 285.234C435.423 285.234 434.412 284.857 433.646 284.102C432.881 283.341 432.498 282.315 432.498 281.023ZM440.811 278.508V276.805H445.889V278.508H440.811ZM442.029 282.555V277.664L442.037 277.438V274.844H444.357V282.477C444.357 282.857 444.425 283.12 444.561 283.266C444.701 283.406 444.896 283.477 445.146 283.477C445.266 283.477 445.386 283.464 445.506 283.438C445.626 283.406 445.743 283.367 445.857 283.32V284.992C445.732 285.055 445.558 285.109 445.334 285.156C445.11 285.203 444.865 285.227 444.6 285.227C443.824 285.227 443.201 285.013 442.732 284.586C442.264 284.154 442.029 283.477 442.029 282.555ZM446.709 282.414L448.99 282.422V282.547C448.99 282.932 449.118 283.214 449.373 283.391C449.633 283.562 449.985 283.648 450.428 283.648C450.876 283.648 451.214 283.565 451.443 283.398C451.673 283.232 451.787 283.008 451.787 282.727C451.787 282.445 451.667 282.237 451.428 282.102C451.188 281.966 450.62 281.807 449.725 281.625C448.761 281.427 448.058 281.122 447.615 280.711C447.173 280.299 446.951 279.766 446.951 279.109C446.951 278.323 447.266 277.703 447.896 277.25C448.527 276.797 449.376 276.57 450.443 276.57C451.511 276.57 452.365 276.807 453.006 277.281C453.646 277.75 453.967 278.391 453.967 279.203V279.297H451.693V279.172C451.693 278.854 451.589 278.607 451.381 278.43C451.178 278.253 450.863 278.164 450.436 278.164C450.014 278.164 449.706 278.237 449.514 278.383C449.326 278.523 449.232 278.714 449.232 278.953C449.232 279.193 449.355 279.383 449.6 279.523C449.844 279.664 450.417 279.826 451.318 280.008C452.277 280.201 452.98 280.497 453.428 280.898C453.881 281.299 454.107 281.852 454.107 282.555C454.107 283.393 453.795 284.049 453.17 284.523C452.55 284.997 451.641 285.234 450.443 285.234C449.256 285.234 448.337 284.997 447.686 284.523C447.035 284.049 446.709 283.375 446.709 282.5V282.414Z" fill="#001B44"/>
<rect x="325.5" y="309.5" width="170" height="80" rx="7.5" fill="white" stroke="#0067FF"/>
<rect x="348" y="366" width="42" height="7" rx="3.5" fill="#E5E8ED"/>
<rect x="348" y="350" width="92" height="7" rx="3.5" fill="#E5E8ED"/>
<path d="M348.996 334V325.469H351.885C352.842 325.469 353.576 325.705 354.088 326.178C354.604 326.65 354.861 327.279 354.861 328.064C354.861 328.85 354.604 329.482 354.088 329.963C353.576 330.443 352.842 330.684 351.885 330.684H350.145V334H348.996ZM350.145 329.734H351.885C352.561 329.734 353.033 329.572 353.303 329.248C353.576 328.924 353.713 328.529 353.713 328.064C353.713 327.6 353.576 327.209 353.303 326.893C353.033 326.576 352.561 326.418 351.885 326.418H350.145V329.734ZM356.027 334V327.766H357.035L357.082 328.568H357.117C357.277 328.307 357.488 328.078 357.75 327.883C358.016 327.688 358.33 327.59 358.693 327.59C358.779 327.59 358.869 327.6 358.963 327.619C359.061 327.639 359.129 327.656 359.168 327.672V328.709C359.09 328.693 359.006 328.682 358.916 328.674C358.83 328.666 358.734 328.662 358.629 328.662C358.266 328.662 357.957 328.756 357.703 328.943C357.449 329.131 357.262 329.361 357.141 329.635V334H356.027ZM359.725 330.977V330.789C359.725 329.848 359.996 329.08 360.539 328.486C361.082 327.889 361.807 327.59 362.713 327.59C363.619 327.59 364.344 327.889 364.887 328.486C365.43 329.08 365.701 329.848 365.701 330.789V330.977C365.701 331.918 365.43 332.688 364.887 333.285C364.344 333.879 363.619 334.176 362.713 334.176C361.807 334.176 361.082 333.879 360.539 333.285C359.996 332.688 359.725 331.918 359.725 330.977ZM360.861 330.789V330.977C360.861 331.613 361.016 332.152 361.324 332.594C361.637 333.035 362.1 333.256 362.713 333.256C363.326 333.256 363.787 333.035 364.096 332.594C364.404 332.152 364.559 331.613 364.559 330.977V330.789C364.559 330.148 364.404 329.607 364.096 329.166C363.787 328.725 363.326 328.504 362.713 328.504C362.1 328.504 361.637 328.725 361.324 329.166C361.016 329.607 360.861 330.148 360.861 330.789ZM366.697 330.977V330.789C366.697 329.879 366.938 329.129 367.418 328.539C367.898 327.945 368.541 327.648 369.346 327.648C369.787 327.648 370.164 327.727 370.477 327.883C370.793 328.035 371.043 328.24 371.227 328.498V325H372.34V334H371.332L371.285 333.186H371.25C371.09 333.443 370.842 333.664 370.506 333.848C370.174 334.027 369.787 334.117 369.346 334.117C368.541 334.117 367.898 333.82 367.418 333.227C366.938 332.633 366.697 331.883 366.697 330.977ZM367.834 330.977C367.834 331.602 367.975 332.129 368.256 332.559C368.541 332.984 368.984 333.197 369.586 333.197C369.992 333.197 370.336 333.09 370.617 332.875C370.898 332.656 371.102 332.41 371.227 332.137V329.629C371.102 329.352 370.898 329.105 370.617 328.891C370.336 328.672 369.992 328.562 369.586 328.562C368.984 328.562 368.541 328.777 368.256 329.207C367.975 329.633 367.834 330.16 367.834 330.789V330.977ZM374.016 331.756V327.766H375.129V331.768C375.129 332.271 375.242 332.633 375.469 332.852C375.699 333.066 376.025 333.174 376.447 333.174C376.807 333.174 377.123 333.08 377.396 332.893C377.67 332.701 377.883 332.453 378.035 332.148V327.766H379.154V334H378.141L378.094 333.191H378.064C377.83 333.48 377.547 333.707 377.215 333.871C376.883 334.035 376.516 334.117 376.113 334.117C375.473 334.117 374.963 333.936 374.584 333.572C374.205 333.209 374.016 332.604 374.016 331.756ZM380.525 330.977V330.789C380.525 329.848 380.785 329.08 381.305 328.486C381.824 327.889 382.541 327.59 383.455 327.59C384.299 327.59 384.939 327.814 385.377 328.264C385.814 328.709 386.033 329.207 386.033 329.758V329.787H384.955V329.758C384.955 329.43 384.836 329.139 384.598 328.885C384.359 328.631 383.979 328.504 383.455 328.504C382.842 328.504 382.389 328.725 382.096 329.166C381.807 329.607 381.662 330.148 381.662 330.789V330.977C381.662 331.617 381.807 332.158 382.096 332.6C382.389 333.041 382.842 333.262 383.455 333.262C383.979 333.262 384.359 333.135 384.598 332.881C384.836 332.627 384.955 332.334 384.955 332.002V331.973H386.033V332.002C386.033 332.557 385.814 333.059 385.377 333.508C384.939 333.953 384.299 334.176 383.455 334.176C382.541 334.176 381.824 333.879 381.305 333.285C380.785 332.688 380.525 331.918 380.525 330.977ZM386.449 328.621V327.766H390.059V328.621H386.449ZM387.58 332.453V328.281V328.105V326.312H388.693V332.453C388.693 332.727 388.748 332.922 388.857 333.039C388.971 333.156 389.148 333.215 389.391 333.215C389.5 333.215 389.607 333.203 389.713 333.18C389.822 333.156 389.934 333.125 390.047 333.086V334C389.941 334.047 389.805 334.088 389.637 334.123C389.473 334.158 389.291 334.176 389.092 334.176C388.631 334.176 388.264 334.037 387.99 333.76C387.717 333.482 387.58 333.047 387.58 332.453ZM393.779 330.977V330.789C393.779 329.848 394.051 329.08 394.594 328.486C395.137 327.889 395.861 327.59 396.768 327.59C397.674 327.59 398.398 327.889 398.941 328.486C399.484 329.08 399.756 329.848 399.756 330.789V330.977C399.756 331.918 399.484 332.688 398.941 333.285C398.398 333.879 397.674 334.176 396.768 334.176C395.861 334.176 395.137 333.879 394.594 333.285C394.051 332.688 393.779 331.918 393.779 330.977ZM394.916 330.789V330.977C394.916 331.613 395.07 332.152 395.379 332.594C395.691 333.035 396.154 333.256 396.768 333.256C397.381 333.256 397.842 333.035 398.15 332.594C398.459 332.152 398.613 331.613 398.613 330.977V330.789C398.613 330.148 398.459 329.607 398.15 329.166C397.842 328.725 397.381 328.504 396.768 328.504C396.154 328.504 395.691 328.725 395.379 329.166C395.07 329.607 394.916 330.148 394.916 330.789ZM401.121 334V327.766H402.129L402.176 328.574H402.211C402.441 328.281 402.723 328.055 403.055 327.895C403.387 327.73 403.756 327.648 404.162 327.648C404.799 327.648 405.307 327.83 405.686 328.193C406.068 328.553 406.26 329.158 406.26 330.01V334H405.141V329.998C405.141 329.494 405.025 329.133 404.795 328.914C404.568 328.695 404.246 328.586 403.828 328.586C403.469 328.586 403.152 328.682 402.879 328.873C402.605 329.064 402.391 329.311 402.234 329.611V334H401.121ZM407.572 330.977V330.789C407.572 329.848 407.834 329.08 408.357 328.486C408.881 327.889 409.574 327.59 410.438 327.59C411.301 327.59 411.965 327.869 412.43 328.428C412.898 328.982 413.133 329.734 413.133 330.684V331.141H408.258V330.256H412.008V330.168C412.008 329.699 411.881 329.305 411.627 328.984C411.373 328.664 410.986 328.504 410.467 328.504C409.885 328.504 409.445 328.725 409.148 329.166C408.855 329.607 408.709 330.148 408.709 330.789V330.977C408.709 331.617 408.863 332.158 409.172 332.6C409.484 333.041 409.967 333.262 410.619 333.262C411.021 333.262 411.367 333.176 411.656 333.004C411.945 332.832 412.18 332.629 412.359 332.395L413.08 332.975C412.881 333.268 412.57 333.541 412.148 333.795C411.73 334.049 411.221 334.176 410.619 334.176C409.635 334.176 408.881 333.879 408.357 333.285C407.834 332.688 407.572 331.918 407.572 330.977Z" fill="#0067FF"/>
<rect x="325.5" y="405.5" width="170" height="80" rx="7.5" fill="white" stroke="#E5E8ED"/>
<rect x="348" y="462" width="42" height="7" rx="3.5" fill="#E5E8ED"/>
<rect x="348" y="446" width="92" height="7" rx="3.5" fill="#E5E8ED"/>
<path d="M348.996 430V421.469H351.885C352.842 421.469 353.576 421.705 354.088 422.178C354.604 422.65 354.861 423.279 354.861 424.064C354.861 424.85 354.604 425.482 354.088 425.963C353.576 426.443 352.842 426.684 351.885 426.684H350.145V430H348.996ZM350.145 425.734H351.885C352.561 425.734 353.033 425.572 353.303 425.248C353.576 424.924 353.713 424.529 353.713 424.064C353.713 423.6 353.576 423.209 353.303 422.893C353.033 422.576 352.561 422.418 351.885 422.418H350.145V425.734ZM356.027 430V423.766H357.035L357.082 424.568H357.117C357.277 424.307 357.488 424.078 357.75 423.883C358.016 423.688 358.33 423.59 358.693 423.59C358.779 423.59 358.869 423.6 358.963 423.619C359.061 423.639 359.129 423.656 359.168 423.672V424.709C359.09 424.693 359.006 424.682 358.916 424.674C358.83 424.666 358.734 424.662 358.629 424.662C358.266 424.662 357.957 424.756 357.703 424.943C357.449 425.131 357.262 425.361 357.141 425.635V430H356.027ZM359.725 426.977V426.789C359.725 425.848 359.996 425.08 360.539 424.486C361.082 423.889 361.807 423.59 362.713 423.59C363.619 423.59 364.344 423.889 364.887 424.486C365.43 425.08 365.701 425.848 365.701 426.789V426.977C365.701 427.918 365.43 428.688 364.887 429.285C364.344 429.879 363.619 430.176 362.713 430.176C361.807 430.176 361.082 429.879 360.539 429.285C359.996 428.688 359.725 427.918 359.725 426.977ZM360.861 426.789V426.977C360.861 427.613 361.016 428.152 361.324 428.594C361.637 429.035 362.1 429.256 362.713 429.256C363.326 429.256 363.787 429.035 364.096 428.594C364.404 428.152 364.559 427.613 364.559 426.977V426.789C364.559 426.148 364.404 425.607 364.096 425.166C363.787 424.725 363.326 424.504 362.713 424.504C362.1 424.504 361.637 424.725 361.324 425.166C361.016 425.607 360.861 426.148 360.861 426.789ZM366.697 426.977V426.789C366.697 425.879 366.938 425.129 367.418 424.539C367.898 423.945 368.541 423.648 369.346 423.648C369.787 423.648 370.164 423.727 370.477 423.883C370.793 424.035 371.043 424.24 371.227 424.498V421H372.34V430H371.332L371.285 429.186H371.25C371.09 429.443 370.842 429.664 370.506 429.848C370.174 430.027 369.787 430.117 369.346 430.117C368.541 430.117 367.898 429.82 367.418 429.227C366.938 428.633 366.697 427.883 366.697 426.977ZM367.834 426.977C367.834 427.602 367.975 428.129 368.256 428.559C368.541 428.984 368.984 429.197 369.586 429.197C369.992 429.197 370.336 429.09 370.617 428.875C370.898 428.656 371.102 428.41 371.227 428.137V425.629C371.102 425.352 370.898 425.105 370.617 424.891C370.336 424.672 369.992 424.562 369.586 424.562C368.984 424.562 368.541 424.777 368.256 425.207C367.975 425.633 367.834 426.16 367.834 426.789V426.977ZM374.016 427.756V423.766H375.129V427.768C375.129 428.271 375.242 428.633 375.469 428.852C375.699 429.066 376.025 429.174 376.447 429.174C376.807 429.174 377.123 429.08 377.396 428.893C377.67 428.701 377.883 428.453 378.035 428.148V423.766H379.154V430H378.141L378.094 429.191H378.064C377.83 429.48 377.547 429.707 377.215 429.871C376.883 430.035 376.516 430.117 376.113 430.117C375.473 430.117 374.963 429.936 374.584 429.572C374.205 429.209 374.016 428.604 374.016 427.756ZM380.525 426.977V426.789C380.525 425.848 380.785 425.08 381.305 424.486C381.824 423.889 382.541 423.59 383.455 423.59C384.299 423.59 384.939 423.814 385.377 424.264C385.814 424.709 386.033 425.207 386.033 425.758V425.787H384.955V425.758C384.955 425.43 384.836 425.139 384.598 424.885C384.359 424.631 383.979 424.504 383.455 424.504C382.842 424.504 382.389 424.725 382.096 425.166C381.807 425.607 381.662 426.148 381.662 426.789V426.977C381.662 427.617 381.807 428.158 382.096 428.6C382.389 429.041 382.842 429.262 383.455 429.262C383.979 429.262 384.359 429.135 384.598 428.881C384.836 428.627 384.955 428.334 384.955 428.002V427.973H386.033V428.002C386.033 428.557 385.814 429.059 385.377 429.508C384.939 429.953 384.299 430.176 383.455 430.176C382.541 430.176 381.824 429.879 381.305 429.285C380.785 428.688 380.525 427.918 380.525 426.977ZM386.449 424.621V423.766H390.059V424.621H386.449ZM387.58 428.453V424.281V424.105V422.312H388.693V428.453C388.693 428.727 388.748 428.922 388.857 429.039C388.971 429.156 389.148 429.215 389.391 429.215C389.5 429.215 389.607 429.203 389.713 429.18C389.822 429.156 389.934 429.125 390.047 429.086V430C389.941 430.047 389.805 430.088 389.637 430.123C389.473 430.158 389.291 430.176 389.092 430.176C388.631 430.176 388.264 430.037 387.99 429.76C387.717 429.482 387.58 429.047 387.58 428.453ZM393.281 424.621V423.766H396.891V424.621H393.281ZM394.412 428.453V424.281V424.105V422.312H395.525V428.453C395.525 428.727 395.58 428.922 395.689 429.039C395.803 429.156 395.98 429.215 396.223 429.215C396.332 429.215 396.439 429.203 396.545 429.18C396.654 429.156 396.766 429.125 396.879 429.086V430C396.773 430.047 396.637 430.088 396.469 430.123C396.305 430.158 396.123 430.176 395.924 430.176C395.463 430.176 395.096 430.037 394.822 429.76C394.549 429.482 394.412 429.047 394.412 428.453ZM397.33 423.766H398.414L399.568 427.832C399.615 427.988 399.654 428.125 399.686 428.242C399.717 428.359 399.746 428.496 399.773 428.652H399.809C399.836 428.496 399.863 428.359 399.891 428.242C399.922 428.125 399.965 427.988 400.02 427.832L401.385 423.766H402.34L403.734 427.832C403.789 427.988 403.83 428.125 403.857 428.242C403.889 428.359 403.918 428.496 403.945 428.652H403.98C404.008 428.496 404.035 428.359 404.062 428.242C404.094 428.125 404.131 427.988 404.174 427.832L405.305 423.766H406.324L404.385 430H403.494L402.123 425.945C402.072 425.789 402.023 425.633 401.977 425.477C401.93 425.32 401.887 425.164 401.848 425.008H401.812C401.773 425.164 401.73 425.32 401.684 425.477C401.637 425.633 401.588 425.789 401.537 425.945L400.166 430H399.27L397.33 423.766ZM406.975 426.977V426.789C406.975 425.848 407.246 425.08 407.789 424.486C408.332 423.889 409.057 423.59 409.963 423.59C410.869 423.59 411.594 423.889 412.137 424.486C412.68 425.08 412.951 425.848 412.951 426.789V426.977C412.951 427.918 412.68 428.688 412.137 429.285C411.594 429.879 410.869 430.176 409.963 430.176C409.057 430.176 408.332 429.879 407.789 429.285C407.246 428.688 406.975 427.918 406.975 426.977ZM408.111 426.789V426.977C408.111 427.613 408.266 428.152 408.574 428.594C408.887 429.035 409.35 429.256 409.963 429.256C410.576 429.256 411.037 429.035 411.346 428.594C411.654 428.152 411.809 427.613 411.809 426.977V426.789C411.809 426.148 411.654 425.607 411.346 425.166C411.037 424.725 410.576 424.504 409.963 424.504C409.35 424.504 408.887 424.725 408.574 425.166C408.266 425.607 408.111 426.148 408.111 426.789Z" fill="#4B5768"/>
<path fill-rule="evenodd" clip-rule="evenodd" d="M20.3923 415.703L20.5218 415.478L45.6738 430L31.1523 455.152L30.9276 455.022C33.2233 441.048 29.3674 426.657 20.3923 415.703Z" fill="#00B2FF"/>
<path d="M525.569 283.212L552.249 237C560.464 241.743 573.246 255.969 578.61 262.489C537.029 269.29 525.569 283.212 525.569 283.212Z" fill="#45D3DD"/>
<defs>
<filter id="filter0_d_908_27443" x="1.13699" y="37.5685" width="577.726" height="248.726" filterUnits="userSpaceOnUse" color-interpolation-filters="sRGB">
<feFlood flood-opacity="0" result="BackgroundImageFix"/>
<feColorMatrix in="SourceAlpha" type="matrix" values="0 0 0 0 0 0 0 0 0 0 0 0 0 0 0 0 0 0 127 0" result="hardAlpha"/>
<feOffset dy="27.4315"/>
<feGaussianBlur stdDeviation="27.4315"/>
<feComposite in2="hardAlpha" operator="out"/>
<feColorMatrix type="matrix" values="0 0 0 0 0 0 0 0 0 0.196875 0 0 0 0 0.495833 0 0 0 0.1 0"/>
<feBlend mode="normal" in2="BackgroundImageFix" result="effect1_dropShadow_908_27443"/>
<feBlend mode="normal" in="SourceGraphic" in2="effect1_dropShadow_908_27443" result="shape"/>
</filter>
<filter id="filter1_d_908_27443" x="0.705345" y="196.568" width="333.726" height="405.726" filterUnits="userSpaceOnUse" color-interpolation-filters="sRGB">
<feFlood flood-opacity="0" result="BackgroundImageFix"/>
<feColorMatrix in="SourceAlpha" type="matrix" values="0 0 0 0 0 0 0 0 0 0 0 0 0 0 0 0 0 0 127 0" result="hardAlpha"/>
<feOffset dy="27.4315"/>
<feGaussianBlur stdDeviation="27.4315"/>
<feComposite in2="hardAlpha" operator="out"/>
<feColorMatrix type="matrix" values="0 0 0 0 0 0 0 0 0 0.196875 0 0 0 0 0.495833 0 0 0 0.1 0"/>
<feBlend mode="normal" in2="BackgroundImageFix" result="effect1_dropShadow_908_27443"/>
<feBlend mode="normal" in="SourceGraphic" in2="effect1_dropShadow_908_27443" result="shape"/>
</filter>
<filter id="filter2_d_908_27443" x="244.705" y="196.568" width="333.726" height="405.726" filterUnits="userSpaceOnUse" color-interpolation-filters="sRGB">
<feFlood flood-opacity="0" result="BackgroundImageFix"/>
<feColorMatrix in="SourceAlpha" type="matrix" values="0 0 0 0 0 0 0 0 0 0 0 0 0 0 0 0 0 0 127 0" result="hardAlpha"/>
<feOffset dy="27.4315"/>
<feGaussianBlur stdDeviation="27.4315"/>
<feComposite in2="hardAlpha" operator="out"/>
<feColorMatrix type="matrix" values="0 0 0 0 0 0 0 0 0 0.196875 0 0 0 0 0.495833 0 0 0 0.1 0"/>
<feBlend mode="normal" in2="BackgroundImageFix" result="effect1_dropShadow_908_27443"/>
<feBlend mode="normal" in="SourceGraphic" in2="effect1_dropShadow_908_27443" result="shape"/>
</filter>
<linearGradient id="paint0_linear_908_27443" x1="291.5" y1="0" x2="291.5" y2="584" gradientUnits="userSpaceOnUse">
<stop stop-color="#E5EFFE"/>
<stop offset="1" stop-color="#E5EFFE" stop-opacity="0"/>
</linearGradient>
</defs>
</svg>
