<svg width="583" height="584" viewBox="0 0 583 584" fill="none" xmlns="http://www.w3.org/2000/svg">
<ellipse cx="291.5" cy="292" rx="291.5" ry="292" fill="url(#paint0_linear_908_28525)"/>
<g filter="url(#filter0_d_908_28525)">
<rect x="64" y="78" width="455" height="396" rx="26.0741" fill="white"/>
</g>
<circle cx="98.6111" cy="112.049" r="3.80247" fill="#FF6051"/>
<circle cx="109.474" cy="112.049" r="3.80247" fill="#FEBE05"/>
<circle cx="120.34" cy="112.049" r="3.80247" fill="#1ECB3D"/>
<path d="M99.785 147.965L96.75 151L99.785 154.035" stroke="#909DBC" stroke-width="1.2" stroke-miterlimit="10" stroke-linecap="round" stroke-linejoin="round"/>
<path d="M105.251 151H96.8359" stroke="#909DBC" stroke-width="1.2" stroke-miterlimit="10" stroke-linecap="round" stroke-linejoin="round"/>
<path d="M116.996 155V146.469H119.873C120.752 146.469 121.441 146.65 121.941 147.014C122.445 147.377 122.697 147.949 122.697 148.73C122.697 149.199 122.576 149.58 122.334 149.873C122.096 150.166 121.797 150.375 121.438 150.5V150.523C121.875 150.648 122.232 150.879 122.51 151.215C122.787 151.551 122.926 151.992 122.926 152.539C122.926 153.32 122.662 153.926 122.135 154.355C121.611 154.785 120.916 155 120.049 155H116.996ZM118.121 154.051H120.049C120.646 154.051 121.086 153.914 121.367 153.641C121.648 153.367 121.789 152.998 121.789 152.533C121.789 152.068 121.648 151.701 121.367 151.432C121.086 151.162 120.646 151.027 120.049 151.027H118.121V154.051ZM118.121 150.09H119.873C120.471 150.09 120.9 149.971 121.162 149.732C121.428 149.494 121.561 149.162 121.561 148.736C121.561 148.311 121.428 147.984 121.162 147.758C120.9 147.531 120.471 147.418 119.873 147.418H118.121V150.09ZM124.039 153.166C124.039 152.533 124.293 152.041 124.801 151.689C125.312 151.334 125.963 151.156 126.752 151.156H128.193V150.711C128.193 150.344 128.094 150.047 127.895 149.82C127.695 149.59 127.354 149.475 126.869 149.475C126.385 149.475 126.037 149.572 125.826 149.768C125.619 149.963 125.516 150.189 125.516 150.447V150.477H124.408V150.447C124.408 149.951 124.633 149.518 125.082 149.146C125.531 148.775 126.137 148.59 126.898 148.59C127.664 148.59 128.256 148.768 128.674 149.123C129.096 149.479 129.307 150.008 129.307 150.711V153.594C129.307 153.848 129.326 154.088 129.365 154.314C129.404 154.537 129.461 154.734 129.535 154.906V155H128.457C128.398 154.902 128.346 154.773 128.299 154.613C128.256 154.453 128.229 154.295 128.217 154.139C128.068 154.396 127.826 154.625 127.49 154.824C127.158 155.02 126.729 155.117 126.201 155.117C125.604 155.117 125.094 154.949 124.672 154.613C124.25 154.277 124.039 153.795 124.039 153.166ZM125.152 153.107C125.152 153.459 125.258 153.734 125.469 153.934C125.68 154.129 126.006 154.227 126.447 154.227C126.893 154.227 127.295 154.078 127.654 153.781C128.014 153.484 128.193 153.17 128.193 152.838V151.953H126.869C126.307 151.953 125.879 152.057 125.586 152.264C125.297 152.471 125.152 152.752 125.152 153.107ZM130.654 151.977V151.789C130.654 150.848 130.914 150.08 131.434 149.486C131.953 148.889 132.67 148.59 133.584 148.59C134.428 148.59 135.068 148.814 135.506 149.264C135.943 149.709 136.162 150.207 136.162 150.758V150.787H135.084V150.758C135.084 150.43 134.965 150.139 134.727 149.885C134.488 149.631 134.107 149.504 133.584 149.504C132.971 149.504 132.518 149.725 132.225 150.166C131.936 150.607 131.791 151.148 131.791 151.789V151.977C131.791 152.617 131.936 153.158 132.225 153.6C132.518 154.041 132.971 154.262 133.584 154.262C134.107 154.262 134.488 154.135 134.727 153.881C134.965 153.627 135.084 153.334 135.084 153.002V152.973H136.162V153.002C136.162 153.557 135.943 154.059 135.506 154.508C135.068 154.953 134.428 155.176 133.584 155.176C132.67 155.176 131.953 154.879 131.434 154.285C130.914 153.688 130.654 152.918 130.654 151.977ZM137.445 155V146H138.559V151.619L141.242 148.766H142.525L138.559 152.902V155H137.445ZM141.518 155L139.045 151.754L139.754 150.986L142.836 155H141.518Z" fill="#001B44"/>
<path d="M96.1875 199V187.625H103.688V189.461H98.6016V192.609H103.039V194.414H98.6016V199H96.1875ZM104.859 195.828V190.805H107.203V195.883C107.203 196.445 107.315 196.836 107.539 197.055C107.768 197.268 108.078 197.375 108.469 197.375C108.818 197.375 109.13 197.273 109.406 197.07C109.688 196.862 109.896 196.604 110.031 196.297V190.805H112.367V199H110.148L110.094 198.07H110.055C109.815 198.409 109.484 198.677 109.062 198.875C108.646 199.068 108.177 199.164 107.656 199.164C106.839 199.164 106.167 198.909 105.641 198.398C105.12 197.883 104.859 197.026 104.859 195.828ZM114.375 199V190.805H116.594L116.648 191.734H116.688C116.896 191.417 117.208 191.156 117.625 190.953C118.047 190.745 118.513 190.641 119.023 190.641C119.867 190.641 120.555 190.88 121.086 191.359C121.617 191.833 121.883 192.667 121.883 193.859V199H119.547V193.812C119.547 193.307 119.438 192.953 119.219 192.75C119 192.542 118.688 192.438 118.281 192.438C117.953 192.438 117.646 192.531 117.359 192.719C117.073 192.906 116.857 193.172 116.711 193.516V199H114.375ZM123.367 195.031V194.781C123.367 193.557 123.695 192.562 124.352 191.797C125.013 191.031 125.872 190.648 126.93 190.648C127.445 190.648 127.891 190.742 128.266 190.93C128.646 191.112 128.938 191.352 129.141 191.648V187.062H131.469V199H129.25L129.203 198.047H129.164C128.992 198.365 128.706 198.63 128.305 198.844C127.909 199.052 127.453 199.156 126.938 199.156C125.828 199.156 124.956 198.773 124.32 198.008C123.685 197.242 123.367 196.25 123.367 195.031ZM125.758 195.133C125.758 195.81 125.904 196.357 126.195 196.773C126.487 197.19 126.922 197.398 127.5 197.398C127.901 197.398 128.24 197.292 128.516 197.078C128.792 196.859 128.997 196.599 129.133 196.297V193.5C129.003 193.198 128.802 192.94 128.531 192.727C128.266 192.513 127.924 192.406 127.508 192.406C126.935 192.406 126.5 192.617 126.203 193.039C125.906 193.456 125.758 194 125.758 194.672V195.133ZM136.93 195.023V194.773C136.93 193.508 137.312 192.492 138.078 191.727C138.844 190.956 139.823 190.57 141.016 190.57C142.219 190.57 143.161 190.932 143.844 191.656C144.526 192.375 144.867 193.37 144.867 194.641V195.469H138.508V194.023H142.562V193.852C142.562 193.404 142.427 193.026 142.156 192.719C141.891 192.406 141.51 192.25 141.016 192.25C140.443 192.25 140.005 192.466 139.703 192.898C139.406 193.326 139.258 193.906 139.258 194.641V195.141C139.258 195.87 139.419 196.448 139.742 196.875C140.065 197.297 140.539 197.508 141.164 197.508C141.602 197.508 141.979 197.401 142.297 197.188C142.615 196.974 142.872 196.727 143.07 196.445L144.727 197.492C144.466 197.997 144.026 198.414 143.406 198.742C142.786 199.07 142.052 199.234 141.203 199.234C139.875 199.234 138.831 198.852 138.07 198.086C137.31 197.315 136.93 196.294 136.93 195.023ZM145.883 195.031V194.781C145.883 193.531 146.211 192.531 146.867 191.781C147.529 191.026 148.372 190.648 149.398 190.648C149.956 190.648 150.427 190.753 150.812 190.961C151.203 191.164 151.492 191.424 151.68 191.742H151.719L151.766 190.805H153.977V202.258H151.648V198.141H151.656C151.453 198.458 151.169 198.708 150.805 198.891C150.44 199.068 149.974 199.156 149.406 199.156C148.349 199.156 147.497 198.779 146.852 198.023C146.206 197.268 145.883 196.271 145.883 195.031ZM148.273 195.133C148.273 195.836 148.414 196.391 148.695 196.797C148.982 197.198 149.409 197.398 149.977 197.398C150.388 197.398 150.737 197.289 151.023 197.07C151.315 196.852 151.523 196.583 151.648 196.266V193.5C151.523 193.208 151.318 192.953 151.031 192.734C150.745 192.516 150.393 192.406 149.977 192.406C149.409 192.406 148.982 192.609 148.695 193.016C148.414 193.422 148.273 193.974 148.273 194.672V195.133ZM155.906 195.828V190.805H158.25V195.883C158.25 196.445 158.362 196.836 158.586 197.055C158.815 197.268 159.125 197.375 159.516 197.375C159.865 197.375 160.177 197.273 160.453 197.07C160.734 196.862 160.943 196.604 161.078 196.297V190.805H163.414V199H161.195L161.141 198.07H161.102C160.862 198.409 160.531 198.677 160.109 198.875C159.693 199.068 159.224 199.164 158.703 199.164C157.885 199.164 157.214 198.909 156.688 198.398C156.167 197.883 155.906 197.026 155.906 195.828ZM165.445 199V190.805H167.797V199H165.445ZM165.25 188.508C165.25 188.159 165.367 187.865 165.602 187.625C165.841 187.38 166.182 187.258 166.625 187.258C167.062 187.258 167.398 187.378 167.633 187.617C167.872 187.857 167.992 188.154 167.992 188.508C167.992 188.867 167.872 189.169 167.633 189.414C167.398 189.654 167.06 189.773 166.617 189.773C166.18 189.773 165.841 189.654 165.602 189.414C165.367 189.169 165.25 188.867 165.25 188.508ZM169.812 202.258V190.805H172L172.055 191.734H172.094C172.266 191.422 172.562 191.161 172.984 190.953C173.406 190.745 173.872 190.641 174.383 190.641C175.44 190.641 176.292 191.016 176.938 191.766C177.583 192.51 177.906 193.513 177.906 194.773V195.023C177.906 196.273 177.589 197.276 176.953 198.031C176.318 198.781 175.484 199.156 174.453 199.156C173.943 199.156 173.482 199.07 173.07 198.898C172.659 198.727 172.352 198.487 172.148 198.18V202.258H169.812ZM172.148 196.266C172.268 196.573 172.477 196.839 172.773 197.062C173.076 197.286 173.427 197.398 173.828 197.398C174.396 197.398 174.818 197.203 175.094 196.812C175.375 196.417 175.516 195.862 175.516 195.148V194.648C175.516 193.935 175.375 193.383 175.094 192.992C174.818 192.602 174.391 192.406 173.812 192.406C173.396 192.406 173.047 192.516 172.766 192.734C172.484 192.953 172.279 193.208 172.148 193.5V196.266ZM179.469 199V190.805H181.688L181.734 191.75H181.781C182.021 191.396 182.346 191.125 182.758 190.938C183.169 190.745 183.607 190.648 184.07 190.648C184.643 190.648 185.141 190.768 185.562 191.008C185.984 191.247 186.292 191.599 186.484 192.062H186.516C186.797 191.599 187.177 191.247 187.656 191.008C188.141 190.768 188.651 190.648 189.188 190.648C190.01 190.648 190.672 190.906 191.172 191.422C191.677 191.932 191.93 192.786 191.93 193.984V199H189.594V193.875C189.594 193.385 189.492 193.023 189.289 192.789C189.086 192.555 188.786 192.438 188.391 192.438C188.042 192.432 187.737 192.526 187.477 192.719C187.221 192.911 187.018 193.18 186.867 193.523V199H184.523V193.891C184.523 193.391 184.422 193.023 184.219 192.789C184.016 192.555 183.711 192.438 183.305 192.438C182.956 192.438 182.654 192.531 182.398 192.719C182.148 192.901 181.951 193.169 181.805 193.523V199H179.469ZM193.414 195.023V194.773C193.414 193.508 193.797 192.492 194.562 191.727C195.328 190.956 196.307 190.57 197.5 190.57C198.703 190.57 199.646 190.932 200.328 191.656C201.01 192.375 201.352 193.37 201.352 194.641V195.469H194.992V194.023H199.047V193.852C199.047 193.404 198.911 193.026 198.641 192.719C198.375 192.406 197.995 192.25 197.5 192.25C196.927 192.25 196.49 192.466 196.188 192.898C195.891 193.326 195.742 193.906 195.742 194.641V195.141C195.742 195.87 195.904 196.448 196.227 196.875C196.549 197.297 197.023 197.508 197.648 197.508C198.086 197.508 198.464 197.401 198.781 197.188C199.099 196.974 199.357 196.727 199.555 196.445L201.211 197.492C200.951 197.997 200.51 198.414 199.891 198.742C199.271 199.07 198.536 199.234 197.688 199.234C196.359 199.234 195.315 198.852 194.555 198.086C193.794 197.315 193.414 196.294 193.414 195.023ZM202.812 199V190.805H205.031L205.086 191.734H205.125C205.333 191.417 205.646 191.156 206.062 190.953C206.484 190.745 206.951 190.641 207.461 190.641C208.305 190.641 208.992 190.88 209.523 191.359C210.055 191.833 210.32 192.667 210.32 193.859V199H207.984V193.812C207.984 193.307 207.875 192.953 207.656 192.75C207.438 192.542 207.125 192.438 206.719 192.438C206.391 192.438 206.083 192.531 205.797 192.719C205.51 192.906 205.294 193.172 205.148 193.516V199H202.812ZM211.258 192.508V190.805H216.336V192.508H211.258ZM212.477 196.555V191.664L212.484 191.438V188.844H214.805V196.477C214.805 196.857 214.872 197.12 215.008 197.266C215.148 197.406 215.344 197.477 215.594 197.477C215.714 197.477 215.833 197.464 215.953 197.438C216.073 197.406 216.19 197.367 216.305 197.32V198.992C216.18 199.055 216.005 199.109 215.781 199.156C215.557 199.203 215.312 199.227 215.047 199.227C214.271 199.227 213.648 199.013 213.18 198.586C212.711 198.154 212.477 197.477 212.477 196.555ZM221.836 199V190.117C221.836 189.044 222.135 188.242 222.734 187.711C223.333 187.174 224.094 186.906 225.016 186.906C225.219 186.906 225.411 186.917 225.594 186.938C225.781 186.958 225.948 186.99 226.094 187.031L226.023 188.75C225.924 188.729 225.818 188.711 225.703 188.695C225.589 188.68 225.471 188.672 225.352 188.672C224.977 188.672 224.682 188.797 224.469 189.047C224.26 189.297 224.156 189.674 224.156 190.18V191.5L224.164 191.664V199H221.836ZM220.734 192.508V190.805H222.703H222.992H225.633V192.508H220.734ZM226.133 195.023V194.773C226.133 193.487 226.523 192.466 227.305 191.711C228.091 190.951 229.115 190.57 230.375 190.57C231.63 190.57 232.648 190.951 233.43 191.711C234.216 192.466 234.609 193.487 234.609 194.773V195.023C234.609 196.31 234.216 197.333 233.43 198.094C232.648 198.854 231.63 199.234 230.375 199.234C229.115 199.234 228.091 198.854 227.305 198.094C226.523 197.333 226.133 196.31 226.133 195.023ZM228.523 194.648V195.148C228.523 195.904 228.682 196.479 229 196.875C229.323 197.271 229.781 197.469 230.375 197.469C230.964 197.469 231.417 197.271 231.734 196.875C232.052 196.479 232.211 195.904 232.211 195.148V194.648C232.211 193.893 232.049 193.32 231.727 192.93C231.404 192.534 230.953 192.336 230.375 192.336C229.792 192.336 229.336 192.534 229.008 192.93C228.685 193.32 228.523 193.893 228.523 194.648ZM236.172 199V190.805H238.406L238.453 191.711H238.492C238.659 191.404 238.888 191.141 239.18 190.922C239.471 190.698 239.799 190.586 240.164 190.586C240.273 190.586 240.383 190.599 240.492 190.625C240.607 190.651 240.688 190.674 240.734 190.695V192.695C240.646 192.674 240.549 192.659 240.445 192.648C240.341 192.633 240.227 192.625 240.102 192.625C239.742 192.625 239.419 192.732 239.133 192.945C238.852 193.154 238.646 193.422 238.516 193.75V199H236.172ZM245.641 202.242L245.664 200.531C245.794 200.573 245.94 200.604 246.102 200.625C246.263 200.651 246.417 200.664 246.562 200.664C246.917 200.664 247.224 200.552 247.484 200.328C247.745 200.104 247.971 199.651 248.164 198.969L248.086 198.961L244.906 190.805H247.266L248.922 195.555C248.99 195.747 249.042 195.927 249.078 196.094C249.115 196.255 249.148 196.422 249.18 196.594H249.234C249.271 196.422 249.307 196.255 249.344 196.094C249.38 195.932 249.432 195.753 249.5 195.555L251.102 190.805H253.195L249.836 199.945C249.534 200.763 249.128 201.378 248.617 201.789C248.112 202.201 247.49 202.406 246.75 202.406C246.51 202.406 246.302 202.393 246.125 202.367C245.948 202.341 245.786 202.299 245.641 202.242ZM253.586 195.023V194.773C253.586 193.487 253.977 192.466 254.758 191.711C255.544 190.951 256.568 190.57 257.828 190.57C259.083 190.57 260.102 190.951 260.883 191.711C261.669 192.466 262.062 193.487 262.062 194.773V195.023C262.062 196.31 261.669 197.333 260.883 198.094C260.102 198.854 259.083 199.234 257.828 199.234C256.568 199.234 255.544 198.854 254.758 198.094C253.977 197.333 253.586 196.31 253.586 195.023ZM255.977 194.648V195.148C255.977 195.904 256.135 196.479 256.453 196.875C256.776 197.271 257.234 197.469 257.828 197.469C258.417 197.469 258.87 197.271 259.188 196.875C259.505 196.479 259.664 195.904 259.664 195.148V194.648C259.664 193.893 259.503 193.32 259.18 192.93C258.857 192.534 258.406 192.336 257.828 192.336C257.245 192.336 256.789 192.534 256.461 192.93C256.138 193.32 255.977 193.893 255.977 194.648ZM263.547 195.828V190.805H265.891V195.883C265.891 196.445 266.003 196.836 266.227 197.055C266.456 197.268 266.766 197.375 267.156 197.375C267.505 197.375 267.818 197.273 268.094 197.07C268.375 196.862 268.583 196.604 268.719 196.297V190.805H271.055V199H268.836L268.781 198.07H268.742C268.503 198.409 268.172 198.677 267.75 198.875C267.333 199.068 266.865 199.164 266.344 199.164C265.526 199.164 264.854 198.909 264.328 198.398C263.807 197.883 263.547 197.026 263.547 195.828ZM273.062 199V190.805H275.297L275.344 191.711H275.383C275.549 191.404 275.779 191.141 276.07 190.922C276.362 190.698 276.69 190.586 277.055 190.586C277.164 190.586 277.273 190.599 277.383 190.625C277.497 190.651 277.578 190.674 277.625 190.695V192.695C277.536 192.674 277.44 192.659 277.336 192.648C277.232 192.633 277.117 192.625 276.992 192.625C276.633 192.625 276.31 192.732 276.023 192.945C275.742 193.154 275.536 193.422 275.406 193.75V199H273.062ZM282.797 199V187.062H285.133V191.656C285.388 191.333 285.708 191.083 286.094 190.906C286.484 190.729 286.935 190.641 287.445 190.641C288.503 190.641 289.341 191.023 289.961 191.789C290.581 192.555 290.891 193.547 290.891 194.766V195.016C290.891 196.245 290.578 197.242 289.953 198.008C289.328 198.773 288.49 199.156 287.438 199.156C286.927 199.156 286.453 199.057 286.016 198.859C285.583 198.656 285.279 198.396 285.102 198.078H285.062L285.016 199H282.797ZM285.133 196.227C285.253 196.534 285.451 196.807 285.727 197.047C286.008 197.281 286.37 197.398 286.812 197.398C287.385 197.398 287.81 197.19 288.086 196.773C288.362 196.352 288.5 195.802 288.5 195.125V194.672C288.5 193.995 288.362 193.448 288.086 193.031C287.815 192.615 287.385 192.406 286.797 192.406C286.37 192.406 286.016 192.526 285.734 192.766C285.453 193 285.253 193.271 285.133 193.578V196.227ZM292.375 195.828V190.805H294.719V195.883C294.719 196.445 294.831 196.836 295.055 197.055C295.284 197.268 295.594 197.375 295.984 197.375C296.333 197.375 296.646 197.273 296.922 197.07C297.203 196.862 297.411 196.604 297.547 196.297V190.805H299.883V199H297.664L297.609 198.07H297.57C297.331 198.409 297 198.677 296.578 198.875C296.161 199.068 295.693 199.164 295.172 199.164C294.354 199.164 293.682 198.909 293.156 198.398C292.635 197.883 292.375 197.026 292.375 195.828ZM301.391 196.414L303.672 196.422V196.547C303.672 196.932 303.799 197.214 304.055 197.391C304.315 197.562 304.667 197.648 305.109 197.648C305.557 197.648 305.896 197.565 306.125 197.398C306.354 197.232 306.469 197.008 306.469 196.727C306.469 196.445 306.349 196.237 306.109 196.102C305.87 195.966 305.302 195.807 304.406 195.625C303.443 195.427 302.74 195.122 302.297 194.711C301.854 194.299 301.633 193.766 301.633 193.109C301.633 192.323 301.948 191.703 302.578 191.25C303.208 190.797 304.057 190.57 305.125 190.57C306.193 190.57 307.047 190.807 307.688 191.281C308.328 191.75 308.648 192.391 308.648 193.203V193.297H306.375V193.172C306.375 192.854 306.271 192.607 306.062 192.43C305.859 192.253 305.544 192.164 305.117 192.164C304.695 192.164 304.388 192.237 304.195 192.383C304.008 192.523 303.914 192.714 303.914 192.953C303.914 193.193 304.036 193.383 304.281 193.523C304.526 193.664 305.099 193.826 306 194.008C306.958 194.201 307.661 194.497 308.109 194.898C308.562 195.299 308.789 195.852 308.789 196.555C308.789 197.393 308.477 198.049 307.852 198.523C307.232 198.997 306.323 199.234 305.125 199.234C303.938 199.234 303.018 198.997 302.367 198.523C301.716 198.049 301.391 197.375 301.391 196.5V196.414ZM310.367 199V190.805H312.719V199H310.367ZM310.172 188.508C310.172 188.159 310.289 187.865 310.523 187.625C310.763 187.38 311.104 187.258 311.547 187.258C311.984 187.258 312.32 187.378 312.555 187.617C312.794 187.857 312.914 188.154 312.914 188.508C312.914 188.867 312.794 189.169 312.555 189.414C312.32 189.654 311.982 189.773 311.539 189.773C311.102 189.773 310.763 189.654 310.523 189.414C310.289 189.169 310.172 188.867 310.172 188.508ZM314.734 199V190.805H316.953L317.008 191.734H317.047C317.255 191.417 317.568 191.156 317.984 190.953C318.406 190.745 318.872 190.641 319.383 190.641C320.227 190.641 320.914 190.88 321.445 191.359C321.977 191.833 322.242 192.667 322.242 193.859V199H319.906V193.812C319.906 193.307 319.797 192.953 319.578 192.75C319.359 192.542 319.047 192.438 318.641 192.438C318.312 192.438 318.005 192.531 317.719 192.719C317.432 192.906 317.216 193.172 317.07 193.516V199H314.734ZM323.727 195.023V194.773C323.727 193.508 324.109 192.492 324.875 191.727C325.641 190.956 326.62 190.57 327.812 190.57C329.016 190.57 329.958 190.932 330.641 191.656C331.323 192.375 331.664 193.37 331.664 194.641V195.469H325.305V194.023H329.359V193.852C329.359 193.404 329.224 193.026 328.953 192.719C328.688 192.406 328.307 192.25 327.812 192.25C327.24 192.25 326.802 192.466 326.5 192.898C326.203 193.326 326.055 193.906 326.055 194.641V195.141C326.055 195.87 326.216 196.448 326.539 196.875C326.862 197.297 327.336 197.508 327.961 197.508C328.398 197.508 328.776 197.401 329.094 197.188C329.411 196.974 329.669 196.727 329.867 196.445L331.523 197.492C331.263 197.997 330.823 198.414 330.203 198.742C329.583 199.07 328.849 199.234 328 199.234C326.672 199.234 325.628 198.852 324.867 198.086C324.107 197.315 323.727 196.294 323.727 195.023ZM332.625 196.414L334.906 196.422V196.547C334.906 196.932 335.034 197.214 335.289 197.391C335.549 197.562 335.901 197.648 336.344 197.648C336.792 197.648 337.13 197.565 337.359 197.398C337.589 197.232 337.703 197.008 337.703 196.727C337.703 196.445 337.583 196.237 337.344 196.102C337.104 195.966 336.536 195.807 335.641 195.625C334.677 195.427 333.974 195.122 333.531 194.711C333.089 194.299 332.867 193.766 332.867 193.109C332.867 192.323 333.182 191.703 333.812 191.25C334.443 190.797 335.292 190.57 336.359 190.57C337.427 190.57 338.281 190.807 338.922 191.281C339.562 191.75 339.883 192.391 339.883 193.203V193.297H337.609V193.172C337.609 192.854 337.505 192.607 337.297 192.43C337.094 192.253 336.779 192.164 336.352 192.164C335.93 192.164 335.622 192.237 335.43 192.383C335.242 192.523 335.148 192.714 335.148 192.953C335.148 193.193 335.271 193.383 335.516 193.523C335.76 193.664 336.333 193.826 337.234 194.008C338.193 194.201 338.896 194.497 339.344 194.898C339.797 195.299 340.023 195.852 340.023 196.555C340.023 197.393 339.711 198.049 339.086 198.523C338.466 198.997 337.557 199.234 336.359 199.234C335.172 199.234 334.253 198.997 333.602 198.523C332.951 198.049 332.625 197.375 332.625 196.5V196.414ZM341.078 196.414L343.359 196.422V196.547C343.359 196.932 343.487 197.214 343.742 197.391C344.003 197.562 344.354 197.648 344.797 197.648C345.245 197.648 345.583 197.565 345.812 197.398C346.042 197.232 346.156 197.008 346.156 196.727C346.156 196.445 346.036 196.237 345.797 196.102C345.557 195.966 344.99 195.807 344.094 195.625C343.13 195.427 342.427 195.122 341.984 194.711C341.542 194.299 341.32 193.766 341.32 193.109C341.32 192.323 341.635 191.703 342.266 191.25C342.896 190.797 343.745 190.57 344.812 190.57C345.88 190.57 346.734 190.807 347.375 191.281C348.016 191.75 348.336 192.391 348.336 193.203V193.297H346.062V193.172C346.062 192.854 345.958 192.607 345.75 192.43C345.547 192.253 345.232 192.164 344.805 192.164C344.383 192.164 344.076 192.237 343.883 192.383C343.695 192.523 343.602 192.714 343.602 192.953C343.602 193.193 343.724 193.383 343.969 193.523C344.214 193.664 344.786 193.826 345.688 194.008C346.646 194.201 347.349 194.497 347.797 194.898C348.25 195.299 348.477 195.852 348.477 196.555C348.477 197.393 348.164 198.049 347.539 198.523C346.919 198.997 346.01 199.234 344.812 199.234C343.625 199.234 342.706 198.997 342.055 198.523C341.404 198.049 341.078 197.375 341.078 196.5V196.414Z" fill="#001B44"/>
<rect x="95" y="212" width="169" height="8" rx="4" fill="#E5E8ED"/>
<rect x="95" y="225" width="99" height="8" rx="4" fill="#E5E8ED"/>
<path d="M114.786 278.304V277.743C114.786 276.185 115.174 274.979 115.948 274.127C116.728 273.27 117.728 272.842 118.949 272.842C120.166 272.842 121.164 273.27 121.943 274.127C122.723 274.979 123.112 276.185 123.112 277.743V278.304C123.112 279.862 122.723 281.07 121.943 281.927C121.164 282.779 120.166 283.205 118.949 283.205C117.728 283.205 116.728 282.779 115.948 281.927C115.174 281.07 114.786 279.862 114.786 278.304ZM115.894 278.304C115.894 279.557 116.174 280.53 116.734 281.223C117.295 281.911 118.033 282.255 118.949 282.255C119.865 282.255 120.604 281.911 121.164 281.223C121.725 280.53 122.005 279.557 122.005 278.304V277.743C122.005 276.49 121.725 275.519 121.164 274.831C120.604 274.138 119.865 273.792 118.949 273.792C118.033 273.792 117.295 274.138 116.734 274.831C116.174 275.519 115.894 276.49 115.894 277.743V278.304ZM125.348 283V274.852C125.348 274.04 125.557 273.423 125.977 272.999C126.4 272.575 126.975 272.363 127.699 272.363C127.85 272.363 128.002 272.372 128.157 272.391C128.312 272.409 128.458 272.436 128.595 272.473L128.52 273.341C128.419 273.323 128.308 273.307 128.185 273.293C128.062 273.275 127.936 273.266 127.809 273.266C127.362 273.266 127.016 273.398 126.77 273.662C126.528 273.926 126.407 274.323 126.407 274.852V276.157V276.294V283H125.348ZM124.069 276.649V275.809H125.737H126.018H128.075V276.649H124.069ZM129.483 283V274.852C129.483 274.04 129.693 273.423 130.112 272.999C130.536 272.575 131.11 272.363 131.835 272.363C131.985 272.363 132.138 272.372 132.293 272.391C132.448 272.409 132.594 272.436 132.73 272.473L132.655 273.341C132.555 273.323 132.443 273.307 132.32 273.293C132.197 273.275 132.072 273.266 131.944 273.266C131.498 273.266 131.151 273.398 130.905 273.662C130.664 273.926 130.543 274.323 130.543 274.852V276.157V276.294V283H129.483ZM128.205 276.649V275.809H129.873H130.153H132.211V276.649H128.205ZM133.243 283V275.809H134.303V283H133.243ZM133.072 273.573C133.072 273.382 133.132 273.222 133.25 273.095C133.373 272.963 133.549 272.896 133.776 272.896C134 272.896 134.171 272.963 134.289 273.095C134.412 273.222 134.474 273.382 134.474 273.573C134.474 273.765 134.412 273.926 134.289 274.059C134.171 274.186 134 274.25 133.776 274.25C133.549 274.25 133.373 274.186 133.25 274.059C133.132 273.926 133.072 273.765 133.072 273.573ZM135.964 279.514V279.295C135.964 278.21 136.258 277.324 136.846 276.636C137.434 275.948 138.243 275.604 139.272 275.604C140.225 275.604 140.945 275.861 141.433 276.376C141.925 276.891 142.171 277.47 142.171 278.112V278.146H141.146V278.112C141.146 277.675 140.995 277.297 140.694 276.978C140.398 276.654 139.924 276.492 139.272 276.492C138.511 276.492 137.949 276.761 137.584 277.299C137.224 277.837 137.044 278.502 137.044 279.295V279.514C137.044 280.311 137.226 280.979 137.591 281.517C137.955 282.05 138.516 282.316 139.272 282.316C139.924 282.316 140.398 282.157 140.694 281.838C140.995 281.514 141.146 281.134 141.146 280.696V280.662H142.171V280.696C142.171 281.339 141.925 281.918 141.433 282.433C140.945 282.948 140.225 283.205 139.272 283.205C138.243 283.205 137.434 282.861 136.846 282.173C136.258 281.485 135.964 280.598 135.964 279.514ZM143.237 279.514V279.295C143.237 278.21 143.534 277.324 144.126 276.636C144.718 275.948 145.5 275.604 146.471 275.604C147.441 275.604 148.189 275.92 148.713 276.554C149.237 277.187 149.499 278.06 149.499 279.172V279.616H143.866V278.755H148.426V278.659C148.426 278.003 148.264 277.479 147.94 277.087C147.621 276.69 147.141 276.492 146.498 276.492C145.778 276.492 145.233 276.761 144.864 277.299C144.5 277.832 144.317 278.497 144.317 279.295V279.514C144.317 280.311 144.509 280.979 144.892 281.517C145.274 282.05 145.874 282.316 146.689 282.316C147.163 282.316 147.569 282.221 147.906 282.029C148.243 281.833 148.524 281.596 148.747 281.318L149.438 281.886C149.21 282.214 148.861 282.517 148.392 282.795C147.927 283.068 147.359 283.205 146.689 283.205C145.577 283.205 144.723 282.861 144.126 282.173C143.534 281.485 143.237 280.598 143.237 279.514ZM153.997 279.514V279.295C153.997 278.21 154.293 277.324 154.886 276.636C155.478 275.948 156.26 275.604 157.23 275.604C158.201 275.604 158.949 275.92 159.473 276.554C159.997 277.187 160.259 278.06 160.259 279.172V279.616H154.626V278.755H159.186V278.659C159.186 278.003 159.024 277.479 158.7 277.087C158.381 276.69 157.9 276.492 157.258 276.492C156.538 276.492 155.993 276.761 155.624 277.299C155.259 277.832 155.077 278.497 155.077 279.295V279.514C155.077 280.311 155.269 280.979 155.651 281.517C156.034 282.05 156.633 282.316 157.449 282.316C157.923 282.316 158.329 282.221 158.666 282.029C159.003 281.833 159.284 281.596 159.507 281.318L160.197 281.886C159.969 282.214 159.621 282.517 159.151 282.795C158.687 283.068 158.119 283.205 157.449 283.205C156.337 283.205 155.483 282.861 154.886 282.173C154.293 281.485 153.997 280.598 153.997 279.514ZM161.339 279.514V279.295C161.339 278.247 161.61 277.381 162.152 276.697C162.695 276.014 163.428 275.672 164.354 275.672C164.891 275.672 165.358 275.781 165.755 276C166.156 276.214 166.454 276.474 166.65 276.779H166.685L166.726 275.809H167.689V285.844H166.623V282.118C166.395 282.424 166.094 282.67 165.721 282.856C165.347 283.043 164.891 283.137 164.354 283.137C163.428 283.137 162.695 282.795 162.152 282.111C161.61 281.428 161.339 280.562 161.339 279.514ZM162.426 279.514C162.426 280.298 162.599 280.949 162.945 281.469C163.296 281.988 163.845 282.248 164.593 282.248C165.099 282.248 165.525 282.12 165.871 281.865C166.217 281.605 166.468 281.309 166.623 280.977V277.832C166.468 277.499 166.217 277.205 165.871 276.95C165.525 276.69 165.099 276.561 164.593 276.561C163.845 276.561 163.296 276.82 162.945 277.34C162.599 277.859 162.426 278.511 162.426 279.295V279.514ZM169.686 280.484V275.809H170.745V280.498C170.745 281.113 170.889 281.555 171.176 281.824C171.463 282.093 171.866 282.228 172.386 282.228C172.828 282.228 173.215 282.111 173.548 281.879C173.885 281.642 174.152 281.339 174.348 280.97V275.809H175.414V283H174.45L174.409 282.009H174.375C174.102 282.364 173.767 282.642 173.37 282.843C172.978 283.039 172.541 283.137 172.058 283.137C171.338 283.137 170.761 282.934 170.328 282.528C169.9 282.118 169.686 281.437 169.686 280.484ZM177.533 283V275.809H178.593V283H177.533ZM177.362 273.573C177.362 273.382 177.422 273.222 177.54 273.095C177.663 272.963 177.839 272.896 178.066 272.896C178.29 272.896 178.461 272.963 178.579 273.095C178.702 273.222 178.764 273.382 178.764 273.573C178.764 273.765 178.702 273.926 178.579 274.059C178.461 274.186 178.29 274.25 178.066 274.25C177.839 274.25 177.663 274.186 177.54 274.059C177.422 273.926 177.362 273.765 177.362 273.573ZM180.712 285.844V275.809H181.669L181.717 276.779H181.744C181.945 276.474 182.245 276.214 182.646 276C183.052 275.781 183.519 275.672 184.048 275.672C184.973 275.672 185.707 276.014 186.249 276.697C186.791 277.381 187.062 278.247 187.062 279.295V279.514C187.062 280.562 186.791 281.428 186.249 282.111C185.707 282.795 184.973 283.137 184.048 283.137C183.519 283.137 183.066 283.043 182.688 282.856C182.309 282.67 182.004 282.424 181.771 282.118V285.844H180.712ZM181.771 280.977C181.926 281.309 182.179 281.605 182.53 281.865C182.881 282.12 183.305 282.248 183.802 282.248C184.554 282.248 185.103 281.988 185.449 281.469C185.8 280.949 185.976 280.298 185.976 279.514V279.295C185.976 278.511 185.8 277.859 185.449 277.34C185.103 276.82 184.554 276.561 183.802 276.561C183.305 276.561 182.881 276.69 182.53 276.95C182.179 277.205 181.926 277.499 181.771 277.832V280.977ZM188.683 283V275.809H189.64L189.688 276.8H189.715C189.988 276.449 190.314 276.173 190.692 275.973C191.071 275.772 191.494 275.672 191.964 275.672C192.456 275.672 192.882 275.772 193.242 275.973C193.607 276.173 193.876 276.488 194.049 276.916H194.076C194.386 276.483 194.737 276.169 195.129 275.973C195.525 275.772 195.97 275.672 196.462 275.672C197.191 275.672 197.768 275.877 198.191 276.287C198.615 276.693 198.827 277.372 198.827 278.324V283H197.768V278.311C197.768 277.695 197.629 277.253 197.351 276.984C197.077 276.715 196.694 276.581 196.202 276.581C195.774 276.581 195.396 276.7 195.067 276.937C194.744 277.169 194.484 277.47 194.288 277.839V283H193.222V278.311C193.222 277.695 193.083 277.253 192.805 276.984C192.527 276.715 192.139 276.581 191.643 276.581C191.214 276.581 190.838 276.7 190.515 276.937C190.196 277.169 189.938 277.47 189.742 277.839V283H188.683ZM200.372 279.514V279.295C200.372 278.21 200.668 277.324 201.261 276.636C201.853 275.948 202.635 275.604 203.605 275.604C204.576 275.604 205.324 275.92 205.848 276.554C206.372 277.187 206.634 278.06 206.634 279.172V279.616H201.001V278.755H205.561V278.659C205.561 278.003 205.399 277.479 205.075 277.087C204.756 276.69 204.275 276.492 203.633 276.492C202.913 276.492 202.368 276.761 201.999 277.299C201.634 277.832 201.452 278.497 201.452 279.295V279.514C201.452 280.311 201.644 280.979 202.026 281.517C202.409 282.05 203.008 282.316 203.824 282.316C204.298 282.316 204.704 282.221 205.041 282.029C205.378 281.833 205.659 281.596 205.882 281.318L206.572 281.886C206.344 282.214 205.996 282.517 205.526 282.795C205.062 283.068 204.494 283.205 203.824 283.205C202.712 283.205 201.858 282.861 201.261 282.173C200.668 281.485 200.372 280.598 200.372 279.514ZM208.165 283V275.809H209.122L209.17 276.8H209.197C209.471 276.444 209.803 276.169 210.195 275.973C210.592 275.772 211.032 275.672 211.515 275.672C212.239 275.672 212.816 275.877 213.244 276.287C213.673 276.693 213.887 277.372 213.887 278.324V283H212.82V278.311C212.82 277.695 212.679 277.253 212.396 276.984C212.114 276.715 211.713 276.581 211.193 276.581C210.751 276.581 210.359 276.7 210.018 276.937C209.68 277.174 209.416 277.474 209.225 277.839V283H208.165ZM214.857 276.649V275.809H219V276.649H214.857ZM216.245 281.216V276.314V276.137V274.031H217.312V281.216C217.312 281.594 217.382 281.865 217.523 282.029C217.665 282.193 217.888 282.275 218.193 282.275C218.326 282.275 218.453 282.262 218.576 282.234C218.704 282.207 218.831 282.171 218.959 282.125V283.014C218.845 283.064 218.697 283.107 218.515 283.144C218.332 283.185 218.132 283.205 217.913 283.205C217.403 283.205 216.997 283.046 216.696 282.727C216.396 282.408 216.245 281.904 216.245 281.216Z" fill="#001B44"/>
<path d="M114.344 415.75V415.602H116.625V415.703C116.625 416.26 116.815 416.672 117.195 416.938C117.576 417.203 118.104 417.336 118.781 417.336C119.464 417.336 119.984 417.208 120.344 416.953C120.703 416.698 120.883 416.354 120.883 415.922C120.883 415.516 120.734 415.174 120.438 414.898C120.141 414.622 119.37 414.365 118.125 414.125C116.849 413.88 115.932 413.482 115.375 412.93C114.818 412.372 114.539 411.648 114.539 410.758C114.539 409.82 114.911 409.062 115.656 408.484C116.406 407.901 117.424 407.609 118.711 407.609C120.003 407.609 121.031 407.917 121.797 408.531C122.568 409.141 122.953 409.911 122.953 410.844V410.977H120.688V410.883C120.688 410.404 120.521 410.023 120.188 409.742C119.859 409.461 119.367 409.32 118.711 409.32C118.065 409.32 117.589 409.432 117.281 409.656C116.974 409.875 116.82 410.195 116.82 410.617C116.82 410.987 116.961 411.294 117.242 411.539C117.529 411.784 118.292 412.029 119.531 412.273C120.802 412.518 121.724 412.93 122.297 413.508C122.875 414.081 123.164 414.836 123.164 415.773C123.164 416.758 122.768 417.547 121.977 418.141C121.185 418.734 120.122 419.031 118.789 419.031C117.456 419.031 116.38 418.747 115.562 418.18C114.75 417.607 114.344 416.797 114.344 415.75ZM117.859 420.25V418.008H119.641V418.305L119.773 418.383V420.25H117.859ZM117.906 408.578V408.289L117.773 408.211V406.531H119.688V408.578H117.906ZM126.906 419V409.93L124.203 410.961V408.969L128.086 407.5H129.328V419H126.906ZM132.453 415.969C132.453 415.214 132.672 414.599 133.109 414.125C133.552 413.646 134.057 413.315 134.625 413.133V413.102C134.115 412.888 133.685 412.56 133.336 412.117C132.992 411.669 132.82 411.117 132.82 410.461C132.82 409.56 133.154 408.826 133.82 408.258C134.487 407.685 135.393 407.398 136.539 407.398C137.685 407.398 138.591 407.685 139.258 408.258C139.924 408.826 140.258 409.56 140.258 410.461C140.258 411.117 140.099 411.667 139.781 412.109C139.469 412.552 139.052 412.883 138.531 413.102V413.133C139.104 413.299 139.596 413.625 140.008 414.109C140.419 414.594 140.625 415.214 140.625 415.969C140.625 416.995 140.255 417.794 139.516 418.367C138.776 418.94 137.784 419.227 136.539 419.227C135.299 419.227 134.307 418.94 133.562 418.367C132.823 417.794 132.453 416.995 132.453 415.969ZM134.898 415.781C134.898 416.302 135.039 416.719 135.32 417.031C135.607 417.339 136.013 417.492 136.539 417.492C137.065 417.492 137.469 417.339 137.75 417.031C138.036 416.719 138.18 416.302 138.18 415.781C138.18 415.245 138.044 414.818 137.773 414.5C137.503 414.177 137.091 414.016 136.539 414.016C135.987 414.016 135.576 414.177 135.305 414.5C135.034 414.818 134.898 415.245 134.898 415.781ZM135.18 410.719C135.18 411.198 135.289 411.589 135.508 411.891C135.727 412.193 136.07 412.344 136.539 412.344C137.008 412.344 137.352 412.193 137.57 411.891C137.789 411.589 137.898 411.198 137.898 410.719C137.898 410.25 137.784 409.87 137.555 409.578C137.331 409.286 136.992 409.141 136.539 409.141C136.086 409.141 135.745 409.286 135.516 409.578C135.292 409.87 135.18 410.25 135.18 410.719ZM141.477 415.938V415.758H143.898V415.922C143.898 416.401 144.039 416.773 144.32 417.039C144.607 417.299 145.005 417.43 145.516 417.43C146.047 417.43 146.448 417.253 146.719 416.898C146.99 416.539 147.125 416.021 147.125 415.344C147.125 414.667 146.984 414.159 146.703 413.82C146.422 413.482 146.029 413.312 145.523 413.312C145.143 413.312 144.82 413.393 144.555 413.555C144.289 413.711 144.049 413.919 143.836 414.18L141.898 413.312L142.484 407.625H148.961V409.539L144.406 409.531L144.133 412.047C144.346 411.896 144.607 411.768 144.914 411.664C145.221 411.56 145.581 411.508 145.992 411.508C147.029 411.508 147.883 411.836 148.555 412.492C149.232 413.143 149.57 414.055 149.57 415.227C149.57 416.445 149.216 417.417 148.508 418.141C147.805 418.865 146.81 419.227 145.523 419.227C144.201 419.227 143.195 418.919 142.508 418.305C141.82 417.685 141.477 416.896 141.477 415.938ZM150.5 414.258V413.961C150.5 411.992 151.07 410.424 152.211 409.258C153.352 408.091 155.034 407.508 157.258 407.508H157.492V409.383H157.273C155.862 409.383 154.755 409.734 153.953 410.438C153.151 411.135 152.75 412.31 152.75 413.961L152.898 414.328C152.898 415.531 153.062 416.352 153.391 416.789C153.719 417.227 154.159 417.445 154.711 417.445C155.263 417.445 155.669 417.266 155.93 416.906C156.195 416.542 156.328 416.005 156.328 415.297C156.328 414.651 156.193 414.135 155.922 413.75C155.656 413.359 155.242 413.164 154.68 413.164C154.159 413.164 153.729 413.357 153.391 413.742C153.052 414.122 152.883 414.617 152.883 415.227H152.117C152.117 414.148 152.393 413.247 152.945 412.523C153.503 411.799 154.281 411.438 155.281 411.438C156.37 411.438 157.221 411.789 157.836 412.492C158.456 413.19 158.766 414.115 158.766 415.266C158.766 416.443 158.409 417.398 157.695 418.133C156.987 418.862 155.997 419.227 154.727 419.227C153.518 419.227 152.51 418.841 151.703 418.07C150.901 417.294 150.5 416.023 150.5 414.258Z" fill="#5D6878"/>
<path d="M326.344 415.75V415.602H328.625V415.703C328.625 416.26 328.815 416.672 329.195 416.938C329.576 417.203 330.104 417.336 330.781 417.336C331.464 417.336 331.984 417.208 332.344 416.953C332.703 416.698 332.883 416.354 332.883 415.922C332.883 415.516 332.734 415.174 332.438 414.898C332.141 414.622 331.37 414.365 330.125 414.125C328.849 413.88 327.932 413.482 327.375 412.93C326.818 412.372 326.539 411.648 326.539 410.758C326.539 409.82 326.911 409.062 327.656 408.484C328.406 407.901 329.424 407.609 330.711 407.609C332.003 407.609 333.031 407.917 333.797 408.531C334.568 409.141 334.953 409.911 334.953 410.844V410.977H332.688V410.883C332.688 410.404 332.521 410.023 332.188 409.742C331.859 409.461 331.367 409.32 330.711 409.32C330.065 409.32 329.589 409.432 329.281 409.656C328.974 409.875 328.82 410.195 328.82 410.617C328.82 410.987 328.961 411.294 329.242 411.539C329.529 411.784 330.292 412.029 331.531 412.273C332.802 412.518 333.724 412.93 334.297 413.508C334.875 414.081 335.164 414.836 335.164 415.773C335.164 416.758 334.768 417.547 333.977 418.141C333.185 418.734 332.122 419.031 330.789 419.031C329.456 419.031 328.38 418.747 327.562 418.18C326.75 417.607 326.344 416.797 326.344 415.75ZM329.859 420.25V418.008H331.641V418.305L331.773 418.383V420.25H329.859ZM329.906 408.578V408.289L329.773 408.211V406.531H331.688V408.578H329.906ZM338.906 419V409.93L336.203 410.961V408.969L340.086 407.5H341.328V419H338.906ZM344.469 414.258V413.961C344.469 411.992 345.039 410.424 346.18 409.258C347.32 408.091 349.003 407.508 351.227 407.508H351.461V409.383H351.242C349.831 409.383 348.724 409.734 347.922 410.438C347.12 411.135 346.719 412.31 346.719 413.961L346.867 414.328C346.867 415.531 347.031 416.352 347.359 416.789C347.688 417.227 348.128 417.445 348.68 417.445C349.232 417.445 349.638 417.266 349.898 416.906C350.164 416.542 350.297 416.005 350.297 415.297C350.297 414.651 350.161 414.135 349.891 413.75C349.625 413.359 349.211 413.164 348.648 413.164C348.128 413.164 347.698 413.357 347.359 413.742C347.021 414.122 346.852 414.617 346.852 415.227H346.086C346.086 414.148 346.362 413.247 346.914 412.523C347.471 411.799 348.25 411.438 349.25 411.438C350.339 411.438 351.19 411.789 351.805 412.492C352.424 413.19 352.734 414.115 352.734 415.266C352.734 416.443 352.378 417.398 351.664 418.133C350.956 418.862 349.966 419.227 348.695 419.227C347.487 419.227 346.479 418.841 345.672 418.07C344.87 417.294 344.469 416.023 344.469 414.258ZM353.406 415.859V415.664H355.82V415.836C355.82 416.336 355.956 416.727 356.227 417.008C356.497 417.289 356.896 417.43 357.422 417.43C357.943 417.43 358.341 417.289 358.617 417.008C358.893 416.721 359.031 416.279 359.031 415.68C359.031 415.102 358.872 414.669 358.555 414.383C358.237 414.096 357.771 413.953 357.156 413.953H356.125V412.234H357.086C357.612 412.234 358.01 412.096 358.281 411.82C358.557 411.544 358.695 411.154 358.695 410.648C358.695 410.169 358.583 409.807 358.359 409.562C358.135 409.318 357.805 409.195 357.367 409.195C356.919 409.195 356.581 409.32 356.352 409.57C356.128 409.815 356.016 410.169 356.016 410.633V410.766H353.617V410.641C353.617 409.729 353.951 408.961 354.617 408.336C355.284 407.706 356.219 407.391 357.422 407.391C358.661 407.391 359.591 407.68 360.211 408.258C360.836 408.836 361.148 409.529 361.148 410.336C361.148 410.956 361.005 411.5 360.719 411.969C360.432 412.438 359.984 412.786 359.375 413.016V413.047C360.031 413.198 360.552 413.513 360.938 413.992C361.323 414.471 361.516 415.065 361.516 415.773C361.516 416.836 361.154 417.677 360.43 418.297C359.706 418.917 358.69 419.227 357.383 419.227C356.081 419.227 355.091 418.917 354.414 418.297C353.742 417.672 353.406 416.859 353.406 415.859ZM362.633 419V417.539L366.516 413.148C366.953 412.664 367.294 412.227 367.539 411.836C367.789 411.445 367.914 411.036 367.914 410.609C367.914 410.208 367.797 409.878 367.562 409.617C367.333 409.357 366.992 409.227 366.539 409.227C366.081 409.227 365.714 409.38 365.438 409.688C365.167 409.995 365.031 410.461 365.031 411.086V411.312H362.586V411.031C362.586 409.953 362.943 409.078 363.656 408.406C364.37 407.734 365.326 407.398 366.523 407.398C367.799 407.398 368.76 407.693 369.406 408.281C370.057 408.865 370.383 409.609 370.383 410.516C370.383 411.276 370.185 411.945 369.789 412.523C369.398 413.102 368.922 413.703 368.359 414.328L365.805 417.109H370.617V419H362.633Z" fill="#5D6878"/>
<path d="M327.162 283V273.047H328.256V277.408H333.595V273.047H334.688V283H333.595V278.324H328.256V283H327.162ZM336.438 279.514V279.295C336.438 278.21 336.735 277.324 337.327 276.636C337.92 275.948 338.701 275.604 339.672 275.604C340.643 275.604 341.39 275.92 341.914 276.554C342.438 277.187 342.7 278.06 342.7 279.172V279.616H337.067V278.755H341.627V278.659C341.627 278.003 341.465 277.479 341.142 277.087C340.823 276.69 340.342 276.492 339.699 276.492C338.979 276.492 338.435 276.761 338.065 277.299C337.701 277.832 337.519 278.497 337.519 279.295V279.514C337.519 280.311 337.71 280.979 338.093 281.517C338.476 282.05 339.075 282.316 339.891 282.316C340.365 282.316 340.77 282.221 341.107 282.029C341.445 281.833 341.725 281.596 341.948 281.318L342.639 281.886C342.411 282.214 342.062 282.517 341.593 282.795C341.128 283.068 340.561 283.205 339.891 283.205C338.779 283.205 337.924 282.861 337.327 282.173C336.735 281.485 336.438 280.598 336.438 279.514ZM343.828 280.929C343.828 280.204 344.115 279.644 344.689 279.247C345.268 278.846 346.002 278.646 346.891 278.646H348.654V278.078C348.654 277.6 348.531 277.212 348.285 276.916C348.044 276.62 347.62 276.472 347.014 276.472C346.408 276.472 345.972 276.597 345.708 276.848C345.448 277.094 345.318 277.39 345.318 277.736V277.771H344.272V277.736C344.272 277.153 344.523 276.652 345.024 276.232C345.526 275.813 346.2 275.604 347.048 275.604C347.896 275.604 348.552 275.811 349.017 276.226C349.486 276.64 349.721 277.258 349.721 278.078V281.359C349.721 281.656 349.743 281.936 349.789 282.2C349.839 282.46 349.908 282.69 349.994 282.891V283H348.976C348.903 282.882 348.839 282.727 348.784 282.535C348.729 282.344 348.695 282.152 348.682 281.961C348.504 282.262 348.215 282.533 347.813 282.774C347.417 283.016 346.907 283.137 346.282 283.137C345.594 283.137 345.013 282.952 344.539 282.583C344.065 282.209 343.828 281.658 343.828 280.929ZM344.888 280.874C344.888 281.325 345.02 281.672 345.284 281.913C345.553 282.15 345.968 282.269 346.528 282.269C347.08 282.269 347.572 282.086 348.005 281.722C348.438 281.357 348.654 280.967 348.654 280.553V279.425H347.034C346.332 279.425 345.799 279.555 345.435 279.814C345.07 280.07 344.888 280.423 344.888 280.874ZM350.623 275.809H351.683L353.556 280.895C353.619 281.077 353.674 281.243 353.72 281.394C353.77 281.544 353.806 281.674 353.829 281.783H353.877C353.9 281.674 353.934 281.544 353.979 281.394C354.025 281.243 354.082 281.077 354.15 280.895L356.017 275.809H357.056L354.267 283H353.412L350.623 275.809ZM357.418 285.844V284.935C357.546 284.971 357.685 285.001 357.835 285.023C357.99 285.046 358.138 285.058 358.279 285.058C358.58 285.058 358.842 284.944 359.065 284.716C359.293 284.493 359.578 283.911 359.92 282.973V282.966L357.151 275.809H358.218L360.084 280.854C360.143 281.022 360.196 281.179 360.241 281.325C360.291 281.471 360.337 281.617 360.378 281.763H360.419C360.465 281.617 360.51 281.471 360.556 281.325C360.606 281.179 360.658 281.022 360.713 280.854L362.463 275.809H363.495L360.562 283.82C360.298 284.549 359.991 285.092 359.64 285.447C359.289 285.803 358.854 285.98 358.334 285.98C358.143 285.98 357.974 285.969 357.828 285.946C357.687 285.924 357.55 285.889 357.418 285.844ZM367.952 283V275.809H368.909L368.957 276.8H368.984C369.258 276.449 369.584 276.173 369.962 275.973C370.34 275.772 370.764 275.672 371.233 275.672C371.726 275.672 372.152 275.772 372.512 275.973C372.876 276.173 373.145 276.488 373.318 276.916H373.346C373.656 276.483 374.007 276.169 374.398 275.973C374.795 275.772 375.239 275.672 375.731 275.672C376.461 275.672 377.037 275.877 377.461 276.287C377.885 276.693 378.097 277.372 378.097 278.324V283H377.037V278.311C377.037 277.695 376.898 277.253 376.62 276.984C376.347 276.715 375.964 276.581 375.472 276.581C375.043 276.581 374.665 276.7 374.337 276.937C374.013 277.169 373.754 277.47 373.558 277.839V283H372.491V278.311C372.491 277.695 372.352 277.253 372.074 276.984C371.796 276.715 371.409 276.581 370.912 276.581C370.484 276.581 370.108 276.7 369.784 276.937C369.465 277.169 369.208 277.47 369.012 277.839V283H367.952ZM379.689 280.929C379.689 280.204 379.977 279.644 380.551 279.247C381.13 278.846 381.863 278.646 382.752 278.646H384.516V278.078C384.516 277.6 384.393 277.212 384.146 276.916C383.905 276.62 383.481 276.472 382.875 276.472C382.269 276.472 381.834 276.597 381.569 276.848C381.31 277.094 381.18 277.39 381.18 277.736V277.771H380.134V277.736C380.134 277.153 380.384 276.652 380.886 276.232C381.387 275.813 382.062 275.604 382.909 275.604C383.757 275.604 384.413 275.811 384.878 276.226C385.347 276.64 385.582 277.258 385.582 278.078V281.359C385.582 281.656 385.605 281.936 385.65 282.2C385.701 282.46 385.769 282.69 385.855 282.891V283H384.837C384.764 282.882 384.7 282.727 384.646 282.535C384.591 282.344 384.557 282.152 384.543 281.961C384.365 282.262 384.076 282.533 383.675 282.774C383.278 283.016 382.768 283.137 382.144 283.137C381.455 283.137 380.874 282.952 380.4 282.583C379.926 282.209 379.689 281.658 379.689 280.929ZM380.749 280.874C380.749 281.325 380.881 281.672 381.146 281.913C381.414 282.15 381.829 282.269 382.39 282.269C382.941 282.269 383.433 282.086 383.866 281.722C384.299 281.357 384.516 280.967 384.516 280.553V279.425H382.896C382.194 279.425 381.66 279.555 381.296 279.814C380.931 280.07 380.749 280.423 380.749 280.874ZM387.175 279.514V279.295C387.175 278.21 387.469 277.324 388.057 276.636C388.645 275.948 389.453 275.604 390.483 275.604C391.436 275.604 392.156 275.861 392.644 276.376C393.136 276.891 393.382 277.47 393.382 278.112V278.146H392.356V278.112C392.356 277.675 392.206 277.297 391.905 276.978C391.609 276.654 391.135 276.492 390.483 276.492C389.722 276.492 389.16 276.761 388.795 277.299C388.435 277.837 388.255 278.502 388.255 279.295V279.514C388.255 280.311 388.437 280.979 388.802 281.517C389.166 282.05 389.727 282.316 390.483 282.316C391.135 282.316 391.609 282.157 391.905 281.838C392.206 281.514 392.356 281.134 392.356 280.696V280.662H393.382V280.696C393.382 281.339 393.136 281.918 392.644 282.433C392.156 282.948 391.436 283.205 390.483 283.205C389.453 283.205 388.645 282.861 388.057 282.173C387.469 281.485 387.175 280.598 387.175 279.514ZM394.899 283V272.5H395.959V276.772C396.232 276.431 396.567 276.162 396.964 275.966C397.36 275.77 397.802 275.672 398.29 275.672C398.983 275.672 399.546 275.877 399.979 276.287C400.411 276.693 400.628 277.372 400.628 278.324V283H399.562V278.311C399.562 277.695 399.418 277.253 399.131 276.984C398.844 276.715 398.443 276.581 397.928 276.581C397.486 276.581 397.096 276.7 396.759 276.937C396.422 277.169 396.155 277.47 395.959 277.839V283H394.899ZM402.672 283V275.809H403.731V283H402.672ZM402.501 273.573C402.501 273.382 402.56 273.222 402.679 273.095C402.802 272.963 402.977 272.896 403.205 272.896C403.428 272.896 403.599 272.963 403.718 273.095C403.841 273.222 403.902 273.382 403.902 273.573C403.902 273.765 403.841 273.926 403.718 274.059C403.599 274.186 403.428 274.25 403.205 274.25C402.977 274.25 402.802 274.186 402.679 274.059C402.56 273.926 402.501 273.765 402.501 273.573ZM405.851 283V275.809H406.808L406.855 276.8H406.883C407.156 276.444 407.489 276.169 407.881 275.973C408.277 275.772 408.717 275.672 409.2 275.672C409.925 275.672 410.501 275.877 410.93 276.287C411.358 276.693 411.572 277.372 411.572 278.324V283H410.506V278.311C410.506 277.695 410.365 277.253 410.082 276.984C409.799 276.715 409.398 276.581 408.879 276.581C408.437 276.581 408.045 276.7 407.703 276.937C407.366 277.174 407.102 277.474 406.91 277.839V283H405.851ZM413.124 279.514V279.295C413.124 278.21 413.42 277.324 414.013 276.636C414.605 275.948 415.387 275.604 416.357 275.604C417.328 275.604 418.076 275.92 418.6 276.554C419.124 277.187 419.386 278.06 419.386 279.172V279.616H413.753V278.755H418.312V278.659C418.312 278.003 418.151 277.479 417.827 277.087C417.508 276.69 417.027 276.492 416.385 276.492C415.665 276.492 415.12 276.761 414.751 277.299C414.386 277.832 414.204 278.497 414.204 279.295V279.514C414.204 280.311 414.396 280.979 414.778 281.517C415.161 282.05 415.76 282.316 416.576 282.316C417.05 282.316 417.456 282.221 417.793 282.029C418.13 281.833 418.41 281.596 418.634 281.318L419.324 281.886C419.096 282.214 418.748 282.517 418.278 282.795C417.813 283.068 417.246 283.205 416.576 283.205C415.464 283.205 414.61 282.861 414.013 282.173C413.42 281.485 413.124 280.598 413.124 279.514ZM420.917 283V275.809H421.874L421.922 276.779H421.949C422.15 276.465 422.41 276.191 422.729 275.959C423.052 275.722 423.439 275.604 423.891 275.604C423.995 275.604 424.105 275.615 424.219 275.638C424.337 275.66 424.422 275.681 424.472 275.699V276.69C424.376 276.672 424.273 276.659 424.164 276.649C424.059 276.636 423.945 276.629 423.822 276.629C423.376 276.629 422.995 276.745 422.681 276.978C422.371 277.21 422.136 277.497 421.977 277.839V283H420.917ZM425.162 285.844V284.935C425.29 284.971 425.429 285.001 425.579 285.023C425.734 285.046 425.882 285.058 426.023 285.058C426.324 285.058 426.586 284.944 426.81 284.716C427.037 284.493 427.322 283.911 427.664 282.973V282.966L424.896 275.809H425.962L427.828 280.854C427.887 281.022 427.94 281.179 427.985 281.325C428.035 281.471 428.081 281.617 428.122 281.763H428.163C428.209 281.617 428.254 281.471 428.3 281.325C428.35 281.179 428.402 281.022 428.457 280.854L430.207 275.809H431.239L428.307 283.82C428.042 284.549 427.735 285.092 427.384 285.447C427.033 285.803 426.598 285.98 426.078 285.98C425.887 285.98 425.718 285.969 425.572 285.946C425.431 285.924 425.294 285.889 425.162 285.844Z" fill="#001B44"/>
<rect x="97.5" y="256.5" width="177" height="186" rx="15.5" stroke="#E5E8ED"/>
<rect x="305.5" y="256.5" width="176" height="186" rx="15.5" stroke="#E5E8ED"/>
<rect x="114" y="315" width="139" height="12" rx="6" fill="#E5E8ED"/>
<rect x="326" y="315" width="139" height="12" rx="6" fill="#E5E8ED"/>
<rect x="114" y="332" width="75" height="8" rx="4" fill="#E5E8ED"/>
<rect x="326" y="332" width="75" height="8" rx="4" fill="#E5E8ED"/>
<rect opacity="0.5" x="114" y="358" width="60" height="22" rx="11" fill="#0067FF"/>
<rect opacity="0.5" x="326" y="358" width="60" height="22" rx="11" fill="#FFB966"/>
<defs>
<filter id="filter0_d_908_28525" x="4.39574" y="48.1979" width="574.209" height="515.209" filterUnits="userSpaceOnUse" color-interpolation-filters="sRGB">
<feFlood flood-opacity="0" result="BackgroundImageFix"/>
<feColorMatrix in="SourceAlpha" type="matrix" values="0 0 0 0 0 0 0 0 0 0 0 0 0 0 0 0 0 0 127 0" result="hardAlpha"/>
<feOffset dy="29.8021"/>
<feGaussianBlur stdDeviation="29.8021"/>
<feComposite in2="hardAlpha" operator="out"/>
<feColorMatrix type="matrix" values="0 0 0 0 0 0 0 0 0 0.196875 0 0 0 0 0.495833 0 0 0 0.1 0"/>
<feBlend mode="normal" in2="BackgroundImageFix" result="effect1_dropShadow_908_28525"/>
<feBlend mode="normal" in="SourceGraphic" in2="effect1_dropShadow_908_28525" result="shape"/>
</filter>
<linearGradient id="paint0_linear_908_28525" x1="291.5" y1="0" x2="291.5" y2="584" gradientUnits="userSpaceOnUse">
<stop stop-color="#E5EFFE"/>
<stop offset="1" stop-color="#E5EFFE" stop-opacity="0"/>
</linearGradient>
</defs>
</svg>
