<svg width="583" height="597" viewBox="0 0 583 597" fill="none" xmlns="http://www.w3.org/2000/svg">
<ellipse cx="291.5" cy="292" rx="291.5" ry="292" fill="url(#paint0_linear_908_27383)"/>
<g filter="url(#filter0_d_908_27383)">
<rect x="58" y="314" width="224" height="200" rx="24" fill="white"/>
</g>
<g filter="url(#filter1_d_908_27383)">
<rect x="302" y="314" width="224" height="200" rx="24" fill="white"/>
</g>
<g filter="url(#filter2_d_908_27383)">
<rect x="58" y="54" width="468" height="240" rx="24" fill="white"/>
</g>
<g clip-path="url(#clip0_908_27383)">
<path d="M202.661 249.82C202.661 231.431 208.188 213.467 218.524 198.258L231.854 207.318C223.334 219.854 218.779 234.662 218.779 249.82H202.661Z" fill="#FF5E5A"/>
<path d="M224.246 249.82C224.246 231.215 231.636 213.373 244.792 200.217C257.947 187.062 275.79 179.671 294.394 179.671C312.999 179.671 330.842 187.062 343.997 200.217C357.152 213.373 364.543 231.215 364.543 249.82H336.484C336.484 238.657 332.049 227.952 324.156 220.058C316.263 212.165 305.557 207.731 294.394 207.731C283.232 207.731 272.526 212.165 264.633 220.058C256.74 227.952 252.305 238.657 252.305 249.82H224.246Z" fill="#ECEEF1"/>
<path d="M386.128 249.82C386.128 231.431 380.601 213.467 370.265 198.258L356.935 207.318C365.455 219.854 370.01 234.662 370.01 249.82H386.128Z" fill="#00B2FF"/>
<path d="M220.185 195.895C230.995 181.019 246.026 169.735 263.327 163.508L268.786 178.673C254.524 183.806 242.134 193.107 233.224 205.369L220.185 195.895Z" fill="#FFB966"/>
<path d="M368.604 195.895C357.216 180.223 341.16 168.559 322.735 162.574L317.756 177.903C332.943 182.837 346.179 192.451 355.566 205.369L368.604 195.895Z" fill="#45D3DD"/>
<path d="M266.058 162.573C283.548 156.893 302.34 156.6 319.998 161.733L315.499 177.209C300.944 172.979 285.453 173.22 271.037 177.902L266.058 162.573Z" fill="#0067FF"/>
<path d="M314.056 185.303L299.773 249.76L287.049 245.546L314.056 185.303Z" fill="#45D3DD"/>
<circle cx="293.412" cy="247.652" r="6.70194" transform="rotate(18.3202 293.412 247.652)" fill="#45D3DD"/>
<circle cx="293.409" cy="247.653" r="4.02117" transform="rotate(18.3202 293.409 247.653)" fill="white"/>
<path d="M199.801 270.638L198.19 263.79H199.549L200.579 268.577C200.601 268.686 200.618 268.786 200.631 268.877C200.646 268.964 200.66 269.061 200.673 269.167H200.724C200.737 269.061 200.749 268.964 200.762 268.877C200.774 268.786 200.793 268.686 200.818 268.577L201.933 263.79H203.478L204.617 268.568C204.645 268.68 204.664 268.782 204.673 268.872C204.685 268.96 204.698 269.056 204.71 269.162H204.762C204.774 269.053 204.787 268.955 204.799 268.867C204.812 268.78 204.829 268.68 204.851 268.568L205.858 263.79H207.01L205.408 270.638H203.9L202.743 265.87C202.715 265.757 202.693 265.653 202.677 265.556C202.662 265.456 202.646 265.351 202.631 265.242H202.579C202.564 265.351 202.546 265.454 202.528 265.551C202.512 265.648 202.492 265.751 202.467 265.86L201.3 270.629L199.801 270.638ZM207.455 268.132V267.982C207.455 267.208 207.691 266.578 208.163 266.094C208.634 265.607 209.249 265.364 210.008 265.364C210.776 265.364 211.371 265.592 211.793 266.048C212.217 266.5 212.43 267.117 212.43 267.898V268.38H208.359V267.514H211.123V267.453C211.12 267.162 211.029 266.897 210.851 266.657C210.676 266.413 210.389 266.291 209.989 266.291C209.596 266.291 209.291 266.45 209.076 266.769C208.864 267.084 208.757 267.481 208.757 267.959V268.151C208.757 268.629 208.871 269.025 209.099 269.34C209.327 269.656 209.672 269.814 210.135 269.814C210.437 269.814 210.698 269.746 210.917 269.612C211.135 269.475 211.312 269.314 211.446 269.13L212.317 269.767C212.158 270.029 211.886 270.259 211.502 270.455C211.121 270.652 210.667 270.75 210.139 270.75C209.284 270.75 208.622 270.508 208.153 270.024C207.688 269.537 207.455 268.906 207.455 268.132ZM213.114 268.132V267.982C213.114 267.208 213.349 266.578 213.821 266.094C214.292 265.607 214.908 265.364 215.666 265.364C216.435 265.364 217.029 265.592 217.451 266.048C217.876 266.5 218.088 267.117 218.088 267.898V268.38H214.018V267.514H216.781V267.453C216.778 267.162 216.688 266.897 216.51 266.657C216.335 266.413 216.047 266.291 215.648 266.291C215.254 266.291 214.95 266.45 214.734 266.769C214.522 267.084 214.416 267.481 214.416 267.959V268.151C214.416 268.629 214.53 269.025 214.758 269.34C214.986 269.656 215.331 269.814 215.793 269.814C216.096 269.814 216.357 269.746 216.575 269.612C216.794 269.475 216.97 269.314 217.104 269.13L217.976 269.767C217.816 270.029 217.545 270.259 217.161 270.455C216.78 270.652 216.325 270.75 215.798 270.75C214.942 270.75 214.28 270.508 213.812 270.024C213.346 269.537 213.114 268.906 213.114 268.132ZM219.058 270.61V263.42H220.36V267.5L222.135 265.504H223.578L220.36 268.961V270.61H219.058ZM222.262 270.61L220.486 268.118L221.348 267.176L223.84 270.61H222.262Z" fill="#FF5E5A"/>
<path d="M193.642 247.878V245.751C193.642 245.008 193.85 244.409 194.265 243.953C194.683 243.494 195.283 243.264 196.064 243.264C196.841 243.264 197.441 243.494 197.862 243.953C198.284 244.409 198.495 245.008 198.495 245.751V247.878C198.495 248.621 198.282 249.222 197.858 249.681C197.436 250.137 196.838 250.365 196.064 250.365C195.28 250.365 194.68 250.137 194.265 249.681C193.85 249.222 193.642 248.621 193.642 247.878ZM195.024 247.948C195.024 248.357 195.102 248.694 195.258 248.96C195.417 249.225 195.686 249.358 196.064 249.358C196.442 249.358 196.71 249.225 196.869 248.96C197.032 248.694 197.113 248.357 197.113 247.948V245.681C197.113 245.272 197.032 244.935 196.869 244.669C196.71 244.404 196.442 244.271 196.064 244.271C195.686 244.271 195.417 244.404 195.258 244.669C195.102 244.935 195.024 245.272 195.024 245.681V247.948Z" fill="#8E97A6"/>
<path d="M211.033 198.84L206.599 195.564L206.127 197.329L205.201 196.644L205.924 194.144L206.289 193.651L211.838 197.752L211.033 198.84ZM213.589 195.383L210.543 189.928L208.466 192.738L207.559 192.067L210.465 188.135L211.132 188.627L214.418 194.26L213.589 195.383ZM214.508 190.191L212.798 188.927C212.2 188.485 211.841 187.962 211.722 187.357C211.601 186.747 211.773 186.129 212.237 185.501C212.699 184.876 213.24 184.53 213.86 184.464C214.477 184.396 215.085 184.583 215.682 185.024L217.392 186.288C217.99 186.73 218.347 187.258 218.464 187.872C218.58 188.482 218.408 189.099 217.948 189.722C217.482 190.352 216.942 190.699 216.329 190.762C215.713 190.823 215.106 190.632 214.508 190.191ZM215.386 189.121C215.715 189.364 216.032 189.502 216.339 189.534C216.647 189.564 216.913 189.427 217.138 189.123C217.362 188.819 217.415 188.524 217.296 188.239C217.179 187.95 216.957 187.684 216.628 187.441L214.804 186.094C214.475 185.851 214.156 185.715 213.846 185.688C213.538 185.659 213.272 185.796 213.047 186.099C212.822 186.403 212.769 186.698 212.888 186.984C213.009 187.267 213.234 187.531 213.563 187.774L215.386 189.121Z" fill="#8E97A6"/>
<path d="M253.741 159.517L253.723 159.459L255.014 159.052L255.032 159.11C255.129 159.416 255.299 159.625 255.543 159.734C255.791 159.843 256.093 159.841 256.45 159.728C256.775 159.625 257.012 159.457 257.16 159.224C257.311 158.986 257.33 158.687 257.216 158.327C257.106 157.978 256.907 157.753 256.62 157.651C256.335 157.547 256.003 157.555 255.625 157.675L254.973 157.881L254.683 156.961L255.29 156.769C255.63 156.662 255.871 156.492 256.014 156.26C256.157 156.029 256.181 155.762 256.086 155.462C255.991 155.161 255.837 154.965 255.626 154.875C255.413 154.782 255.174 154.777 254.909 154.861C254.611 154.955 254.402 155.102 254.282 155.304C254.163 155.505 254.148 155.748 254.237 156.03L254.252 156.08L252.961 156.487L252.946 156.438C252.787 155.935 252.856 155.441 253.152 154.958C253.447 154.472 253.935 154.122 254.617 153.906C255.341 153.678 255.94 153.671 256.413 153.885C256.889 154.095 257.206 154.45 257.364 154.95C257.461 155.26 257.467 155.572 257.38 155.888C257.296 156.203 257.097 156.493 256.785 156.759L256.791 156.776C257.205 156.75 257.57 156.838 257.886 157.04C258.201 157.241 258.423 157.545 258.551 157.95C258.744 158.56 258.666 159.113 258.319 159.61C257.973 160.102 257.449 160.459 256.746 160.681C255.975 160.924 255.326 160.933 254.799 160.706C254.271 160.476 253.919 160.08 253.741 159.517ZM262.551 158.701L261.991 156.928L261.924 156.698L261.03 153.867L260.976 153.883L260.01 156.86L262.06 156.213L262.375 156.06L263.849 155.594L264.171 156.613L259.047 158.23L258.784 157.395L260.538 152.185L261.771 151.795L263.824 158.299L262.551 158.701ZM264.306 155.686L263.665 153.658C263.442 152.95 263.459 152.315 263.718 151.755C263.979 151.192 264.482 150.792 265.226 150.557C265.968 150.323 266.608 150.362 267.149 150.673C267.688 150.98 268.069 151.489 268.293 152.197L268.933 154.225C269.157 154.934 269.135 155.571 268.869 156.137C268.604 156.699 268.102 157.096 267.364 157.329C266.616 157.565 265.976 157.528 265.443 157.218C264.908 156.906 264.529 156.395 264.306 155.686ZM265.644 155.337C265.768 155.727 265.944 156.025 266.172 156.232C266.404 156.437 266.7 156.482 267.061 156.369C267.421 156.255 267.637 156.048 267.709 155.747C267.784 155.445 267.76 155.098 267.637 154.708L266.954 152.546C266.831 152.156 266.652 151.859 266.417 151.655C266.186 151.45 265.89 151.404 265.529 151.518C265.169 151.632 264.953 151.839 264.881 152.14C264.812 152.44 264.839 152.785 264.962 153.175L265.644 155.337Z" fill="#8E97A6"/>
<path d="M315.199 154.137L315.22 154.06L316.527 154.413L316.507 154.485C316.43 154.772 316.463 155.022 316.606 155.235C316.75 155.445 316.998 155.598 317.351 155.693C317.694 155.785 317.993 155.751 318.247 155.59C318.501 155.426 318.685 155.134 318.798 154.715C318.914 154.287 318.902 153.944 318.765 153.687C318.627 153.43 318.388 153.256 318.047 153.164C317.794 153.096 317.563 153.087 317.356 153.137C317.148 153.188 316.954 153.273 316.773 153.393L315.866 152.687L317.099 149.449L320.984 150.497L320.701 151.546L317.865 150.781L317.29 152.285C317.466 152.232 317.658 152.202 317.867 152.194C318.08 152.183 318.315 152.212 318.571 152.282C319.171 152.443 319.626 152.773 319.935 153.27C320.247 153.768 320.31 154.361 320.125 155.048C319.937 155.745 319.562 156.236 319 156.521C318.439 156.803 317.802 156.848 317.091 156.656C316.34 156.454 315.8 156.117 315.471 155.647C315.145 155.177 315.054 154.674 315.199 154.137ZM322.166 157.879L323.601 152.556L321.785 152.76L322.085 151.647L324.677 151.41L325.269 151.57L323.473 158.231L322.166 157.879ZM326.132 156.518L326.686 154.465C326.879 153.747 327.236 153.222 327.756 152.89C328.279 152.556 328.918 152.491 329.672 152.694C330.422 152.896 330.942 153.274 331.229 153.827C331.517 154.377 331.565 155.011 331.371 155.728L330.818 157.782C330.624 158.499 330.263 159.024 329.733 159.357C329.207 159.687 328.571 159.752 327.823 159.55C327.066 159.346 326.547 158.97 326.264 158.421C325.983 157.87 325.939 157.236 326.132 156.518ZM327.448 156.946C327.342 157.341 327.329 157.687 327.411 157.984C327.496 158.281 327.72 158.479 328.085 158.578C328.45 158.676 328.744 158.618 328.967 158.403C329.193 158.189 329.359 157.885 329.465 157.49L330.055 155.301C330.162 154.906 330.171 154.559 330.084 154.26C329.999 153.963 329.774 153.765 329.41 153.666C329.045 153.568 328.751 153.626 328.528 153.841C328.308 154.057 328.145 154.362 328.038 154.757L327.448 156.946Z" fill="#8E97A6"/>
<path d="M371.911 185.948L372.032 185.868C373.023 185.216 374.011 184.991 374.998 185.194C375.986 185.4 376.864 186.087 377.634 187.255L377.69 187.341L376.814 187.918L376.76 187.836C376.247 187.056 375.669 186.573 375.026 186.387C374.384 186.2 373.643 186.384 372.803 186.937L372.627 187.086C372.016 187.488 371.651 187.867 371.53 188.224C371.414 188.581 371.459 188.916 371.665 189.229C371.871 189.542 372.127 189.717 372.432 189.755C372.74 189.792 373.074 189.691 373.434 189.454C373.789 189.221 374.011 188.956 374.101 188.662C374.193 188.369 374.136 188.067 373.93 187.754C373.739 187.464 373.475 187.274 373.138 187.182C372.802 187.092 372.46 187.163 372.11 187.393L371.848 186.994C372.416 186.619 372.978 186.468 373.534 186.539C374.092 186.609 374.545 186.908 374.892 187.434C375.269 188.008 375.394 188.58 375.265 189.151C375.138 189.725 374.786 190.201 374.21 190.581C373.629 190.964 373.025 191.081 372.4 190.932C371.774 190.783 371.256 190.397 370.846 189.774C370.444 189.163 370.298 188.519 370.409 187.841C370.523 187.163 371.024 186.532 371.911 185.948ZM374.122 191.172C374.472 190.941 374.833 190.851 375.206 190.901C375.582 190.949 375.926 191.094 376.239 191.337L376.255 191.326C376.192 190.998 376.217 190.673 376.33 190.351C376.446 190.032 376.669 189.764 377 189.546C377.451 189.248 377.936 189.184 378.453 189.351C378.974 189.517 379.421 189.883 379.793 190.449C380.166 191.015 380.324 191.567 380.267 192.105C380.212 192.646 379.962 193.063 379.516 193.357C379.182 193.577 378.847 193.676 378.511 193.654C378.177 193.635 377.87 193.535 377.589 193.353L377.574 193.363C377.677 193.747 377.675 194.119 377.567 194.478C377.46 194.837 377.231 195.131 376.882 195.361C376.365 195.701 375.835 195.774 375.292 195.578C374.748 195.383 374.272 194.975 373.863 194.354C373.456 193.736 373.268 193.136 373.3 192.554C373.332 191.973 373.606 191.512 374.122 191.172ZM374.937 192.273C374.669 192.45 374.505 192.675 374.446 192.949C374.39 193.222 374.464 193.513 374.669 193.824C374.875 194.137 375.112 194.318 375.381 194.369C375.655 194.421 375.926 194.359 376.194 194.182C376.471 194 376.641 193.773 376.706 193.502C376.775 193.233 376.705 192.939 376.496 192.62C376.288 192.305 376.044 192.123 375.766 192.075C375.49 192.025 375.214 192.091 374.937 192.273ZM377.626 190.726C377.373 190.893 377.21 191.096 377.135 191.335C377.066 191.576 377.118 191.829 377.294 192.095C377.469 192.361 377.679 192.507 377.924 192.532C378.173 192.559 378.424 192.489 378.677 192.322C378.92 192.162 379.075 191.965 379.144 191.729C379.215 191.495 379.163 191.245 378.987 190.979C378.814 190.716 378.604 190.568 378.359 190.535C378.113 190.503 377.869 190.566 377.626 190.726ZM377.653 195.588L379.429 194.418C380.05 194.009 380.665 193.853 381.274 193.949C381.888 194.046 382.409 194.42 382.839 195.072C383.266 195.722 383.404 196.349 383.253 196.953C383.104 197.556 382.719 198.062 382.098 198.471L380.322 199.64C379.702 200.049 379.083 200.203 378.466 200.1C377.853 199.999 377.334 199.625 376.908 198.978C376.477 198.324 376.338 197.698 376.49 197.1C376.645 196.501 377.033 195.997 377.653 195.588ZM378.355 196.78C378.013 197.005 377.774 197.256 377.639 197.532C377.504 197.811 377.541 198.109 377.749 198.424C377.957 198.74 378.216 198.891 378.525 198.878C378.836 198.868 379.162 198.75 379.504 198.525L381.397 197.278C381.739 197.053 381.976 196.8 382.108 196.518C382.242 196.239 382.205 195.942 381.997 195.626C381.79 195.311 381.531 195.16 381.222 195.173C380.914 195.188 380.59 195.308 380.248 195.533L378.355 196.78Z" fill="#8E97A6"/>
<path d="M390.166 248.398C390.166 247.979 390.289 247.628 390.536 247.344C390.783 247.057 391.094 246.849 391.468 246.721V246.702C391.159 246.574 390.901 246.374 390.695 246.103C390.492 245.831 390.391 245.497 390.391 245.1C390.391 244.56 390.603 244.12 391.028 243.779C391.453 243.436 392.004 243.264 392.681 243.264C393.359 243.264 393.907 243.436 394.326 243.779C394.747 244.123 394.958 244.562 394.958 245.096C394.958 245.495 394.856 245.829 394.653 246.098C394.454 246.366 394.201 246.568 393.895 246.702V246.721C394.272 246.846 394.582 247.052 394.822 247.339C395.062 247.627 395.183 247.979 395.183 248.398C395.183 249.016 394.952 249.499 394.489 249.845C394.027 250.192 393.425 250.365 392.681 250.365C391.941 250.365 391.337 250.192 390.869 249.845C390.4 249.499 390.166 249.016 390.166 248.398ZM391.534 248.323C391.534 248.645 391.632 248.905 391.829 249.105C392.026 249.302 392.31 249.4 392.681 249.4C393.056 249.4 393.339 249.302 393.529 249.105C393.723 248.905 393.82 248.645 393.82 248.323C393.82 247.992 393.724 247.725 393.534 247.522C393.347 247.316 393.062 247.213 392.681 247.213C392.304 247.213 392.018 247.316 391.824 247.522C391.631 247.725 391.534 247.992 391.534 248.323ZM391.721 245.227C391.721 245.53 391.801 245.778 391.96 245.971C392.122 246.162 392.363 246.257 392.681 246.257C393 246.257 393.237 246.162 393.393 245.971C393.553 245.778 393.632 245.53 393.632 245.227C393.632 244.936 393.553 244.697 393.393 244.51C393.237 244.323 393 244.229 392.681 244.229C392.366 244.229 392.127 244.323 391.965 244.51C391.802 244.697 391.721 244.936 391.721 245.227ZM395.712 248.426V248.346H397.066V248.421C397.066 248.718 397.162 248.951 397.356 249.119C397.55 249.285 397.829 249.367 398.195 249.367C398.551 249.367 398.83 249.257 399.033 249.035C399.236 248.81 399.337 248.481 399.337 248.047C399.337 247.603 399.238 247.275 399.038 247.063C398.838 246.851 398.561 246.744 398.209 246.744C397.946 246.744 397.721 246.796 397.534 246.899C397.347 247.002 397.181 247.135 397.038 247.297L395.979 246.852L396.326 243.405H400.349V244.491H397.412L397.248 246.093C397.405 245.996 397.583 245.917 397.782 245.854C397.985 245.789 398.22 245.756 398.485 245.756C399.106 245.756 399.631 245.956 400.059 246.356C400.49 246.755 400.705 247.311 400.705 248.023C400.705 248.744 400.471 249.316 400.003 249.737C399.534 250.156 398.932 250.365 398.195 250.365C397.417 250.365 396.808 250.181 396.368 249.812C395.931 249.444 395.712 248.982 395.712 248.426ZM401.342 247.878V245.751C401.342 245.008 401.55 244.409 401.965 243.953C402.384 243.494 402.983 243.264 403.764 243.264C404.541 243.264 405.141 243.494 405.563 243.953C405.984 244.409 406.195 245.008 406.195 245.751V247.878C406.195 248.621 405.983 249.222 405.558 249.681C405.136 250.137 404.538 250.365 403.764 250.365C402.98 250.365 402.381 250.137 401.965 249.681C401.55 249.222 401.342 248.621 401.342 247.878ZM402.724 247.948C402.724 248.357 402.802 248.694 402.958 248.96C403.118 249.225 403.386 249.358 403.764 249.358C404.142 249.358 404.41 249.225 404.57 248.96C404.732 248.694 404.813 248.357 404.813 247.948V245.681C404.813 245.272 404.732 244.935 404.57 244.669C404.41 244.404 404.142 244.271 403.764 244.271C403.386 244.271 403.118 244.404 402.958 244.669C402.802 244.935 402.724 245.272 402.724 245.681V247.948Z" fill="#8E97A6"/>
<path d="M356.941 270.61V263.79H361.709V264.783H358.285V266.6H361.264V267.589H358.285V269.622H361.756V270.61H356.941ZM362.103 270.61L364.122 267.654H364.323L365.691 265.504H366.97L365.077 268.357H364.876L363.382 270.61H362.103ZM362.215 265.504H363.747L365.096 267.65H365.124L367.087 270.61H365.56L364.154 268.39H364.131L362.215 265.504ZM367.49 268.132V267.982C367.49 267.201 367.724 266.571 368.192 266.09C368.664 265.606 369.304 265.364 370.113 265.364C370.878 265.364 371.459 265.55 371.855 265.921C372.252 266.293 372.455 266.716 372.464 267.19L372.469 267.237H371.181V267.2C371.181 266.959 371.095 266.752 370.923 266.577C370.751 266.402 370.48 266.315 370.108 266.315C369.677 266.315 369.355 266.471 369.143 266.783C368.934 267.095 368.829 267.487 368.829 267.959V268.151C368.829 268.625 368.934 269.019 369.143 269.331C369.352 269.643 369.674 269.8 370.108 269.8C370.486 269.8 370.759 269.711 370.928 269.533C371.096 269.351 371.181 269.145 371.181 268.914V268.877H372.464V268.914C372.464 269.389 372.263 269.814 371.86 270.188C371.46 270.563 370.878 270.75 370.113 270.75C369.304 270.75 368.664 270.51 368.192 270.029C367.724 269.545 367.49 268.913 367.49 268.132ZM373.157 268.132V267.982C373.157 267.208 373.393 266.578 373.865 266.094C374.336 265.607 374.951 265.364 375.71 265.364C376.478 265.364 377.073 265.592 377.495 266.048C377.919 266.5 378.132 267.117 378.132 267.898V268.38H374.061V267.514H376.825V267.453C376.822 267.162 376.731 266.897 376.553 266.657C376.378 266.413 376.091 266.291 375.691 266.291C375.298 266.291 374.993 266.45 374.778 266.769C374.566 267.084 374.459 267.481 374.459 267.959V268.151C374.459 268.629 374.573 269.025 374.801 269.34C375.029 269.656 375.374 269.814 375.837 269.814C376.139 269.814 376.4 269.746 376.619 269.612C376.837 269.475 377.014 269.314 377.148 269.13L378.019 269.767C377.86 270.029 377.588 270.259 377.204 270.455C376.823 270.652 376.369 270.75 375.841 270.75C374.986 270.75 374.324 270.508 373.855 270.024C373.39 269.537 373.157 268.906 373.157 268.132ZM379.129 270.61V263.42H380.436V270.61H379.129ZM381.514 268.132V267.982C381.514 267.208 381.749 266.578 382.221 266.094C382.692 265.607 383.308 265.364 384.066 265.364C384.835 265.364 385.43 265.592 385.851 266.048C386.276 266.5 386.488 267.117 386.488 267.898V268.38H382.418V267.514H385.181V267.453C385.178 267.162 385.088 266.897 384.91 266.657C384.735 266.413 384.447 266.291 384.048 266.291C383.654 266.291 383.35 266.45 383.134 266.769C382.922 267.084 382.816 267.481 382.816 267.959V268.151C382.816 268.629 382.93 269.025 383.158 269.34C383.386 269.656 383.731 269.814 384.193 269.814C384.496 269.814 384.757 269.746 384.975 269.612C385.194 269.475 385.37 269.314 385.504 269.13L386.376 269.767C386.216 270.029 385.945 270.259 385.561 270.455C385.18 270.652 384.725 270.75 384.198 270.75C383.342 270.75 382.68 270.508 382.212 270.024C381.746 269.537 381.514 268.906 381.514 268.132ZM387.458 270.61V265.504H388.685L388.722 266.118H388.746C388.914 265.893 389.133 265.72 389.402 265.598C389.673 265.473 389.972 265.411 390.296 265.411C390.849 265.411 391.292 265.565 391.627 265.874C391.964 266.183 392.132 266.711 392.132 267.457V270.61H390.83V267.439C390.83 267.061 390.749 266.792 390.587 266.633C390.424 266.474 390.195 266.394 389.898 266.394C389.648 266.394 389.425 266.464 389.228 266.605C389.032 266.746 388.877 266.93 388.765 267.158V270.61H387.458ZM392.76 266.432V265.504H395.908V266.432H392.76ZM393.589 269.186V266.024V265.884V264.474H394.891V269.177C394.891 269.395 394.934 269.551 395.018 269.645C395.102 269.736 395.229 269.781 395.397 269.781C395.478 269.781 395.558 269.771 395.636 269.753C395.717 269.734 395.797 269.709 395.875 269.678V270.61C395.797 270.647 395.692 270.68 395.561 270.708C395.433 270.736 395.293 270.75 395.14 270.75C394.671 270.75 394.295 270.624 394.011 270.371C393.73 270.118 393.589 269.723 393.589 269.186Z" fill="#45D3DD"/>
</g>
<circle cx="86.5" cy="72.5" r="3.5" fill="#FF6051"/>
<circle cx="96.5" cy="72.5" r="3.5" fill="#FEBE05"/>
<circle cx="106.5" cy="72.5" r="3.5" fill="#1ECB3D"/>
<path d="M84.1641 111V99.625H86.5781V111H84.1641ZM88.75 111V102.805H90.9688L91.0234 103.734H91.0625C91.2708 103.417 91.5833 103.156 92 102.953C92.4219 102.745 92.888 102.641 93.3984 102.641C94.2422 102.641 94.9297 102.88 95.4609 103.359C95.9922 103.833 96.2578 104.667 96.2578 105.859V111H93.9219V105.812C93.9219 105.307 93.8125 104.953 93.5938 104.75C93.375 104.542 93.0625 104.438 92.6562 104.438C92.3281 104.438 92.0208 104.531 91.7344 104.719C91.4479 104.906 91.2318 105.172 91.0859 105.516V111H88.75ZM97.7422 107.023V106.773C97.7422 105.482 98.1224 104.458 98.8828 103.703C99.6484 102.948 100.661 102.57 101.922 102.57C103.12 102.57 104.031 102.867 104.656 103.461C105.286 104.055 105.622 104.763 105.664 105.586L105.68 105.727H103.398V105.625C103.398 105.245 103.273 104.93 103.023 104.68C102.779 104.424 102.406 104.297 101.906 104.297C101.323 104.297 100.88 104.51 100.578 104.938C100.281 105.359 100.133 105.93 100.133 106.648V107.148C100.133 107.872 100.276 108.448 100.562 108.875C100.854 109.297 101.302 109.508 101.906 109.508C102.453 109.508 102.839 109.375 103.062 109.109C103.286 108.839 103.398 108.523 103.398 108.164V108.078H105.672V108.18C105.672 109.003 105.346 109.719 104.695 110.328C104.044 110.932 103.12 111.234 101.922 111.234C100.667 111.234 99.6562 110.857 98.8906 110.102C98.125 109.341 97.7422 108.315 97.7422 107.023ZM107.047 111V102.805H109.281L109.328 103.711H109.367C109.534 103.404 109.763 103.141 110.055 102.922C110.346 102.698 110.674 102.586 111.039 102.586C111.148 102.586 111.258 102.599 111.367 102.625C111.482 102.651 111.562 102.674 111.609 102.695V104.695C111.521 104.674 111.424 104.659 111.32 104.648C111.216 104.633 111.102 104.625 110.977 104.625C110.617 104.625 110.294 104.732 110.008 104.945C109.727 105.154 109.521 105.422 109.391 105.75V111H107.047ZM112.273 107.023V106.773C112.273 105.508 112.656 104.492 113.422 103.727C114.188 102.956 115.167 102.57 116.359 102.57C117.562 102.57 118.505 102.932 119.188 103.656C119.87 104.375 120.211 105.37 120.211 106.641V107.469H113.852V106.023H117.906V105.852C117.906 105.404 117.771 105.026 117.5 104.719C117.234 104.406 116.854 104.25 116.359 104.25C115.786 104.25 115.349 104.466 115.047 104.898C114.75 105.326 114.602 105.906 114.602 106.641V107.141C114.602 107.87 114.763 108.448 115.086 108.875C115.409 109.297 115.883 109.508 116.508 109.508C116.945 109.508 117.323 109.401 117.641 109.188C117.958 108.974 118.216 108.727 118.414 108.445L120.07 109.492C119.81 109.997 119.37 110.414 118.75 110.742C118.13 111.07 117.396 111.234 116.547 111.234C115.219 111.234 114.174 110.852 113.414 110.086C112.654 109.315 112.273 108.294 112.273 107.023ZM121.258 108.594C121.258 107.677 121.609 106.992 122.312 106.539C123.016 106.081 123.904 105.849 124.977 105.844H126.578V105.383C126.578 105.013 126.484 104.716 126.297 104.492C126.109 104.263 125.779 104.148 125.305 104.148C124.826 104.148 124.487 104.242 124.289 104.43C124.091 104.617 123.992 104.849 123.992 105.125V105.242H121.695V105.125C121.695 104.385 122.039 103.776 122.727 103.297C123.414 102.818 124.305 102.578 125.398 102.578C126.503 102.578 127.365 102.807 127.984 103.266C128.604 103.724 128.914 104.435 128.914 105.398V109.164C128.914 109.492 128.945 109.807 129.008 110.109C129.07 110.411 129.151 110.667 129.25 110.875V111H126.953C126.891 110.88 126.836 110.724 126.789 110.531C126.742 110.333 126.708 110.143 126.688 109.961C126.531 110.268 126.227 110.544 125.773 110.789C125.326 111.029 124.766 111.148 124.094 111.148C123.286 111.148 122.612 110.938 122.07 110.516C121.529 110.089 121.258 109.448 121.258 108.594ZM123.602 108.383C123.602 108.742 123.706 109.031 123.914 109.25C124.122 109.469 124.451 109.578 124.898 109.578C125.383 109.578 125.784 109.424 126.102 109.117C126.419 108.81 126.578 108.445 126.578 108.023V107.242H125.32C124.737 107.242 124.305 107.341 124.023 107.539C123.742 107.737 123.602 108.018 123.602 108.383ZM130.453 108.414L132.734 108.422V108.547C132.734 108.932 132.862 109.214 133.117 109.391C133.378 109.562 133.729 109.648 134.172 109.648C134.62 109.648 134.958 109.565 135.188 109.398C135.417 109.232 135.531 109.008 135.531 108.727C135.531 108.445 135.411 108.237 135.172 108.102C134.932 107.966 134.365 107.807 133.469 107.625C132.505 107.427 131.802 107.122 131.359 106.711C130.917 106.299 130.695 105.766 130.695 105.109C130.695 104.323 131.01 103.703 131.641 103.25C132.271 102.797 133.12 102.57 134.188 102.57C135.255 102.57 136.109 102.807 136.75 103.281C137.391 103.75 137.711 104.391 137.711 105.203V105.297H135.438V105.172C135.438 104.854 135.333 104.607 135.125 104.43C134.922 104.253 134.607 104.164 134.18 104.164C133.758 104.164 133.451 104.237 133.258 104.383C133.07 104.523 132.977 104.714 132.977 104.953C132.977 105.193 133.099 105.383 133.344 105.523C133.589 105.664 134.161 105.826 135.062 106.008C136.021 106.201 136.724 106.497 137.172 106.898C137.625 107.299 137.852 107.852 137.852 108.555C137.852 109.393 137.539 110.049 136.914 110.523C136.294 110.997 135.385 111.234 134.188 111.234C133 111.234 132.081 110.997 131.43 110.523C130.779 110.049 130.453 109.375 130.453 108.5V108.414ZM138.961 107.023V106.773C138.961 105.508 139.344 104.492 140.109 103.727C140.875 102.956 141.854 102.57 143.047 102.57C144.25 102.57 145.193 102.932 145.875 103.656C146.557 104.375 146.898 105.37 146.898 106.641V107.469H140.539V106.023H144.594V105.852C144.594 105.404 144.458 105.026 144.188 104.719C143.922 104.406 143.542 104.25 143.047 104.25C142.474 104.25 142.036 104.466 141.734 104.898C141.438 105.326 141.289 105.906 141.289 106.641V107.141C141.289 107.87 141.451 108.448 141.773 108.875C142.096 109.297 142.57 109.508 143.195 109.508C143.633 109.508 144.01 109.401 144.328 109.188C144.646 108.974 144.904 108.727 145.102 108.445L146.758 109.492C146.497 109.997 146.057 110.414 145.438 110.742C144.818 111.07 144.083 111.234 143.234 111.234C141.906 111.234 140.862 110.852 140.102 110.086C139.341 109.315 138.961 108.294 138.961 107.023ZM151.766 108.414L154.047 108.422V108.547C154.047 108.932 154.174 109.214 154.43 109.391C154.69 109.562 155.042 109.648 155.484 109.648C155.932 109.648 156.271 109.565 156.5 109.398C156.729 109.232 156.844 109.008 156.844 108.727C156.844 108.445 156.724 108.237 156.484 108.102C156.245 107.966 155.677 107.807 154.781 107.625C153.818 107.427 153.115 107.122 152.672 106.711C152.229 106.299 152.008 105.766 152.008 105.109C152.008 104.323 152.323 103.703 152.953 103.25C153.583 102.797 154.432 102.57 155.5 102.57C156.568 102.57 157.422 102.807 158.062 103.281C158.703 103.75 159.023 104.391 159.023 105.203V105.297H156.75V105.172C156.75 104.854 156.646 104.607 156.438 104.43C156.234 104.253 155.919 104.164 155.492 104.164C155.07 104.164 154.763 104.237 154.57 104.383C154.383 104.523 154.289 104.714 154.289 104.953C154.289 105.193 154.411 105.383 154.656 105.523C154.901 105.664 155.474 105.826 156.375 106.008C157.333 106.201 158.036 106.497 158.484 106.898C158.938 107.299 159.164 107.852 159.164 108.555C159.164 109.393 158.852 110.049 158.227 110.523C157.607 110.997 156.698 111.234 155.5 111.234C154.312 111.234 153.393 110.997 152.742 110.523C152.091 110.049 151.766 109.375 151.766 108.5V108.414ZM160.305 108.594C160.305 107.677 160.656 106.992 161.359 106.539C162.062 106.081 162.951 105.849 164.023 105.844H165.625V105.383C165.625 105.013 165.531 104.716 165.344 104.492C165.156 104.263 164.826 104.148 164.352 104.148C163.872 104.148 163.534 104.242 163.336 104.43C163.138 104.617 163.039 104.849 163.039 105.125V105.242H160.742V105.125C160.742 104.385 161.086 103.776 161.773 103.297C162.461 102.818 163.352 102.578 164.445 102.578C165.549 102.578 166.411 102.807 167.031 103.266C167.651 103.724 167.961 104.435 167.961 105.398V109.164C167.961 109.492 167.992 109.807 168.055 110.109C168.117 110.411 168.198 110.667 168.297 110.875V111H166C165.938 110.88 165.883 110.724 165.836 110.531C165.789 110.333 165.755 110.143 165.734 109.961C165.578 110.268 165.273 110.544 164.82 110.789C164.372 111.029 163.812 111.148 163.141 111.148C162.333 111.148 161.659 110.938 161.117 110.516C160.576 110.089 160.305 109.448 160.305 108.594ZM162.648 108.383C162.648 108.742 162.753 109.031 162.961 109.25C163.169 109.469 163.497 109.578 163.945 109.578C164.43 109.578 164.831 109.424 165.148 109.117C165.466 108.81 165.625 108.445 165.625 108.023V107.242H164.367C163.784 107.242 163.352 107.341 163.07 107.539C162.789 107.737 162.648 108.018 162.648 108.383ZM170.016 111V99.0625H172.359V111H170.016ZM173.93 107.023V106.773C173.93 105.508 174.312 104.492 175.078 103.727C175.844 102.956 176.823 102.57 178.016 102.57C179.219 102.57 180.161 102.932 180.844 103.656C181.526 104.375 181.867 105.37 181.867 106.641V107.469H175.508V106.023H179.562V105.852C179.562 105.404 179.427 105.026 179.156 104.719C178.891 104.406 178.51 104.25 178.016 104.25C177.443 104.25 177.005 104.466 176.703 104.898C176.406 105.326 176.258 105.906 176.258 106.641V107.141C176.258 107.87 176.419 108.448 176.742 108.875C177.065 109.297 177.539 109.508 178.164 109.508C178.602 109.508 178.979 109.401 179.297 109.188C179.615 108.974 179.872 108.727 180.07 108.445L181.727 109.492C181.466 109.997 181.026 110.414 180.406 110.742C179.786 111.07 179.052 111.234 178.203 111.234C176.875 111.234 175.831 110.852 175.07 110.086C174.31 109.315 173.93 108.294 173.93 107.023ZM182.828 108.414L185.109 108.422V108.547C185.109 108.932 185.237 109.214 185.492 109.391C185.753 109.562 186.104 109.648 186.547 109.648C186.995 109.648 187.333 109.565 187.562 109.398C187.792 109.232 187.906 109.008 187.906 108.727C187.906 108.445 187.786 108.237 187.547 108.102C187.307 107.966 186.74 107.807 185.844 107.625C184.88 107.427 184.177 107.122 183.734 106.711C183.292 106.299 183.07 105.766 183.07 105.109C183.07 104.323 183.385 103.703 184.016 103.25C184.646 102.797 185.495 102.57 186.562 102.57C187.63 102.57 188.484 102.807 189.125 103.281C189.766 103.75 190.086 104.391 190.086 105.203V105.297H187.812V105.172C187.812 104.854 187.708 104.607 187.5 104.43C187.297 104.253 186.982 104.164 186.555 104.164C186.133 104.164 185.826 104.237 185.633 104.383C185.445 104.523 185.352 104.714 185.352 104.953C185.352 105.193 185.474 105.383 185.719 105.523C185.964 105.664 186.536 105.826 187.438 106.008C188.396 106.201 189.099 106.497 189.547 106.898C190 107.299 190.227 107.852 190.227 108.555C190.227 109.393 189.914 110.049 189.289 110.523C188.669 110.997 187.76 111.234 186.562 111.234C185.375 111.234 184.456 110.997 183.805 110.523C183.154 110.049 182.828 109.375 182.828 108.5V108.414Z" fill="#001B44"/>
<path d="M84.1875 359V347.625H91.6875V349.461H86.6016V352.609H91.0391V354.414H86.6016V359H84.1875ZM93.1172 359V350.805H95.4688V359H93.1172ZM92.9219 348.508C92.9219 348.159 93.0391 347.865 93.2734 347.625C93.513 347.38 93.8542 347.258 94.2969 347.258C94.7344 347.258 95.0703 347.378 95.3047 347.617C95.5443 347.857 95.6641 348.154 95.6641 348.508C95.6641 348.867 95.5443 349.169 95.3047 349.414C95.0703 349.654 94.7318 349.773 94.2891 349.773C93.8516 349.773 93.513 349.654 93.2734 349.414C93.0391 349.169 92.9219 348.867 92.9219 348.508ZM97.4844 359V350.805H99.7031L99.7578 351.734H99.7969C100.005 351.417 100.318 351.156 100.734 350.953C101.156 350.745 101.622 350.641 102.133 350.641C102.977 350.641 103.664 350.88 104.195 351.359C104.727 351.833 104.992 352.667 104.992 353.859V359H102.656V353.812C102.656 353.307 102.547 352.953 102.328 352.75C102.109 352.542 101.797 352.438 101.391 352.438C101.062 352.438 100.755 352.531 100.469 352.719C100.182 352.906 99.9661 353.172 99.8203 353.516V359H97.4844ZM106.508 356.594C106.508 355.677 106.859 354.992 107.562 354.539C108.266 354.081 109.154 353.849 110.227 353.844H111.828V353.383C111.828 353.013 111.734 352.716 111.547 352.492C111.359 352.263 111.029 352.148 110.555 352.148C110.076 352.148 109.737 352.242 109.539 352.43C109.341 352.617 109.242 352.849 109.242 353.125V353.242H106.945V353.125C106.945 352.385 107.289 351.776 107.977 351.297C108.664 350.818 109.555 350.578 110.648 350.578C111.753 350.578 112.615 350.807 113.234 351.266C113.854 351.724 114.164 352.435 114.164 353.398V357.164C114.164 357.492 114.195 357.807 114.258 358.109C114.32 358.411 114.401 358.667 114.5 358.875V359H112.203C112.141 358.88 112.086 358.724 112.039 358.531C111.992 358.333 111.958 358.143 111.938 357.961C111.781 358.268 111.477 358.544 111.023 358.789C110.576 359.029 110.016 359.148 109.344 359.148C108.536 359.148 107.862 358.938 107.32 358.516C106.779 358.089 106.508 357.448 106.508 356.594ZM108.852 356.383C108.852 356.742 108.956 357.031 109.164 357.25C109.372 357.469 109.701 357.578 110.148 357.578C110.633 357.578 111.034 357.424 111.352 357.117C111.669 356.81 111.828 356.445 111.828 356.023V355.242H110.57C109.987 355.242 109.555 355.341 109.273 355.539C108.992 355.737 108.852 356.018 108.852 356.383ZM116.203 359V350.805H118.422L118.477 351.734H118.516C118.724 351.417 119.036 351.156 119.453 350.953C119.875 350.745 120.341 350.641 120.852 350.641C121.695 350.641 122.383 350.88 122.914 351.359C123.445 351.833 123.711 352.667 123.711 353.859V359H121.375V353.812C121.375 353.307 121.266 352.953 121.047 352.75C120.828 352.542 120.516 352.438 120.109 352.438C119.781 352.438 119.474 352.531 119.188 352.719C118.901 352.906 118.685 353.172 118.539 353.516V359H116.203ZM125.195 355.023V354.773C125.195 353.482 125.576 352.458 126.336 351.703C127.102 350.948 128.115 350.57 129.375 350.57C130.573 350.57 131.484 350.867 132.109 351.461C132.74 352.055 133.076 352.763 133.117 353.586L133.133 353.727H130.852V353.625C130.852 353.245 130.727 352.93 130.477 352.68C130.232 352.424 129.859 352.297 129.359 352.297C128.776 352.297 128.333 352.51 128.031 352.938C127.734 353.359 127.586 353.93 127.586 354.648V355.148C127.586 355.872 127.729 356.448 128.016 356.875C128.307 357.297 128.755 357.508 129.359 357.508C129.906 357.508 130.292 357.375 130.516 357.109C130.74 356.839 130.852 356.523 130.852 356.164V356.078H133.125V356.18C133.125 357.003 132.799 357.719 132.148 358.328C131.497 358.932 130.573 359.234 129.375 359.234C128.12 359.234 127.109 358.857 126.344 358.102C125.578 357.341 125.195 356.315 125.195 355.023ZM134.055 355.023V354.773C134.055 353.508 134.438 352.492 135.203 351.727C135.969 350.956 136.948 350.57 138.141 350.57C139.344 350.57 140.286 350.932 140.969 351.656C141.651 352.375 141.992 353.37 141.992 354.641V355.469H135.633V354.023H139.688V353.852C139.688 353.404 139.552 353.026 139.281 352.719C139.016 352.406 138.635 352.25 138.141 352.25C137.568 352.25 137.13 352.466 136.828 352.898C136.531 353.326 136.383 353.906 136.383 354.641V355.141C136.383 355.87 136.544 356.448 136.867 356.875C137.19 357.297 137.664 357.508 138.289 357.508C138.727 357.508 139.104 357.401 139.422 357.188C139.74 356.974 139.997 356.727 140.195 356.445L141.852 357.492C141.591 357.997 141.151 358.414 140.531 358.742C139.911 359.07 139.177 359.234 138.328 359.234C137 359.234 135.956 358.852 135.195 358.086C134.435 357.315 134.055 356.294 134.055 355.023ZM146.914 355.031V354.781C146.914 353.557 147.242 352.562 147.898 351.797C148.56 351.031 149.419 350.648 150.477 350.648C150.992 350.648 151.438 350.742 151.812 350.93C152.193 351.112 152.484 351.352 152.688 351.648V347.062H155.016V359H152.797L152.75 358.047H152.711C152.539 358.365 152.253 358.63 151.852 358.844C151.456 359.052 151 359.156 150.484 359.156C149.375 359.156 148.503 358.773 147.867 358.008C147.232 357.242 146.914 356.25 146.914 355.031ZM149.305 355.133C149.305 355.81 149.451 356.357 149.742 356.773C150.034 357.19 150.469 357.398 151.047 357.398C151.448 357.398 151.786 357.292 152.062 357.078C152.339 356.859 152.544 356.599 152.68 356.297V353.5C152.549 353.198 152.349 352.94 152.078 352.727C151.812 352.513 151.471 352.406 151.055 352.406C150.482 352.406 150.047 352.617 149.75 353.039C149.453 353.456 149.305 354 149.305 354.672V355.133ZM156.602 356.594C156.602 355.677 156.953 354.992 157.656 354.539C158.359 354.081 159.247 353.849 160.32 353.844H161.922V353.383C161.922 353.013 161.828 352.716 161.641 352.492C161.453 352.263 161.122 352.148 160.648 352.148C160.169 352.148 159.831 352.242 159.633 352.43C159.435 352.617 159.336 352.849 159.336 353.125V353.242H157.039V353.125C157.039 352.385 157.383 351.776 158.07 351.297C158.758 350.818 159.648 350.578 160.742 350.578C161.846 350.578 162.708 350.807 163.328 351.266C163.948 351.724 164.258 352.435 164.258 353.398V357.164C164.258 357.492 164.289 357.807 164.352 358.109C164.414 358.411 164.495 358.667 164.594 358.875V359H162.297C162.234 358.88 162.18 358.724 162.133 358.531C162.086 358.333 162.052 358.143 162.031 357.961C161.875 358.268 161.57 358.544 161.117 358.789C160.669 359.029 160.109 359.148 159.438 359.148C158.63 359.148 157.956 358.938 157.414 358.516C156.872 358.089 156.602 357.448 156.602 356.594ZM158.945 356.383C158.945 356.742 159.049 357.031 159.258 357.25C159.466 357.469 159.794 357.578 160.242 357.578C160.727 357.578 161.128 357.424 161.445 357.117C161.763 356.81 161.922 356.445 161.922 356.023V355.242H160.664C160.081 355.242 159.648 355.341 159.367 355.539C159.086 355.737 158.945 356.018 158.945 356.383ZM165.797 356.414L168.078 356.422V356.547C168.078 356.932 168.206 357.214 168.461 357.391C168.721 357.562 169.073 357.648 169.516 357.648C169.964 357.648 170.302 357.565 170.531 357.398C170.76 357.232 170.875 357.008 170.875 356.727C170.875 356.445 170.755 356.237 170.516 356.102C170.276 355.966 169.708 355.807 168.812 355.625C167.849 355.427 167.146 355.122 166.703 354.711C166.26 354.299 166.039 353.766 166.039 353.109C166.039 352.323 166.354 351.703 166.984 351.25C167.615 350.797 168.464 350.57 169.531 350.57C170.599 350.57 171.453 350.807 172.094 351.281C172.734 351.75 173.055 352.391 173.055 353.203V353.297H170.781V353.172C170.781 352.854 170.677 352.607 170.469 352.43C170.266 352.253 169.951 352.164 169.523 352.164C169.102 352.164 168.794 352.237 168.602 352.383C168.414 352.523 168.32 352.714 168.32 352.953C168.32 353.193 168.443 353.383 168.688 353.523C168.932 353.664 169.505 353.826 170.406 354.008C171.365 354.201 172.068 354.497 172.516 354.898C172.969 355.299 173.195 355.852 173.195 356.555C173.195 357.393 172.883 358.049 172.258 358.523C171.638 358.997 170.729 359.234 169.531 359.234C168.344 359.234 167.424 358.997 166.773 358.523C166.122 358.049 165.797 357.375 165.797 356.5V356.414ZM174.75 359V347.062H177.078V351.891C177.323 351.526 177.648 351.227 178.055 350.992C178.461 350.758 178.964 350.641 179.562 350.641C180.333 350.641 180.969 350.885 181.469 351.375C181.969 351.865 182.219 352.659 182.219 353.758V359H179.883V353.906C179.883 353.375 179.763 352.997 179.523 352.773C179.289 352.549 178.974 352.438 178.578 352.438C178.219 352.438 177.911 352.536 177.656 352.734C177.406 352.932 177.216 353.216 177.086 353.586V359H174.75ZM184.188 359V347.062H186.523V351.656C186.779 351.333 187.099 351.083 187.484 350.906C187.875 350.729 188.326 350.641 188.836 350.641C189.893 350.641 190.732 351.023 191.352 351.789C191.971 352.555 192.281 353.547 192.281 354.766V355.016C192.281 356.245 191.969 357.242 191.344 358.008C190.719 358.773 189.88 359.156 188.828 359.156C188.318 359.156 187.844 359.057 187.406 358.859C186.974 358.656 186.669 358.396 186.492 358.078H186.453L186.406 359H184.188ZM186.523 356.227C186.643 356.534 186.841 356.807 187.117 357.047C187.398 357.281 187.76 357.398 188.203 357.398C188.776 357.398 189.201 357.19 189.477 356.773C189.753 356.352 189.891 355.802 189.891 355.125V354.672C189.891 353.995 189.753 353.448 189.477 353.031C189.206 352.615 188.776 352.406 188.188 352.406C187.76 352.406 187.406 352.526 187.125 352.766C186.844 353 186.643 353.271 186.523 353.578V356.227ZM193.398 355.023V354.773C193.398 353.487 193.789 352.466 194.57 351.711C195.357 350.951 196.38 350.57 197.641 350.57C198.896 350.57 199.914 350.951 200.695 351.711C201.482 352.466 201.875 353.487 201.875 354.773V355.023C201.875 356.31 201.482 357.333 200.695 358.094C199.914 358.854 198.896 359.234 197.641 359.234C196.38 359.234 195.357 358.854 194.57 358.094C193.789 357.333 193.398 356.31 193.398 355.023ZM195.789 354.648V355.148C195.789 355.904 195.948 356.479 196.266 356.875C196.589 357.271 197.047 357.469 197.641 357.469C198.229 357.469 198.682 357.271 199 356.875C199.318 356.479 199.477 355.904 199.477 355.148V354.648C199.477 353.893 199.315 353.32 198.992 352.93C198.669 352.534 198.219 352.336 197.641 352.336C197.057 352.336 196.602 352.534 196.273 352.93C195.951 353.32 195.789 353.893 195.789 354.648ZM203.023 356.594C203.023 355.677 203.375 354.992 204.078 354.539C204.781 354.081 205.669 353.849 206.742 353.844H208.344V353.383C208.344 353.013 208.25 352.716 208.062 352.492C207.875 352.263 207.544 352.148 207.07 352.148C206.591 352.148 206.253 352.242 206.055 352.43C205.857 352.617 205.758 352.849 205.758 353.125V353.242H203.461V353.125C203.461 352.385 203.805 351.776 204.492 351.297C205.18 350.818 206.07 350.578 207.164 350.578C208.268 350.578 209.13 350.807 209.75 351.266C210.37 351.724 210.68 352.435 210.68 353.398V357.164C210.68 357.492 210.711 357.807 210.773 358.109C210.836 358.411 210.917 358.667 211.016 358.875V359H208.719C208.656 358.88 208.602 358.724 208.555 358.531C208.508 358.333 208.474 358.143 208.453 357.961C208.297 358.268 207.992 358.544 207.539 358.789C207.091 359.029 206.531 359.148 205.859 359.148C205.052 359.148 204.378 358.938 203.836 358.516C203.294 358.089 203.023 357.448 203.023 356.594ZM205.367 356.383C205.367 356.742 205.471 357.031 205.68 357.25C205.888 357.469 206.216 357.578 206.664 357.578C207.148 357.578 207.549 357.424 207.867 357.117C208.185 356.81 208.344 356.445 208.344 356.023V355.242H207.086C206.503 355.242 206.07 355.341 205.789 355.539C205.508 355.737 205.367 356.018 205.367 356.383ZM212.719 359V350.805H214.953L215 351.711H215.039C215.206 351.404 215.435 351.141 215.727 350.922C216.018 350.698 216.346 350.586 216.711 350.586C216.82 350.586 216.93 350.599 217.039 350.625C217.154 350.651 217.234 350.674 217.281 350.695V352.695C217.193 352.674 217.096 352.659 216.992 352.648C216.888 352.633 216.773 352.625 216.648 352.625C216.289 352.625 215.966 352.732 215.68 352.945C215.398 353.154 215.193 353.422 215.062 353.75V359H212.719ZM217.945 355.031V354.781C217.945 353.557 218.273 352.562 218.93 351.797C219.591 351.031 220.451 350.648 221.508 350.648C222.023 350.648 222.469 350.742 222.844 350.93C223.224 351.112 223.516 351.352 223.719 351.648V347.062H226.047V359H223.828L223.781 358.047H223.742C223.57 358.365 223.284 358.63 222.883 358.844C222.487 359.052 222.031 359.156 221.516 359.156C220.406 359.156 219.534 358.773 218.898 358.008C218.263 357.242 217.945 356.25 217.945 355.031ZM220.336 355.133C220.336 355.81 220.482 356.357 220.773 356.773C221.065 357.19 221.5 357.398 222.078 357.398C222.479 357.398 222.818 357.292 223.094 357.078C223.37 356.859 223.576 356.599 223.711 356.297V353.5C223.581 353.198 223.38 352.94 223.109 352.727C222.844 352.513 222.503 352.406 222.086 352.406C221.513 352.406 221.078 352.617 220.781 353.039C220.484 353.456 220.336 354 220.336 354.672V355.133Z" fill="#001B44"/>
<path d="M334.188 359V347.625H341.688V349.461H336.602V352.609H341.039V354.414H336.602V359H334.188ZM343.117 359V350.805H345.469V359H343.117ZM342.922 348.508C342.922 348.159 343.039 347.865 343.273 347.625C343.513 347.38 343.854 347.258 344.297 347.258C344.734 347.258 345.07 347.378 345.305 347.617C345.544 347.857 345.664 348.154 345.664 348.508C345.664 348.867 345.544 349.169 345.305 349.414C345.07 349.654 344.732 349.773 344.289 349.773C343.852 349.773 343.513 349.654 343.273 349.414C343.039 349.169 342.922 348.867 342.922 348.508ZM347.484 359V350.805H349.703L349.758 351.734H349.797C350.005 351.417 350.318 351.156 350.734 350.953C351.156 350.745 351.622 350.641 352.133 350.641C352.977 350.641 353.664 350.88 354.195 351.359C354.727 351.833 354.992 352.667 354.992 353.859V359H352.656V353.812C352.656 353.307 352.547 352.953 352.328 352.75C352.109 352.542 351.797 352.438 351.391 352.438C351.062 352.438 350.755 352.531 350.469 352.719C350.182 352.906 349.966 353.172 349.82 353.516V359H347.484ZM356.508 356.594C356.508 355.677 356.859 354.992 357.562 354.539C358.266 354.081 359.154 353.849 360.227 353.844H361.828V353.383C361.828 353.013 361.734 352.716 361.547 352.492C361.359 352.263 361.029 352.148 360.555 352.148C360.076 352.148 359.737 352.242 359.539 352.43C359.341 352.617 359.242 352.849 359.242 353.125V353.242H356.945V353.125C356.945 352.385 357.289 351.776 357.977 351.297C358.664 350.818 359.555 350.578 360.648 350.578C361.753 350.578 362.615 350.807 363.234 351.266C363.854 351.724 364.164 352.435 364.164 353.398V357.164C364.164 357.492 364.195 357.807 364.258 358.109C364.32 358.411 364.401 358.667 364.5 358.875V359H362.203C362.141 358.88 362.086 358.724 362.039 358.531C361.992 358.333 361.958 358.143 361.938 357.961C361.781 358.268 361.477 358.544 361.023 358.789C360.576 359.029 360.016 359.148 359.344 359.148C358.536 359.148 357.862 358.938 357.32 358.516C356.779 358.089 356.508 357.448 356.508 356.594ZM358.852 356.383C358.852 356.742 358.956 357.031 359.164 357.25C359.372 357.469 359.701 357.578 360.148 357.578C360.633 357.578 361.034 357.424 361.352 357.117C361.669 356.81 361.828 356.445 361.828 356.023V355.242H360.57C359.987 355.242 359.555 355.341 359.273 355.539C358.992 355.737 358.852 356.018 358.852 356.383ZM366.203 359V350.805H368.422L368.477 351.734H368.516C368.724 351.417 369.036 351.156 369.453 350.953C369.875 350.745 370.341 350.641 370.852 350.641C371.695 350.641 372.383 350.88 372.914 351.359C373.445 351.833 373.711 352.667 373.711 353.859V359H371.375V353.812C371.375 353.307 371.266 352.953 371.047 352.75C370.828 352.542 370.516 352.438 370.109 352.438C369.781 352.438 369.474 352.531 369.188 352.719C368.901 352.906 368.685 353.172 368.539 353.516V359H366.203ZM375.195 355.023V354.773C375.195 353.482 375.576 352.458 376.336 351.703C377.102 350.948 378.115 350.57 379.375 350.57C380.573 350.57 381.484 350.867 382.109 351.461C382.74 352.055 383.076 352.763 383.117 353.586L383.133 353.727H380.852V353.625C380.852 353.245 380.727 352.93 380.477 352.68C380.232 352.424 379.859 352.297 379.359 352.297C378.776 352.297 378.333 352.51 378.031 352.938C377.734 353.359 377.586 353.93 377.586 354.648V355.148C377.586 355.872 377.729 356.448 378.016 356.875C378.307 357.297 378.755 357.508 379.359 357.508C379.906 357.508 380.292 357.375 380.516 357.109C380.74 356.839 380.852 356.523 380.852 356.164V356.078H383.125V356.18C383.125 357.003 382.799 357.719 382.148 358.328C381.497 358.932 380.573 359.234 379.375 359.234C378.12 359.234 377.109 358.857 376.344 358.102C375.578 357.341 375.195 356.315 375.195 355.023ZM384.055 355.023V354.773C384.055 353.508 384.438 352.492 385.203 351.727C385.969 350.956 386.948 350.57 388.141 350.57C389.344 350.57 390.286 350.932 390.969 351.656C391.651 352.375 391.992 353.37 391.992 354.641V355.469H385.633V354.023H389.688V353.852C389.688 353.404 389.552 353.026 389.281 352.719C389.016 352.406 388.635 352.25 388.141 352.25C387.568 352.25 387.13 352.466 386.828 352.898C386.531 353.326 386.383 353.906 386.383 354.641V355.141C386.383 355.87 386.544 356.448 386.867 356.875C387.19 357.297 387.664 357.508 388.289 357.508C388.727 357.508 389.104 357.401 389.422 357.188C389.74 356.974 389.997 356.727 390.195 356.445L391.852 357.492C391.591 357.997 391.151 358.414 390.531 358.742C389.911 359.07 389.177 359.234 388.328 359.234C387 359.234 385.956 358.852 385.195 358.086C384.435 357.315 384.055 356.294 384.055 355.023ZM397.359 362.258V350.805H399.547L399.602 351.734H399.641C399.812 351.422 400.109 351.161 400.531 350.953C400.953 350.745 401.419 350.641 401.93 350.641C402.987 350.641 403.839 351.016 404.484 351.766C405.13 352.51 405.453 353.513 405.453 354.773V355.023C405.453 356.273 405.135 357.276 404.5 358.031C403.865 358.781 403.031 359.156 402 359.156C401.49 359.156 401.029 359.07 400.617 358.898C400.206 358.727 399.898 358.487 399.695 358.18V362.258H397.359ZM399.695 356.266C399.815 356.573 400.023 356.839 400.32 357.062C400.622 357.286 400.974 357.398 401.375 357.398C401.943 357.398 402.365 357.203 402.641 356.812C402.922 356.417 403.062 355.862 403.062 355.148V354.648C403.062 353.935 402.922 353.383 402.641 352.992C402.365 352.602 401.938 352.406 401.359 352.406C400.943 352.406 400.594 352.516 400.312 352.734C400.031 352.953 399.826 353.208 399.695 353.5V356.266ZM407.016 359V350.805H409.25L409.297 351.711H409.336C409.503 351.404 409.732 351.141 410.023 350.922C410.315 350.698 410.643 350.586 411.008 350.586C411.117 350.586 411.227 350.599 411.336 350.625C411.451 350.651 411.531 350.674 411.578 350.695V352.695C411.49 352.674 411.393 352.659 411.289 352.648C411.185 352.633 411.07 352.625 410.945 352.625C410.586 352.625 410.263 352.732 409.977 352.945C409.695 353.154 409.49 353.422 409.359 353.75V359H407.016ZM412.242 355.023V354.773C412.242 353.487 412.633 352.466 413.414 351.711C414.201 350.951 415.224 350.57 416.484 350.57C417.74 350.57 418.758 350.951 419.539 351.711C420.326 352.466 420.719 353.487 420.719 354.773V355.023C420.719 356.31 420.326 357.333 419.539 358.094C418.758 358.854 417.74 359.234 416.484 359.234C415.224 359.234 414.201 358.854 413.414 358.094C412.633 357.333 412.242 356.31 412.242 355.023ZM414.633 354.648V355.148C414.633 355.904 414.792 356.479 415.109 356.875C415.432 357.271 415.891 357.469 416.484 357.469C417.073 357.469 417.526 357.271 417.844 356.875C418.161 356.479 418.32 355.904 418.32 355.148V354.648C418.32 353.893 418.159 353.32 417.836 352.93C417.513 352.534 417.062 352.336 416.484 352.336C415.901 352.336 415.445 352.534 415.117 352.93C414.794 353.32 414.633 353.893 414.633 354.648ZM421.836 355.031V354.781C421.836 353.557 422.164 352.562 422.82 351.797C423.482 351.031 424.341 350.648 425.398 350.648C425.914 350.648 426.359 350.742 426.734 350.93C427.115 351.112 427.406 351.352 427.609 351.648V347.062H429.938V359H427.719L427.672 358.047H427.633C427.461 358.365 427.174 358.63 426.773 358.844C426.378 359.052 425.922 359.156 425.406 359.156C424.297 359.156 423.424 358.773 422.789 358.008C422.154 357.242 421.836 356.25 421.836 355.031ZM424.227 355.133C424.227 355.81 424.372 356.357 424.664 356.773C424.956 357.19 425.391 357.398 425.969 357.398C426.37 357.398 426.708 357.292 426.984 357.078C427.26 356.859 427.466 356.599 427.602 356.297V353.5C427.471 353.198 427.271 352.94 427 352.727C426.734 352.513 426.393 352.406 425.977 352.406C425.404 352.406 424.969 352.617 424.672 353.039C424.375 353.456 424.227 354 424.227 354.672V355.133ZM431.859 355.828V350.805H434.203V355.883C434.203 356.445 434.315 356.836 434.539 357.055C434.768 357.268 435.078 357.375 435.469 357.375C435.818 357.375 436.13 357.273 436.406 357.07C436.688 356.862 436.896 356.604 437.031 356.297V350.805H439.367V359H437.148L437.094 358.07H437.055C436.815 358.409 436.484 358.677 436.062 358.875C435.646 359.068 435.177 359.164 434.656 359.164C433.839 359.164 433.167 358.909 432.641 358.398C432.12 357.883 431.859 357.026 431.859 355.828ZM440.93 355.023V354.773C440.93 353.482 441.31 352.458 442.07 351.703C442.836 350.948 443.849 350.57 445.109 350.57C446.307 350.57 447.219 350.867 447.844 351.461C448.474 352.055 448.81 352.763 448.852 353.586L448.867 353.727H446.586V353.625C446.586 353.245 446.461 352.93 446.211 352.68C445.966 352.424 445.594 352.297 445.094 352.297C444.51 352.297 444.068 352.51 443.766 352.938C443.469 353.359 443.32 353.93 443.32 354.648V355.148C443.32 355.872 443.464 356.448 443.75 356.875C444.042 357.297 444.49 357.508 445.094 357.508C445.641 357.508 446.026 357.375 446.25 357.109C446.474 356.839 446.586 356.523 446.586 356.164V356.078H448.859V356.18C448.859 357.003 448.534 357.719 447.883 358.328C447.232 358.932 446.307 359.234 445.109 359.234C443.854 359.234 442.844 358.857 442.078 358.102C441.312 357.341 440.93 356.315 440.93 355.023ZM449.242 352.508V350.805H454.32V352.508H449.242ZM450.461 356.555V351.664L450.469 351.438V348.844H452.789V356.477C452.789 356.857 452.857 357.12 452.992 357.266C453.133 357.406 453.328 357.477 453.578 357.477C453.698 357.477 453.818 357.464 453.938 357.438C454.057 357.406 454.174 357.367 454.289 357.32V358.992C454.164 359.055 453.99 359.109 453.766 359.156C453.542 359.203 453.297 359.227 453.031 359.227C452.255 359.227 451.633 359.013 451.164 358.586C450.695 358.154 450.461 357.477 450.461 356.555Z" fill="#001B44"/>
<rect x="103" y="460" width="138" height="1" fill="#B7BCC3"/>
<rect x="103" y="396" width="138" height="1" fill="#E5E8ED"/>
<rect x="103" y="417" width="138" height="1" fill="#E5E8ED"/>
<rect x="103" y="438" width="138" height="1" fill="#E5E8ED"/>
<path d="M109.478 468.679V468.649H110.301V468.679C110.301 468.94 110.364 469.139 110.491 469.273C110.62 469.406 110.802 469.473 111.036 469.473C111.271 469.473 111.452 469.397 111.581 469.247C111.71 469.095 111.774 468.878 111.774 468.597V465.734H112.598V468.597C112.598 469.056 112.455 469.419 112.17 469.687C111.885 469.954 111.507 470.088 111.036 470.088C110.567 470.088 110.19 469.963 109.905 469.713C109.62 469.463 109.478 469.118 109.478 468.679ZM113.31 469.051C113.31 468.717 113.456 468.456 113.749 468.269C114.042 468.081 114.413 467.987 114.862 467.987H115.542V467.741C115.542 467.589 115.494 467.465 115.398 467.369C115.305 467.273 115.145 467.226 114.918 467.226C114.691 467.226 114.528 467.271 114.429 467.36C114.331 467.45 114.282 467.554 114.282 467.671V467.688H113.485V467.671C113.485 467.405 113.616 467.174 113.878 466.977C114.14 466.779 114.492 466.681 114.936 466.681C115.377 466.681 115.721 466.77 115.967 466.947C116.213 467.125 116.336 467.39 116.336 467.741V469.297C116.336 469.424 116.346 469.544 116.365 469.657C116.387 469.769 116.415 469.867 116.45 469.953V470H115.671C115.644 469.951 115.619 469.888 115.598 469.81C115.576 469.729 115.562 469.65 115.557 469.572C115.482 469.701 115.356 469.814 115.179 469.912C115.001 470.01 114.776 470.059 114.505 470.059C114.175 470.059 113.893 469.973 113.658 469.801C113.426 469.627 113.31 469.377 113.31 469.051ZM114.106 469.024C114.106 469.177 114.153 469.297 114.247 469.385C114.343 469.471 114.489 469.514 114.687 469.514C114.901 469.514 115.098 469.446 115.275 469.312C115.453 469.177 115.542 469.033 115.542 468.881V468.482H114.918C114.652 468.482 114.45 468.531 114.312 468.629C114.175 468.727 114.106 468.858 114.106 469.024ZM117.229 470V466.769H117.977L118 467.167H118.015C118.128 467.019 118.271 466.905 118.445 466.827C118.619 466.749 118.81 466.71 119.017 466.71C119.374 466.71 119.659 466.81 119.872 467.009C120.085 467.208 120.191 467.543 120.191 468.014V470H119.395V468.008C119.395 467.754 119.341 467.573 119.233 467.466C119.126 467.358 118.974 467.305 118.776 467.305C118.608 467.305 118.46 467.353 118.331 467.448C118.202 467.542 118.101 467.663 118.026 467.812V470H117.229Z" fill="#8E97A6"/>
<path d="M90.7217 459.535V458.196C90.7217 457.733 90.8525 457.359 91.1143 457.074C91.3779 456.789 91.7559 456.646 92.248 456.646C92.7363 456.646 93.1133 456.789 93.3789 457.074C93.6465 457.359 93.7803 457.733 93.7803 458.196V459.535C93.7803 459.998 93.6465 460.373 93.3789 460.66C93.1133 460.945 92.7363 461.088 92.248 461.088C91.7559 461.088 91.3779 460.945 91.1143 460.66C90.8525 460.373 90.7217 459.998 90.7217 459.535ZM91.5625 459.564C91.5625 459.828 91.6143 460.046 91.7178 460.218C91.8213 460.39 91.998 460.476 92.248 460.476C92.498 460.476 92.6758 460.39 92.7812 460.218C92.8867 460.046 92.9395 459.828 92.9395 459.564V458.167C92.9395 457.905 92.8867 457.688 92.7812 457.517C92.6758 457.343 92.498 457.256 92.248 457.256C91.998 457.256 91.8213 457.343 91.7178 457.517C91.6143 457.688 91.5625 457.905 91.5625 458.167V459.564Z" fill="#8E97A6"/>
<path d="M85.1611 440V436.534L84.0771 436.965V436.253L85.624 435.682H85.9873V440H85.1611ZM87.3467 438.535V437.196C87.3467 436.733 87.4775 436.359 87.7393 436.074C88.0029 435.789 88.3809 435.646 88.873 435.646C89.3613 435.646 89.7383 435.789 90.0039 436.074C90.2715 436.359 90.4053 436.733 90.4053 437.196V438.535C90.4053 438.998 90.2715 439.373 90.0039 439.66C89.7383 439.945 89.3613 440.088 88.873 440.088C88.3809 440.088 88.0029 439.945 87.7393 439.66C87.4775 439.373 87.3467 438.998 87.3467 438.535ZM88.1875 438.564C88.1875 438.828 88.2393 439.046 88.3428 439.218C88.4463 439.39 88.623 439.476 88.873 439.476C89.123 439.476 89.3008 439.39 89.4062 439.218C89.5117 439.046 89.5645 438.828 89.5645 438.564V437.167C89.5645 436.905 89.5117 436.688 89.4062 436.517C89.3008 436.343 89.123 436.256 88.873 436.256C88.623 436.256 88.4463 436.343 88.3428 436.517C88.2393 436.688 88.1875 436.905 88.1875 437.167V438.564ZM91.0557 440V435.5H91.8496V438.069L92.9922 436.771H93.877L91.8496 438.945V440H91.0557ZM93.0801 440L91.9521 438.397L92.4854 437.82L94.0527 440H93.0801Z" fill="#8E97A6"/>
<path d="M83.8135 419V418.473L85.498 416.826C85.6816 416.646 85.8184 416.48 85.9082 416.328C85.998 416.176 86.043 416.017 86.043 415.851C86.043 415.675 85.9844 415.532 85.8672 415.423C85.75 415.312 85.5889 415.256 85.3838 415.256C85.1748 415.256 85.0029 415.322 84.8682 415.455C84.7354 415.588 84.6621 415.779 84.6484 416.029V416.059H83.8135V416.029C83.8135 415.617 83.9629 415.284 84.2617 415.03C84.5605 414.774 84.9365 414.646 85.3896 414.646C85.8467 414.646 86.208 414.76 86.4736 414.986C86.7412 415.213 86.875 415.49 86.875 415.818C86.875 416.084 86.8037 416.326 86.6611 416.545C86.5205 416.764 86.3291 416.989 86.0869 417.222L84.9092 418.364H86.9863V419H83.8135ZM87.3467 417.535V416.196C87.3467 415.733 87.4775 415.359 87.7393 415.074C88.0029 414.789 88.3809 414.646 88.873 414.646C89.3613 414.646 89.7383 414.789 90.0039 415.074C90.2715 415.359 90.4053 415.733 90.4053 416.196V417.535C90.4053 417.998 90.2715 418.373 90.0039 418.66C89.7383 418.945 89.3613 419.088 88.873 419.088C88.3809 419.088 88.0029 418.945 87.7393 418.66C87.4775 418.373 87.3467 417.998 87.3467 417.535ZM88.1875 417.564C88.1875 417.828 88.2393 418.046 88.3428 418.218C88.4463 418.39 88.623 418.476 88.873 418.476C89.123 418.476 89.3008 418.39 89.4062 418.218C89.5117 418.046 89.5645 417.828 89.5645 417.564V416.167C89.5645 415.905 89.5117 415.688 89.4062 415.517C89.3008 415.343 89.123 415.256 88.873 415.256C88.623 415.256 88.4463 415.343 88.3428 415.517C88.2393 415.688 88.1875 415.905 88.1875 416.167V417.564ZM91.0557 419V414.5H91.8496V417.069L92.9922 415.771H93.877L91.8496 417.945V419H91.0557ZM93.0801 419L91.9521 417.397L92.4854 416.82L94.0527 419H93.0801Z" fill="#8E97A6"/>
<path d="M83.7578 396.831V396.802H84.5869V396.831C84.5869 397.038 84.6543 397.199 84.7891 397.314C84.9238 397.428 85.1152 397.484 85.3633 397.484C85.582 397.484 85.7637 397.427 85.9082 397.312C86.0527 397.196 86.125 397.019 86.125 396.778C86.125 396.546 86.043 396.371 85.8789 396.254C85.7168 396.135 85.5088 396.075 85.2549 396.075H84.8096V395.486H85.2256C85.4561 395.486 85.6406 395.43 85.7793 395.316C85.918 395.203 85.9873 395.046 85.9873 394.845C85.9873 394.642 85.9268 394.492 85.8057 394.396C85.6865 394.299 85.5391 394.25 85.3633 394.25C85.1582 394.25 84.9971 394.301 84.8799 394.402C84.7627 394.502 84.7041 394.646 84.7041 394.833V394.862H83.8721V394.833C83.8721 394.507 84.0088 394.228 84.2822 393.995C84.5576 393.763 84.918 393.646 85.3633 393.646C85.8438 393.646 86.207 393.754 86.4531 393.969C86.6992 394.184 86.8223 394.461 86.8223 394.801C86.8223 394.992 86.7666 395.174 86.6553 395.346C86.5459 395.516 86.3711 395.652 86.1309 395.756V395.768C86.3848 395.832 86.5879 395.954 86.7402 396.134C86.8926 396.313 86.9688 396.536 86.9688 396.802C86.9688 397.202 86.8135 397.517 86.5029 397.745C86.1924 397.974 85.8125 398.088 85.3633 398.088C84.8516 398.088 84.4561 397.97 84.1768 397.733C83.8975 397.497 83.7578 397.196 83.7578 396.831ZM87.3467 396.535V395.196C87.3467 394.733 87.4775 394.359 87.7393 394.074C88.0029 393.789 88.3809 393.646 88.873 393.646C89.3613 393.646 89.7383 393.789 90.0039 394.074C90.2715 394.359 90.4053 394.733 90.4053 395.196V396.535C90.4053 396.998 90.2715 397.373 90.0039 397.66C89.7383 397.945 89.3613 398.088 88.873 398.088C88.3809 398.088 88.0029 397.945 87.7393 397.66C87.4775 397.373 87.3467 396.998 87.3467 396.535ZM88.1875 396.564C88.1875 396.828 88.2393 397.046 88.3428 397.218C88.4463 397.39 88.623 397.476 88.873 397.476C89.123 397.476 89.3008 397.39 89.4062 397.218C89.5117 397.046 89.5645 396.828 89.5645 396.564V395.167C89.5645 394.905 89.5117 394.688 89.4062 394.517C89.3008 394.343 89.123 394.256 88.873 394.256C88.623 394.256 88.4463 394.343 88.3428 394.517C88.2393 394.688 88.1875 394.905 88.1875 395.167V396.564ZM91.0557 398V393.5H91.8496V396.069L92.9922 394.771H93.877L91.8496 396.945V398H91.0557ZM93.0801 398L91.9521 396.397L92.4854 395.82L94.0527 398H93.0801Z" fill="#8E97A6"/>
<path d="M132.955 470V465.734H135.94V466.329H133.778V467.647H135.662V468.245H133.778V470H132.955ZM136.295 468.43V468.336C136.295 467.85 136.443 467.452 136.74 467.144C137.037 466.835 137.428 466.681 137.912 466.681C138.404 466.681 138.783 466.825 139.049 467.114C139.316 467.403 139.45 467.793 139.45 468.283V468.582H136.846V468.04H138.65L138.647 468.011C138.646 467.827 138.588 467.653 138.475 467.489C138.363 467.325 138.171 467.243 137.897 467.243C137.64 467.243 137.439 467.349 137.297 467.56C137.156 467.771 137.086 468.029 137.086 468.336V468.43C137.086 468.736 137.161 468.995 137.312 469.206C137.462 469.417 137.691 469.522 138 469.522C138.197 469.522 138.367 469.479 138.51 469.394C138.654 469.308 138.77 469.205 138.855 469.086L139.377 469.484C139.275 469.639 139.104 469.778 138.861 469.903C138.621 470.026 138.334 470.088 138 470.088C137.451 470.088 137.029 469.934 136.734 469.625C136.441 469.316 136.295 468.918 136.295 468.43ZM140.074 470V465.5H140.871V467.12C140.961 466.993 141.088 466.894 141.252 466.821C141.418 466.747 141.616 466.71 141.847 466.71C142.282 466.71 142.632 466.864 142.896 467.173C143.159 467.479 143.291 467.867 143.291 468.336V468.43C143.291 468.902 143.159 469.292 142.896 469.599C142.632 469.905 142.282 470.059 141.847 470.059C141.616 470.059 141.413 470.016 141.237 469.93C141.063 469.844 140.938 469.737 140.859 469.61H140.845L140.821 470H140.074ZM140.871 468.963C140.93 469.096 141.026 469.214 141.161 469.317C141.296 469.419 141.458 469.47 141.647 469.47C141.931 469.47 142.139 469.37 142.271 469.171C142.406 468.972 142.474 468.725 142.474 468.43V468.336C142.474 468.045 142.406 467.8 142.271 467.601C142.139 467.399 141.931 467.299 141.647 467.299C141.458 467.299 141.296 467.351 141.161 467.454C141.026 467.558 140.93 467.675 140.871 467.806V468.963Z" fill="#8E97A6"/>
<path d="M155.741 470V465.734H156.805L157.839 468.567C157.862 468.63 157.885 468.694 157.906 468.761C157.93 468.825 157.951 468.892 157.971 468.96H157.994C158.014 468.892 158.034 468.825 158.056 468.761C158.077 468.694 158.1 468.63 158.123 468.567L159.122 465.734H160.229V470H159.418V467.108C159.418 467.044 159.419 466.972 159.421 466.892C159.425 466.812 159.431 466.74 159.438 466.678H159.406C159.389 466.74 159.367 466.812 159.342 466.892C159.318 466.972 159.296 467.044 159.274 467.108L158.243 470H157.575L156.518 467.103C156.496 467.038 156.475 466.966 156.453 466.886C156.432 466.806 156.416 466.733 156.406 466.669H156.371C156.377 466.733 156.383 466.806 156.389 466.886C156.395 466.966 156.397 467.038 156.397 467.103V470H155.741ZM160.985 469.051C160.985 468.717 161.132 468.456 161.425 468.269C161.718 468.081 162.089 467.987 162.538 467.987H163.218V467.741C163.218 467.589 163.17 467.465 163.074 467.369C162.98 467.273 162.82 467.226 162.594 467.226C162.367 467.226 162.204 467.271 162.104 467.36C162.007 467.45 161.958 467.554 161.958 467.671V467.688H161.161V467.671C161.161 467.405 161.292 467.174 161.554 466.977C161.815 466.779 162.168 466.681 162.611 466.681C163.053 466.681 163.396 466.77 163.643 466.947C163.889 467.125 164.012 467.39 164.012 467.741V469.297C164.012 469.424 164.021 469.544 164.041 469.657C164.062 469.769 164.091 469.867 164.126 469.953V470H163.347C163.319 469.951 163.295 469.888 163.273 469.81C163.252 469.729 163.238 469.65 163.232 469.572C163.158 469.701 163.032 469.814 162.854 469.912C162.677 470.01 162.452 470.059 162.181 470.059C161.851 470.059 161.568 469.973 161.334 469.801C161.102 469.627 160.985 469.377 160.985 469.051ZM161.782 469.024C161.782 469.177 161.829 469.297 161.923 469.385C162.019 469.471 162.165 469.514 162.362 469.514C162.577 469.514 162.773 469.446 162.951 469.312C163.129 469.177 163.218 469.033 163.218 468.881V468.482H162.594C162.328 468.482 162.126 468.531 161.987 468.629C161.851 468.727 161.782 468.858 161.782 469.024ZM164.905 470V466.769H165.652L165.676 467.149H165.69C165.767 467.024 165.866 466.915 165.989 466.821C166.114 466.728 166.263 466.681 166.435 466.681C166.478 466.681 166.521 466.686 166.566 466.695C166.613 466.705 166.646 466.715 166.666 466.725V467.398C166.625 467.391 166.583 467.385 166.54 467.381C166.499 467.377 166.453 467.375 166.402 467.375C166.232 467.375 166.087 467.42 165.966 467.51C165.847 467.598 165.759 467.707 165.702 467.838V470H164.905Z" fill="#8E97A6"/>
<path d="M179.426 470L180.961 465.714H181.854L183.396 470H182.52L181.482 466.927C181.457 466.854 181.435 466.785 181.415 466.719C181.396 466.652 181.377 466.584 181.359 466.514H181.333C181.317 466.584 181.299 466.652 181.277 466.719C181.258 466.785 181.235 466.854 181.21 466.927L180.173 470H179.426ZM180.146 468.992L180.366 468.395L182.391 468.397L182.61 468.995L180.146 468.992ZM183.82 471.219V466.769H184.564L184.588 467.158H184.603C184.681 467.033 184.807 466.928 184.98 466.842C185.156 466.754 185.358 466.71 185.587 466.71C186.026 466.71 186.378 466.864 186.642 467.173C186.905 467.479 187.037 467.867 187.037 468.336V468.43C187.037 468.902 186.905 469.292 186.642 469.599C186.378 469.905 186.028 470.059 185.593 470.059C185.362 470.059 185.164 470.022 184.998 469.95C184.834 469.876 184.707 469.775 184.617 469.648V471.219H183.82ZM184.617 468.963C184.676 469.096 184.772 469.214 184.907 469.317C185.042 469.419 185.204 469.47 185.394 469.47C185.677 469.47 185.885 469.371 186.018 469.174C186.152 468.975 186.22 468.727 186.22 468.43V468.336C186.22 468.041 186.152 467.795 186.018 467.598C185.885 467.398 185.677 467.299 185.394 467.299C185.204 467.299 185.042 467.351 184.907 467.454C184.772 467.558 184.676 467.675 184.617 467.806V468.963ZM187.717 470V466.769H188.464L188.487 467.149H188.502C188.578 467.024 188.678 466.915 188.801 466.821C188.926 466.728 189.074 466.681 189.246 466.681C189.289 466.681 189.333 466.686 189.378 466.695C189.425 466.705 189.458 466.715 189.478 466.725V467.398C189.437 467.391 189.395 467.385 189.352 467.381C189.311 467.377 189.265 467.375 189.214 467.375C189.044 467.375 188.898 467.42 188.777 467.51C188.658 467.598 188.57 467.707 188.514 467.838V470H187.717Z" fill="#8E97A6"/>
<path d="M201.787 470V465.734H202.851L203.885 468.567C203.908 468.63 203.931 468.694 203.952 468.761C203.976 468.825 203.997 468.892 204.017 468.96H204.04C204.06 468.892 204.08 468.825 204.102 468.761C204.123 468.694 204.146 468.63 204.169 468.567L205.168 465.734H206.275V470H205.464V467.108C205.464 467.044 205.465 466.972 205.467 466.892C205.471 466.812 205.477 466.74 205.484 466.678H205.452C205.435 466.74 205.413 466.812 205.388 466.892C205.364 466.972 205.342 467.044 205.32 467.108L204.289 470H203.621L202.563 467.103C202.542 467.038 202.521 466.966 202.499 466.886C202.478 466.806 202.462 466.733 202.452 466.669H202.417C202.423 466.733 202.429 466.806 202.435 466.886C202.44 466.966 202.443 467.038 202.443 467.103V470H201.787ZM207.031 469.051C207.031 468.717 207.178 468.456 207.471 468.269C207.764 468.081 208.135 467.987 208.584 467.987H209.264V467.741C209.264 467.589 209.216 467.465 209.12 467.369C209.026 467.273 208.866 467.226 208.64 467.226C208.413 467.226 208.25 467.271 208.15 467.36C208.053 467.45 208.004 467.554 208.004 467.671V467.688H207.207V467.671C207.207 467.405 207.338 467.174 207.6 466.977C207.861 466.779 208.214 466.681 208.657 466.681C209.099 466.681 209.442 466.77 209.688 466.947C209.935 467.125 210.058 467.39 210.058 467.741V469.297C210.058 469.424 210.067 469.544 210.087 469.657C210.108 469.769 210.137 469.867 210.172 469.953V470H209.393C209.365 469.951 209.341 469.888 209.319 469.81C209.298 469.729 209.284 469.65 209.278 469.572C209.204 469.701 209.078 469.814 208.9 469.912C208.723 470.01 208.498 470.059 208.227 470.059C207.896 470.059 207.614 469.973 207.38 469.801C207.147 469.627 207.031 469.377 207.031 469.051ZM207.828 469.024C207.828 469.177 207.875 469.297 207.969 469.385C208.064 469.471 208.211 469.514 208.408 469.514C208.623 469.514 208.819 469.446 208.997 469.312C209.175 469.177 209.264 469.033 209.264 468.881V468.482H208.64C208.374 468.482 208.172 468.531 208.033 468.629C207.896 468.727 207.828 468.858 207.828 469.024ZM210.74 471.219V470.633C210.793 470.65 210.858 470.666 210.937 470.68C211.017 470.695 211.088 470.703 211.15 470.703C211.299 470.703 211.422 470.655 211.52 470.56C211.619 470.466 211.717 470.27 211.812 469.971H211.742L210.453 466.769H211.25L211.991 468.729C212.021 468.807 212.049 468.889 212.076 468.975C212.105 469.061 212.127 469.144 212.141 469.224H212.158C212.172 469.144 212.191 469.062 212.217 468.978C212.244 468.892 212.271 468.81 212.299 468.731L212.984 466.769H213.755L212.322 470.41C212.213 470.684 212.066 470.898 211.883 471.055C211.701 471.213 211.471 471.292 211.191 471.292C211.107 471.292 211.025 471.284 210.945 471.269C210.867 471.255 210.799 471.238 210.74 471.219Z" fill="#8E97A6"/>
<path d="M224.454 468.679V468.649H225.277V468.679C225.277 468.94 225.341 469.139 225.468 469.273C225.597 469.406 225.778 469.473 226.013 469.473C226.247 469.473 226.429 469.397 226.558 469.247C226.687 469.095 226.751 468.878 226.751 468.597V465.734H227.574V468.597C227.574 469.056 227.432 469.419 227.146 469.687C226.861 469.954 226.483 470.088 226.013 470.088C225.544 470.088 225.167 469.963 224.882 469.713C224.597 469.463 224.454 469.118 224.454 468.679ZM228.427 468.746V466.769H229.224V468.752C229.224 469.008 229.277 469.19 229.385 469.3C229.492 469.409 229.645 469.464 229.842 469.464C230.008 469.464 230.155 469.417 230.284 469.323C230.415 469.228 230.518 469.105 230.592 468.957V466.769H231.389V470H230.642L230.618 469.602H230.604C230.488 469.752 230.343 469.866 230.167 469.944C229.993 470.021 229.804 470.059 229.599 470.059C229.241 470.059 228.956 469.958 228.743 469.757C228.532 469.556 228.427 469.219 228.427 468.746ZM232.253 470V466.769H233L233.023 467.167H233.038C233.151 467.019 233.295 466.905 233.469 466.827C233.643 466.749 233.833 466.71 234.04 466.71C234.397 466.71 234.683 466.81 234.896 467.009C235.108 467.208 235.215 467.543 235.215 468.014V470H234.418V468.008C234.418 467.754 234.364 467.573 234.257 467.466C234.149 467.358 233.997 467.305 233.8 467.305C233.632 467.305 233.483 467.353 233.354 467.448C233.226 467.542 233.124 467.663 233.05 467.812V470H232.253Z" fill="#8E97A6"/>
<path d="M103 460L120.5 439.5L137 443L160.5 412L182 439.5H205.5L225 423.5L241 439.5" stroke="#0067FF"/>
<rect x="333.5" y="379.5" width="162" height="52" rx="7.5" fill="white" stroke="#0067FF"/>
<rect x="356" y="412" width="92" height="7" rx="3.5" fill="#E5E8ED"/>
<path d="M356.83 402V394.891H359.286C360.103 394.891 360.73 395.089 361.166 395.486C361.605 395.88 361.825 396.406 361.825 397.063C361.825 397.721 361.605 398.252 361.166 398.655C360.73 399.056 360.103 399.256 359.286 399.256H357.812V402H356.83ZM357.812 398.44H359.286C359.866 398.44 360.271 398.307 360.502 398.04C360.733 397.773 360.849 397.448 360.849 397.063C360.849 396.679 360.733 396.357 360.502 396.097C360.271 395.836 359.866 395.706 359.286 395.706H357.812V398.44ZM362.797 402V396.741H363.656L363.7 397.42H363.725C363.865 397.202 364.047 397.01 364.271 396.844C364.496 396.678 364.765 396.595 365.077 396.595C365.152 396.595 365.23 396.603 365.312 396.619C365.393 396.635 365.45 396.652 365.482 396.668V397.562C365.417 397.549 365.347 397.539 365.272 397.532C365.198 397.526 365.115 397.522 365.023 397.522C364.714 397.522 364.451 397.601 364.232 397.757C364.014 397.913 363.852 398.108 363.744 398.343V402H362.797ZM365.946 399.446V399.29C365.946 398.499 366.177 397.853 366.64 397.352C367.105 396.847 367.725 396.595 368.5 396.595C369.278 396.595 369.898 396.847 370.36 397.352C370.826 397.853 371.059 398.499 371.059 399.29V399.446C371.059 400.241 370.826 400.89 370.36 401.395C369.898 401.896 369.28 402.146 368.505 402.146C367.727 402.146 367.105 401.896 366.64 401.395C366.177 400.89 365.946 400.241 365.946 399.446ZM366.918 399.29V399.451C366.918 399.985 367.05 400.438 367.313 400.809C367.58 401.176 367.978 401.36 368.505 401.36C369.029 401.36 369.424 401.176 369.691 400.809C369.958 400.438 370.092 399.983 370.092 399.446V399.29C370.092 398.759 369.958 398.31 369.691 397.942C369.424 397.571 369.029 397.386 368.505 397.386C367.978 397.386 367.58 397.571 367.313 397.942C367.05 398.31 366.918 398.759 366.918 399.29ZM371.894 399.446V399.29C371.894 398.525 372.099 397.894 372.509 397.396C372.922 396.894 373.471 396.644 374.154 396.644C374.538 396.644 374.864 396.71 375.131 396.844C375.401 396.974 375.618 397.148 375.78 397.366V394.5H376.728V402H375.863L375.824 401.316H375.8C375.66 401.531 375.447 401.715 375.16 401.868C374.874 402.021 374.538 402.098 374.154 402.098C373.471 402.098 372.922 401.849 372.509 401.351C372.099 400.849 371.894 400.215 371.894 399.446ZM372.865 399.451C372.865 399.975 372.986 400.416 373.227 400.774C373.467 401.132 373.848 401.312 374.369 401.312C374.714 401.312 375.009 401.22 375.253 401.038C375.497 400.856 375.673 400.647 375.78 400.413V398.328C375.673 398.097 375.497 397.89 375.253 397.708C375.009 397.526 374.714 397.435 374.369 397.435C373.848 397.435 373.467 397.614 373.227 397.972C372.986 398.33 372.865 398.769 372.865 399.29V399.451ZM378.129 400.081V396.741H379.076V400.091C379.076 400.521 379.174 400.828 379.369 401.014C379.568 401.199 379.849 401.292 380.214 401.292C380.52 401.292 380.79 401.211 381.024 401.048C381.259 400.885 381.444 400.677 381.581 400.423V396.741H382.528V402H381.669L381.63 401.307H381.601C381.402 401.557 381.16 401.753 380.873 401.893C380.587 402.029 380.269 402.098 379.921 402.098C379.377 402.098 378.943 401.943 378.617 401.634C378.292 401.325 378.129 400.807 378.129 400.081ZM383.671 399.446V399.29C383.671 398.499 383.894 397.853 384.34 397.352C384.786 396.847 385.399 396.595 386.181 396.595C386.903 396.595 387.452 396.784 387.826 397.161C388.201 397.539 388.388 397.96 388.388 398.426V398.45H387.465V398.426C387.465 398.149 387.362 397.907 387.157 397.698C386.955 397.487 386.628 397.381 386.176 397.381C385.648 397.381 385.261 397.566 385.014 397.938C384.766 398.305 384.643 398.756 384.643 399.29V399.451C384.643 399.985 384.766 400.438 385.014 400.809C385.261 401.176 385.648 401.36 386.176 401.36C386.628 401.36 386.955 401.256 387.157 401.048C387.362 400.836 387.465 400.594 387.465 400.32V400.296H388.388V400.32C388.388 400.786 388.199 401.207 387.821 401.585C387.447 401.959 386.898 402.146 386.176 402.146C385.398 402.146 384.786 401.896 384.34 401.395C383.894 400.89 383.671 400.241 383.671 399.446ZM388.744 397.483V396.741H391.825V397.483H388.744ZM389.711 400.691V397.186V397.039V395.594H390.658V400.691C390.658 400.919 390.705 401.082 390.8 401.18C390.897 401.277 391.047 401.326 391.249 401.326C391.343 401.326 391.436 401.316 391.527 401.297C391.622 401.277 391.716 401.251 391.811 401.219V402C391.723 402.039 391.607 402.073 391.464 402.103C391.324 402.132 391.171 402.146 391.005 402.146C390.611 402.146 390.297 402.029 390.062 401.795C389.828 401.561 389.711 401.193 389.711 400.691ZM394.931 399.446V399.29C394.931 398.499 395.162 397.853 395.624 397.352C396.09 396.847 396.71 396.595 397.484 396.595C398.262 396.595 398.882 396.847 399.345 397.352C399.81 397.853 400.043 398.499 400.043 399.29V399.446C400.043 400.241 399.81 400.89 399.345 401.395C398.882 401.896 398.264 402.146 397.489 402.146C396.711 402.146 396.09 401.896 395.624 401.395C395.162 400.89 394.931 400.241 394.931 399.446ZM395.902 399.29V399.451C395.902 399.985 396.034 400.438 396.298 400.809C396.565 401.176 396.962 401.36 397.489 401.36C398.013 401.36 398.409 401.176 398.676 400.809C398.943 400.438 399.076 399.983 399.076 399.446V399.29C399.076 398.759 398.943 398.31 398.676 397.942C398.409 397.571 398.013 397.386 397.489 397.386C396.962 397.386 396.565 397.571 396.298 397.942C396.034 398.31 395.902 398.759 395.902 399.29ZM401.186 402V396.741H402.045L402.089 397.43H402.113C402.315 397.182 402.558 396.99 402.841 396.854C403.127 396.714 403.443 396.644 403.788 396.644C404.338 396.644 404.774 396.798 405.097 397.107C405.422 397.417 405.585 397.934 405.585 398.66V402H404.638V398.65C404.638 398.221 404.538 397.915 404.34 397.732C404.145 397.547 403.865 397.454 403.5 397.454C403.191 397.454 402.919 397.535 402.685 397.698C402.45 397.858 402.266 398.066 402.133 398.323V402H401.186ZM406.679 399.446V399.29C406.679 398.499 406.903 397.853 407.353 397.352C407.802 396.847 408.394 396.595 409.13 396.595C409.872 396.595 410.442 396.831 410.839 397.303C411.236 397.771 411.435 398.405 411.435 399.202V399.603H407.265V398.841H410.478V398.812C410.478 398.405 410.372 398.064 410.16 397.791C409.952 397.514 409.613 397.376 409.145 397.376C408.65 397.376 408.275 397.562 408.021 397.933C407.768 398.3 407.641 398.753 407.641 399.29V399.446C407.641 399.983 407.774 400.438 408.041 400.809C408.308 401.18 408.721 401.365 409.281 401.365C409.626 401.365 409.923 401.294 410.17 401.15C410.421 401.007 410.622 400.836 410.775 400.638L411.386 401.146C411.216 401.393 410.951 401.622 410.59 401.834C410.232 402.042 409.796 402.146 409.281 402.146C408.441 402.146 407.797 401.896 407.348 401.395C406.902 400.89 406.679 400.241 406.679 399.446Z" fill="#0067FF"/>
<rect x="333.5" y="440.5" width="162" height="43" rx="7.5" stroke="#E5E8ED"/>
<path d="M356.83 460V452.891H359.286C360.103 452.891 360.73 453.089 361.166 453.486C361.605 453.88 361.825 454.406 361.825 455.063C361.825 455.721 361.605 456.252 361.166 456.655C360.73 457.056 360.103 457.256 359.286 457.256H357.812V460H356.83ZM357.812 456.44H359.286C359.866 456.44 360.271 456.307 360.502 456.04C360.733 455.773 360.849 455.448 360.849 455.063C360.849 454.679 360.733 454.357 360.502 454.097C360.271 453.836 359.866 453.706 359.286 453.706H357.812V456.44ZM362.797 460V454.741H363.656L363.7 455.42H363.725C363.865 455.202 364.047 455.01 364.271 454.844C364.496 454.678 364.765 454.595 365.077 454.595C365.152 454.595 365.23 454.603 365.312 454.619C365.393 454.635 365.45 454.652 365.482 454.668V455.562C365.417 455.549 365.347 455.539 365.272 455.532C365.198 455.526 365.115 455.522 365.023 455.522C364.714 455.522 364.451 455.601 364.232 455.757C364.014 455.913 363.852 456.108 363.744 456.343V460H362.797ZM365.946 457.446V457.29C365.946 456.499 366.177 455.853 366.64 455.352C367.105 454.847 367.725 454.595 368.5 454.595C369.278 454.595 369.898 454.847 370.36 455.352C370.826 455.853 371.059 456.499 371.059 457.29V457.446C371.059 458.241 370.826 458.89 370.36 459.395C369.898 459.896 369.28 460.146 368.505 460.146C367.727 460.146 367.105 459.896 366.64 459.395C366.177 458.89 365.946 458.241 365.946 457.446ZM366.918 457.29V457.451C366.918 457.985 367.05 458.438 367.313 458.809C367.58 459.176 367.978 459.36 368.505 459.36C369.029 459.36 369.424 459.176 369.691 458.809C369.958 458.438 370.092 457.983 370.092 457.446V457.29C370.092 456.759 369.958 456.31 369.691 455.942C369.424 455.571 369.029 455.386 368.505 455.386C367.978 455.386 367.58 455.571 367.313 455.942C367.05 456.31 366.918 456.759 366.918 457.29ZM371.894 457.446V457.29C371.894 456.525 372.099 455.894 372.509 455.396C372.922 454.894 373.471 454.644 374.154 454.644C374.538 454.644 374.864 454.71 375.131 454.844C375.401 454.974 375.618 455.148 375.78 455.366V452.5H376.728V460H375.863L375.824 459.316H375.8C375.66 459.531 375.447 459.715 375.16 459.868C374.874 460.021 374.538 460.098 374.154 460.098C373.471 460.098 372.922 459.849 372.509 459.351C372.099 458.849 371.894 458.215 371.894 457.446ZM372.865 457.451C372.865 457.975 372.986 458.416 373.227 458.774C373.467 459.132 373.848 459.312 374.369 459.312C374.714 459.312 375.009 459.22 375.253 459.038C375.497 458.856 375.673 458.647 375.78 458.413V456.328C375.673 456.097 375.497 455.89 375.253 455.708C375.009 455.526 374.714 455.435 374.369 455.435C373.848 455.435 373.467 455.614 373.227 455.972C372.986 456.33 372.865 456.769 372.865 457.29V457.451ZM378.129 458.081V454.741H379.076V458.091C379.076 458.521 379.174 458.828 379.369 459.014C379.568 459.199 379.849 459.292 380.214 459.292C380.52 459.292 380.79 459.211 381.024 459.048C381.259 458.885 381.444 458.677 381.581 458.423V454.741H382.528V460H381.669L381.63 459.307H381.601C381.402 459.557 381.16 459.753 380.873 459.893C380.587 460.029 380.269 460.098 379.921 460.098C379.377 460.098 378.943 459.943 378.617 459.634C378.292 459.325 378.129 458.807 378.129 458.081ZM383.671 457.446V457.29C383.671 456.499 383.894 455.853 384.34 455.352C384.786 454.847 385.399 454.595 386.181 454.595C386.903 454.595 387.452 454.784 387.826 455.161C388.201 455.539 388.388 455.96 388.388 456.426V456.45H387.465V456.426C387.465 456.149 387.362 455.907 387.157 455.698C386.955 455.487 386.628 455.381 386.176 455.381C385.648 455.381 385.261 455.566 385.014 455.938C384.766 456.305 384.643 456.756 384.643 457.29V457.451C384.643 457.985 384.766 458.438 385.014 458.809C385.261 459.176 385.648 459.36 386.176 459.36C386.628 459.36 386.955 459.256 387.157 459.048C387.362 458.836 387.465 458.594 387.465 458.32V458.296H388.388V458.32C388.388 458.786 388.199 459.207 387.821 459.585C387.447 459.959 386.898 460.146 386.176 460.146C385.398 460.146 384.786 459.896 384.34 459.395C383.894 458.89 383.671 458.241 383.671 457.446ZM388.744 455.483V454.741H391.825V455.483H388.744ZM389.711 458.691V455.186V455.039V453.594H390.658V458.691C390.658 458.919 390.705 459.082 390.8 459.18C390.897 459.277 391.047 459.326 391.249 459.326C391.343 459.326 391.436 459.316 391.527 459.297C391.622 459.277 391.716 459.251 391.811 459.219V460C391.723 460.039 391.607 460.073 391.464 460.103C391.324 460.132 391.171 460.146 391.005 460.146C390.611 460.146 390.297 460.029 390.062 459.795C389.828 459.561 389.711 459.193 389.711 458.691ZM394.516 455.483V454.741H397.597V455.483H394.516ZM395.482 458.691V455.186V455.039V453.594H396.43V458.691C396.43 458.919 396.477 459.082 396.571 459.18C396.669 459.277 396.819 459.326 397.021 459.326C397.115 459.326 397.208 459.316 397.299 459.297C397.393 459.277 397.488 459.251 397.582 459.219V460C397.494 460.039 397.379 460.073 397.235 460.103C397.095 460.132 396.942 460.146 396.776 460.146C396.382 460.146 396.068 460.029 395.834 459.795C395.6 459.561 395.482 459.193 395.482 458.691ZM397.968 454.741H398.9L399.877 458.145C399.913 458.275 399.945 458.397 399.975 458.511C400.007 458.625 400.033 458.747 400.053 458.877H400.082C400.105 458.747 400.131 458.625 400.16 458.511C400.189 458.397 400.225 458.275 400.268 458.145L401.425 454.741H402.26L403.427 458.145C403.472 458.275 403.51 458.397 403.539 458.511C403.568 458.625 403.594 458.747 403.617 458.877H403.646C403.666 458.747 403.69 458.625 403.72 458.511C403.749 458.397 403.783 458.275 403.822 458.145L404.789 454.741H405.658L404.008 460H403.227L402.069 456.558C402.024 456.427 401.981 456.297 401.942 456.167C401.903 456.037 401.866 455.907 401.83 455.776H401.801C401.765 455.907 401.728 456.037 401.688 456.167C401.649 456.297 401.607 456.427 401.562 456.558L400.399 460H399.618L397.968 454.741ZM406.2 457.446V457.29C406.2 456.499 406.431 455.853 406.894 455.352C407.359 454.847 407.979 454.595 408.754 454.595C409.532 454.595 410.152 454.847 410.614 455.352C411.08 455.853 411.312 456.499 411.312 457.29V457.446C411.312 458.241 411.08 458.89 410.614 459.395C410.152 459.896 409.534 460.146 408.759 460.146C407.981 460.146 407.359 459.896 406.894 459.395C406.431 458.89 406.2 458.241 406.2 457.446ZM407.172 457.29V457.451C407.172 457.985 407.304 458.438 407.567 458.809C407.834 459.176 408.231 459.36 408.759 459.36C409.283 459.36 409.678 459.176 409.945 458.809C410.212 458.438 410.346 457.983 410.346 457.446V457.29C410.346 456.759 410.212 456.31 409.945 455.942C409.678 455.571 409.283 455.386 408.759 455.386C408.231 455.386 407.834 455.571 407.567 455.942C407.304 456.31 407.172 456.759 407.172 457.29Z" fill="#4B5768"/>
<rect x="356" y="468" width="72" height="7" rx="3.5" fill="#E5E8ED"/>
<defs>
<filter id="filter0_d_908_27383" x="3.13699" y="286.568" width="333.726" height="309.726" filterUnits="userSpaceOnUse" color-interpolation-filters="sRGB">
<feFlood flood-opacity="0" result="BackgroundImageFix"/>
<feColorMatrix in="SourceAlpha" type="matrix" values="0 0 0 0 0 0 0 0 0 0 0 0 0 0 0 0 0 0 127 0" result="hardAlpha"/>
<feOffset dy="27.4315"/>
<feGaussianBlur stdDeviation="27.4315"/>
<feComposite in2="hardAlpha" operator="out"/>
<feColorMatrix type="matrix" values="0 0 0 0 0 0 0 0 0 0.196875 0 0 0 0 0.495833 0 0 0 0.1 0"/>
<feBlend mode="normal" in2="BackgroundImageFix" result="effect1_dropShadow_908_27383"/>
<feBlend mode="normal" in="SourceGraphic" in2="effect1_dropShadow_908_27383" result="shape"/>
</filter>
<filter id="filter1_d_908_27383" x="247.137" y="286.568" width="333.726" height="309.726" filterUnits="userSpaceOnUse" color-interpolation-filters="sRGB">
<feFlood flood-opacity="0" result="BackgroundImageFix"/>
<feColorMatrix in="SourceAlpha" type="matrix" values="0 0 0 0 0 0 0 0 0 0 0 0 0 0 0 0 0 0 127 0" result="hardAlpha"/>
<feOffset dy="27.4315"/>
<feGaussianBlur stdDeviation="27.4315"/>
<feComposite in2="hardAlpha" operator="out"/>
<feColorMatrix type="matrix" values="0 0 0 0 0 0 0 0 0 0.196875 0 0 0 0 0.495833 0 0 0 0.1 0"/>
<feBlend mode="normal" in2="BackgroundImageFix" result="effect1_dropShadow_908_27383"/>
<feBlend mode="normal" in="SourceGraphic" in2="effect1_dropShadow_908_27383" result="shape"/>
</filter>
<filter id="filter2_d_908_27383" x="3.13699" y="26.5685" width="577.726" height="349.726" filterUnits="userSpaceOnUse" color-interpolation-filters="sRGB">
<feFlood flood-opacity="0" result="BackgroundImageFix"/>
<feColorMatrix in="SourceAlpha" type="matrix" values="0 0 0 0 0 0 0 0 0 0 0 0 0 0 0 0 0 0 127 0" result="hardAlpha"/>
<feOffset dy="27.4315"/>
<feGaussianBlur stdDeviation="27.4315"/>
<feComposite in2="hardAlpha" operator="out"/>
<feColorMatrix type="matrix" values="0 0 0 0 0 0 0 0 0 0.196875 0 0 0 0 0.495833 0 0 0 0.1 0"/>
<feBlend mode="normal" in2="BackgroundImageFix" result="effect1_dropShadow_908_27383"/>
<feBlend mode="normal" in="SourceGraphic" in2="effect1_dropShadow_908_27383" result="shape"/>
</filter>
<linearGradient id="paint0_linear_908_27383" x1="291.5" y1="0" x2="291.5" y2="584" gradientUnits="userSpaceOnUse">
<stop stop-color="#E5EFFE"/>
<stop offset="1" stop-color="#E5EFFE" stop-opacity="0"/>
</linearGradient>
<clipPath id="clip0_908_27383">
<rect width="212.862" height="125" fill="white" transform="translate(193.068 149)"/>
</clipPath>
</defs>
</svg>
