<svg width="583" height="584" viewBox="0 0 583 584" fill="none" xmlns="http://www.w3.org/2000/svg">
<ellipse cx="291.5" cy="292" rx="291.5" ry="292" fill="url(#paint0_linear_1902_12919)"/>
<g filter="url(#filter0_d_1902_12919)">
<circle cx="391" cy="382" r="92" fill="white"/>
</g>
<g filter="url(#filter1_d_1902_12919)">
<circle cx="192" cy="382" r="92" fill="white"/>
</g>
<g clip-path="url(#clip0_1902_12919)">
<path d="M211.188 367.883H198.695V370.117H211.188V367.883Z" fill="#0067FF"/>
<path d="M186.305 367.02C186.922 367.02 187.422 366.519 187.422 365.902V359.708C187.422 359.091 186.922 358.59 186.305 358.59C185.688 358.59 185.188 359.091 185.188 359.708V365.902C185.188 366.519 185.688 367.02 186.305 367.02Z" fill="#0067FF"/>
<path d="M180.109 367.02C180.726 367.02 181.227 366.519 181.227 365.902V359.708C181.227 359.091 180.726 358.59 180.109 358.59C179.492 358.59 178.992 359.091 178.992 359.708V365.902C178.992 366.519 179.492 367.02 180.109 367.02Z" fill="#0067FF"/>
<path d="M173.916 367.02C174.533 367.02 175.033 366.519 175.033 365.902V359.708C175.033 359.091 174.533 358.59 173.916 358.59C173.299 358.59 172.799 359.091 172.799 359.708V365.902C172.799 366.519 173.299 367.02 173.916 367.02Z" fill="#0067FF"/>
<path d="M201.792 352.396H192.5H167.617C167 352.396 166.5 352.896 166.5 353.513V372.097C166.5 372.714 167.021 372.751 167.638 372.751L192.518 372.686C193.135 372.686 193.617 372.714 193.617 372.097V354.63H201.792C202.409 354.63 202.91 354.13 202.91 353.513C202.91 352.896 202.409 352.396 201.792 352.396ZM191.383 371.517L168.734 371.646V354.63H191.383V371.517Z" fill="#0067FF"/>
<path d="M218.173 368.21C217.963 368 217.679 367.883 217.383 367.883L212.305 367.883V362.805C212.305 360.481 210.414 358.59 208.09 358.59H198.695C198.078 358.59 197.578 359.091 197.578 359.708V370.98H167.617C167 370.98 166.5 371.48 166.5 372.097V381.39C166.5 382.007 167 382.507 167.617 382.507H172.95C173.44 384.29 175.076 385.604 177.013 385.604C178.95 385.604 180.585 384.29 181.076 382.507H198.695H204.027C204.518 384.29 206.153 385.604 208.09 385.604C210.028 385.604 211.663 384.29 212.154 382.507H217.383C218 382.507 218.5 382.007 218.5 381.39V369C218.5 368.703 218.382 368.419 218.173 368.21ZM168.734 373.215H197.578V380.273H181.076C180.585 378.489 178.95 377.175 177.013 377.175C175.076 377.175 173.44 378.489 172.95 380.273H168.734V373.215ZM177.013 383.37C175.921 383.37 175.032 382.482 175.032 381.39C175.032 380.298 175.921 379.409 177.013 379.409C178.105 379.409 178.993 380.298 178.993 381.39C178.993 382.482 178.105 383.37 177.013 383.37ZM208.09 383.37C206.999 383.37 206.11 382.482 206.11 381.39C206.11 380.298 206.999 379.409 208.09 379.409C209.182 379.409 210.071 380.298 210.071 381.39C210.071 382.482 209.182 383.37 208.09 383.37ZM212.154 380.273C211.663 378.489 210.028 377.175 208.091 377.175C206.153 377.175 204.518 378.489 204.027 380.273H199.812V360.825H208.091C209.182 360.825 210.071 361.713 210.071 362.805V369C210.071 369.296 210.189 369.58 210.398 369.79C210.608 369.999 210.892 370.117 211.188 370.117L216.266 370.117V374.078H214.285C213.668 374.078 213.168 374.578 213.168 375.195C213.168 375.812 213.668 376.312 214.285 376.312H216.266V380.273H212.154Z" fill="#45D3DD"/>
</g>
<path d="M156.18 402.836V401.625H164.93V402.836H161.289V413H159.82V402.836H156.18ZM165.133 413V404.828H166.422L166.477 405.883H166.523C166.732 405.539 167.005 405.24 167.344 404.984C167.682 404.729 168.086 404.602 168.555 404.602C168.669 404.602 168.789 404.615 168.914 404.641C169.039 404.661 169.128 404.682 169.18 404.703V406.023C169.076 406.003 168.966 405.987 168.852 405.977C168.737 405.966 168.612 405.961 168.477 405.961C168.013 405.961 167.615 406.083 167.281 406.328C166.953 406.573 166.711 406.88 166.555 407.25V413H165.133ZM170.477 410.109V404.828H171.898V410.125C171.898 410.781 172.044 411.253 172.336 411.539C172.633 411.82 173.052 411.961 173.594 411.961C174.057 411.961 174.464 411.836 174.812 411.586C175.167 411.331 175.445 411.005 175.648 410.609V404.828H177.07V413H175.781L175.719 411.945H175.68C175.383 412.32 175.021 412.617 174.594 412.836C174.167 413.049 173.693 413.156 173.172 413.156C172.349 413.156 171.693 412.922 171.203 412.453C170.719 411.984 170.477 411.203 170.477 410.109ZM178.875 409.039V408.789C178.875 407.555 179.208 406.549 179.875 405.773C180.547 404.992 181.466 404.602 182.633 404.602C183.721 404.602 184.547 404.893 185.109 405.477C185.672 406.06 185.953 406.719 185.953 407.453V407.492H184.57V407.453C184.57 407.005 184.417 406.612 184.109 406.273C183.802 405.935 183.312 405.766 182.641 405.766C181.849 405.766 181.266 406.057 180.891 406.641C180.516 407.219 180.328 407.935 180.328 408.789V409.039C180.328 409.888 180.516 410.604 180.891 411.188C181.266 411.771 181.846 412.062 182.633 412.062C183.31 412.062 183.802 411.893 184.109 411.555C184.417 411.216 184.57 410.823 184.57 410.375V410.336H185.953V410.375C185.953 411.104 185.672 411.763 185.109 412.352C184.547 412.94 183.721 413.234 182.633 413.234C181.466 413.234 180.547 412.844 179.875 412.062C179.208 411.281 178.875 410.273 178.875 409.039ZM187.633 413V401.031H189.055V408.586L192.555 404.828H194.172L189.055 410.266V413H187.633ZM192.883 413L189.695 408.758L190.586 407.773L194.555 413H192.883ZM199.5 413V401.031H200.93V413H199.5ZM202.797 409.039V408.789C202.797 407.555 203.146 406.549 203.844 405.773C204.542 404.992 205.474 404.602 206.641 404.602C207.807 404.602 208.74 404.992 209.438 405.773C210.135 406.549 210.484 407.555 210.484 408.789V409.039C210.484 410.273 210.135 411.281 209.438 412.062C208.74 412.844 207.807 413.234 206.641 413.234C205.474 413.234 204.542 412.844 203.844 412.062C203.146 411.281 202.797 410.273 202.797 409.039ZM204.25 408.789V409.039C204.25 409.888 204.451 410.604 204.852 411.188C205.253 411.771 205.849 412.062 206.641 412.062C207.432 412.062 208.026 411.771 208.422 411.188C208.823 410.604 209.023 409.888 209.023 409.039V408.789C209.023 407.94 208.823 407.224 208.422 406.641C208.026 406.057 207.432 405.766 206.641 405.766C205.849 405.766 205.253 406.057 204.852 406.641C204.451 407.224 204.25 407.94 204.25 408.789ZM211.836 410.594C211.836 409.771 212.161 409.128 212.812 408.664C213.469 408.201 214.305 407.969 215.32 407.969H217.18V407.398C217.18 406.904 217.052 406.503 216.797 406.195C216.542 405.888 216.102 405.734 215.477 405.734C214.852 405.734 214.404 405.865 214.133 406.125C213.867 406.38 213.734 406.677 213.734 407.016V407.062H212.312V407.016C212.312 406.37 212.599 405.807 213.172 405.328C213.75 404.844 214.531 404.602 215.516 404.602C216.495 404.602 217.253 404.836 217.789 405.305C218.331 405.768 218.602 406.466 218.602 407.398V411.125C218.602 411.464 218.628 411.784 218.68 412.086C218.732 412.383 218.805 412.646 218.898 412.875V413H217.523C217.451 412.87 217.383 412.701 217.32 412.492C217.263 412.284 217.227 412.076 217.211 411.867C217.018 412.206 216.706 412.505 216.273 412.766C215.846 413.026 215.297 413.156 214.625 413.156C213.844 413.156 213.182 412.938 212.641 412.5C212.104 412.057 211.836 411.422 211.836 410.594ZM213.258 410.523C213.258 410.992 213.393 411.359 213.664 411.625C213.935 411.885 214.357 412.016 214.93 412.016C215.503 412.016 216.021 411.818 216.484 411.422C216.948 411.026 217.18 410.607 217.18 410.164V408.992H215.477C214.747 408.992 214.195 409.13 213.82 409.406C213.445 409.682 213.258 410.055 213.258 410.523ZM220.852 413V404.828H222.141L222.195 405.883H222.242C222.539 405.508 222.901 405.214 223.328 405C223.755 404.781 224.229 404.672 224.75 404.672C225.573 404.672 226.227 404.906 226.711 405.375C227.201 405.844 227.445 406.625 227.445 407.719V413H226.023V407.711C226.023 407.055 225.875 406.586 225.578 406.305C225.286 406.018 224.87 405.875 224.328 405.875C223.865 405.875 223.456 406 223.102 406.25C222.747 406.5 222.471 406.823 222.273 407.219V413H220.852Z" fill="#0067FF"/>
<path d="M77.488 169.212L50.8077 123C42.5923 127.743 29.8106 141.969 24.4467 148.489C66.0273 155.29 77.488 169.212 77.488 169.212Z" fill="#FF5E5A"/>
<path fill-rule="evenodd" clip-rule="evenodd" d="M530.301 429.34L530.105 429L492 451L514 489.105L514.34 488.909C510.862 467.737 516.704 445.936 530.301 429.34Z" fill="#00B2FF"/>
<g filter="url(#filter2_d_1902_12919)">
<circle cx="391" cy="188" r="92" fill="white"/>
</g>
<g clip-path="url(#clip1_1902_12919)">
<path d="M379.933 172.003C379.316 172.003 378.816 171.503 378.816 170.886V167.583C378.816 166.966 379.316 166.466 379.933 166.466C380.55 166.466 381.05 166.966 381.05 167.583V170.886C381.05 171.503 380.55 172.003 379.933 172.003Z" fill="#45D3DD"/>
<path d="M417.198 175.736L415.89 171.39C415.767 170.981 415.421 170.677 414.999 170.609L410.526 169.884L409.015 166.107C407.899 163.315 405.235 161.511 402.228 161.511H369.779C367.483 161.511 365.593 163.378 365.565 165.673C365.553 166.639 365.5 178.215 365.5 180.176C365.5 182.499 367.39 184.389 369.714 184.389H373.176C374.261 189.682 382.058 190.025 383.406 184.389H399.6C400.686 189.682 408.482 190.025 409.83 184.389C410.132 184.389 410.993 184.392 411.073 184.386C411.074 184.386 411.083 184.386 411.084 184.386C415.376 184.321 418.51 179.797 417.198 175.736ZM406.941 166.936L408.074 169.769H399.756L397.949 163.745H402.228C404.316 163.745 406.166 164.998 406.941 166.936ZM378.302 186.284C374.269 186.109 374.269 180.435 378.302 180.261C382.27 180.447 382.267 186.099 378.302 186.284ZM404.727 186.284C400.694 186.109 400.694 180.435 404.727 180.261C408.694 180.447 408.691 186.099 404.727 186.284ZM414.397 180.327C413.597 181.442 412.362 182.107 411.003 182.153C410.922 182.156 410.921 182.155 410.026 182.156H409.83C408.479 176.514 400.683 176.868 399.6 182.155H383.406C382.055 176.515 374.258 176.868 373.176 182.155H369.714C368.622 182.155 367.734 181.267 367.734 180.176C367.734 179.292 367.734 178.499 367.734 177.783H370.023C370.64 177.783 371.14 177.283 371.14 176.666C371.14 176.05 370.64 175.549 370.023 175.549H367.733C367.726 169.977 367.746 170.016 367.799 165.7C367.812 164.622 368.7 163.745 369.778 163.745H395.617L397.808 171.05V174.189C397.867 175.67 399.983 175.67 400.042 174.189V172.003H409.634L413.953 172.703L415.059 176.38C415.467 177.734 415.225 179.173 414.397 180.327Z" fill="#0067FF"/>
<path d="M373.326 166.466C372.709 166.466 372.209 166.966 372.209 167.583V170.886C372.209 171.503 372.709 172.003 373.326 172.003C373.943 172.003 374.443 171.503 374.443 170.886V167.583C374.443 166.966 373.943 166.466 373.326 166.466Z" fill="#45D3DD"/>
<path d="M386.539 166.466C385.922 166.466 385.422 166.966 385.422 167.583V170.886C385.422 171.503 385.922 172.003 386.539 172.003C387.156 172.003 387.656 171.503 387.656 170.886V167.583C387.656 166.966 387.156 166.466 386.539 166.466Z" fill="#45D3DD"/>
<path d="M415.059 176.38L414.809 175.549H413.17C412.553 175.549 412.053 176.049 412.053 176.666C412.053 177.283 412.553 177.783 413.17 177.783H415.25C415.26 177.315 415.199 176.843 415.059 176.38Z" fill="#0067FF"/>
</g>
<path d="M361 207.625H362.562L365.57 216.102C365.628 216.273 365.677 216.427 365.719 216.562C365.766 216.698 365.81 216.841 365.852 216.992H365.922C365.969 216.841 366.013 216.698 366.055 216.562C366.102 216.427 366.156 216.273 366.219 216.102L369.258 207.625H370.758L366.539 219.078H365.211L361 207.625ZM371.086 216.594C371.086 215.771 371.411 215.128 372.062 214.664C372.719 214.201 373.555 213.969 374.57 213.969H376.43V213.398C376.43 212.904 376.302 212.503 376.047 212.195C375.792 211.888 375.352 211.734 374.727 211.734C374.102 211.734 373.654 211.865 373.383 212.125C373.117 212.38 372.984 212.677 372.984 213.016V213.062H371.562V213.016C371.562 212.37 371.849 211.807 372.422 211.328C373 210.844 373.781 210.602 374.766 210.602C375.745 210.602 376.503 210.836 377.039 211.305C377.581 211.768 377.852 212.466 377.852 213.398V217.125C377.852 217.464 377.878 217.784 377.93 218.086C377.982 218.383 378.055 218.646 378.148 218.875V219H376.773C376.701 218.87 376.633 218.701 376.57 218.492C376.513 218.284 376.477 218.076 376.461 217.867C376.268 218.206 375.956 218.505 375.523 218.766C375.096 219.026 374.547 219.156 373.875 219.156C373.094 219.156 372.432 218.938 371.891 218.5C371.354 218.057 371.086 217.422 371.086 216.594ZM372.508 216.523C372.508 216.992 372.643 217.359 372.914 217.625C373.185 217.885 373.607 218.016 374.18 218.016C374.753 218.016 375.271 217.818 375.734 217.422C376.198 217.026 376.43 216.607 376.43 216.164V214.992H374.727C373.997 214.992 373.445 215.13 373.07 215.406C372.695 215.682 372.508 216.055 372.508 216.523ZM380.102 219V210.828H381.391L381.445 211.883H381.492C381.789 211.508 382.151 211.214 382.578 211C383.005 210.781 383.479 210.672 384 210.672C384.823 210.672 385.477 210.906 385.961 211.375C386.451 211.844 386.695 212.625 386.695 213.719V219H385.273V213.711C385.273 213.055 385.125 212.586 384.828 212.305C384.536 212.018 384.12 211.875 383.578 211.875C383.115 211.875 382.706 212 382.352 212.25C381.997 212.5 381.721 212.823 381.523 213.219V219H380.102ZM392.828 219V207.031H394.258V219H392.828ZM396.125 215.039V214.789C396.125 213.555 396.474 212.549 397.172 211.773C397.87 210.992 398.802 210.602 399.969 210.602C401.135 210.602 402.068 210.992 402.766 211.773C403.464 212.549 403.812 213.555 403.812 214.789V215.039C403.812 216.273 403.464 217.281 402.766 218.062C402.068 218.844 401.135 219.234 399.969 219.234C398.802 219.234 397.87 218.844 397.172 218.062C396.474 217.281 396.125 216.273 396.125 215.039ZM397.578 214.789V215.039C397.578 215.888 397.779 216.604 398.18 217.188C398.581 217.771 399.177 218.062 399.969 218.062C400.76 218.062 401.354 217.771 401.75 217.188C402.151 216.604 402.352 215.888 402.352 215.039V214.789C402.352 213.94 402.151 213.224 401.75 212.641C401.354 212.057 400.76 211.766 399.969 211.766C399.177 211.766 398.581 212.057 398.18 212.641C397.779 213.224 397.578 213.94 397.578 214.789ZM405.164 216.594C405.164 215.771 405.49 215.128 406.141 214.664C406.797 214.201 407.633 213.969 408.648 213.969H410.508V213.398C410.508 212.904 410.38 212.503 410.125 212.195C409.87 211.888 409.43 211.734 408.805 211.734C408.18 211.734 407.732 211.865 407.461 212.125C407.195 212.38 407.062 212.677 407.062 213.016V213.062H405.641V213.016C405.641 212.37 405.927 211.807 406.5 211.328C407.078 210.844 407.859 210.602 408.844 210.602C409.823 210.602 410.581 210.836 411.117 211.305C411.659 211.768 411.93 212.466 411.93 213.398V217.125C411.93 217.464 411.956 217.784 412.008 218.086C412.06 218.383 412.133 218.646 412.227 218.875V219H410.852C410.779 218.87 410.711 218.701 410.648 218.492C410.591 218.284 410.555 218.076 410.539 217.867C410.346 218.206 410.034 218.505 409.602 218.766C409.174 219.026 408.625 219.156 407.953 219.156C407.172 219.156 406.51 218.938 405.969 218.5C405.432 218.057 405.164 217.422 405.164 216.594ZM406.586 216.523C406.586 216.992 406.721 217.359 406.992 217.625C407.263 217.885 407.685 218.016 408.258 218.016C408.831 218.016 409.349 217.818 409.812 217.422C410.276 217.026 410.508 216.607 410.508 216.164V214.992H408.805C408.076 214.992 407.523 215.13 407.148 215.406C406.773 215.682 406.586 216.055 406.586 216.523ZM414.18 219V210.828H415.469L415.523 211.883H415.57C415.867 211.508 416.229 211.214 416.656 211C417.083 210.781 417.557 210.672 418.078 210.672C418.901 210.672 419.555 210.906 420.039 211.375C420.529 211.844 420.773 212.625 420.773 213.719V219H419.352V213.711C419.352 213.055 419.203 212.586 418.906 212.305C418.615 212.018 418.198 211.875 417.656 211.875C417.193 211.875 416.784 212 416.43 212.25C416.076 212.5 415.799 212.823 415.602 213.219V219H414.18Z" fill="#0067FF"/>
<circle cx="388" cy="382" r="24.5" stroke="#45D3DD" stroke-width="3"/>
<path d="M396.367 381.433L387.513 373.748C387.445 373.689 387.358 373.656 387.266 373.656H385.192C385.019 373.656 384.939 373.872 385.07 373.984L393.278 381.109H379.562C379.459 381.109 379.375 381.194 379.375 381.297V382.703C379.375 382.806 379.459 382.891 379.562 382.891H393.276L385.068 390.016C384.937 390.13 385.016 390.344 385.19 390.344H387.334C387.379 390.344 387.423 390.327 387.456 390.297L396.367 382.567C396.448 382.497 396.513 382.409 396.558 382.312C396.603 382.214 396.626 382.108 396.626 382C396.626 381.892 396.603 381.786 396.558 381.688C396.513 381.591 396.448 381.503 396.367 381.433Z" fill="#0067FF"/>
<g filter="url(#filter3_d_1902_12919)">
<circle cx="192" cy="188" r="92" fill="white"/>
</g>
<g clip-path="url(#clip2_1902_12919)">
<path d="M206.071 186.57C203.507 186.57 201.42 184.498 201.42 181.952C201.675 175.825 210.468 175.827 210.723 181.952C210.723 184.498 208.636 186.57 206.071 186.57ZM206.071 179.568C204.739 179.568 203.654 180.637 203.654 181.952C203.787 185.114 208.356 185.113 208.488 181.952C208.488 180.637 207.404 179.568 206.071 179.568Z" fill="#0067FF"/>
<path d="M176.298 186.57C173.733 186.57 171.646 184.498 171.646 181.952C171.902 175.825 180.695 175.827 180.949 181.952C180.949 184.498 178.863 186.57 176.298 186.57ZM176.298 179.568C174.965 179.568 173.881 180.637 173.881 181.952C174.013 185.114 178.583 185.113 178.715 181.952C178.715 180.637 177.63 179.568 176.298 179.568Z" fill="#0067FF"/>
<path d="M201.506 181.072H180.863C181.01 181.798 180.965 182.61 180.744 183.307H201.625C201.404 182.61 201.359 181.798 201.506 181.072Z" fill="#45D3DD"/>
<path d="M170.004 171.059H170.926C173.863 167.536 178.273 165.55 182.939 165.669V171.059H185.174V165.669H191.381C196.239 165.669 199.799 168.963 201.573 171.059H203.796C203.857 171.059 203.919 171.064 203.979 171.074L204.463 171.155C201.771 167.076 196.476 163.282 191.381 163.435L182.505 163.435C176.627 163.395 170.889 166.568 167.797 171.568L167.146 172.538C167.782 171.644 168.826 171.059 170.004 171.059Z" fill="#0067FF"/>
<path d="M217.072 178.174H214.621C214.004 178.174 213.504 177.674 213.504 177.057C213.504 176.44 214.004 175.94 214.621 175.94H217.072C218.553 175.998 218.554 178.115 217.072 178.174Z" fill="#0067FF"/>
<path d="M213.827 172.716L203.98 171.074C203.876 171.022 170.144 171.08 170.004 171.059C168.072 171.059 166.5 172.631 166.5 174.564V182.19C166.5 182.807 167 183.307 167.617 183.307H171.851C171.631 182.61 171.586 181.798 171.732 181.072H168.734V174.564C168.734 173.863 169.304 173.293 170.005 173.293H203.704C203.736 173.298 213.477 174.924 213.507 174.928C214.268 175.032 214.937 175.404 215.427 175.94H217.073C218.555 175.999 218.554 178.116 217.073 178.175H216.266V181.073H210.638C210.784 181.798 210.739 182.61 210.518 183.307H217.383C218 183.307 218.5 182.807 218.5 182.19V178.09C218.5 175.397 216.492 173.09 213.827 172.716Z" fill="#45D3DD"/>
</g>
<path d="M163.891 213.672V212.953C163.891 211.198 164.336 209.833 165.227 208.859C166.117 207.88 167.234 207.391 168.578 207.391C169.922 207.391 170.974 207.76 171.734 208.5C172.495 209.24 172.875 210.133 172.875 211.18V211.266H171.406V211.18C171.406 210.445 171.172 209.841 170.703 209.367C170.234 208.888 169.526 208.648 168.578 208.648C167.646 208.648 166.878 209.003 166.273 209.711C165.674 210.419 165.375 211.5 165.375 212.953V213.672C165.375 215.016 165.674 216.07 166.273 216.836C166.872 217.596 167.641 217.977 168.578 217.977C169.474 217.977 170.151 217.734 170.609 217.25C171.068 216.766 171.331 216.164 171.398 215.445L171.406 215.359H172.875L172.867 215.445C172.768 216.487 172.365 217.38 171.656 218.125C170.948 218.865 169.922 219.234 168.578 219.234C167.229 219.234 166.109 218.747 165.219 217.773C164.333 216.794 163.891 215.427 163.891 213.672ZM174.227 216.594C174.227 215.771 174.552 215.128 175.203 214.664C175.859 214.201 176.695 213.969 177.711 213.969H179.57V213.398C179.57 212.904 179.443 212.503 179.188 212.195C178.932 211.888 178.492 211.734 177.867 211.734C177.242 211.734 176.794 211.865 176.523 212.125C176.258 212.38 176.125 212.677 176.125 213.016V213.062H174.703V213.016C174.703 212.37 174.99 211.807 175.562 211.328C176.141 210.844 176.922 210.602 177.906 210.602C178.885 210.602 179.643 210.836 180.18 211.305C180.721 211.768 180.992 212.466 180.992 213.398V217.125C180.992 217.464 181.018 217.784 181.07 218.086C181.122 218.383 181.195 218.646 181.289 218.875V219H179.914C179.841 218.87 179.773 218.701 179.711 218.492C179.654 218.284 179.617 218.076 179.602 217.867C179.409 218.206 179.096 218.505 178.664 218.766C178.237 219.026 177.688 219.156 177.016 219.156C176.234 219.156 175.573 218.938 175.031 218.5C174.495 218.057 174.227 217.422 174.227 216.594ZM175.648 216.523C175.648 216.992 175.784 217.359 176.055 217.625C176.326 217.885 176.747 218.016 177.32 218.016C177.893 218.016 178.411 217.818 178.875 217.422C179.339 217.026 179.57 216.607 179.57 216.164V214.992H177.867C177.138 214.992 176.586 215.13 176.211 215.406C175.836 215.682 175.648 216.055 175.648 216.523ZM183.242 219V210.828H184.531L184.586 211.883H184.633C184.841 211.539 185.115 211.24 185.453 210.984C185.792 210.729 186.195 210.602 186.664 210.602C186.779 210.602 186.898 210.615 187.023 210.641C187.148 210.661 187.237 210.682 187.289 210.703V212.023C187.185 212.003 187.076 211.987 186.961 211.977C186.846 211.966 186.721 211.961 186.586 211.961C186.122 211.961 185.724 212.083 185.391 212.328C185.062 212.573 184.82 212.88 184.664 213.25V219H183.242ZM192.578 219V207.031H194.008V219H192.578ZM195.875 215.039V214.789C195.875 213.555 196.224 212.549 196.922 211.773C197.62 210.992 198.552 210.602 199.719 210.602C200.885 210.602 201.818 210.992 202.516 211.773C203.214 212.549 203.562 213.555 203.562 214.789V215.039C203.562 216.273 203.214 217.281 202.516 218.062C201.818 218.844 200.885 219.234 199.719 219.234C198.552 219.234 197.62 218.844 196.922 218.062C196.224 217.281 195.875 216.273 195.875 215.039ZM197.328 214.789V215.039C197.328 215.888 197.529 216.604 197.93 217.188C198.331 217.771 198.927 218.062 199.719 218.062C200.51 218.062 201.104 217.771 201.5 217.188C201.901 216.604 202.102 215.888 202.102 215.039V214.789C202.102 213.94 201.901 213.224 201.5 212.641C201.104 212.057 200.51 211.766 199.719 211.766C198.927 211.766 198.331 212.057 197.93 212.641C197.529 213.224 197.328 213.94 197.328 214.789ZM204.914 216.594C204.914 215.771 205.24 215.128 205.891 214.664C206.547 214.201 207.383 213.969 208.398 213.969H210.258V213.398C210.258 212.904 210.13 212.503 209.875 212.195C209.62 211.888 209.18 211.734 208.555 211.734C207.93 211.734 207.482 211.865 207.211 212.125C206.945 212.38 206.812 212.677 206.812 213.016V213.062H205.391V213.016C205.391 212.37 205.677 211.807 206.25 211.328C206.828 210.844 207.609 210.602 208.594 210.602C209.573 210.602 210.331 210.836 210.867 211.305C211.409 211.768 211.68 212.466 211.68 213.398V217.125C211.68 217.464 211.706 217.784 211.758 218.086C211.81 218.383 211.883 218.646 211.977 218.875V219H210.602C210.529 218.87 210.461 218.701 210.398 218.492C210.341 218.284 210.305 218.076 210.289 217.867C210.096 218.206 209.784 218.505 209.352 218.766C208.924 219.026 208.375 219.156 207.703 219.156C206.922 219.156 206.26 218.938 205.719 218.5C205.182 218.057 204.914 217.422 204.914 216.594ZM206.336 216.523C206.336 216.992 206.471 217.359 206.742 217.625C207.013 217.885 207.435 218.016 208.008 218.016C208.581 218.016 209.099 217.818 209.562 217.422C210.026 217.026 210.258 216.607 210.258 216.164V214.992H208.555C207.826 214.992 207.273 215.13 206.898 215.406C206.523 215.682 206.336 216.055 206.336 216.523ZM213.93 219V210.828H215.219L215.273 211.883H215.32C215.617 211.508 215.979 211.214 216.406 211C216.833 210.781 217.307 210.672 217.828 210.672C218.651 210.672 219.305 210.906 219.789 211.375C220.279 211.844 220.523 212.625 220.523 213.719V219H219.102V213.711C219.102 213.055 218.953 212.586 218.656 212.305C218.365 212.018 217.948 211.875 217.406 211.875C216.943 211.875 216.534 212 216.18 212.25C215.826 212.5 215.549 212.823 215.352 213.219V219H213.93Z" fill="#0067FF"/>
<defs>
<filter id="filter0_d_1902_12919" x="244.137" y="262.568" width="293.726" height="293.726" filterUnits="userSpaceOnUse" color-interpolation-filters="sRGB">
<feFlood flood-opacity="0" result="BackgroundImageFix"/>
<feColorMatrix in="SourceAlpha" type="matrix" values="0 0 0 0 0 0 0 0 0 0 0 0 0 0 0 0 0 0 127 0" result="hardAlpha"/>
<feOffset dy="27.4315"/>
<feGaussianBlur stdDeviation="27.4315"/>
<feComposite in2="hardAlpha" operator="out"/>
<feColorMatrix type="matrix" values="0 0 0 0 0 0 0 0 0 0.196875 0 0 0 0 0.495833 0 0 0 0.1 0"/>
<feBlend mode="normal" in2="BackgroundImageFix" result="effect1_dropShadow_1902_12919"/>
<feBlend mode="normal" in="SourceGraphic" in2="effect1_dropShadow_1902_12919" result="shape"/>
</filter>
<filter id="filter1_d_1902_12919" x="45.137" y="262.568" width="293.726" height="293.726" filterUnits="userSpaceOnUse" color-interpolation-filters="sRGB">
<feFlood flood-opacity="0" result="BackgroundImageFix"/>
<feColorMatrix in="SourceAlpha" type="matrix" values="0 0 0 0 0 0 0 0 0 0 0 0 0 0 0 0 0 0 127 0" result="hardAlpha"/>
<feOffset dy="27.4315"/>
<feGaussianBlur stdDeviation="27.4315"/>
<feComposite in2="hardAlpha" operator="out"/>
<feColorMatrix type="matrix" values="0 0 0 0 0 0 0 0 0 0.196875 0 0 0 0 0.495833 0 0 0 0.1 0"/>
<feBlend mode="normal" in2="BackgroundImageFix" result="effect1_dropShadow_1902_12919"/>
<feBlend mode="normal" in="SourceGraphic" in2="effect1_dropShadow_1902_12919" result="shape"/>
</filter>
<filter id="filter2_d_1902_12919" x="244.137" y="68.5685" width="293.726" height="293.726" filterUnits="userSpaceOnUse" color-interpolation-filters="sRGB">
<feFlood flood-opacity="0" result="BackgroundImageFix"/>
<feColorMatrix in="SourceAlpha" type="matrix" values="0 0 0 0 0 0 0 0 0 0 0 0 0 0 0 0 0 0 127 0" result="hardAlpha"/>
<feOffset dy="27.4315"/>
<feGaussianBlur stdDeviation="27.4315"/>
<feComposite in2="hardAlpha" operator="out"/>
<feColorMatrix type="matrix" values="0 0 0 0 0 0 0 0 0 0.196875 0 0 0 0 0.495833 0 0 0 0.1 0"/>
<feBlend mode="normal" in2="BackgroundImageFix" result="effect1_dropShadow_1902_12919"/>
<feBlend mode="normal" in="SourceGraphic" in2="effect1_dropShadow_1902_12919" result="shape"/>
</filter>
<filter id="filter3_d_1902_12919" x="45.137" y="68.5685" width="293.726" height="293.726" filterUnits="userSpaceOnUse" color-interpolation-filters="sRGB">
<feFlood flood-opacity="0" result="BackgroundImageFix"/>
<feColorMatrix in="SourceAlpha" type="matrix" values="0 0 0 0 0 0 0 0 0 0 0 0 0 0 0 0 0 0 127 0" result="hardAlpha"/>
<feOffset dy="27.4315"/>
<feGaussianBlur stdDeviation="27.4315"/>
<feComposite in2="hardAlpha" operator="out"/>
<feColorMatrix type="matrix" values="0 0 0 0 0 0 0 0 0 0.196875 0 0 0 0 0.495833 0 0 0 0.1 0"/>
<feBlend mode="normal" in2="BackgroundImageFix" result="effect1_dropShadow_1902_12919"/>
<feBlend mode="normal" in="SourceGraphic" in2="effect1_dropShadow_1902_12919" result="shape"/>
</filter>
<linearGradient id="paint0_linear_1902_12919" x1="291.5" y1="0" x2="291.5" y2="584" gradientUnits="userSpaceOnUse">
<stop stop-color="#E5EFFE"/>
<stop offset="1" stop-color="#E5EFFE" stop-opacity="0"/>
</linearGradient>
<clipPath id="clip0_1902_12919">
<rect width="52" height="52" fill="white" transform="translate(166.5 343)"/>
</clipPath>
<clipPath id="clip1_1902_12919">
<rect width="52" height="52" fill="white" transform="translate(365.5 149)"/>
</clipPath>
<clipPath id="clip2_1902_12919">
<rect width="52" height="52" fill="white" transform="translate(166.5 149)"/>
</clipPath>
</defs>
</svg>
