<svg width="26" height="26" viewBox="0 0 26 26" fill="none" xmlns="http://www.w3.org/2000/svg">
<rect width="26" height="26" fill="#FF5E5A"/>
<path d="M18.8375 8.59687L17.1734 6.93438C17.0561 6.81647 16.9165 6.72293 16.7629 6.65911C16.6092 6.59529 16.4445 6.56246 16.2781 6.5625C15.9391 6.5625 15.6203 6.69531 15.3813 6.93438L13.5906 8.725C13.4727 8.84238 13.3792 8.98191 13.3154 9.13555C13.2515 9.2892 13.2187 9.45394 13.2188 9.62031C13.2188 9.95938 13.3516 10.2781 13.5906 10.5172L14.9 11.8266C14.5935 12.5021 14.1674 13.1167 13.6422 13.6406C13.1183 14.1671 12.5038 14.5948 11.8281 14.9031L10.5188 13.5938C10.4014 13.4758 10.2618 13.3823 10.1082 13.3185C9.95455 13.2547 9.78981 13.2218 9.62344 13.2219C9.28438 13.2219 8.96563 13.3547 8.72656 13.5938L6.93438 15.3828C6.81633 15.5004 6.7227 15.6402 6.65888 15.7941C6.59506 15.948 6.56231 16.1131 6.5625 16.2797C6.5625 16.6188 6.69531 16.9375 6.93438 17.1766L8.59531 18.8375C8.97656 19.2203 9.50313 19.4375 10.0438 19.4375C10.1578 19.4375 10.2672 19.4281 10.375 19.4094C12.4813 19.0625 14.5703 17.9422 16.2563 16.2578C17.9406 14.575 19.0594 12.4875 19.4109 10.375C19.5172 9.72969 19.3031 9.06562 18.8375 8.59687Z" fill="white"/>
</svg>
