<svg width="100" height="100" viewBox="0 0 100 100" fill="none" xmlns="http://www.w3.org/2000/svg">
<circle opacity="0.2" cx="50" cy="50" r="50" fill="#45D3DD"/>
<g clip-path="url(#clip0_502_24818)">
<path d="M60.1488 75C42.7726 74.7982 21.011 52.4803 25.6862 34.9085C26.6333 29.7571 35.7663 20.8698 41.7047 27.1792C44.0658 29.6806 47.1065 31.6286 47.0283 35.4966C47.0454 37.9367 45.8799 39.8234 44.115 41.4036C42.1165 43.4022 41.9316 46.581 43.6849 48.7977C45.8437 51.5297 48.426 54.1117 51.1582 56.2713C53.3751 58.0244 56.5538 57.8395 58.5523 55.841L59.3613 55.0323C60.7182 53.6753 62.5288 52.9278 64.4596 52.9278C68.3229 52.847 70.2828 55.8962 72.7771 58.2514C79.077 64.2432 70.2213 73.2881 65.0478 74.2699C63.5386 74.7574 61.8958 75 60.1488 75ZM36.781 27.1469C33.1793 27.0056 28.3758 32.2328 27.7948 35.3241C24.0104 49.7294 39.0755 66.3047 52.0361 71.2091C58.3457 73.4654 64.1323 73.785 68.8966 69.7781C72.0726 67.0592 74.5238 63.0282 71.2583 59.7703L68.0391 56.5513C66.1658 54.5969 62.753 54.5975 60.8801 56.5514L60.0712 57.3601C57.3021 60.1293 52.8974 60.3855 49.8257 57.9562C48.3949 56.8245 47.0026 55.5838 45.6875 54.2686C44.3718 52.9529 43.1311 51.5606 42 50.1303C39.5706 47.0588 39.8269 42.6543 42.596 39.8849L43.4049 39.0761C45.3593 37.2045 45.3587 33.789 43.4049 31.9172L40.1857 28.698C39.1491 27.6614 38.0249 27.1469 36.781 27.1469Z" fill="#00149E"/>
<path d="M65.2388 44.8995C64.7432 44.8995 64.2978 44.5546 64.1896 44.0505C63.7527 42.0135 62.7431 40.1582 61.2701 38.6852C59.7749 37.1899 57.8897 36.174 55.8185 35.7473C55.2376 35.6276 54.8636 35.0597 54.9832 34.4787C55.103 33.8978 55.671 33.5238 56.2518 33.6435C58.7355 34.155 60.996 35.3733 62.7889 37.1663C64.5553 38.9326 65.766 41.1573 66.2899 43.6001C66.4143 44.18 66.045 44.751 65.4651 44.8754C65.3892 44.8916 65.3133 44.8995 65.2388 44.8995Z" fill="#45D3DD"/>
<path d="M71.3077 50.9337C71.2376 50.9337 71.1665 50.9269 71.0951 50.9125C70.5136 50.7957 70.1368 50.2296 70.2536 49.6481C71.3723 44.0767 69.6412 38.3518 65.6231 34.3335C61.5976 30.308 55.8631 28.5788 50.2833 29.7081C49.7018 29.8264 49.1353 29.4499 49.0176 28.8684C48.9 28.2871 49.2759 27.7204 49.8572 27.6028C56.1448 26.3302 62.6061 28.2786 67.1421 32.8146C71.6696 37.3423 73.6201 43.7932 72.3596 50.0708C72.2571 50.5811 71.8087 50.9337 71.3077 50.9337Z" fill="#45D3DD"/>
</g>
<defs>
<clipPath id="clip0_502_24818">
<rect width="50" height="50" fill="white" transform="translate(25 25)"/>
</clipPath>
</defs>
</svg>
