<svg width="12" height="12" viewBox="0 0 12 12" fill="none" xmlns="http://www.w3.org/2000/svg">
<path d="M0.52194 1.8119L1.64061 2.93056C1.70413 2.99409 1.79252 3.02724 1.88367 3.02171L8.39126 2.56044L0.614473 10.3372C0.553706 10.398 0.553706 10.4974 0.614473 10.5582L1.44311 11.3868C1.50388 11.4476 1.60332 11.4476 1.66408 11.3868L9.44088 3.61005L8.9796 10.1176C8.9727 10.2074 9.00584 10.2958 9.07075 10.3607L10.1894 11.4794C10.2833 11.5733 10.4463 11.5125 10.4546 11.3799L11.1534 1.51359C11.1598 1.42435 11.1469 1.33479 11.1156 1.25097C11.0843 1.16715 11.0354 1.09104 10.9722 1.02778C10.9089 0.964519 10.8328 0.915596 10.749 0.884325C10.6651 0.853054 10.5756 0.840164 10.4863 0.84653L0.621377 1.54673C0.487414 1.5564 0.428028 1.71798 0.52194 1.8119Z" fill="#8E97A6"/>
</svg>
