<svg width="100" height="100" viewBox="0 0 100 100" fill="none" xmlns="http://www.w3.org/2000/svg">
<circle opacity="0.2" cx="50" cy="50" r="50" fill="#45D3DD"/>
<path d="M73.8527 67.4825C73.5136 67.4825 73.2538 67.6239 73.0449 67.3249L58.3511 46.3001C58.0113 45.8138 58.4114 45.6373 58.8976 45.2975C59.384 44.9576 59.7723 44.5832 60.1121 45.0694L74.8058 66.0942C75.1456 66.5805 74.7846 66.796 74.2984 67.136C74.111 67.2668 74.0651 67.4825 73.8527 67.4825Z" fill="#45D3DD"/>
<path d="M26.4136 67.2845C26.2011 67.2845 25.7591 67.3164 25.5718 67.1855C25.0855 66.8456 24.8547 66.5806 25.1946 66.0942L39.8883 45.0694C40.2281 44.5831 40.4367 44.71 40.9229 45.0499C41.4093 45.3898 41.9891 45.8138 41.6492 46.3002L26.9554 67.3249C26.7466 67.6239 26.7525 67.2845 26.4136 67.2845Z" fill="#45D3DD"/>
<path d="M74.9989 33.2441C74.9871 32.9803 74.8737 32.7201 74.6863 32.532C74.4871 32.3321 74.2079 32.2158 73.9257 32.2158C73.9257 32.2158 26.0748 32.2158 26.0741 32.2158C25.7896 32.2158 25.5081 32.3341 25.3086 32.5369C25.1134 32.7354 25 33.0115 25 33.29V66.71C25 67.3027 25.4805 67.7842 26.0742 67.7842H73.9258C74.5195 67.7842 75 67.3027 75 66.71C75 66.71 75 33.2905 75 33.29C75 33.2747 74.9996 33.2594 74.9989 33.2441ZM70.9863 34.3643L51.3369 50.9385C50.5371 51.6133 49.4629 51.6133 48.6631 50.9385L29.0137 34.3643H70.9863ZM72.8516 65.6357H27.1484V35.6016L47.2773 52.5811C48.0791 53.2568 49.0391 53.5947 50 53.5947C50.9609 53.5947 51.9209 53.2568 52.7227 52.5811L72.8516 35.6016V65.6357Z" fill="#00149E"/>
</svg>
