<svg width="26" height="26" viewBox="0 0 26 26" fill="none" xmlns="http://www.w3.org/2000/svg">
<rect width="26" height="26" fill="#0067FF"/>
<path d="M19.5 7.5H6.5C6.22344 7.5 6 7.72344 6 8V18C6 18.2766 6.22344 18.5 6.5 18.5H19.5C19.7766 18.5 20 18.2766 20 18V8C20 7.72344 19.7766 7.5 19.5 7.5ZM18.2375 9.20156L13.3078 13.0375C13.1859 13.1328 13.0156 13.1328 12.8938 13.0375L7.9625 9.20156C7.94391 9.18722 7.93028 9.16741 7.92351 9.14493C7.91674 9.12245 7.91718 9.09841 7.92476 9.07618C7.93234 9.05396 7.94668 9.03466 7.96578 9.021C7.98488 9.00734 8.00777 9 8.03125 9H18.1687C18.1922 9 18.2151 9.00734 18.2342 9.021C18.2533 9.03466 18.2677 9.05396 18.2752 9.07618C18.2828 9.09841 18.2833 9.12245 18.2765 9.14493C18.2697 9.16741 18.2561 9.18722 18.2375 9.20156Z" fill="white"/>
</svg>
