<svg width="50" height="50" viewBox="0 0 50 50" fill="none" xmlns="http://www.w3.org/2000/svg">
<path d="M48.9258 14.3555H1.07422V16.5039H48.9258V14.3555Z" fill="#45D3DD"/>
<path d="M48.9258 20.7356H1.07422V22.8841H48.9258V20.7356Z" fill="#45D3DD"/>
<path d="M39.3553 35.6445H36.1652C30.5144 35.4294 30.5187 27.3289 36.1652 27.1159H39.3553C45.0062 27.331 45.002 35.4314 39.3553 35.6445ZM36.1652 29.2644C33.3615 29.3711 33.3635 33.3904 36.1652 33.4961H39.3553C42.1592 33.3894 42.1571 29.37 39.3553 29.2644H36.1652Z" fill="#45D3DD"/>
<path d="M12.2393 35.6445H7.45411C6.03038 35.5917 6.03146 33.5484 7.45411 33.4961H12.2393C13.6631 33.5489 13.662 35.5922 12.2393 35.6445Z" fill="#00149E"/>
<path d="M17.0244 29.2644H7.45411C6.03038 29.2115 6.03146 27.1683 7.45411 27.1159H17.0244C18.4483 27.1687 18.4472 29.212 17.0244 29.2644Z" fill="#00149E"/>
<path d="M44.1406 42.0247H5.85938C2.62852 42.0247 0 39.3962 0 36.1653V13.8347C0 10.6038 2.62852 7.9753 5.85938 7.9753H44.1406C47.3715 7.9753 50 10.6038 50 13.8347V36.1654C50 39.3963 47.3715 42.0247 44.1406 42.0247ZM5.85938 10.1236C3.81318 10.1236 2.14844 11.7884 2.14844 13.8346V36.1653C2.14844 38.2115 3.81318 39.8763 5.85938 39.8763H44.1406C46.1868 39.8763 47.8516 38.2115 47.8516 36.1653V13.8347C47.8516 11.7885 46.1868 10.1237 44.1406 10.1237L5.85938 10.1236Z" fill="#00149E"/>
</svg>
