<svg width="50" height="46" viewBox="0 0 50 46" fill="none" xmlns="http://www.w3.org/2000/svg">
<path d="M27.9268 33.6108C27.9728 34.3221 27.9732 35.0454 27.9272 35.7593H31.6026C31.7895 34.9944 32.0863 34.2727 32.4753 33.6108H27.9268Z" fill="#45D3DD"/>
<path d="M48.9259 19.9116H19.3213C20.3966 20.5193 21.3992 21.2409 22.3129 22.0601H47.8517V33.6108H46.3167C46.7058 34.2727 47.0024 34.9944 47.1894 35.7593H48.9259C49.5191 35.7593 50.0001 35.2783 50.0001 34.6851V20.9858C50.0001 20.3925 49.5192 19.9116 48.9259 19.9116Z" fill="#45D3DD"/>
<path d="M43.8457 13.949C43.8457 13.4466 44.2545 13.0378 44.7569 13.0378H46.0475C47.4715 12.9817 47.4728 10.946 46.0475 10.8893H44.7569C43.0698 10.8893 41.6973 12.2619 41.6973 13.949V19.9116H43.8457V13.949Z" fill="#00149E"/>
<path d="M39.3963 29.6399C34.9723 29.6399 31.373 33.2392 31.373 37.6632C31.8138 48.3071 46.9804 48.3039 47.4195 37.6631C47.4196 33.2392 43.8204 29.6399 39.3963 29.6399ZM39.3963 43.538C36.1569 43.538 33.5215 40.9025 33.5215 37.6632C33.8442 29.8694 44.9495 29.8718 45.2711 37.6632C45.2712 40.9025 42.6357 43.538 39.3963 43.538Z" fill="#00149E"/>
<path d="M39.3967 36.5891C37.9721 36.6454 37.9718 38.6809 39.3967 38.7375C40.8219 38.6807 40.8209 36.6453 39.3967 36.5891Z" fill="#00149E"/>
<path d="M11.0043 23.6837C4.93809 23.6837 0.00292969 28.6189 0.00292969 34.6851C0.607227 49.2799 21.4036 49.2756 22.0057 34.685C22.0057 28.6188 17.0705 23.6837 11.0043 23.6837ZM11.0043 43.538C6.12275 43.538 2.15137 39.5666 2.15137 34.6851C2.6377 22.9403 19.3728 22.9438 19.8572 34.6852C19.8572 39.5666 15.8858 43.538 11.0043 43.538Z" fill="#00149E"/>
<path d="M11.0041 29.6399C8.22227 29.6399 5.95898 31.9031 5.95898 34.6851C6.23613 41.378 15.773 41.3761 16.0491 34.6851C16.0492 31.9032 13.786 29.6399 11.0041 29.6399ZM11.0041 37.5817C9.40693 37.5817 8.10742 36.2823 8.10742 34.6851C8.2665 30.8423 13.7422 30.8434 13.9007 34.6851C13.9008 36.2822 12.6014 37.5817 11.0041 37.5817Z" fill="#00149E"/>
<path d="M23.396 19.9116V2.50351C23.5422 2.50351 26.4385 2.50351 26.4829 2.50351L30.9012 19.9115H33.1178L28.6994 2.50351H30.2966C31.7149 2.45009 31.7273 0.414056 30.2966 0.355072H7.69569C6.27723 0.408588 6.26503 2.44462 7.69569 2.50351H8.47713L6.67245 18.2952C4.39764 18.8991 2.25262 19.9727 0.401549 21.4596C-0.0609511 21.8311 -0.134779 22.5073 0.236705 22.9698C0.608189 23.4322 1.28426 23.506 1.74696 23.1347C12.231 14.7233 27.6614 23.6605 25.6425 36.9401C25.4811 38.3476 27.4858 38.6749 27.7662 37.2657C29.5979 26.3519 19.8486 16.319 8.88436 17.8625L10.6396 2.50351H10.8701H21.2475V19.9115H23.396V19.9116Z" fill="#00149E"/>
</svg>
