<svg width="50" height="50" viewBox="0 0 50 50" fill="none" xmlns="http://www.w3.org/2000/svg">
<path d="M16.2275 13.3139C15.6343 13.3139 15.1533 12.8329 15.1533 12.2396V10.6445C15.1533 10.0513 15.6343 9.57031 16.2275 9.57031C16.8208 9.57031 17.3018 10.0513 17.3018 10.6445V12.2396C17.3018 12.8329 16.8208 13.3139 16.2275 13.3139Z" fill="#45D3DD"/>
<path d="M24.2031 24.4792C23.6099 24.4792 23.1289 23.9982 23.1289 23.405V21.81C23.1289 21.2167 23.6099 20.7357 24.2031 20.7357C24.7964 20.7357 25.2773 21.2167 25.2773 21.81V23.405C25.2773 23.9982 24.7964 24.4792 24.2031 24.4792Z" fill="#45D3DD"/>
<path d="M16.2267 24.4793C16.0323 24.4793 15.8354 24.4265 15.6583 24.3159C15.1553 24.0015 15.0023 23.3388 15.3167 22.8356L23.292 10.0753C23.6065 9.57226 24.2693 9.41933 24.7723 9.73369C25.2753 10.0481 25.4284 10.7108 25.1139 11.214L17.1386 23.9744C16.9349 24.3003 16.5848 24.4793 16.2267 24.4793Z" fill="#45D3DD"/>
<path d="M46.4957 22.6453L43.3056 19.4552C42.886 19.0356 42.2059 19.0356 41.7863 19.4552L39.3559 21.8858L37.2399 19.7699V4.26436C37.2399 3.97949 37.1268 3.70625 36.9253 3.50479L33.7353 0.314648C33.3157 -0.104883 32.6355 -0.104883 32.216 0.314648L29.7855 2.74521L27.3551 0.314648C26.9354 -0.104883 26.2554 -0.104883 25.8358 0.314648L23.4053 2.74521L20.9748 0.314648C20.5553 -0.104883 19.8751 -0.104883 19.4556 0.314648L17.0251 2.74521L14.5946 0.314648C14.1751 -0.104883 13.4949 -0.104883 13.0754 0.314648L10.6449 2.74521L8.21445 0.314648C7.79482 -0.104883 7.11475 -0.104883 6.69521 0.314648L3.50508 3.50469C3.30371 3.70615 3.19043 3.97939 3.19043 4.26426V44.1406C3.19043 47.3715 5.81895 50 9.0498 50H40.9509C42.5154 50 43.9867 49.3907 45.0947 48.2838C46.2011 47.1766 46.8103 45.7052 46.8103 44.1406V23.405C46.8104 23.12 46.6971 22.8468 46.4957 22.6453ZM5.33896 44.1406V4.70928L7.45488 2.59336L9.88535 5.02393C10.3049 5.44346 10.9851 5.44346 11.4046 5.02393L13.8351 2.59336L16.2656 5.02393C16.6852 5.44346 17.3653 5.44346 17.7849 5.02393L20.2152 2.59336L22.6457 5.02393C23.0652 5.44336 23.7453 5.44336 24.1649 5.02393L26.5955 2.59336L29.026 5.02393C29.4455 5.44346 30.1257 5.44346 30.5452 5.02393L32.9757 2.59336L35.0916 4.70928C35.0916 8.54727 35.0916 12.3852 35.0916 16.2231C35.0916 23.8702 35.0916 31.5172 35.0916 39.1643C35.0916 39.8104 35.0916 40.4565 35.0916 41.1027C35.0916 41.6166 35.0916 42.1305 35.0916 42.6443C35.0916 43.0268 35.1002 43.4105 35.0892 43.7927C35.0492 45.1812 35.4253 46.5475 36.2669 47.6625C36.3152 47.7266 36.3649 47.7896 36.4158 47.8517H9.0499C7.00371 47.8516 5.33896 46.1868 5.33896 44.1406ZM44.6619 44.1406C44.6619 45.1316 44.2759 46.0637 43.5756 46.7645C42.874 47.4655 41.9419 47.8516 40.951 47.8516C40.8876 47.8516 40.8245 47.8499 40.7619 47.8468C40.7526 47.8463 40.7435 47.8452 40.7342 47.8447C40.6802 47.8416 40.6264 47.8379 40.573 47.8324C40.5697 47.8321 40.5665 47.8315 40.5633 47.8312C38.8251 47.6499 37.4399 46.264 37.2601 44.5254C37.2599 44.5232 37.2595 44.5211 37.2593 44.5189C37.2538 44.4652 37.25 44.411 37.2469 44.3567C37.2464 44.3478 37.2453 44.3388 37.2449 44.3298C37.2418 44.2671 37.2401 44.2041 37.2401 44.1406V22.8082L38.5964 24.1646C39.0159 24.5841 39.6961 24.5841 40.1156 24.1646L42.5461 21.734L44.662 23.8499L44.6619 44.1406Z" fill="#00149E"/>
<path d="M29.7852 30.8594H10.6445C10.0513 30.8594 9.57031 30.3784 9.57031 29.7852C9.57031 29.1919 10.0513 28.7109 10.6445 28.7109H29.7852C30.3784 28.7109 30.8594 29.1919 30.8594 29.7852C30.8594 30.3784 30.3784 30.8594 29.7852 30.8594Z" fill="#00149E"/>
<path d="M29.7852 43.6198H10.6445C10.0513 43.6198 9.57031 43.1389 9.57031 42.5456C9.57031 41.9523 10.0513 41.4714 10.6445 41.4714H29.7852C30.3784 41.4714 30.8594 41.9523 30.8594 42.5456C30.8594 43.1389 30.3784 43.6198 29.7852 43.6198Z" fill="#00149E"/>
<path d="M23.405 37.2397H10.6445C10.0513 37.2397 9.57031 36.7587 9.57031 36.1654C9.57031 35.5722 10.0513 35.0912 10.6445 35.0912H23.4049C23.9981 35.0912 24.4791 35.5722 24.4791 36.1654C24.4791 36.7587 23.9982 37.2397 23.405 37.2397Z" fill="#45D3DD"/>
</svg>
