<svg width="50" height="50" viewBox="0 0 50 50" fill="none" xmlns="http://www.w3.org/2000/svg">
<g clip-path="url(#clip0_219_12955)">
<path d="M22.0861 48.8948H19.9377V38.0528C19.9377 36.3423 18.5461 34.9507 16.8355 34.9507C15.125 34.9507 13.7334 36.3423 13.7334 38.0528V48.8747H11.585V38.0528C11.585 35.1576 13.9403 32.8022 16.8355 32.8022C19.7308 32.8022 22.0861 35.1576 22.0861 38.0528V48.8948Z" fill="#45D3DD"/>
<path d="M38.5505 43.3198H28.1211C27.5278 43.3198 27.0469 42.8389 27.0469 42.2456V33.8765C27.0469 33.2832 27.5278 32.8022 28.1211 32.8022H38.5505C39.1437 32.8022 39.6247 33.2832 39.6247 33.8765V42.2456C39.6247 42.839 39.1437 43.3198 38.5505 43.3198ZM29.1953 41.1714H37.4763V34.9507H29.1953V41.1714Z" fill="#45D3DD"/>
<path d="M47.0026 7.50069C46.9332 7.48682 46.8625 7.47979 46.7918 7.47979H42.6199L42.6219 4.43311C42.6226 3.25742 42.1653 2.15205 41.3343 1.32051C40.5032 0.48887 39.398 0.0309601 38.2225 0.0309601H12.0266C9.79258 0.0309601 7.97519 1.84844 7.97519 4.08242V7.45733L3.25947 7.4541C3.20117 7.45537 3.14346 7.45879 3.08613 7.46807C1.26904 7.76397 0 9.29893 0 11.2011V23.8812C0 26.1538 1.50107 28.0817 3.5624 28.7232V48.8948C3.5624 49.4881 4.04336 49.969 4.63662 49.969H45.6427C46.2359 49.969 46.7169 49.4881 46.7169 48.8948V28.6264C48.6329 27.9036 49.9999 26.0496 49.9999 23.8812V11.2906C50 9.4125 48.7674 7.85401 47.0026 7.50069ZM31.9011 23.8717C31.9011 23.8749 31.9006 23.8779 31.9006 23.8812C31.9006 25.4917 30.5936 26.802 28.9872 26.802C27.3808 26.802 26.0738 25.4917 26.0738 23.8812V9.61787L31.9011 9.62178V23.8717ZM23.9254 23.8792C23.9254 23.8799 23.9253 23.8805 23.9253 23.8811C23.9253 25.4916 22.6184 26.8019 21.0119 26.8019C19.4073 26.8019 18.1018 25.4946 18.0986 23.8867C18.0986 23.8849 18.0988 23.883 18.0988 23.8811C18.0988 23.8791 18.0985 23.8773 18.0985 23.8754V9.6125L23.9254 9.61641V23.8792ZM34.0495 9.62324L39.8763 9.62715V23.8812C39.8763 25.4917 38.5693 26.802 36.9629 26.802C35.3564 26.802 34.0495 25.4917 34.0495 23.8812V9.62324ZM10.1236 4.08242C10.1236 3.03311 10.9772 2.1794 12.0266 2.1794H38.2224C38.8238 2.1794 39.3892 2.41367 39.8145 2.83916C40.2397 3.26465 40.4737 3.83018 40.4733 4.43174L40.4714 7.4791L10.1235 7.45869L10.1236 4.08242ZM10.1236 9.60713L15.9501 9.61104V23.8811C15.9501 23.8829 15.9502 23.8848 15.9502 23.8867C15.9472 25.4946 14.6415 26.8019 13.037 26.8019C11.4306 26.8019 10.1236 25.4916 10.1236 23.8811V9.60713ZM2.14844 23.8812V11.2011C2.14844 10.3892 2.63066 9.75645 3.35635 9.60264L7.97519 9.60576V23.8812C7.97519 25.4917 6.66826 26.802 5.06182 26.802C3.45537 26.8019 2.14844 25.4916 2.14844 23.8812ZM5.71084 47.8206V28.9072C7.0624 28.7331 8.24824 28.0236 9.04941 26.998C9.97666 28.1851 11.4188 28.9504 13.037 28.9504C14.6551 28.9504 16.0972 28.1852 17.0244 26.9981C17.9517 28.1852 19.3937 28.9504 21.0119 28.9504C22.6301 28.9504 24.0723 28.1851 24.9995 26.998C25.9268 28.1852 27.3689 28.9504 28.9871 28.9504C30.6055 28.9504 32.0477 28.185 32.975 26.9977C33.9022 28.185 35.3445 28.9504 36.9628 28.9504C38.581 28.9504 40.0231 28.1851 40.9504 26.998C41.8063 28.0939 43.1013 28.8288 44.5683 28.9355V47.8207L5.71084 47.8206ZM47.8516 23.8812C47.8516 25.4917 46.5446 26.802 44.9382 26.802C43.3317 26.802 42.0248 25.4917 42.0248 23.8812C42.0248 23.8805 42.0247 23.8799 42.0247 23.8793V9.62832H46.672C47.3918 9.81504 47.8516 10.4573 47.8516 11.2907V23.8812Z" fill="#00149E"/>
</g>
<defs>
<clipPath id="clip0_219_12955">
<rect width="50" height="50" fill="white"/>
</clipPath>
</defs>
</svg>
