<svg width="26" height="26" viewBox="0 0 26 26" fill="none" xmlns="http://www.w3.org/2000/svg">
<rect width="26" height="26" fill="#00B2FF"/>
<path d="M18.3531 9.51719C18.059 8.83888 17.6348 8.22472 17.1047 7.70938C16.5728 7.18937 15.9458 6.77665 15.2578 6.49375C14.5422 6.19688 13.7828 6.04688 13 6.04688C12.2172 6.04688 11.4578 6.19688 10.7422 6.49219C10.05 6.77812 9.42969 7.1875 8.89531 7.70781C8.3655 8.22345 7.94143 8.83753 7.64687 9.51562C7.34219 10.2188 7.1875 10.9656 7.1875 11.7344C7.1875 12.8375 7.45156 13.9359 7.97031 14.9953C8.3875 15.8469 8.97031 16.6766 9.70469 17.4656C10.9594 18.8125 12.275 19.6359 12.6484 19.8562C12.7544 19.9189 12.8753 19.9518 12.9984 19.9516C13.1203 19.9516 13.2406 19.9203 13.3484 19.8562C13.7219 19.6359 15.0375 18.8125 16.2922 17.4656C17.0266 16.6781 17.6094 15.8469 18.0266 14.9953C18.5484 13.9375 18.8125 12.8406 18.8125 11.7359C18.8125 10.9672 18.6578 10.2203 18.3531 9.51719ZM13 14.6094C11.4813 14.6094 10.25 13.3781 10.25 11.8594C10.25 10.3406 11.4813 9.10938 13 9.10938C14.5188 9.10938 15.75 10.3406 15.75 11.8594C15.75 13.3781 14.5188 14.6094 13 14.6094Z" fill="white"/>
</svg>
