<svg width="199" height="30" viewBox="0 0 199 30" fill="none" xmlns="http://www.w3.org/2000/svg">
<path d="M19.4547 15.2913V10.5458C18.611 10.5458 16.9941 11.0731 16.291 11.3367C19.191 13.7094 19.4547 15.2913 19.4547 15.2913Z" fill="#28C2CD"/>
<path fill-rule="evenodd" clip-rule="evenodd" d="M15.2376 0.0470351V0H9.96484V5.27278H10.0118C10.9194 2.8672 12.832 0.954624 15.2376 0.0470351Z" fill="#4398E5"/>
<path fill-rule="evenodd" clip-rule="evenodd" d="M8.91 0C4.21878 0.490233 0.490738 4.21795 0 8.90902H8.91V0Z" fill="#00B3FF"/>
<path fill-rule="evenodd" clip-rule="evenodd" d="M19.4023 0.000488281C14.712 0.491483 10.9848 4.21883 10.4941 8.90929H19.4023V0.000488281Z" fill="#FF5E5A"/>
<path fill-rule="evenodd" clip-rule="evenodd" d="M21.0293 8.90894C25.7197 8.41794 29.4468 4.69058 29.9375 0.000113487H21.0293V8.90894Z" fill="#FFB966"/>
<path fill-rule="evenodd" clip-rule="evenodd" d="M21.0293 19.4543C25.7197 18.9634 29.4468 15.236 29.9375 10.5456H21.0293V19.4543Z" fill="#45D3DD"/>
<path fill-rule="evenodd" clip-rule="evenodd" d="M10.4844 10.5458C15.1757 11.0359 18.9038 14.7637 19.3945 19.4548H10.4844V10.5458Z" fill="#0067FF"/>
<path fill-rule="evenodd" clip-rule="evenodd" d="M19.4023 30C14.7119 29.509 10.9848 25.7816 10.4941 21.0911H19.4023V30Z" fill="#00149E"/>
<path d="M41.9375 7.53906V4.67969H55.543V7.53906H50.6094V21.7422H46.8711V7.53906H41.9375Z" fill="#001B44"/>
<path d="M56.0117 21.7422V9.75391H59.5039L59.5625 11.125H59.6094C59.8672 10.6641 60.2188 10.2695 60.6641 9.94141C61.1172 9.60547 61.625 9.4375 62.1875 9.4375C62.3672 9.4375 62.543 9.45703 62.7148 9.49609C62.8945 9.53516 63.0234 9.57031 63.1016 9.60156V12.5898C62.9609 12.5508 62.8047 12.5234 62.6328 12.5078C62.4688 12.4844 62.2852 12.4727 62.082 12.4727C61.5586 12.4727 61.0742 12.6328 60.6289 12.9531C60.1914 13.2656 59.8633 13.6719 59.6445 14.1719V21.7422H56.0117Z" fill="#001B44"/>
<path d="M63.793 18.2266C63.793 16.9141 64.3008 15.9219 65.3164 15.25C66.332 14.5703 67.6289 14.2266 69.207 14.2188H71.6797V13.5273C71.6797 12.9883 71.543 12.5586 71.2695 12.2383C70.9961 11.9102 70.5195 11.7461 69.8398 11.7461C69.168 11.7461 68.6836 11.8828 68.3867 12.1562C68.0898 12.4219 67.9414 12.7617 67.9414 13.1758V13.375L64.4609 13.3633V13.1641C64.4609 12.0703 64.9727 11.1719 65.9961 10.4688C67.0195 9.76562 68.3594 9.41406 70.0156 9.41406C71.6875 9.41406 72.9805 9.75 73.8945 10.4219C74.8164 11.0938 75.2773 12.1445 75.2773 13.5742V19.0352C75.2773 19.5273 75.3203 19.9961 75.4062 20.4414C75.5 20.8789 75.6211 21.25 75.7695 21.5547V21.7422H72.2305C72.1289 21.5625 72.043 21.332 71.9727 21.0508C71.9023 20.7617 71.8516 20.4766 71.8203 20.1953C71.5781 20.6484 71.1211 21.0547 70.4492 21.4141C69.7773 21.7734 68.9414 21.9531 67.9414 21.9531C66.7383 21.9531 65.7461 21.6445 64.9648 21.0273C64.1836 20.4023 63.793 19.4688 63.793 18.2266ZM67.3906 17.9219C67.3906 18.4453 67.5391 18.8633 67.8359 19.1758C68.1406 19.4805 68.6094 19.6328 69.2422 19.6328C69.9297 19.6328 70.5078 19.4102 70.9766 18.9648C71.4453 18.5195 71.6797 17.9961 71.6797 17.3945V16.293H69.875C69.0312 16.293 68.4062 16.4297 68 16.7031C67.5938 16.9766 67.3906 17.3828 67.3906 17.9219Z" fill="#001B44"/>
<path d="M77.4805 15.9297V15.5547C77.4805 13.7734 77.9609 12.3242 78.9219 11.207C79.8828 10.082 81.1328 9.51953 82.6719 9.51953C83.4531 9.51953 84.1289 9.65625 84.6992 9.92969C85.2695 10.1953 85.7109 10.5508 86.0234 10.9961V4H89.5859V21.7422H86.1641L86.1055 20.2891H86.0586C85.7852 20.7656 85.3477 21.168 84.7461 21.4961C84.1523 21.8164 83.4648 21.9766 82.6836 21.9766C81.0664 21.9766 79.793 21.4141 78.8633 20.2891C77.9414 19.1641 77.4805 17.7109 77.4805 15.9297ZM81.1484 16.0469C81.1484 17.0234 81.3555 17.8164 81.7695 18.4258C82.1914 19.0273 82.8203 19.3281 83.6562 19.3281C84.2266 19.3281 84.7109 19.1719 85.1094 18.8594C85.5078 18.5469 85.8008 18.1719 85.9883 17.7344V13.7266C85.8086 13.2969 85.5234 12.9297 85.1328 12.625C84.75 12.3125 84.2578 12.1562 83.6562 12.1562C82.8281 12.1562 82.2031 12.4609 81.7812 13.0703C81.3594 13.6797 81.1484 14.4688 81.1484 15.4375V16.0469Z" fill="#001B44"/>
<path d="M91.7539 15.918V15.543C91.7539 13.6914 92.3203 12.207 93.4531 11.0898C94.5938 9.96484 96.0625 9.40234 97.8594 9.40234C99.6641 9.40234 101.07 9.92969 102.078 10.9844C103.094 12.0391 103.602 13.4961 103.602 15.3555V16.5625H94.0625V14.4414H100.062V14.2188C100.062 13.5859 99.8711 13.0547 99.4883 12.625C99.1133 12.1875 98.5664 11.9688 97.8477 11.9688C97.0273 11.9688 96.4023 12.2734 95.9727 12.8828C95.5508 13.4844 95.3398 14.2891 95.3398 15.2969V16.0703C95.3398 17.1172 95.5703 17.9453 96.0312 18.5547C96.4922 19.1562 97.168 19.457 98.0586 19.457C98.6836 19.457 99.2188 19.3086 99.6641 19.0117C100.117 18.7148 100.48 18.3594 100.754 17.9453L103.414 19.3867C103.031 20.1836 102.383 20.832 101.469 21.332C100.555 21.832 99.4375 22.082 98.1172 22.082C96.125 22.082 94.5664 21.5234 93.4414 20.4062C92.3164 19.2812 91.7539 17.7852 91.7539 15.918Z" fill="#001B44"/>
<path d="M111.676 21.7422V4.67969H122.703V7.53906H115.402V12.0977H121.777V14.8633H115.402V21.7422H111.676Z" fill="#001B44"/>
<path d="M124.297 17.1953V9.75391H127.906V17.1484C127.906 17.9453 128.066 18.5 128.387 18.8125C128.715 19.1172 129.156 19.2695 129.711 19.2695C130.219 19.2695 130.668 19.1211 131.059 18.8242C131.457 18.5273 131.754 18.1562 131.949 17.7109V9.75391H135.559V21.7422H132.102L132.043 20.3242H131.984C131.641 20.8398 131.156 21.2461 130.531 21.543C129.914 21.8398 129.203 21.9883 128.398 21.9883C127.195 21.9883 126.211 21.6211 125.445 20.8867C124.68 20.1523 124.297 18.9219 124.297 17.1953Z" fill="#001B44"/>
<path d="M138.348 21.7422V9.75391H141.805L141.863 11.1602H141.922C142.227 10.668 142.691 10.2656 143.316 9.95312C143.941 9.64062 144.648 9.48438 145.438 9.48438C146.672 9.48438 147.676 9.83203 148.449 10.5273C149.223 11.2227 149.609 12.4297 149.609 14.1484V21.7422H146.012V14.2305C146.012 13.4961 145.852 12.9805 145.531 12.6836C145.219 12.3867 144.773 12.2383 144.195 12.2383C143.719 12.2383 143.277 12.375 142.871 12.6484C142.465 12.9219 142.16 13.3047 141.957 13.7969V21.7422H138.348Z" fill="#001B44"/>
<path d="M151.66 15.9297V15.5547C151.66 13.7734 152.141 12.3242 153.102 11.207C154.062 10.082 155.312 9.51953 156.852 9.51953C157.633 9.51953 158.309 9.65625 158.879 9.92969C159.449 10.1953 159.891 10.5508 160.203 10.9961V4H163.766V21.7422H160.344L160.285 20.2891H160.238C159.965 20.7656 159.527 21.168 158.926 21.4961C158.332 21.8164 157.645 21.9766 156.863 21.9766C155.246 21.9766 153.973 21.4141 153.043 20.2891C152.121 19.1641 151.66 17.7109 151.66 15.9297ZM155.328 16.0469C155.328 17.0234 155.535 17.8164 155.949 18.4258C156.371 19.0273 157 19.3281 157.836 19.3281C158.406 19.3281 158.891 19.1719 159.289 18.8594C159.688 18.5469 159.98 18.1719 160.168 17.7344V13.7266C159.988 13.2969 159.703 12.9297 159.312 12.625C158.93 12.3125 158.438 12.1562 157.836 12.1562C157.008 12.1562 156.383 12.4609 155.961 13.0703C155.539 13.6797 155.328 14.4688 155.328 15.4375V16.0469Z" fill="#001B44"/>
<path d="M166.613 21.7422V9.75391H170.234V21.7422H166.613ZM166.332 6.23828C166.332 5.69922 166.512 5.24609 166.871 4.87891C167.23 4.51172 167.75 4.32812 168.43 4.32812C169.102 4.32812 169.617 4.51172 169.977 4.87891C170.336 5.24609 170.516 5.69922 170.516 6.23828C170.516 6.77734 170.332 7.23438 169.965 7.60938C169.605 7.97656 169.09 8.16016 168.418 8.16016C167.746 8.16016 167.23 7.97656 166.871 7.60938C166.512 7.23438 166.332 6.77734 166.332 6.23828Z" fill="#001B44"/>
<path d="M173.059 21.7422V9.75391H176.516L176.574 11.1602H176.633C176.938 10.668 177.402 10.2656 178.027 9.95312C178.652 9.64062 179.359 9.48438 180.148 9.48438C181.383 9.48438 182.387 9.83203 183.16 10.5273C183.934 11.2227 184.32 12.4297 184.32 14.1484V21.7422H180.723V14.2305C180.723 13.4961 180.562 12.9805 180.242 12.6836C179.93 12.3867 179.484 12.2383 178.906 12.2383C178.43 12.2383 177.988 12.375 177.582 12.6484C177.176 12.9219 176.871 13.3047 176.668 13.7969V21.7422H173.059Z" fill="#001B44"/>
<path d="M187.062 25.2812L188.375 23.0195C188.672 23.3008 189.156 23.5742 189.828 23.8398C190.5 24.1133 191.219 24.25 191.984 24.25C192.812 24.25 193.5 23.9961 194.047 23.4883C194.602 22.9883 194.879 22.1953 194.879 21.1094V20.418C194.566 20.8945 194.125 21.2695 193.555 21.543C192.984 21.8164 192.293 21.9531 191.48 21.9531C189.949 21.9531 188.715 21.4023 187.777 20.3008C186.84 19.1914 186.371 17.7344 186.371 15.9297V15.5547C186.371 13.7422 186.832 12.2852 187.754 11.1836C188.684 10.0742 189.926 9.51953 191.48 9.51953C192.238 9.51953 192.926 9.67578 193.543 9.98828C194.168 10.293 194.617 10.6875 194.891 11.1719H194.949L195.008 9.75391H198.453V20.875C198.453 22.8047 197.879 24.2852 196.73 25.3164C195.582 26.3555 194.109 26.875 192.312 26.875C191.227 26.875 190.23 26.7227 189.324 26.418C188.418 26.1133 187.664 25.7344 187.062 25.2812ZM190.027 16.0469C190.027 17.0234 190.234 17.8125 190.648 18.4141C191.07 19.0156 191.711 19.3164 192.57 19.3164C193.133 19.3164 193.613 19.1523 194.012 18.8242C194.41 18.4961 194.695 18.1211 194.867 17.6992V13.832C194.688 13.3477 194.395 12.9492 193.988 12.6367C193.59 12.3164 193.102 12.1562 192.523 12.1562C191.688 12.1562 191.062 12.4609 190.648 13.0703C190.234 13.6797 190.027 14.4688 190.027 15.4375V16.0469Z" fill="#001B44"/>
</svg>
