<svg width="16" height="16" viewBox="0 0 16 16" fill="none" xmlns="http://www.w3.org/2000/svg">
<path d="M6.78575 8L0.633407 0.666406C0.530282 0.544531 0.617 0.359375 0.776375 0.359375H2.64669C2.75684 0.359375 2.86231 0.408594 2.93497 0.492969L8.00919 6.54219L13.0834 0.492969C13.1537 0.408594 13.2592 0.359375 13.3717 0.359375H15.242C15.4014 0.359375 15.4881 0.544531 15.385 0.666406L9.23262 8L15.385 15.3336C15.4081 15.3608 15.4229 15.394 15.4277 15.4293C15.4325 15.4647 15.427 15.5006 15.4119 15.533C15.3969 15.5653 15.3729 15.5926 15.3427 15.6117C15.3126 15.6308 15.2777 15.6408 15.242 15.6406H13.3717C13.2615 15.6406 13.1561 15.5914 13.0834 15.507L8.00919 9.45781L2.93497 15.507C2.86466 15.5914 2.75919 15.6406 2.64669 15.6406H0.776375C0.617 15.6406 0.530282 15.4555 0.633407 15.3336L6.78575 8Z" fill="#8E97A6"/>
</svg>
