<svg width="159" height="24" viewBox="0 0 159 24" fill="none" xmlns="http://www.w3.org/2000/svg">
<path d="M15.562 12.2336V8.4375C14.8871 8.4375 13.5936 8.85929 13.0312 9.07018C15.3511 10.9682 15.562 12.2336 15.562 12.2336Z" fill="#28C2CD"/>
<path fill-rule="evenodd" clip-rule="evenodd" d="M12.1876 0.0384711V0.000976562H7.96973V4.21886H8.00722C8.73325 2.29449 10.2632 0.764497 12.1876 0.0384711Z" fill="#4398E5"/>
<path fill-rule="evenodd" clip-rule="evenodd" d="M7.12793 0C3.37488 0.391977 0.392369 3.37424 0 7.12717H7.12793V0Z" fill="#00B3FF"/>
<path fill-rule="evenodd" clip-rule="evenodd" d="M15.5205 0.000976562C11.7679 0.393369 8.78589 3.37544 8.39355 7.12804H15.5205V0.000976562Z" fill="#FF5E5A"/>
<path fill-rule="evenodd" clip-rule="evenodd" d="M16.8223 7.12695C20.5749 6.73456 23.5569 3.75249 23.9492 -0.000114441H16.8223V7.12695Z" fill="#FFB966"/>
<path fill-rule="evenodd" clip-rule="evenodd" d="M16.8223 15.5645C20.5746 15.1721 23.5566 12.1904 23.9492 8.43812H16.8223V15.5645Z" fill="#45D3DD"/>
<path fill-rule="evenodd" clip-rule="evenodd" d="M8.3877 8.43652C12.1407 8.8285 15.1233 11.8108 15.5156 15.5637H8.3877V8.43652Z" fill="#0067FF"/>
<path fill-rule="evenodd" clip-rule="evenodd" d="M15.5205 24C11.7679 23.6076 8.78589 20.6255 8.39355 16.8729H15.5205V24Z" fill="#00149E"/>
<path d="M33.1797 6.03317V3.74585H44.0632V6.03317H40.1166V17.3948H37.1262V6.03317H33.1797Z" fill="#001B44"/>
<path d="M44.4381 17.3948V7.8049H47.2317L47.2785 8.90169H47.316C47.5223 8.53297 47.8035 8.21737 48.1597 7.95489C48.5222 7.68616 48.9284 7.5518 49.3784 7.5518C49.5221 7.5518 49.6627 7.56742 49.8002 7.59867C49.944 7.62992 50.0471 7.65804 50.1096 7.68304V10.0735C49.9971 10.0422 49.8721 10.0203 49.7346 10.0078C49.6034 9.9891 49.4565 9.97972 49.294 9.97972C48.8753 9.97972 48.4878 10.1078 48.1316 10.3641C47.7816 10.614 47.5191 10.939 47.3442 11.339V17.3948H44.4381Z" fill="#001B44"/>
<path d="M50.6626 14.5825C50.6626 13.5326 51.0689 12.7389 51.8813 12.2014C52.6937 11.6577 53.7311 11.3827 54.9935 11.3765H56.9715V10.8234C56.9715 10.3922 56.8621 10.0485 56.6434 9.79224C56.4247 9.52976 56.0435 9.39852 55.4998 9.39852C54.9623 9.39852 54.5748 9.50789 54.3373 9.72662C54.0999 9.9391 53.9811 10.211 53.9811 10.5422V10.7015L51.197 10.6922V10.5328C51.197 9.65788 51.6063 8.93918 52.425 8.37673C53.2437 7.81428 54.3155 7.53305 55.6404 7.53305C56.9778 7.53305 58.012 7.80178 58.7432 8.33923C59.4807 8.87669 59.8494 9.71725 59.8494 10.8609V15.2293C59.8494 15.623 59.8838 15.998 59.9525 16.3542C60.0275 16.7042 60.1244 17.001 60.2431 17.2448V17.3948H57.4121C57.3309 17.251 57.2621 17.0667 57.2059 16.8417C57.1496 16.6104 57.109 16.3823 57.084 16.1574C56.8903 16.5198 56.5247 16.8448 55.9872 17.1323C55.4498 17.4197 54.7811 17.5635 53.9811 17.5635C53.0187 17.5635 52.225 17.3166 51.6001 16.8229C50.9751 16.323 50.6626 15.5761 50.6626 14.5825ZM53.5405 14.3387C53.5405 14.7575 53.6593 15.0918 53.8968 15.3418C54.1405 15.5855 54.5155 15.7074 55.0217 15.7074C55.5716 15.7074 56.0341 15.5293 56.4091 15.1731C56.784 14.8168 56.9715 14.3981 56.9715 13.9169V13.0357H55.5279C54.8529 13.0357 54.353 13.1451 54.028 13.3638C53.703 13.5826 53.5405 13.9075 53.5405 14.3387Z" fill="#001B44"/>
<path d="M61.6118 12.7451V12.4452C61.6118 11.0203 61.9961 9.86098 62.7648 8.96731C63.5335 8.06738 64.5334 7.61742 65.7645 7.61742C66.3895 7.61742 66.9301 7.72678 67.3863 7.94551C67.8425 8.158 68.1956 8.44235 68.4456 8.79857V3.20215H71.2953V17.3948H68.5581L68.5112 16.2323H68.4737C68.255 16.6136 67.905 16.9354 67.4238 17.1979C66.9488 17.4541 66.3989 17.5822 65.7739 17.5822C64.4803 17.5822 63.4616 17.1323 62.7179 16.2323C61.9805 15.3324 61.6118 14.17 61.6118 12.7451ZM64.5459 12.8389C64.5459 13.6201 64.7115 14.2544 65.0427 14.7418C65.3802 15.2231 65.8833 15.4637 66.552 15.4637C67.0082 15.4637 67.3957 15.3387 67.7144 15.0887C68.0331 14.8387 68.2675 14.5387 68.4175 14.1888V10.9828C68.2737 10.639 68.0456 10.3453 67.7331 10.1016C67.4269 9.85161 67.0332 9.72662 66.552 9.72662C65.8895 9.72662 65.3896 9.97035 65.0521 10.4578C64.7146 10.9453 64.5459 11.5765 64.5459 12.3514V12.8389Z" fill="#001B44"/>
<path d="M73.0296 12.7358V12.4358C73.0296 10.9546 73.4827 9.76724 74.3888 8.87356C75.3013 7.97364 76.4762 7.52367 77.9136 7.52367C79.3572 7.52367 80.4821 7.94551 81.2883 8.7892C82.1007 9.63288 82.5069 10.7984 82.5069 12.2858V13.2513H74.8763V11.5546H79.6759V11.3765C79.6759 10.8703 79.5228 10.4453 79.2166 10.1016C78.9166 9.75162 78.4791 9.57663 77.9042 9.57663C77.248 9.57663 76.748 9.82036 76.4043 10.3078C76.0668 10.789 75.8981 11.4327 75.8981 12.2389V12.8576C75.8981 13.695 76.0825 14.3575 76.4512 14.845C76.8199 15.3262 77.3605 15.5668 78.0729 15.5668C78.5729 15.5668 79.001 15.448 79.3572 15.2106C79.7197 14.9731 80.0103 14.6887 80.229 14.3575L82.3569 15.5105C82.0507 16.148 81.532 16.6667 80.8008 17.0667C80.0696 17.4666 79.176 17.6666 78.1198 17.6666C76.5262 17.6666 75.2794 17.2198 74.3795 16.3261C73.4795 15.4262 73.0296 14.2294 73.0296 12.7358Z" fill="#001B44"/>
<path d="M88.9658 17.3948V3.74585H97.7869V6.03317H91.9468V9.67975H97.0464V11.8921H91.9468V17.3948H88.9658Z" fill="#001B44"/>
<path d="M99.0618 13.7575V7.8049H101.949V13.72C101.949 14.3575 102.077 14.8012 102.333 15.0512C102.596 15.2949 102.949 15.4168 103.393 15.4168C103.799 15.4168 104.158 15.298 104.471 15.0606C104.79 14.8231 105.027 14.5262 105.183 14.17V7.8049H108.07V17.3948H105.305L105.258 16.2605H105.211C104.936 16.6729 104.549 16.9979 104.049 17.2354C103.555 17.4729 102.987 17.5916 102.343 17.5916C101.38 17.5916 100.593 17.2979 99.9805 16.7104C99.3681 16.123 99.0618 15.1387 99.0618 13.7575Z" fill="#001B44"/>
<path d="M110.302 17.3948V7.8049H113.067L113.114 8.92981H113.161C113.404 8.53609 113.776 8.21424 114.276 7.96426C114.776 7.71428 115.342 7.58929 115.973 7.58929C116.96 7.58929 117.763 7.8674 118.382 8.4236C119.001 8.97981 119.31 9.94535 119.31 11.3202V17.3948H116.432V11.3859C116.432 10.7984 116.304 10.3859 116.048 10.1485C115.798 9.91098 115.442 9.79224 114.979 9.79224C114.598 9.79224 114.245 9.90161 113.92 10.1203C113.595 10.3391 113.351 10.6453 113.189 11.039V17.3948H110.302Z" fill="#001B44"/>
<path d="M120.951 12.7451V12.4452C120.951 11.0203 121.335 9.86098 122.104 8.96731C122.872 8.06738 123.872 7.61742 125.103 7.61742C125.728 7.61742 126.269 7.72678 126.725 7.94551C127.181 8.158 127.535 8.44235 127.785 8.79857V3.20215H130.634V17.3948H127.897L127.85 16.2323H127.813C127.594 16.6136 127.244 16.9354 126.763 17.1979C126.288 17.4541 125.738 17.5822 125.113 17.5822C123.819 17.5822 122.801 17.1323 122.057 16.2323C121.319 15.3324 120.951 14.17 120.951 12.7451ZM123.885 12.8389C123.885 13.6201 124.05 14.2544 124.382 14.7418C124.719 15.2231 125.222 15.4637 125.891 15.4637C126.347 15.4637 126.735 15.3387 127.053 15.0887C127.372 14.8387 127.606 14.5387 127.756 14.1888V10.9828C127.613 10.639 127.385 10.3453 127.072 10.1016C126.766 9.85161 126.372 9.72662 125.891 9.72662C125.228 9.72662 124.729 9.97035 124.391 10.4578C124.054 10.9453 123.885 11.5765 123.885 12.3514V12.8389Z" fill="#001B44"/>
<path d="M132.912 17.3948V7.8049H135.809V17.3948H132.912ZM132.687 4.99263C132.687 4.56141 132.831 4.19894 133.118 3.90522C133.406 3.61149 133.822 3.46463 134.365 3.46463C134.903 3.46463 135.315 3.61149 135.603 3.90522C135.89 4.19894 136.034 4.56141 136.034 4.99263C136.034 5.42384 135.887 5.78944 135.593 6.08941C135.306 6.38314 134.893 6.53 134.356 6.53C133.818 6.53 133.406 6.38314 133.118 6.08941C132.831 5.78944 132.687 5.42384 132.687 4.99263Z" fill="#001B44"/>
<path d="M138.068 17.3948V7.8049H140.833L140.88 8.92981H140.927C141.171 8.53609 141.543 8.21424 142.043 7.96426C142.543 7.71428 143.108 7.58929 143.739 7.58929C144.727 7.58929 145.53 7.8674 146.149 8.4236C146.767 8.97981 147.077 9.94535 147.077 11.3202V17.3948H144.199V11.3859C144.199 10.7984 144.071 10.3859 143.814 10.1485C143.564 9.91098 143.208 9.79224 142.746 9.79224C142.365 9.79224 142.011 9.90161 141.687 10.1203C141.362 10.3391 141.118 10.6453 140.955 11.039V17.3948H138.068Z" fill="#001B44"/>
<path d="M149.27 20.2258L150.32 18.4165C150.558 18.6415 150.945 18.8603 151.483 19.0727C152.02 19.2915 152.595 19.4008 153.207 19.4008C153.87 19.4008 154.42 19.1977 154.857 18.7915C155.301 18.3915 155.523 17.7572 155.523 16.8885V16.3355C155.273 16.7167 154.92 17.0167 154.464 17.2354C154.007 17.4541 153.454 17.5635 152.804 17.5635C151.579 17.5635 150.592 17.1229 149.842 16.2417C149.092 15.3543 148.717 14.1888 148.717 12.7451V12.4452C148.717 10.9953 149.086 9.82974 149.823 8.94856C150.567 8.06113 151.561 7.61742 152.804 7.61742C153.411 7.61742 153.961 7.74241 154.454 7.99239C154.954 8.23612 155.314 8.55172 155.532 8.93918H155.579L155.626 7.8049H158.382V16.7011C158.382 18.2447 157.923 19.429 157.004 20.2539C156.085 21.0851 154.907 21.5007 153.47 21.5007C152.601 21.5007 151.804 21.3788 151.079 21.1351C150.355 20.8913 149.751 20.5882 149.27 20.2258ZM151.642 12.8389C151.642 13.6201 151.808 14.2513 152.139 14.7325C152.476 15.2137 152.989 15.4543 153.676 15.4543C154.126 15.4543 154.51 15.323 154.829 15.0606C155.148 14.7981 155.376 14.4981 155.514 14.1606V11.0671C155.37 10.6797 155.135 10.3609 154.81 10.111C154.492 9.85474 154.101 9.72662 153.639 9.72662C152.97 9.72662 152.47 9.97035 152.139 10.4578C151.808 10.9453 151.642 11.5765 151.642 12.3514V12.8389Z" fill="#001B44"/>
</svg>
