<svg width="100" height="100" viewBox="0 0 100 100" fill="none" xmlns="http://www.w3.org/2000/svg">
<circle opacity="0.2" cx="50" cy="50" r="50" fill="#45D3DD"/>
<g clip-path="url(#clip0_291_12946)">
<path d="M43.1226 69.127C43.1226 67.8125 42.4413 66.0131 39.1957 64.9064C38.0786 64.5254 36.747 63.8424 36.747 62.7514C36.7432 60.8974 39.0204 59.9531 40.3257 61.2694C41.3896 62.2523 42.8519 60.7896 41.8687 59.7259C41.3245 59.1818 40.6595 58.8031 39.9347 58.613V57.9697C39.9347 57.367 39.4461 56.8784 38.8434 56.8784C38.2407 56.8784 37.7522 57.367 37.7522 57.9697V58.6138C35.9197 59.0975 34.5645 60.7689 34.5645 62.7513C34.5645 64.0659 35.2457 65.8653 38.4913 66.972C39.6084 67.3529 40.9401 68.0361 40.9401 69.1269C40.9401 70.283 39.9997 71.2235 38.8436 71.2235C37.4614 71.2235 36.2822 70.4858 36.2497 70.4651C35.7455 70.1382 35.0716 70.2802 34.7426 70.7834C34.4128 71.2877 34.5542 71.9641 35.0587 72.294C35.1153 72.331 36.2266 73.0471 37.7524 73.3101V73.9088C37.7524 74.5115 38.241 75 38.8437 75C39.4464 75 39.935 74.5115 39.935 73.9088V73.2646C41.7673 72.7808 43.1226 71.1095 43.1226 69.127Z" fill="#00149E"/>
<path d="M43.2678 38.4766C49.003 34.2393 46.0665 25.0463 38.8425 25C31.6182 25.0465 28.6824 34.2407 34.4174 38.4766C28.948 40.3267 25 45.5079 25 51.5939C25 52.1966 25.4886 52.6852 26.0913 52.6852H51.5939C52.1966 52.6852 52.6852 52.1966 52.6852 51.5939C52.6852 45.5078 48.7372 40.3267 43.2678 38.4766ZM33.5582 32.4669C33.5582 29.5531 35.9288 27.1825 38.8426 27.1825C45.853 27.4728 45.851 37.4621 38.8426 37.7513C35.9288 37.7513 33.5582 35.3808 33.5582 32.4669ZM27.2331 50.5027C28.9368 36.488 48.7538 36.4984 50.452 50.5027H27.2331Z" fill="#45D3DD"/>
<path d="M68.2112 63.9797C72.2519 60.4533 69.7728 53.7093 64.3461 53.6904C58.9192 53.7093 56.4403 60.4543 60.481 63.9797C56.5111 65.5305 53.6914 69.3963 53.6914 73.9087C53.6914 74.5114 54.18 75 54.7827 75H73.9097C74.5123 75 75.0009 74.5114 75.0009 73.9087C75.0009 69.3963 72.1812 65.5304 68.2112 63.9797ZM60.6557 59.5634C60.6557 57.5285 62.3112 55.873 64.3462 55.873C69.2421 56.0756 69.2406 63.0519 64.3462 63.2539C62.3112 63.2539 60.6557 61.5984 60.6557 59.5634ZM55.9439 72.8174C57.4516 63.0281 71.2445 63.0353 72.7485 72.8174H55.9439Z" fill="#45D3DD"/>
<path d="M68.3052 44.4465C67.879 44.0203 67.188 44.0203 66.7618 44.4465L65.4369 45.7715V38.8423C65.4369 33.8463 61.3724 29.7817 56.3764 29.7817C55.7737 29.7817 55.2852 30.2703 55.2852 30.873C55.2852 31.4757 55.7737 31.9643 56.3764 31.9643C60.169 31.9643 63.2544 35.0498 63.2544 38.8423V45.7714L61.9295 44.4465C60.8669 43.4641 59.4028 44.9246 60.3861 45.9899L63.5739 49.1777C63.9807 49.5994 64.7106 49.5994 65.1173 49.1777L68.3051 45.9899C68.7313 45.5637 68.7313 44.8727 68.3052 44.4465Z" fill="#00149E"/>
</g>
<defs>
<clipPath id="clip0_291_12946">
<rect width="50" height="50" fill="white" transform="translate(25 25)"/>
</clipPath>
</defs>
</svg>
