<svg width="100" height="100" viewBox="0 0 100 100" fill="none" xmlns="http://www.w3.org/2000/svg">
<circle opacity="0.2" cx="50" cy="50" r="50" fill="#45D3DD"/>
<g clip-path="url(#clip0_291_12948)">
<path d="M75 34.8214C75 29.4059 70.5941 25 65.1786 25C62.2477 25 59.613 26.291 57.8119 28.3335C55.3494 27.2421 52.7263 26.6865 50 26.6865C47.2738 26.6865 44.6507 27.2421 42.1881 28.3335C40.387 26.2909 37.7523 25 34.8214 25C29.4059 25 25 29.4059 25 34.8214C25 38.8 27.378 42.2336 30.7873 43.7757C30.6998 44.5252 30.6548 45.2809 30.6548 46.0317C30.6548 49.673 31.6723 53.221 33.5973 56.292C35.3077 59.0206 37.6678 61.2746 40.4561 62.8587C40.2751 63.6028 40.1786 64.3796 40.1786 65.1786C40.1786 70.5941 44.5844 75 50 75C55.4156 75 59.8214 70.5941 59.8214 65.1786C59.8214 64.3795 59.7248 63.6026 59.5438 62.8583C62.3321 61.2741 64.6923 59.0205 66.4027 56.292C68.3277 53.2209 69.3452 49.673 69.3452 46.0317C69.3452 45.281 69.2999 44.5254 69.2123 43.7759C72.6218 42.2339 75 38.8001 75 34.8214ZM50 48.9087C48.4136 48.9087 47.123 47.6181 47.123 46.0317C47.123 44.4454 48.4136 43.1548 50 43.1548C51.5863 43.1548 52.877 44.4454 52.877 46.0317C52.877 47.6181 51.5863 48.9087 50 48.9087ZM27.1825 34.8214C27.1825 30.6093 30.6093 27.1825 34.8214 27.1825C39.0335 27.1825 42.4603 30.6093 42.4603 34.8214C42.4603 39.0335 39.0335 42.4603 34.8214 42.4603C30.6093 42.4603 27.1825 39.0335 27.1825 34.8214ZM32.8373 46.0317C32.8373 45.5075 32.8634 44.9808 32.9117 44.4559C33.5297 44.5782 34.1682 44.6429 34.8214 44.6429C40.237 44.6429 44.6429 40.237 44.6429 34.8214C44.6429 33.1355 44.2157 31.5475 43.4642 30.1598C45.2002 29.4417 47.0234 29.0205 48.9087 28.9038V41.0921C46.6419 41.5926 44.9405 43.6167 44.9405 46.0317C44.9405 46.563 45.0233 47.0754 45.1759 47.5568L34.613 53.6554C33.4646 51.3338 32.8373 48.7384 32.8373 46.0317ZM50 72.8175C45.7879 72.8175 42.3611 69.3907 42.3611 65.1786C42.3611 60.9665 45.7879 57.5397 50 57.5397C54.2121 57.5397 57.6389 60.9665 57.6389 65.1786C57.6389 69.3907 54.2121 72.8175 50 72.8175ZM58.7795 60.7798C57.1632 57.5669 53.835 55.3571 50 55.3571C46.166 55.3571 42.8385 57.5659 41.2217 60.7774C38.9745 59.4413 37.1038 57.6469 35.7039 55.5457L46.2695 49.4457C47.1952 50.4563 48.5247 51.0913 50 51.0913C51.4752 51.0913 52.8048 50.4564 53.7305 49.4456L64.2969 55.5461C62.897 57.6479 61.027 59.4436 58.7795 60.7798ZM67.1627 46.0317C67.1627 48.7383 66.5365 51.3343 65.3883 53.6562L54.8241 47.5569C54.9767 47.0754 55.0595 46.563 55.0595 46.0317C55.0595 43.6167 53.3581 41.5926 51.0913 41.0921V28.9041C52.9765 29.0211 54.7997 29.4421 56.5356 30.1602C55.7842 31.5478 55.3571 33.1357 55.3571 34.8214C55.3571 40.237 59.763 44.6429 65.1786 44.6429C65.8316 44.6429 66.4699 44.5782 67.0878 44.456C67.136 44.9809 67.1627 45.5075 67.1627 46.0317ZM65.1786 42.4603C60.9665 42.4603 57.5397 39.0335 57.5397 34.8214C57.5397 30.6093 60.9665 27.1825 65.1786 27.1825C69.3907 27.1825 72.8175 30.6093 72.8175 34.8214C72.8175 39.0335 69.3907 42.4603 65.1786 42.4603Z" fill="#00149E"/>
<path d="M53.4882 67.6285C53.9772 66.9347 54.2656 66.09 54.2656 65.1785C54.2656 62.8263 52.3519 60.9126 49.9997 60.9126C47.6475 60.9126 45.7338 62.8263 45.7338 65.1785C45.7338 66.09 46.0222 66.9347 46.5113 67.6285C45.4333 68.0627 44.5388 68.8569 43.9805 69.8733C44.4582 70.4845 45.0263 71.0216 45.6653 71.4637C46.0299 70.2804 47.1246 69.4443 48.4124 69.4443H51.587C52.8748 69.4443 53.9699 70.2802 54.3344 71.4636C54.9734 71.0214 55.5414 70.4844 56.0191 69.8732C55.4607 68.8568 54.5662 68.0626 53.4882 67.6285ZM49.9997 63.0951C51.1484 63.0951 52.083 64.0298 52.083 65.1785C52.083 66.3272 51.1484 67.2618 49.9997 67.2618C48.8509 67.2618 47.9164 66.3272 47.9164 65.1785C47.9164 64.0298 48.8509 63.0951 49.9997 63.0951Z" fill="#45D3DD"/>
<path d="M38.3096 37.2717C38.7984 36.5779 39.0865 35.733 39.0865 34.8215C39.0865 32.4694 37.1728 30.5557 34.8206 30.5557C32.4684 30.5557 30.5547 32.4694 30.5547 34.8215C30.5547 35.733 30.8433 36.5775 31.3324 37.2712C30.2542 37.7053 29.3593 38.4994 28.8008 39.5157C29.2787 40.1271 29.8466 40.6643 30.4858 41.1066C30.8505 39.9232 31.9455 39.0874 33.2333 39.0874H36.4079C37.6957 39.0874 38.7908 39.9232 39.1553 41.1067C39.7942 40.6646 40.3621 40.1276 40.8398 39.5166C40.2816 38.5003 39.3873 37.7061 38.3096 37.2717ZM34.8206 32.7382C35.9694 32.7382 36.904 33.6728 36.904 34.8215C36.904 35.9702 35.9694 36.9049 34.8206 36.9049C33.6718 36.9049 32.7373 35.9702 32.7373 34.8215C32.7373 33.6728 33.6718 32.7382 34.8206 32.7382Z" fill="#45D3DD"/>
<path d="M68.5899 37.2413C69.0655 36.5532 69.3448 35.7195 69.3448 34.8215C69.3448 32.4694 67.4311 30.5557 65.0789 30.5557C62.7268 30.5557 60.8131 32.4694 60.8131 34.8215C60.8131 35.7467 61.1101 36.6034 61.6126 37.3031C60.5689 37.7435 59.7033 38.5237 59.1582 39.5155C59.6362 40.1271 60.2043 40.6644 60.8436 41.1068C61.2081 39.9232 62.303 39.0874 63.5908 39.0874H66.7654C68.0532 39.0874 69.1483 39.9232 69.5129 41.1067C70.1519 40.6645 70.7197 40.1275 71.1975 39.5163C70.626 38.4759 69.7022 37.6682 68.5899 37.2413ZM65.0789 32.7382C66.2276 32.7382 67.1623 33.6728 67.1623 34.8215C67.1623 35.9702 66.2276 36.9049 65.0789 36.9049C63.9302 36.9049 62.9956 35.9702 62.9956 34.8215C62.9956 33.6728 63.9302 32.7382 65.0789 32.7382Z" fill="#45D3DD"/>
</g>
<defs>
<clipPath id="clip0_291_12948">
<rect width="50" height="50" fill="white" transform="translate(25 25)"/>
</clipPath>
</defs>
</svg>
