<svg width="100" height="100" viewBox="0 0 100 100" fill="none" xmlns="http://www.w3.org/2000/svg">
<circle opacity="0.2" cx="50" cy="50" r="50" fill="#45D3DD"/>
<path d="M73.9258 52.8022C73.3325 52.8022 72.8516 52.3213 72.8516 51.728V28.7285C72.8516 28.1353 73.3325 27.6543 73.9258 27.6543C74.519 27.6543 75 28.1353 75 28.7285V51.728C75 52.3213 74.519 52.8022 73.9258 52.8022Z" fill="#45D3DD"/>
<path d="M71.8241 51.6778H72.8519V49.5294H69.6521L57.1095 37.1228C56.9084 36.9238 56.6369 36.8122 56.3541 36.8122H51.9954C51.7093 36.8122 51.4351 36.9263 51.2334 37.1293L48.4569 39.9236C47.3273 41.0531 45.4895 41.0531 44.3601 39.9236L43.4349 38.9984L50.0326 32.4006C50.2083 32.2228 50.4326 32.0505 50.6854 31.8912C51.4742 31.3938 52.5456 31.0249 53.3259 31.0249C53.3259 31.0249 70.9217 31.0249 72.8519 31.0249V28.8765H53.3259C52.3559 28.8765 51.1883 29.207 50.1729 29.7205C49.135 29.1931 47.9713 28.8765 47.0154 28.8765H27.1487V31.0249H47.0154C47.3533 31.0249 47.7563 31.0968 48.1724 31.2226L41.1562 38.2388C40.7366 38.6583 40.7366 39.3385 41.1562 39.758L42.8409 41.4428C44.8081 43.4099 48.0089 43.4098 49.9785 41.4403L52.4424 38.9606H55.9125L70.5482 53.4377C70.9453 53.8348 71.1642 54.3629 71.1642 54.9245C71.1718 56.7832 68.8854 57.7287 67.5749 56.4114C67.5748 56.4113 67.5746 56.4113 67.5745 56.4112C66.5254 55.4437 65.0886 56.8839 66.0554 57.9305C66.8752 58.7504 66.8752 60.0845 66.0554 60.9043C65.2355 61.7241 63.9016 61.724 63.0818 60.9043C62.6486 60.4652 61.9112 60.4901 61.5105 60.96C61.1412 61.3858 61.1638 62.0248 61.5624 62.4233C62.3731 63.1998 62.3733 64.6205 61.5626 65.397C60.7863 66.2073 59.3653 66.2076 58.5892 65.397L58.2843 65.092L58.2842 65.0919C57.8646 64.6725 57.1846 64.6725 56.765 65.0919C56.3455 65.5113 56.3454 66.1915 56.7648 66.611C57.1596 67.0058 57.3771 67.5339 57.3771 68.098C57.3771 68.6621 57.1597 69.1902 56.765 69.5849C55.9886 70.3953 54.5678 70.3955 53.7914 69.5849C53.7792 69.5814 51.6792 67.5106 51.6676 67.5056L52.884 66.2892C55.6428 63.5124 53.4841 58.8051 49.6244 59.0426C49.817 56.5225 47.5932 54.3589 45.1316 54.5497C45.3231 52.0573 43.1324 49.8669 40.6403 50.0584C40.8774 46.1972 36.1691 44.041 33.3937 46.7988L30.663 49.5295H27.1487V51.6779H28.5146C25.4566 54.4122 27.4612 59.3634 31.5335 59.1652C31.3394 61.684 33.5779 63.8869 36.093 63.6515C35.9399 66.2284 38.2763 68.3962 40.8336 68.0574C40.7764 70.3287 42.7578 72.3724 45.0831 72.3259C46.2208 72.3257 47.2881 71.8848 48.0882 71.0847L50.1483 69.0246L52.2764 71.108C53.0764 71.9059 54.1423 72.3451 55.2783 72.3451C57.5599 72.3913 59.5588 70.4036 59.5255 68.1225C62.127 68.4952 64.5077 66.2817 64.3159 63.659C66.8091 63.8453 68.9947 61.6608 68.8104 59.1683C72.8966 59.3613 74.8824 54.3848 71.8241 51.6778ZM32.7667 56.4113C31.9469 57.2312 30.6129 57.2312 29.7932 56.4113C28.9825 55.6348 28.9824 54.2144 29.7932 53.4378L34.9129 48.3181C36.9665 46.4276 39.7772 49.2373 37.8865 51.2916L32.7667 56.4113ZM37.2594 60.904C36.483 61.7144 35.0623 61.7147 34.2859 60.9039C33.4753 60.1273 33.4752 58.7069 34.2859 57.9305L39.4058 52.8107C40.7239 51.5021 42.9943 52.4262 42.9913 54.2977C42.9913 54.8617 42.7739 55.3897 42.3791 55.7844L37.2594 60.904ZM41.8225 65.3266C41.4278 65.7213 40.8998 65.9386 40.3356 65.9386C39.1996 65.961 38.2142 64.9759 38.2368 63.8397C38.2368 63.2757 38.4542 62.7477 38.8489 62.3529L43.8983 57.3034H43.8982C44.7182 56.4836 46.0522 56.4835 46.872 57.3034C47.6826 58.08 47.6827 59.5006 46.872 60.2771L41.8225 65.3266ZM49.3709 66.7638L46.569 69.5655C46.1745 69.9602 45.6463 70.1775 45.082 70.1775C43.2211 70.1881 42.2793 67.9043 43.5946 66.593L48.3912 61.7963C50.4434 59.9063 53.2561 62.7146 51.3648 64.7698C51.3602 64.7745 49.3752 66.7595 49.3709 66.7638Z" fill="#00149E"/>
<path d="M26.0742 52.8022C25.481 52.8022 25 52.3213 25 51.728V28.7285C25 28.1353 25.481 27.6543 26.0742 27.6543C26.6675 27.6543 27.1484 28.1353 27.1484 28.7285V51.728C27.1484 52.3213 26.6675 52.8022 26.0742 52.8022Z" fill="#45D3DD"/>
</svg>
