<svg width="20" height="20" viewBox="0 0 20 20" fill="none" xmlns="http://www.w3.org/2000/svg">
<path d="M17.7359 6.89555L12.7769 6.17484L10.5601 1.6807C10.4996 1.55765 10.4 1.45805 10.2769 1.3975C9.96833 1.24515 9.59333 1.37211 9.43903 1.6807L7.22223 6.17484L2.26325 6.89555C2.12653 6.91508 2.00153 6.97953 1.90583 7.07719C1.79013 7.19611 1.72637 7.35609 1.72857 7.52199C1.73077 7.6879 1.79874 7.84614 1.91755 7.96195L5.50544 11.46L4.65778 16.3995C4.6379 16.5144 4.65062 16.6325 4.69449 16.7406C4.73835 16.8486 4.81161 16.9422 4.90596 17.0107C5.00031 17.0793 5.11198 17.12 5.22829 17.1283C5.3446 17.1366 5.46091 17.1121 5.56403 17.0577L9.99958 14.7256L14.4351 17.0577C14.5562 17.1221 14.6968 17.1436 14.8316 17.1202C15.1715 17.0616 15.4 16.7393 15.3414 16.3995L14.4937 11.46L18.0816 7.96195C18.1793 7.86625 18.2437 7.74125 18.2633 7.60453C18.316 7.26273 18.0777 6.94633 17.7359 6.89555Z" fill="#FFB966"/>
</svg>
